%TF.GenerationSoftware,KiCad,Pcbnew,9.0.0*%
%TF.CreationDate,2026-01-04T22:11:22+00:00*%
%TF.ProjectId,Dpad,44706164-2e6b-4696-9361-645f70636258,rev?*%
%TF.SameCoordinates,Original*%
%TF.FileFunction,Copper,L1,Top*%
%TF.FilePolarity,Positive*%
%FSLAX46Y46*%
G04 Gerber Fmt 4.6, Leading zero omitted, Abs format (unit mm)*
G04 Created by KiCad (PCBNEW 9.0.0) date 2026-01-04 22:11:22*
%MOMM*%
%LPD*%
G01*
G04 APERTURE LIST*
%TA.AperFunction,ComponentPad*%
%ADD10C,2.000000*%
%TD*%
%TA.AperFunction,ComponentPad*%
%ADD11C,2.200000*%
%TD*%
%TA.AperFunction,Conductor*%
%ADD12C,0.200000*%
%TD*%
G04 APERTURE END LIST*
D10*
%TO.P,SW3,1,1*%
%TO.N,GND*%
X25198000Y-25944000D03*
X31698000Y-25944000D03*
%TO.P,SW3,2,2*%
%TO.N,Net-(U1-Down)*%
X25198000Y-30444000D03*
X31698000Y-30444000D03*
%TD*%
%TO.P,SW4,1,1*%
%TO.N,Net-(U1-Left)*%
X15598000Y-18106000D03*
X22098000Y-18106000D03*
%TO.P,SW4,2,2*%
%TO.N,GND*%
X15598000Y-22606000D03*
X22098000Y-22606000D03*
%TD*%
%TO.P,SW2,1,1*%
%TO.N,GND*%
X34850000Y-18070000D03*
X41350000Y-18070000D03*
%TO.P,SW2,2,2*%
%TO.N,Net-(U1-Right)*%
X34850000Y-22570000D03*
X41350000Y-22570000D03*
%TD*%
%TO.P,SW1,1,1*%
%TO.N,GND*%
X25250000Y-10232000D03*
X31750000Y-10232000D03*
%TO.P,SW1,2,2*%
%TO.N,Net-(U1-Up)*%
X25250000Y-14732000D03*
X31750000Y-14732000D03*
%TD*%
D11*
%TO.P,U1,1,GND*%
%TO.N,GND*%
X3556000Y-14478000D03*
%TO.P,U1,2,Up*%
%TO.N,Net-(U1-Up)*%
X3556000Y-17018000D03*
%TO.P,U1,3,Down*%
%TO.N,Net-(U1-Down)*%
X3556000Y-19558000D03*
%TO.P,U1,4,Left*%
%TO.N,Net-(U1-Left)*%
X3556000Y-22098000D03*
%TO.P,U1,5,Right*%
%TO.N,Net-(U1-Right)*%
X3556000Y-24638000D03*
%TD*%
D12*
%TO.N,GND*%
X34850000Y-18070000D02*
X25436000Y-18070000D01*
X25198000Y-25944000D02*
X25198000Y-21844000D01*
X11954000Y-14462000D02*
X16184000Y-10232000D01*
X24436000Y-22606000D02*
X25198000Y-21844000D01*
X22098000Y-22606000D02*
X24436000Y-22606000D01*
X25198000Y-21844000D02*
X25198000Y-21590000D01*
X11954000Y-14478000D02*
X3556000Y-14478000D01*
X21844000Y-14478000D02*
X11954000Y-14478000D01*
X16184000Y-10232000D02*
X25250000Y-10232000D01*
X25198000Y-17832000D02*
X21844000Y-14478000D01*
X11954000Y-14478000D02*
X11954000Y-14462000D01*
X25436000Y-18070000D02*
X25198000Y-17832000D01*
X25198000Y-21590000D02*
X25198000Y-17832000D01*
%TO.N,Net-(U1-Up)*%
X1524000Y-12700000D02*
X1524000Y-14986000D01*
X25250000Y-14732000D02*
X28194000Y-11788000D01*
X28194000Y-11788000D02*
X28194000Y-10668000D01*
X28194000Y-10668000D02*
X25908000Y-8382000D01*
X5334000Y-11684000D02*
X2540000Y-11684000D01*
X2540000Y-11684000D02*
X1524000Y-12700000D01*
X25908000Y-8382000D02*
X8636000Y-8382000D01*
X1524000Y-14986000D02*
X3556000Y-17018000D01*
X8636000Y-8382000D02*
X5334000Y-11684000D01*
%TO.N,Net-(U1-Right)*%
X34850000Y-22570000D02*
X34850000Y-32206000D01*
X11938000Y-33020000D02*
X3556000Y-24638000D01*
X34850000Y-32206000D02*
X34036000Y-33020000D01*
X34036000Y-33020000D02*
X11938000Y-33020000D01*
%TO.N,Net-(U1-Down)*%
X18796000Y-18034000D02*
X18796000Y-24042000D01*
X5842000Y-17272000D02*
X14592108Y-17272000D01*
X3556000Y-19558000D02*
X5842000Y-17272000D01*
X18796000Y-24042000D02*
X25198000Y-30444000D01*
X15059108Y-16805000D02*
X17567000Y-16805000D01*
X17567000Y-16805000D02*
X18796000Y-18034000D01*
X14592108Y-17272000D02*
X15059108Y-16805000D01*
%TO.N,Net-(U1-Left)*%
X11606000Y-22098000D02*
X3556000Y-22098000D01*
X15598000Y-18106000D02*
X11606000Y-22098000D01*
%TD*%
M02*
