%TF.GenerationSoftware,KiCad,Pcbnew,9.0.0*%
%TF.CreationDate,2026-01-17T10:43:27+00:00*%
%TF.ProjectId,NaeTime Split Timer,4e616554-696d-4652-9053-706c69742054,rev?*%
%TF.SameCoordinates,Original*%
%TF.FileFunction,Legend,Top*%
%TF.FilePolarity,Positive*%
%FSLAX46Y46*%
G04 Gerber Fmt 4.6, Leading zero omitted, Abs format (unit mm)*
G04 Created by KiCad (PCBNEW 9.0.0) date 2026-01-17 10:43:27*
%MOMM*%
%LPD*%
G01*
G04 APERTURE LIST*
%ADD10C,0.300000*%
%ADD11C,0.100000*%
%ADD12C,0.150000*%
%ADD13C,0.000000*%
%ADD14C,0.120000*%
G04 APERTURE END LIST*
D10*
X107948796Y-139270828D02*
X107234510Y-139270828D01*
X107234510Y-139270828D02*
X107163082Y-139985114D01*
X107163082Y-139985114D02*
X107234510Y-139913685D01*
X107234510Y-139913685D02*
X107377368Y-139842257D01*
X107377368Y-139842257D02*
X107734510Y-139842257D01*
X107734510Y-139842257D02*
X107877368Y-139913685D01*
X107877368Y-139913685D02*
X107948796Y-139985114D01*
X107948796Y-139985114D02*
X108020225Y-140127971D01*
X108020225Y-140127971D02*
X108020225Y-140485114D01*
X108020225Y-140485114D02*
X107948796Y-140627971D01*
X107948796Y-140627971D02*
X107877368Y-140699400D01*
X107877368Y-140699400D02*
X107734510Y-140770828D01*
X107734510Y-140770828D02*
X107377368Y-140770828D01*
X107377368Y-140770828D02*
X107234510Y-140699400D01*
X107234510Y-140699400D02*
X107163082Y-140627971D01*
X108448796Y-139270828D02*
X108948796Y-140770828D01*
X108948796Y-140770828D02*
X109448796Y-139270828D01*
X203198796Y-140540828D02*
X202484510Y-140540828D01*
X202484510Y-140540828D02*
X202413082Y-141255114D01*
X202413082Y-141255114D02*
X202484510Y-141183685D01*
X202484510Y-141183685D02*
X202627368Y-141112257D01*
X202627368Y-141112257D02*
X202984510Y-141112257D01*
X202984510Y-141112257D02*
X203127368Y-141183685D01*
X203127368Y-141183685D02*
X203198796Y-141255114D01*
X203198796Y-141255114D02*
X203270225Y-141397971D01*
X203270225Y-141397971D02*
X203270225Y-141755114D01*
X203270225Y-141755114D02*
X203198796Y-141897971D01*
X203198796Y-141897971D02*
X203127368Y-141969400D01*
X203127368Y-141969400D02*
X202984510Y-142040828D01*
X202984510Y-142040828D02*
X202627368Y-142040828D01*
X202627368Y-142040828D02*
X202484510Y-141969400D01*
X202484510Y-141969400D02*
X202413082Y-141897971D01*
X203698796Y-140540828D02*
X204198796Y-142040828D01*
X204198796Y-142040828D02*
X204698796Y-140540828D01*
D11*
X156466265Y-143334800D02*
X156609122Y-143382419D01*
X156609122Y-143382419D02*
X156847217Y-143382419D01*
X156847217Y-143382419D02*
X156942455Y-143334800D01*
X156942455Y-143334800D02*
X156990074Y-143287180D01*
X156990074Y-143287180D02*
X157037693Y-143191942D01*
X157037693Y-143191942D02*
X157037693Y-143096704D01*
X157037693Y-143096704D02*
X156990074Y-143001466D01*
X156990074Y-143001466D02*
X156942455Y-142953847D01*
X156942455Y-142953847D02*
X156847217Y-142906228D01*
X156847217Y-142906228D02*
X156656741Y-142858609D01*
X156656741Y-142858609D02*
X156561503Y-142810990D01*
X156561503Y-142810990D02*
X156513884Y-142763371D01*
X156513884Y-142763371D02*
X156466265Y-142668133D01*
X156466265Y-142668133D02*
X156466265Y-142572895D01*
X156466265Y-142572895D02*
X156513884Y-142477657D01*
X156513884Y-142477657D02*
X156561503Y-142430038D01*
X156561503Y-142430038D02*
X156656741Y-142382419D01*
X156656741Y-142382419D02*
X156894836Y-142382419D01*
X156894836Y-142382419D02*
X157037693Y-142430038D01*
X157466265Y-142715752D02*
X157466265Y-143715752D01*
X157466265Y-142763371D02*
X157561503Y-142715752D01*
X157561503Y-142715752D02*
X157751979Y-142715752D01*
X157751979Y-142715752D02*
X157847217Y-142763371D01*
X157847217Y-142763371D02*
X157894836Y-142810990D01*
X157894836Y-142810990D02*
X157942455Y-142906228D01*
X157942455Y-142906228D02*
X157942455Y-143191942D01*
X157942455Y-143191942D02*
X157894836Y-143287180D01*
X157894836Y-143287180D02*
X157847217Y-143334800D01*
X157847217Y-143334800D02*
X157751979Y-143382419D01*
X157751979Y-143382419D02*
X157561503Y-143382419D01*
X157561503Y-143382419D02*
X157466265Y-143334800D01*
X158513884Y-143382419D02*
X158418646Y-143334800D01*
X158418646Y-143334800D02*
X158371027Y-143239561D01*
X158371027Y-143239561D02*
X158371027Y-142382419D01*
X158894837Y-143382419D02*
X158894837Y-142715752D01*
X158894837Y-142382419D02*
X158847218Y-142430038D01*
X158847218Y-142430038D02*
X158894837Y-142477657D01*
X158894837Y-142477657D02*
X158942456Y-142430038D01*
X158942456Y-142430038D02*
X158894837Y-142382419D01*
X158894837Y-142382419D02*
X158894837Y-142477657D01*
X159228170Y-142715752D02*
X159609122Y-142715752D01*
X159371027Y-142382419D02*
X159371027Y-143239561D01*
X159371027Y-143239561D02*
X159418646Y-143334800D01*
X159418646Y-143334800D02*
X159513884Y-143382419D01*
X159513884Y-143382419D02*
X159609122Y-143382419D01*
X160561504Y-142382419D02*
X161132932Y-142382419D01*
X160847218Y-143382419D02*
X160847218Y-142382419D01*
X161466266Y-143382419D02*
X161466266Y-142715752D01*
X161466266Y-142382419D02*
X161418647Y-142430038D01*
X161418647Y-142430038D02*
X161466266Y-142477657D01*
X161466266Y-142477657D02*
X161513885Y-142430038D01*
X161513885Y-142430038D02*
X161466266Y-142382419D01*
X161466266Y-142382419D02*
X161466266Y-142477657D01*
X161942456Y-143382419D02*
X161942456Y-142715752D01*
X161942456Y-142810990D02*
X161990075Y-142763371D01*
X161990075Y-142763371D02*
X162085313Y-142715752D01*
X162085313Y-142715752D02*
X162228170Y-142715752D01*
X162228170Y-142715752D02*
X162323408Y-142763371D01*
X162323408Y-142763371D02*
X162371027Y-142858609D01*
X162371027Y-142858609D02*
X162371027Y-143382419D01*
X162371027Y-142858609D02*
X162418646Y-142763371D01*
X162418646Y-142763371D02*
X162513884Y-142715752D01*
X162513884Y-142715752D02*
X162656741Y-142715752D01*
X162656741Y-142715752D02*
X162751980Y-142763371D01*
X162751980Y-142763371D02*
X162799599Y-142858609D01*
X162799599Y-142858609D02*
X162799599Y-143382419D01*
X163656741Y-143334800D02*
X163561503Y-143382419D01*
X163561503Y-143382419D02*
X163371027Y-143382419D01*
X163371027Y-143382419D02*
X163275789Y-143334800D01*
X163275789Y-143334800D02*
X163228170Y-143239561D01*
X163228170Y-143239561D02*
X163228170Y-142858609D01*
X163228170Y-142858609D02*
X163275789Y-142763371D01*
X163275789Y-142763371D02*
X163371027Y-142715752D01*
X163371027Y-142715752D02*
X163561503Y-142715752D01*
X163561503Y-142715752D02*
X163656741Y-142763371D01*
X163656741Y-142763371D02*
X163704360Y-142858609D01*
X163704360Y-142858609D02*
X163704360Y-142953847D01*
X163704360Y-142953847D02*
X163228170Y-143049085D01*
X164132932Y-143382419D02*
X164132932Y-142715752D01*
X164132932Y-142906228D02*
X164180551Y-142810990D01*
X164180551Y-142810990D02*
X164228170Y-142763371D01*
X164228170Y-142763371D02*
X164323408Y-142715752D01*
X164323408Y-142715752D02*
X164418646Y-142715752D01*
X165371028Y-142382419D02*
X165704361Y-143382419D01*
X165704361Y-143382419D02*
X166037694Y-142382419D01*
X166323409Y-142477657D02*
X166371028Y-142430038D01*
X166371028Y-142430038D02*
X166466266Y-142382419D01*
X166466266Y-142382419D02*
X166704361Y-142382419D01*
X166704361Y-142382419D02*
X166799599Y-142430038D01*
X166799599Y-142430038D02*
X166847218Y-142477657D01*
X166847218Y-142477657D02*
X166894837Y-142572895D01*
X166894837Y-142572895D02*
X166894837Y-142668133D01*
X166894837Y-142668133D02*
X166847218Y-142810990D01*
X166847218Y-142810990D02*
X166275790Y-143382419D01*
X166275790Y-143382419D02*
X166894837Y-143382419D01*
X97281466Y-138126115D02*
X97281466Y-137364211D01*
X107441466Y-138126115D02*
X107441466Y-137364211D01*
X107822419Y-137745163D02*
X107060514Y-137745163D01*
X86177419Y-120141904D02*
X86986942Y-120141904D01*
X86986942Y-120141904D02*
X87082180Y-120094285D01*
X87082180Y-120094285D02*
X87129800Y-120046666D01*
X87129800Y-120046666D02*
X87177419Y-119951428D01*
X87177419Y-119951428D02*
X87177419Y-119760952D01*
X87177419Y-119760952D02*
X87129800Y-119665714D01*
X87129800Y-119665714D02*
X87082180Y-119618095D01*
X87082180Y-119618095D02*
X86986942Y-119570476D01*
X86986942Y-119570476D02*
X86177419Y-119570476D01*
X86177419Y-118665714D02*
X86177419Y-118856190D01*
X86177419Y-118856190D02*
X86225038Y-118951428D01*
X86225038Y-118951428D02*
X86272657Y-118999047D01*
X86272657Y-118999047D02*
X86415514Y-119094285D01*
X86415514Y-119094285D02*
X86605990Y-119141904D01*
X86605990Y-119141904D02*
X86986942Y-119141904D01*
X86986942Y-119141904D02*
X87082180Y-119094285D01*
X87082180Y-119094285D02*
X87129800Y-119046666D01*
X87129800Y-119046666D02*
X87177419Y-118951428D01*
X87177419Y-118951428D02*
X87177419Y-118760952D01*
X87177419Y-118760952D02*
X87129800Y-118665714D01*
X87129800Y-118665714D02*
X87082180Y-118618095D01*
X87082180Y-118618095D02*
X86986942Y-118570476D01*
X86986942Y-118570476D02*
X86748847Y-118570476D01*
X86748847Y-118570476D02*
X86653609Y-118618095D01*
X86653609Y-118618095D02*
X86605990Y-118665714D01*
X86605990Y-118665714D02*
X86558371Y-118760952D01*
X86558371Y-118760952D02*
X86558371Y-118951428D01*
X86558371Y-118951428D02*
X86605990Y-119046666D01*
X86605990Y-119046666D02*
X86653609Y-119094285D01*
X86653609Y-119094285D02*
X86748847Y-119141904D01*
D12*
X133144398Y-117177561D02*
X133239636Y-117225180D01*
X133239636Y-117225180D02*
X133382493Y-117225180D01*
X133382493Y-117225180D02*
X133525350Y-117177561D01*
X133525350Y-117177561D02*
X133620588Y-117082323D01*
X133620588Y-117082323D02*
X133668207Y-116987085D01*
X133668207Y-116987085D02*
X133715826Y-116796609D01*
X133715826Y-116796609D02*
X133715826Y-116653752D01*
X133715826Y-116653752D02*
X133668207Y-116463276D01*
X133668207Y-116463276D02*
X133620588Y-116368038D01*
X133620588Y-116368038D02*
X133525350Y-116272800D01*
X133525350Y-116272800D02*
X133382493Y-116225180D01*
X133382493Y-116225180D02*
X133287255Y-116225180D01*
X133287255Y-116225180D02*
X133144398Y-116272800D01*
X133144398Y-116272800D02*
X133096779Y-116320419D01*
X133096779Y-116320419D02*
X133096779Y-116653752D01*
X133096779Y-116653752D02*
X133287255Y-116653752D01*
X132668207Y-116225180D02*
X132668207Y-117225180D01*
X132668207Y-117225180D02*
X132096779Y-116225180D01*
X132096779Y-116225180D02*
X132096779Y-117225180D01*
X131620588Y-116225180D02*
X131620588Y-117225180D01*
X131620588Y-117225180D02*
X131382493Y-117225180D01*
X131382493Y-117225180D02*
X131239636Y-117177561D01*
X131239636Y-117177561D02*
X131144398Y-117082323D01*
X131144398Y-117082323D02*
X131096779Y-116987085D01*
X131096779Y-116987085D02*
X131049160Y-116796609D01*
X131049160Y-116796609D02*
X131049160Y-116653752D01*
X131049160Y-116653752D02*
X131096779Y-116463276D01*
X131096779Y-116463276D02*
X131144398Y-116368038D01*
X131144398Y-116368038D02*
X131239636Y-116272800D01*
X131239636Y-116272800D02*
X131382493Y-116225180D01*
X131382493Y-116225180D02*
X131620588Y-116225180D01*
X132572969Y-126432800D02*
X132430112Y-126385180D01*
X132430112Y-126385180D02*
X132192017Y-126385180D01*
X132192017Y-126385180D02*
X132096779Y-126432800D01*
X132096779Y-126432800D02*
X132049160Y-126480419D01*
X132049160Y-126480419D02*
X132001541Y-126575657D01*
X132001541Y-126575657D02*
X132001541Y-126670895D01*
X132001541Y-126670895D02*
X132049160Y-126766133D01*
X132049160Y-126766133D02*
X132096779Y-126813752D01*
X132096779Y-126813752D02*
X132192017Y-126861371D01*
X132192017Y-126861371D02*
X132382493Y-126908990D01*
X132382493Y-126908990D02*
X132477731Y-126956609D01*
X132477731Y-126956609D02*
X132525350Y-127004228D01*
X132525350Y-127004228D02*
X132572969Y-127099466D01*
X132572969Y-127099466D02*
X132572969Y-127194704D01*
X132572969Y-127194704D02*
X132525350Y-127289942D01*
X132525350Y-127289942D02*
X132477731Y-127337561D01*
X132477731Y-127337561D02*
X132382493Y-127385180D01*
X132382493Y-127385180D02*
X132144398Y-127385180D01*
X132144398Y-127385180D02*
X132001541Y-127337561D01*
X131620588Y-126432800D02*
X131477731Y-126385180D01*
X131477731Y-126385180D02*
X131239636Y-126385180D01*
X131239636Y-126385180D02*
X131144398Y-126432800D01*
X131144398Y-126432800D02*
X131096779Y-126480419D01*
X131096779Y-126480419D02*
X131049160Y-126575657D01*
X131049160Y-126575657D02*
X131049160Y-126670895D01*
X131049160Y-126670895D02*
X131096779Y-126766133D01*
X131096779Y-126766133D02*
X131144398Y-126813752D01*
X131144398Y-126813752D02*
X131239636Y-126861371D01*
X131239636Y-126861371D02*
X131430112Y-126908990D01*
X131430112Y-126908990D02*
X131525350Y-126956609D01*
X131525350Y-126956609D02*
X131572969Y-127004228D01*
X131572969Y-127004228D02*
X131620588Y-127099466D01*
X131620588Y-127099466D02*
X131620588Y-127194704D01*
X131620588Y-127194704D02*
X131572969Y-127289942D01*
X131572969Y-127289942D02*
X131525350Y-127337561D01*
X131525350Y-127337561D02*
X131430112Y-127385180D01*
X131430112Y-127385180D02*
X131192017Y-127385180D01*
X131192017Y-127385180D02*
X131049160Y-127337561D01*
X132663446Y-127662800D02*
X130958684Y-127662800D01*
X136334874Y-119765180D02*
X135715827Y-119765180D01*
X135715827Y-119765180D02*
X136049160Y-119384228D01*
X136049160Y-119384228D02*
X135906303Y-119384228D01*
X135906303Y-119384228D02*
X135811065Y-119336609D01*
X135811065Y-119336609D02*
X135763446Y-119288990D01*
X135763446Y-119288990D02*
X135715827Y-119193752D01*
X135715827Y-119193752D02*
X135715827Y-118955657D01*
X135715827Y-118955657D02*
X135763446Y-118860419D01*
X135763446Y-118860419D02*
X135811065Y-118812800D01*
X135811065Y-118812800D02*
X135906303Y-118765180D01*
X135906303Y-118765180D02*
X136192017Y-118765180D01*
X136192017Y-118765180D02*
X136287255Y-118812800D01*
X136287255Y-118812800D02*
X136334874Y-118860419D01*
X135430112Y-119765180D02*
X135096779Y-118765180D01*
X135096779Y-118765180D02*
X134763446Y-119765180D01*
X134525350Y-119765180D02*
X133906303Y-119765180D01*
X133906303Y-119765180D02*
X134239636Y-119384228D01*
X134239636Y-119384228D02*
X134096779Y-119384228D01*
X134096779Y-119384228D02*
X134001541Y-119336609D01*
X134001541Y-119336609D02*
X133953922Y-119288990D01*
X133953922Y-119288990D02*
X133906303Y-119193752D01*
X133906303Y-119193752D02*
X133906303Y-118955657D01*
X133906303Y-118955657D02*
X133953922Y-118860419D01*
X133953922Y-118860419D02*
X134001541Y-118812800D01*
X134001541Y-118812800D02*
X134096779Y-118765180D01*
X134096779Y-118765180D02*
X134382493Y-118765180D01*
X134382493Y-118765180D02*
X134477731Y-118812800D01*
X134477731Y-118812800D02*
X134525350Y-118860419D01*
X132763446Y-119812800D02*
X133620588Y-118527085D01*
X131953922Y-119765180D02*
X132430112Y-119765180D01*
X132430112Y-119765180D02*
X132477731Y-119288990D01*
X132477731Y-119288990D02*
X132430112Y-119336609D01*
X132430112Y-119336609D02*
X132334874Y-119384228D01*
X132334874Y-119384228D02*
X132096779Y-119384228D01*
X132096779Y-119384228D02*
X132001541Y-119336609D01*
X132001541Y-119336609D02*
X131953922Y-119288990D01*
X131953922Y-119288990D02*
X131906303Y-119193752D01*
X131906303Y-119193752D02*
X131906303Y-118955657D01*
X131906303Y-118955657D02*
X131953922Y-118860419D01*
X131953922Y-118860419D02*
X132001541Y-118812800D01*
X132001541Y-118812800D02*
X132096779Y-118765180D01*
X132096779Y-118765180D02*
X132334874Y-118765180D01*
X132334874Y-118765180D02*
X132430112Y-118812800D01*
X132430112Y-118812800D02*
X132477731Y-118860419D01*
X131620588Y-119765180D02*
X131287255Y-118765180D01*
X131287255Y-118765180D02*
X130953922Y-119765180D01*
X134430112Y-123892800D02*
X134287255Y-123845180D01*
X134287255Y-123845180D02*
X134049160Y-123845180D01*
X134049160Y-123845180D02*
X133953922Y-123892800D01*
X133953922Y-123892800D02*
X133906303Y-123940419D01*
X133906303Y-123940419D02*
X133858684Y-124035657D01*
X133858684Y-124035657D02*
X133858684Y-124130895D01*
X133858684Y-124130895D02*
X133906303Y-124226133D01*
X133906303Y-124226133D02*
X133953922Y-124273752D01*
X133953922Y-124273752D02*
X134049160Y-124321371D01*
X134049160Y-124321371D02*
X134239636Y-124368990D01*
X134239636Y-124368990D02*
X134334874Y-124416609D01*
X134334874Y-124416609D02*
X134382493Y-124464228D01*
X134382493Y-124464228D02*
X134430112Y-124559466D01*
X134430112Y-124559466D02*
X134430112Y-124654704D01*
X134430112Y-124654704D02*
X134382493Y-124749942D01*
X134382493Y-124749942D02*
X134334874Y-124797561D01*
X134334874Y-124797561D02*
X134239636Y-124845180D01*
X134239636Y-124845180D02*
X134001541Y-124845180D01*
X134001541Y-124845180D02*
X133858684Y-124797561D01*
X132858684Y-123940419D02*
X132906303Y-123892800D01*
X132906303Y-123892800D02*
X133049160Y-123845180D01*
X133049160Y-123845180D02*
X133144398Y-123845180D01*
X133144398Y-123845180D02*
X133287255Y-123892800D01*
X133287255Y-123892800D02*
X133382493Y-123988038D01*
X133382493Y-123988038D02*
X133430112Y-124083276D01*
X133430112Y-124083276D02*
X133477731Y-124273752D01*
X133477731Y-124273752D02*
X133477731Y-124416609D01*
X133477731Y-124416609D02*
X133430112Y-124607085D01*
X133430112Y-124607085D02*
X133382493Y-124702323D01*
X133382493Y-124702323D02*
X133287255Y-124797561D01*
X133287255Y-124797561D02*
X133144398Y-124845180D01*
X133144398Y-124845180D02*
X133049160Y-124845180D01*
X133049160Y-124845180D02*
X132906303Y-124797561D01*
X132906303Y-124797561D02*
X132858684Y-124749942D01*
X131953922Y-123845180D02*
X132430112Y-123845180D01*
X132430112Y-123845180D02*
X132430112Y-124845180D01*
X131620588Y-123845180D02*
X131620588Y-124845180D01*
X131049160Y-123845180D02*
X131477731Y-124416609D01*
X131049160Y-124845180D02*
X131620588Y-124273752D01*
X134239635Y-128925180D02*
X134239635Y-129925180D01*
X134239635Y-129925180D02*
X133906302Y-129210895D01*
X133906302Y-129210895D02*
X133572969Y-129925180D01*
X133572969Y-129925180D02*
X133572969Y-128925180D01*
X132906302Y-129925180D02*
X132715826Y-129925180D01*
X132715826Y-129925180D02*
X132620588Y-129877561D01*
X132620588Y-129877561D02*
X132525350Y-129782323D01*
X132525350Y-129782323D02*
X132477731Y-129591847D01*
X132477731Y-129591847D02*
X132477731Y-129258514D01*
X132477731Y-129258514D02*
X132525350Y-129068038D01*
X132525350Y-129068038D02*
X132620588Y-128972800D01*
X132620588Y-128972800D02*
X132715826Y-128925180D01*
X132715826Y-128925180D02*
X132906302Y-128925180D01*
X132906302Y-128925180D02*
X133001540Y-128972800D01*
X133001540Y-128972800D02*
X133096778Y-129068038D01*
X133096778Y-129068038D02*
X133144397Y-129258514D01*
X133144397Y-129258514D02*
X133144397Y-129591847D01*
X133144397Y-129591847D02*
X133096778Y-129782323D01*
X133096778Y-129782323D02*
X133001540Y-129877561D01*
X133001540Y-129877561D02*
X132906302Y-129925180D01*
X132096778Y-128972800D02*
X131953921Y-128925180D01*
X131953921Y-128925180D02*
X131715826Y-128925180D01*
X131715826Y-128925180D02*
X131620588Y-128972800D01*
X131620588Y-128972800D02*
X131572969Y-129020419D01*
X131572969Y-129020419D02*
X131525350Y-129115657D01*
X131525350Y-129115657D02*
X131525350Y-129210895D01*
X131525350Y-129210895D02*
X131572969Y-129306133D01*
X131572969Y-129306133D02*
X131620588Y-129353752D01*
X131620588Y-129353752D02*
X131715826Y-129401371D01*
X131715826Y-129401371D02*
X131906302Y-129448990D01*
X131906302Y-129448990D02*
X132001540Y-129496609D01*
X132001540Y-129496609D02*
X132049159Y-129544228D01*
X132049159Y-129544228D02*
X132096778Y-129639466D01*
X132096778Y-129639466D02*
X132096778Y-129734704D01*
X132096778Y-129734704D02*
X132049159Y-129829942D01*
X132049159Y-129829942D02*
X132001540Y-129877561D01*
X132001540Y-129877561D02*
X131906302Y-129925180D01*
X131906302Y-129925180D02*
X131668207Y-129925180D01*
X131668207Y-129925180D02*
X131525350Y-129877561D01*
X131096778Y-128925180D02*
X131096778Y-129925180D01*
X133430112Y-121305180D02*
X133763445Y-121781371D01*
X134001540Y-121305180D02*
X134001540Y-122305180D01*
X134001540Y-122305180D02*
X133620588Y-122305180D01*
X133620588Y-122305180D02*
X133525350Y-122257561D01*
X133525350Y-122257561D02*
X133477731Y-122209942D01*
X133477731Y-122209942D02*
X133430112Y-122114704D01*
X133430112Y-122114704D02*
X133430112Y-121971847D01*
X133430112Y-121971847D02*
X133477731Y-121876609D01*
X133477731Y-121876609D02*
X133525350Y-121828990D01*
X133525350Y-121828990D02*
X133620588Y-121781371D01*
X133620588Y-121781371D02*
X134001540Y-121781371D01*
X133049159Y-121352800D02*
X132906302Y-121305180D01*
X132906302Y-121305180D02*
X132668207Y-121305180D01*
X132668207Y-121305180D02*
X132572969Y-121352800D01*
X132572969Y-121352800D02*
X132525350Y-121400419D01*
X132525350Y-121400419D02*
X132477731Y-121495657D01*
X132477731Y-121495657D02*
X132477731Y-121590895D01*
X132477731Y-121590895D02*
X132525350Y-121686133D01*
X132525350Y-121686133D02*
X132572969Y-121733752D01*
X132572969Y-121733752D02*
X132668207Y-121781371D01*
X132668207Y-121781371D02*
X132858683Y-121828990D01*
X132858683Y-121828990D02*
X132953921Y-121876609D01*
X132953921Y-121876609D02*
X133001540Y-121924228D01*
X133001540Y-121924228D02*
X133049159Y-122019466D01*
X133049159Y-122019466D02*
X133049159Y-122114704D01*
X133049159Y-122114704D02*
X133001540Y-122209942D01*
X133001540Y-122209942D02*
X132953921Y-122257561D01*
X132953921Y-122257561D02*
X132858683Y-122305180D01*
X132858683Y-122305180D02*
X132620588Y-122305180D01*
X132620588Y-122305180D02*
X132477731Y-122257561D01*
X132096778Y-121352800D02*
X131953921Y-121305180D01*
X131953921Y-121305180D02*
X131715826Y-121305180D01*
X131715826Y-121305180D02*
X131620588Y-121352800D01*
X131620588Y-121352800D02*
X131572969Y-121400419D01*
X131572969Y-121400419D02*
X131525350Y-121495657D01*
X131525350Y-121495657D02*
X131525350Y-121590895D01*
X131525350Y-121590895D02*
X131572969Y-121686133D01*
X131572969Y-121686133D02*
X131620588Y-121733752D01*
X131620588Y-121733752D02*
X131715826Y-121781371D01*
X131715826Y-121781371D02*
X131906302Y-121828990D01*
X131906302Y-121828990D02*
X132001540Y-121876609D01*
X132001540Y-121876609D02*
X132049159Y-121924228D01*
X132049159Y-121924228D02*
X132096778Y-122019466D01*
X132096778Y-122019466D02*
X132096778Y-122114704D01*
X132096778Y-122114704D02*
X132049159Y-122209942D01*
X132049159Y-122209942D02*
X132001540Y-122257561D01*
X132001540Y-122257561D02*
X131906302Y-122305180D01*
X131906302Y-122305180D02*
X131668207Y-122305180D01*
X131668207Y-122305180D02*
X131525350Y-122257561D01*
X131096778Y-121305180D02*
X131096778Y-122305180D01*
D11*
X216082580Y-90518095D02*
X215273057Y-90518095D01*
X215273057Y-90518095D02*
X215177819Y-90565714D01*
X215177819Y-90565714D02*
X215130200Y-90613333D01*
X215130200Y-90613333D02*
X215082580Y-90708571D01*
X215082580Y-90708571D02*
X215082580Y-90899047D01*
X215082580Y-90899047D02*
X215130200Y-90994285D01*
X215130200Y-90994285D02*
X215177819Y-91041904D01*
X215177819Y-91041904D02*
X215273057Y-91089523D01*
X215273057Y-91089523D02*
X216082580Y-91089523D01*
X215987342Y-91518095D02*
X216034961Y-91565714D01*
X216034961Y-91565714D02*
X216082580Y-91660952D01*
X216082580Y-91660952D02*
X216082580Y-91899047D01*
X216082580Y-91899047D02*
X216034961Y-91994285D01*
X216034961Y-91994285D02*
X215987342Y-92041904D01*
X215987342Y-92041904D02*
X215892104Y-92089523D01*
X215892104Y-92089523D02*
X215796866Y-92089523D01*
X215796866Y-92089523D02*
X215654009Y-92041904D01*
X215654009Y-92041904D02*
X215082580Y-91470476D01*
X215082580Y-91470476D02*
X215082580Y-92089523D01*
D12*
X165925125Y-90894819D02*
X166544172Y-90894819D01*
X166544172Y-90894819D02*
X166210839Y-91275771D01*
X166210839Y-91275771D02*
X166353696Y-91275771D01*
X166353696Y-91275771D02*
X166448934Y-91323390D01*
X166448934Y-91323390D02*
X166496553Y-91371009D01*
X166496553Y-91371009D02*
X166544172Y-91466247D01*
X166544172Y-91466247D02*
X166544172Y-91704342D01*
X166544172Y-91704342D02*
X166496553Y-91799580D01*
X166496553Y-91799580D02*
X166448934Y-91847200D01*
X166448934Y-91847200D02*
X166353696Y-91894819D01*
X166353696Y-91894819D02*
X166067982Y-91894819D01*
X166067982Y-91894819D02*
X165972744Y-91847200D01*
X165972744Y-91847200D02*
X165925125Y-91799580D01*
X166829887Y-90894819D02*
X167163220Y-91894819D01*
X167163220Y-91894819D02*
X167496553Y-90894819D01*
X167734649Y-90894819D02*
X168353696Y-90894819D01*
X168353696Y-90894819D02*
X168020363Y-91275771D01*
X168020363Y-91275771D02*
X168163220Y-91275771D01*
X168163220Y-91275771D02*
X168258458Y-91323390D01*
X168258458Y-91323390D02*
X168306077Y-91371009D01*
X168306077Y-91371009D02*
X168353696Y-91466247D01*
X168353696Y-91466247D02*
X168353696Y-91704342D01*
X168353696Y-91704342D02*
X168306077Y-91799580D01*
X168306077Y-91799580D02*
X168258458Y-91847200D01*
X168258458Y-91847200D02*
X168163220Y-91894819D01*
X168163220Y-91894819D02*
X167877506Y-91894819D01*
X167877506Y-91894819D02*
X167782268Y-91847200D01*
X167782268Y-91847200D02*
X167734649Y-91799580D01*
X169496553Y-90847200D02*
X168639411Y-92132914D01*
X170306077Y-90894819D02*
X169829887Y-90894819D01*
X169829887Y-90894819D02*
X169782268Y-91371009D01*
X169782268Y-91371009D02*
X169829887Y-91323390D01*
X169829887Y-91323390D02*
X169925125Y-91275771D01*
X169925125Y-91275771D02*
X170163220Y-91275771D01*
X170163220Y-91275771D02*
X170258458Y-91323390D01*
X170258458Y-91323390D02*
X170306077Y-91371009D01*
X170306077Y-91371009D02*
X170353696Y-91466247D01*
X170353696Y-91466247D02*
X170353696Y-91704342D01*
X170353696Y-91704342D02*
X170306077Y-91799580D01*
X170306077Y-91799580D02*
X170258458Y-91847200D01*
X170258458Y-91847200D02*
X170163220Y-91894819D01*
X170163220Y-91894819D02*
X169925125Y-91894819D01*
X169925125Y-91894819D02*
X169829887Y-91847200D01*
X169829887Y-91847200D02*
X169782268Y-91799580D01*
X170639411Y-90894819D02*
X170972744Y-91894819D01*
X170972744Y-91894819D02*
X171306077Y-90894819D01*
X168829887Y-89354819D02*
X168496554Y-88878628D01*
X168258459Y-89354819D02*
X168258459Y-88354819D01*
X168258459Y-88354819D02*
X168639411Y-88354819D01*
X168639411Y-88354819D02*
X168734649Y-88402438D01*
X168734649Y-88402438D02*
X168782268Y-88450057D01*
X168782268Y-88450057D02*
X168829887Y-88545295D01*
X168829887Y-88545295D02*
X168829887Y-88688152D01*
X168829887Y-88688152D02*
X168782268Y-88783390D01*
X168782268Y-88783390D02*
X168734649Y-88831009D01*
X168734649Y-88831009D02*
X168639411Y-88878628D01*
X168639411Y-88878628D02*
X168258459Y-88878628D01*
X169210840Y-89307200D02*
X169353697Y-89354819D01*
X169353697Y-89354819D02*
X169591792Y-89354819D01*
X169591792Y-89354819D02*
X169687030Y-89307200D01*
X169687030Y-89307200D02*
X169734649Y-89259580D01*
X169734649Y-89259580D02*
X169782268Y-89164342D01*
X169782268Y-89164342D02*
X169782268Y-89069104D01*
X169782268Y-89069104D02*
X169734649Y-88973866D01*
X169734649Y-88973866D02*
X169687030Y-88926247D01*
X169687030Y-88926247D02*
X169591792Y-88878628D01*
X169591792Y-88878628D02*
X169401316Y-88831009D01*
X169401316Y-88831009D02*
X169306078Y-88783390D01*
X169306078Y-88783390D02*
X169258459Y-88735771D01*
X169258459Y-88735771D02*
X169210840Y-88640533D01*
X169210840Y-88640533D02*
X169210840Y-88545295D01*
X169210840Y-88545295D02*
X169258459Y-88450057D01*
X169258459Y-88450057D02*
X169306078Y-88402438D01*
X169306078Y-88402438D02*
X169401316Y-88354819D01*
X169401316Y-88354819D02*
X169639411Y-88354819D01*
X169639411Y-88354819D02*
X169782268Y-88402438D01*
X170163221Y-89307200D02*
X170306078Y-89354819D01*
X170306078Y-89354819D02*
X170544173Y-89354819D01*
X170544173Y-89354819D02*
X170639411Y-89307200D01*
X170639411Y-89307200D02*
X170687030Y-89259580D01*
X170687030Y-89259580D02*
X170734649Y-89164342D01*
X170734649Y-89164342D02*
X170734649Y-89069104D01*
X170734649Y-89069104D02*
X170687030Y-88973866D01*
X170687030Y-88973866D02*
X170639411Y-88926247D01*
X170639411Y-88926247D02*
X170544173Y-88878628D01*
X170544173Y-88878628D02*
X170353697Y-88831009D01*
X170353697Y-88831009D02*
X170258459Y-88783390D01*
X170258459Y-88783390D02*
X170210840Y-88735771D01*
X170210840Y-88735771D02*
X170163221Y-88640533D01*
X170163221Y-88640533D02*
X170163221Y-88545295D01*
X170163221Y-88545295D02*
X170210840Y-88450057D01*
X170210840Y-88450057D02*
X170258459Y-88402438D01*
X170258459Y-88402438D02*
X170353697Y-88354819D01*
X170353697Y-88354819D02*
X170591792Y-88354819D01*
X170591792Y-88354819D02*
X170734649Y-88402438D01*
X171163221Y-89354819D02*
X171163221Y-88354819D01*
X169687030Y-84227200D02*
X169829887Y-84274819D01*
X169829887Y-84274819D02*
X170067982Y-84274819D01*
X170067982Y-84274819D02*
X170163220Y-84227200D01*
X170163220Y-84227200D02*
X170210839Y-84179580D01*
X170210839Y-84179580D02*
X170258458Y-84084342D01*
X170258458Y-84084342D02*
X170258458Y-83989104D01*
X170258458Y-83989104D02*
X170210839Y-83893866D01*
X170210839Y-83893866D02*
X170163220Y-83846247D01*
X170163220Y-83846247D02*
X170067982Y-83798628D01*
X170067982Y-83798628D02*
X169877506Y-83751009D01*
X169877506Y-83751009D02*
X169782268Y-83703390D01*
X169782268Y-83703390D02*
X169734649Y-83655771D01*
X169734649Y-83655771D02*
X169687030Y-83560533D01*
X169687030Y-83560533D02*
X169687030Y-83465295D01*
X169687030Y-83465295D02*
X169734649Y-83370057D01*
X169734649Y-83370057D02*
X169782268Y-83322438D01*
X169782268Y-83322438D02*
X169877506Y-83274819D01*
X169877506Y-83274819D02*
X170115601Y-83274819D01*
X170115601Y-83274819D02*
X170258458Y-83322438D01*
X170639411Y-84227200D02*
X170782268Y-84274819D01*
X170782268Y-84274819D02*
X171020363Y-84274819D01*
X171020363Y-84274819D02*
X171115601Y-84227200D01*
X171115601Y-84227200D02*
X171163220Y-84179580D01*
X171163220Y-84179580D02*
X171210839Y-84084342D01*
X171210839Y-84084342D02*
X171210839Y-83989104D01*
X171210839Y-83989104D02*
X171163220Y-83893866D01*
X171163220Y-83893866D02*
X171115601Y-83846247D01*
X171115601Y-83846247D02*
X171020363Y-83798628D01*
X171020363Y-83798628D02*
X170829887Y-83751009D01*
X170829887Y-83751009D02*
X170734649Y-83703390D01*
X170734649Y-83703390D02*
X170687030Y-83655771D01*
X170687030Y-83655771D02*
X170639411Y-83560533D01*
X170639411Y-83560533D02*
X170639411Y-83465295D01*
X170639411Y-83465295D02*
X170687030Y-83370057D01*
X170687030Y-83370057D02*
X170734649Y-83322438D01*
X170734649Y-83322438D02*
X170829887Y-83274819D01*
X170829887Y-83274819D02*
X171067982Y-83274819D01*
X171067982Y-83274819D02*
X171210839Y-83322438D01*
X169596554Y-82997200D02*
X171301316Y-82997200D01*
X169115601Y-93482438D02*
X169020363Y-93434819D01*
X169020363Y-93434819D02*
X168877506Y-93434819D01*
X168877506Y-93434819D02*
X168734649Y-93482438D01*
X168734649Y-93482438D02*
X168639411Y-93577676D01*
X168639411Y-93577676D02*
X168591792Y-93672914D01*
X168591792Y-93672914D02*
X168544173Y-93863390D01*
X168544173Y-93863390D02*
X168544173Y-94006247D01*
X168544173Y-94006247D02*
X168591792Y-94196723D01*
X168591792Y-94196723D02*
X168639411Y-94291961D01*
X168639411Y-94291961D02*
X168734649Y-94387200D01*
X168734649Y-94387200D02*
X168877506Y-94434819D01*
X168877506Y-94434819D02*
X168972744Y-94434819D01*
X168972744Y-94434819D02*
X169115601Y-94387200D01*
X169115601Y-94387200D02*
X169163220Y-94339580D01*
X169163220Y-94339580D02*
X169163220Y-94006247D01*
X169163220Y-94006247D02*
X168972744Y-94006247D01*
X169591792Y-94434819D02*
X169591792Y-93434819D01*
X169591792Y-93434819D02*
X170163220Y-94434819D01*
X170163220Y-94434819D02*
X170163220Y-93434819D01*
X170639411Y-94434819D02*
X170639411Y-93434819D01*
X170639411Y-93434819D02*
X170877506Y-93434819D01*
X170877506Y-93434819D02*
X171020363Y-93482438D01*
X171020363Y-93482438D02*
X171115601Y-93577676D01*
X171115601Y-93577676D02*
X171163220Y-93672914D01*
X171163220Y-93672914D02*
X171210839Y-93863390D01*
X171210839Y-93863390D02*
X171210839Y-94006247D01*
X171210839Y-94006247D02*
X171163220Y-94196723D01*
X171163220Y-94196723D02*
X171115601Y-94291961D01*
X171115601Y-94291961D02*
X171020363Y-94387200D01*
X171020363Y-94387200D02*
X170877506Y-94434819D01*
X170877506Y-94434819D02*
X170639411Y-94434819D01*
X168020364Y-81734819D02*
X168020364Y-80734819D01*
X168020364Y-80734819D02*
X168353697Y-81449104D01*
X168353697Y-81449104D02*
X168687030Y-80734819D01*
X168687030Y-80734819D02*
X168687030Y-81734819D01*
X169353697Y-80734819D02*
X169544173Y-80734819D01*
X169544173Y-80734819D02*
X169639411Y-80782438D01*
X169639411Y-80782438D02*
X169734649Y-80877676D01*
X169734649Y-80877676D02*
X169782268Y-81068152D01*
X169782268Y-81068152D02*
X169782268Y-81401485D01*
X169782268Y-81401485D02*
X169734649Y-81591961D01*
X169734649Y-81591961D02*
X169639411Y-81687200D01*
X169639411Y-81687200D02*
X169544173Y-81734819D01*
X169544173Y-81734819D02*
X169353697Y-81734819D01*
X169353697Y-81734819D02*
X169258459Y-81687200D01*
X169258459Y-81687200D02*
X169163221Y-81591961D01*
X169163221Y-81591961D02*
X169115602Y-81401485D01*
X169115602Y-81401485D02*
X169115602Y-81068152D01*
X169115602Y-81068152D02*
X169163221Y-80877676D01*
X169163221Y-80877676D02*
X169258459Y-80782438D01*
X169258459Y-80782438D02*
X169353697Y-80734819D01*
X170163221Y-81687200D02*
X170306078Y-81734819D01*
X170306078Y-81734819D02*
X170544173Y-81734819D01*
X170544173Y-81734819D02*
X170639411Y-81687200D01*
X170639411Y-81687200D02*
X170687030Y-81639580D01*
X170687030Y-81639580D02*
X170734649Y-81544342D01*
X170734649Y-81544342D02*
X170734649Y-81449104D01*
X170734649Y-81449104D02*
X170687030Y-81353866D01*
X170687030Y-81353866D02*
X170639411Y-81306247D01*
X170639411Y-81306247D02*
X170544173Y-81258628D01*
X170544173Y-81258628D02*
X170353697Y-81211009D01*
X170353697Y-81211009D02*
X170258459Y-81163390D01*
X170258459Y-81163390D02*
X170210840Y-81115771D01*
X170210840Y-81115771D02*
X170163221Y-81020533D01*
X170163221Y-81020533D02*
X170163221Y-80925295D01*
X170163221Y-80925295D02*
X170210840Y-80830057D01*
X170210840Y-80830057D02*
X170258459Y-80782438D01*
X170258459Y-80782438D02*
X170353697Y-80734819D01*
X170353697Y-80734819D02*
X170591792Y-80734819D01*
X170591792Y-80734819D02*
X170734649Y-80782438D01*
X171163221Y-81734819D02*
X171163221Y-80734819D01*
X167829887Y-86767200D02*
X167972744Y-86814819D01*
X167972744Y-86814819D02*
X168210839Y-86814819D01*
X168210839Y-86814819D02*
X168306077Y-86767200D01*
X168306077Y-86767200D02*
X168353696Y-86719580D01*
X168353696Y-86719580D02*
X168401315Y-86624342D01*
X168401315Y-86624342D02*
X168401315Y-86529104D01*
X168401315Y-86529104D02*
X168353696Y-86433866D01*
X168353696Y-86433866D02*
X168306077Y-86386247D01*
X168306077Y-86386247D02*
X168210839Y-86338628D01*
X168210839Y-86338628D02*
X168020363Y-86291009D01*
X168020363Y-86291009D02*
X167925125Y-86243390D01*
X167925125Y-86243390D02*
X167877506Y-86195771D01*
X167877506Y-86195771D02*
X167829887Y-86100533D01*
X167829887Y-86100533D02*
X167829887Y-86005295D01*
X167829887Y-86005295D02*
X167877506Y-85910057D01*
X167877506Y-85910057D02*
X167925125Y-85862438D01*
X167925125Y-85862438D02*
X168020363Y-85814819D01*
X168020363Y-85814819D02*
X168258458Y-85814819D01*
X168258458Y-85814819D02*
X168401315Y-85862438D01*
X169401315Y-86719580D02*
X169353696Y-86767200D01*
X169353696Y-86767200D02*
X169210839Y-86814819D01*
X169210839Y-86814819D02*
X169115601Y-86814819D01*
X169115601Y-86814819D02*
X168972744Y-86767200D01*
X168972744Y-86767200D02*
X168877506Y-86671961D01*
X168877506Y-86671961D02*
X168829887Y-86576723D01*
X168829887Y-86576723D02*
X168782268Y-86386247D01*
X168782268Y-86386247D02*
X168782268Y-86243390D01*
X168782268Y-86243390D02*
X168829887Y-86052914D01*
X168829887Y-86052914D02*
X168877506Y-85957676D01*
X168877506Y-85957676D02*
X168972744Y-85862438D01*
X168972744Y-85862438D02*
X169115601Y-85814819D01*
X169115601Y-85814819D02*
X169210839Y-85814819D01*
X169210839Y-85814819D02*
X169353696Y-85862438D01*
X169353696Y-85862438D02*
X169401315Y-85910057D01*
X170306077Y-86814819D02*
X169829887Y-86814819D01*
X169829887Y-86814819D02*
X169829887Y-85814819D01*
X170639411Y-86814819D02*
X170639411Y-85814819D01*
X171210839Y-86814819D02*
X170782268Y-86243390D01*
X171210839Y-85814819D02*
X170639411Y-86386247D01*
D11*
X202691466Y-138126115D02*
X202691466Y-137364211D01*
X203072419Y-137745163D02*
X202310514Y-137745163D01*
X192531466Y-138126115D02*
X192531466Y-137364211D01*
D12*
X175416667Y-133907200D02*
X175559524Y-133954819D01*
X175559524Y-133954819D02*
X175797619Y-133954819D01*
X175797619Y-133954819D02*
X175892857Y-133907200D01*
X175892857Y-133907200D02*
X175940476Y-133859580D01*
X175940476Y-133859580D02*
X175988095Y-133764342D01*
X175988095Y-133764342D02*
X175988095Y-133669104D01*
X175988095Y-133669104D02*
X175940476Y-133573866D01*
X175940476Y-133573866D02*
X175892857Y-133526247D01*
X175892857Y-133526247D02*
X175797619Y-133478628D01*
X175797619Y-133478628D02*
X175607143Y-133431009D01*
X175607143Y-133431009D02*
X175511905Y-133383390D01*
X175511905Y-133383390D02*
X175464286Y-133335771D01*
X175464286Y-133335771D02*
X175416667Y-133240533D01*
X175416667Y-133240533D02*
X175416667Y-133145295D01*
X175416667Y-133145295D02*
X175464286Y-133050057D01*
X175464286Y-133050057D02*
X175511905Y-133002438D01*
X175511905Y-133002438D02*
X175607143Y-132954819D01*
X175607143Y-132954819D02*
X175845238Y-132954819D01*
X175845238Y-132954819D02*
X175988095Y-133002438D01*
X176321429Y-132954819D02*
X176559524Y-133954819D01*
X176559524Y-133954819D02*
X176750000Y-133240533D01*
X176750000Y-133240533D02*
X176940476Y-133954819D01*
X176940476Y-133954819D02*
X177178572Y-132954819D01*
X178083333Y-133954819D02*
X177511905Y-133954819D01*
X177797619Y-133954819D02*
X177797619Y-132954819D01*
X177797619Y-132954819D02*
X177702381Y-133097676D01*
X177702381Y-133097676D02*
X177607143Y-133192914D01*
X177607143Y-133192914D02*
X177511905Y-133240533D01*
D11*
X136117419Y-140461904D02*
X136926942Y-140461904D01*
X136926942Y-140461904D02*
X137022180Y-140414285D01*
X137022180Y-140414285D02*
X137069800Y-140366666D01*
X137069800Y-140366666D02*
X137117419Y-140271428D01*
X137117419Y-140271428D02*
X137117419Y-140080952D01*
X137117419Y-140080952D02*
X137069800Y-139985714D01*
X137069800Y-139985714D02*
X137022180Y-139938095D01*
X137022180Y-139938095D02*
X136926942Y-139890476D01*
X136926942Y-139890476D02*
X136117419Y-139890476D01*
X136117419Y-139509523D02*
X136117419Y-138890476D01*
X136117419Y-138890476D02*
X136498371Y-139223809D01*
X136498371Y-139223809D02*
X136498371Y-139080952D01*
X136498371Y-139080952D02*
X136545990Y-138985714D01*
X136545990Y-138985714D02*
X136593609Y-138938095D01*
X136593609Y-138938095D02*
X136688847Y-138890476D01*
X136688847Y-138890476D02*
X136926942Y-138890476D01*
X136926942Y-138890476D02*
X137022180Y-138938095D01*
X137022180Y-138938095D02*
X137069800Y-138985714D01*
X137069800Y-138985714D02*
X137117419Y-139080952D01*
X137117419Y-139080952D02*
X137117419Y-139366666D01*
X137117419Y-139366666D02*
X137069800Y-139461904D01*
X137069800Y-139461904D02*
X137022180Y-139509523D01*
X129412419Y-136284687D02*
X128936228Y-136618020D01*
X129412419Y-136856115D02*
X128412419Y-136856115D01*
X128412419Y-136856115D02*
X128412419Y-136475163D01*
X128412419Y-136475163D02*
X128460038Y-136379925D01*
X128460038Y-136379925D02*
X128507657Y-136332306D01*
X128507657Y-136332306D02*
X128602895Y-136284687D01*
X128602895Y-136284687D02*
X128745752Y-136284687D01*
X128745752Y-136284687D02*
X128840990Y-136332306D01*
X128840990Y-136332306D02*
X128888609Y-136379925D01*
X128888609Y-136379925D02*
X128936228Y-136475163D01*
X128936228Y-136475163D02*
X128936228Y-136856115D01*
X128412419Y-135951353D02*
X129412419Y-135284687D01*
X128412419Y-135284687D02*
X129412419Y-135951353D01*
X130952419Y-136998972D02*
X130952419Y-136427544D01*
X131952419Y-136713258D02*
X130952419Y-136713258D01*
X130952419Y-136189448D02*
X131952419Y-135522782D01*
X130952419Y-135522782D02*
X131952419Y-136189448D01*
X125872419Y-136998972D02*
X126872419Y-136665639D01*
X126872419Y-136665639D02*
X125872419Y-136332306D01*
X126777180Y-135427544D02*
X126824800Y-135475163D01*
X126824800Y-135475163D02*
X126872419Y-135618020D01*
X126872419Y-135618020D02*
X126872419Y-135713258D01*
X126872419Y-135713258D02*
X126824800Y-135856115D01*
X126824800Y-135856115D02*
X126729561Y-135951353D01*
X126729561Y-135951353D02*
X126634323Y-135998972D01*
X126634323Y-135998972D02*
X126443847Y-136046591D01*
X126443847Y-136046591D02*
X126300990Y-136046591D01*
X126300990Y-136046591D02*
X126110514Y-135998972D01*
X126110514Y-135998972D02*
X126015276Y-135951353D01*
X126015276Y-135951353D02*
X125920038Y-135856115D01*
X125920038Y-135856115D02*
X125872419Y-135713258D01*
X125872419Y-135713258D02*
X125872419Y-135618020D01*
X125872419Y-135618020D02*
X125920038Y-135475163D01*
X125920038Y-135475163D02*
X125967657Y-135427544D01*
X126777180Y-134427544D02*
X126824800Y-134475163D01*
X126824800Y-134475163D02*
X126872419Y-134618020D01*
X126872419Y-134618020D02*
X126872419Y-134713258D01*
X126872419Y-134713258D02*
X126824800Y-134856115D01*
X126824800Y-134856115D02*
X126729561Y-134951353D01*
X126729561Y-134951353D02*
X126634323Y-134998972D01*
X126634323Y-134998972D02*
X126443847Y-135046591D01*
X126443847Y-135046591D02*
X126300990Y-135046591D01*
X126300990Y-135046591D02*
X126110514Y-134998972D01*
X126110514Y-134998972D02*
X126015276Y-134951353D01*
X126015276Y-134951353D02*
X125920038Y-134856115D01*
X125920038Y-134856115D02*
X125872419Y-134713258D01*
X125872419Y-134713258D02*
X125872419Y-134618020D01*
X125872419Y-134618020D02*
X125920038Y-134475163D01*
X125920038Y-134475163D02*
X125967657Y-134427544D01*
X133540038Y-136332306D02*
X133492419Y-136427544D01*
X133492419Y-136427544D02*
X133492419Y-136570401D01*
X133492419Y-136570401D02*
X133540038Y-136713258D01*
X133540038Y-136713258D02*
X133635276Y-136808496D01*
X133635276Y-136808496D02*
X133730514Y-136856115D01*
X133730514Y-136856115D02*
X133920990Y-136903734D01*
X133920990Y-136903734D02*
X134063847Y-136903734D01*
X134063847Y-136903734D02*
X134254323Y-136856115D01*
X134254323Y-136856115D02*
X134349561Y-136808496D01*
X134349561Y-136808496D02*
X134444800Y-136713258D01*
X134444800Y-136713258D02*
X134492419Y-136570401D01*
X134492419Y-136570401D02*
X134492419Y-136475163D01*
X134492419Y-136475163D02*
X134444800Y-136332306D01*
X134444800Y-136332306D02*
X134397180Y-136284687D01*
X134397180Y-136284687D02*
X134063847Y-136284687D01*
X134063847Y-136284687D02*
X134063847Y-136475163D01*
X134492419Y-135856115D02*
X133492419Y-135856115D01*
X133492419Y-135856115D02*
X134492419Y-135284687D01*
X134492419Y-135284687D02*
X133492419Y-135284687D01*
X134492419Y-134808496D02*
X133492419Y-134808496D01*
X133492419Y-134808496D02*
X133492419Y-134570401D01*
X133492419Y-134570401D02*
X133540038Y-134427544D01*
X133540038Y-134427544D02*
X133635276Y-134332306D01*
X133635276Y-134332306D02*
X133730514Y-134284687D01*
X133730514Y-134284687D02*
X133920990Y-134237068D01*
X133920990Y-134237068D02*
X134063847Y-134237068D01*
X134063847Y-134237068D02*
X134254323Y-134284687D01*
X134254323Y-134284687D02*
X134349561Y-134332306D01*
X134349561Y-134332306D02*
X134444800Y-134427544D01*
X134444800Y-134427544D02*
X134492419Y-134570401D01*
X134492419Y-134570401D02*
X134492419Y-134808496D01*
X151618095Y-106657419D02*
X151618095Y-107466942D01*
X151618095Y-107466942D02*
X151665714Y-107562180D01*
X151665714Y-107562180D02*
X151713333Y-107609800D01*
X151713333Y-107609800D02*
X151808571Y-107657419D01*
X151808571Y-107657419D02*
X151999047Y-107657419D01*
X151999047Y-107657419D02*
X152094285Y-107609800D01*
X152094285Y-107609800D02*
X152141904Y-107562180D01*
X152141904Y-107562180D02*
X152189523Y-107466942D01*
X152189523Y-107466942D02*
X152189523Y-106657419D01*
X153189523Y-107657419D02*
X152618095Y-107657419D01*
X152903809Y-107657419D02*
X152903809Y-106657419D01*
X152903809Y-106657419D02*
X152808571Y-106800276D01*
X152808571Y-106800276D02*
X152713333Y-106895514D01*
X152713333Y-106895514D02*
X152618095Y-106943133D01*
X151728609Y-99776115D02*
X151728609Y-99442782D01*
X152252419Y-99299925D02*
X152252419Y-99776115D01*
X152252419Y-99776115D02*
X151252419Y-99776115D01*
X151252419Y-99776115D02*
X151252419Y-99299925D01*
X152204800Y-98918972D02*
X152252419Y-98776115D01*
X152252419Y-98776115D02*
X152252419Y-98538020D01*
X152252419Y-98538020D02*
X152204800Y-98442782D01*
X152204800Y-98442782D02*
X152157180Y-98395163D01*
X152157180Y-98395163D02*
X152061942Y-98347544D01*
X152061942Y-98347544D02*
X151966704Y-98347544D01*
X151966704Y-98347544D02*
X151871466Y-98395163D01*
X151871466Y-98395163D02*
X151823847Y-98442782D01*
X151823847Y-98442782D02*
X151776228Y-98538020D01*
X151776228Y-98538020D02*
X151728609Y-98728496D01*
X151728609Y-98728496D02*
X151680990Y-98823734D01*
X151680990Y-98823734D02*
X151633371Y-98871353D01*
X151633371Y-98871353D02*
X151538133Y-98918972D01*
X151538133Y-98918972D02*
X151442895Y-98918972D01*
X151442895Y-98918972D02*
X151347657Y-98871353D01*
X151347657Y-98871353D02*
X151300038Y-98823734D01*
X151300038Y-98823734D02*
X151252419Y-98728496D01*
X151252419Y-98728496D02*
X151252419Y-98490401D01*
X151252419Y-98490401D02*
X151300038Y-98347544D01*
X152252419Y-97918972D02*
X151252419Y-97918972D01*
X151252419Y-97918972D02*
X151252419Y-97538020D01*
X151252419Y-97538020D02*
X151300038Y-97442782D01*
X151300038Y-97442782D02*
X151347657Y-97395163D01*
X151347657Y-97395163D02*
X151442895Y-97347544D01*
X151442895Y-97347544D02*
X151585752Y-97347544D01*
X151585752Y-97347544D02*
X151680990Y-97395163D01*
X151680990Y-97395163D02*
X151728609Y-97442782D01*
X151728609Y-97442782D02*
X151776228Y-97538020D01*
X151776228Y-97538020D02*
X151776228Y-97918972D01*
X151252419Y-97014210D02*
X151252419Y-96395163D01*
X151252419Y-96395163D02*
X151633371Y-96728496D01*
X151633371Y-96728496D02*
X151633371Y-96585639D01*
X151633371Y-96585639D02*
X151680990Y-96490401D01*
X151680990Y-96490401D02*
X151728609Y-96442782D01*
X151728609Y-96442782D02*
X151823847Y-96395163D01*
X151823847Y-96395163D02*
X152061942Y-96395163D01*
X152061942Y-96395163D02*
X152157180Y-96442782D01*
X152157180Y-96442782D02*
X152204800Y-96490401D01*
X152204800Y-96490401D02*
X152252419Y-96585639D01*
X152252419Y-96585639D02*
X152252419Y-96871353D01*
X152252419Y-96871353D02*
X152204800Y-96966591D01*
X152204800Y-96966591D02*
X152157180Y-97014210D01*
X151347657Y-96014210D02*
X151300038Y-95966591D01*
X151300038Y-95966591D02*
X151252419Y-95871353D01*
X151252419Y-95871353D02*
X151252419Y-95633258D01*
X151252419Y-95633258D02*
X151300038Y-95538020D01*
X151300038Y-95538020D02*
X151347657Y-95490401D01*
X151347657Y-95490401D02*
X151442895Y-95442782D01*
X151442895Y-95442782D02*
X151538133Y-95442782D01*
X151538133Y-95442782D02*
X151680990Y-95490401D01*
X151680990Y-95490401D02*
X152252419Y-96061829D01*
X152252419Y-96061829D02*
X152252419Y-95442782D01*
X151871466Y-95014210D02*
X151871466Y-94252306D01*
X152252419Y-93776115D02*
X151252419Y-93776115D01*
X151252419Y-93776115D02*
X151252419Y-93395163D01*
X151252419Y-93395163D02*
X151300038Y-93299925D01*
X151300038Y-93299925D02*
X151347657Y-93252306D01*
X151347657Y-93252306D02*
X151442895Y-93204687D01*
X151442895Y-93204687D02*
X151585752Y-93204687D01*
X151585752Y-93204687D02*
X151680990Y-93252306D01*
X151680990Y-93252306D02*
X151728609Y-93299925D01*
X151728609Y-93299925D02*
X151776228Y-93395163D01*
X151776228Y-93395163D02*
X151776228Y-93776115D01*
X151585752Y-92347544D02*
X152252419Y-92347544D01*
X151204800Y-92585639D02*
X151919085Y-92823734D01*
X151919085Y-92823734D02*
X151919085Y-92204687D01*
X151871466Y-91823734D02*
X151871466Y-91061830D01*
X151728609Y-90585639D02*
X151728609Y-90252306D01*
X152252419Y-90109449D02*
X152252419Y-90585639D01*
X152252419Y-90585639D02*
X151252419Y-90585639D01*
X151252419Y-90585639D02*
X151252419Y-90109449D01*
X151252419Y-89823734D02*
X151252419Y-89252306D01*
X152252419Y-89538020D02*
X151252419Y-89538020D01*
X152252419Y-88918972D02*
X151252419Y-88918972D01*
X151728609Y-88918972D02*
X151728609Y-88347544D01*
X152252419Y-88347544D02*
X151252419Y-88347544D01*
X216082580Y-118618095D02*
X215273057Y-118618095D01*
X215273057Y-118618095D02*
X215177819Y-118665714D01*
X215177819Y-118665714D02*
X215130200Y-118713333D01*
X215130200Y-118713333D02*
X215082580Y-118808571D01*
X215082580Y-118808571D02*
X215082580Y-118999047D01*
X215082580Y-118999047D02*
X215130200Y-119094285D01*
X215130200Y-119094285D02*
X215177819Y-119141904D01*
X215177819Y-119141904D02*
X215273057Y-119189523D01*
X215273057Y-119189523D02*
X216082580Y-119189523D01*
X215749247Y-120094285D02*
X215082580Y-120094285D01*
X216130200Y-119856190D02*
X215415914Y-119618095D01*
X215415914Y-119618095D02*
X215415914Y-120237142D01*
D12*
X165925125Y-118994819D02*
X166544172Y-118994819D01*
X166544172Y-118994819D02*
X166210839Y-119375771D01*
X166210839Y-119375771D02*
X166353696Y-119375771D01*
X166353696Y-119375771D02*
X166448934Y-119423390D01*
X166448934Y-119423390D02*
X166496553Y-119471009D01*
X166496553Y-119471009D02*
X166544172Y-119566247D01*
X166544172Y-119566247D02*
X166544172Y-119804342D01*
X166544172Y-119804342D02*
X166496553Y-119899580D01*
X166496553Y-119899580D02*
X166448934Y-119947200D01*
X166448934Y-119947200D02*
X166353696Y-119994819D01*
X166353696Y-119994819D02*
X166067982Y-119994819D01*
X166067982Y-119994819D02*
X165972744Y-119947200D01*
X165972744Y-119947200D02*
X165925125Y-119899580D01*
X166829887Y-118994819D02*
X167163220Y-119994819D01*
X167163220Y-119994819D02*
X167496553Y-118994819D01*
X167734649Y-118994819D02*
X168353696Y-118994819D01*
X168353696Y-118994819D02*
X168020363Y-119375771D01*
X168020363Y-119375771D02*
X168163220Y-119375771D01*
X168163220Y-119375771D02*
X168258458Y-119423390D01*
X168258458Y-119423390D02*
X168306077Y-119471009D01*
X168306077Y-119471009D02*
X168353696Y-119566247D01*
X168353696Y-119566247D02*
X168353696Y-119804342D01*
X168353696Y-119804342D02*
X168306077Y-119899580D01*
X168306077Y-119899580D02*
X168258458Y-119947200D01*
X168258458Y-119947200D02*
X168163220Y-119994819D01*
X168163220Y-119994819D02*
X167877506Y-119994819D01*
X167877506Y-119994819D02*
X167782268Y-119947200D01*
X167782268Y-119947200D02*
X167734649Y-119899580D01*
X169496553Y-118947200D02*
X168639411Y-120232914D01*
X170306077Y-118994819D02*
X169829887Y-118994819D01*
X169829887Y-118994819D02*
X169782268Y-119471009D01*
X169782268Y-119471009D02*
X169829887Y-119423390D01*
X169829887Y-119423390D02*
X169925125Y-119375771D01*
X169925125Y-119375771D02*
X170163220Y-119375771D01*
X170163220Y-119375771D02*
X170258458Y-119423390D01*
X170258458Y-119423390D02*
X170306077Y-119471009D01*
X170306077Y-119471009D02*
X170353696Y-119566247D01*
X170353696Y-119566247D02*
X170353696Y-119804342D01*
X170353696Y-119804342D02*
X170306077Y-119899580D01*
X170306077Y-119899580D02*
X170258458Y-119947200D01*
X170258458Y-119947200D02*
X170163220Y-119994819D01*
X170163220Y-119994819D02*
X169925125Y-119994819D01*
X169925125Y-119994819D02*
X169829887Y-119947200D01*
X169829887Y-119947200D02*
X169782268Y-119899580D01*
X170639411Y-118994819D02*
X170972744Y-119994819D01*
X170972744Y-119994819D02*
X171306077Y-118994819D01*
X168020364Y-109834819D02*
X168020364Y-108834819D01*
X168020364Y-108834819D02*
X168353697Y-109549104D01*
X168353697Y-109549104D02*
X168687030Y-108834819D01*
X168687030Y-108834819D02*
X168687030Y-109834819D01*
X169353697Y-108834819D02*
X169544173Y-108834819D01*
X169544173Y-108834819D02*
X169639411Y-108882438D01*
X169639411Y-108882438D02*
X169734649Y-108977676D01*
X169734649Y-108977676D02*
X169782268Y-109168152D01*
X169782268Y-109168152D02*
X169782268Y-109501485D01*
X169782268Y-109501485D02*
X169734649Y-109691961D01*
X169734649Y-109691961D02*
X169639411Y-109787200D01*
X169639411Y-109787200D02*
X169544173Y-109834819D01*
X169544173Y-109834819D02*
X169353697Y-109834819D01*
X169353697Y-109834819D02*
X169258459Y-109787200D01*
X169258459Y-109787200D02*
X169163221Y-109691961D01*
X169163221Y-109691961D02*
X169115602Y-109501485D01*
X169115602Y-109501485D02*
X169115602Y-109168152D01*
X169115602Y-109168152D02*
X169163221Y-108977676D01*
X169163221Y-108977676D02*
X169258459Y-108882438D01*
X169258459Y-108882438D02*
X169353697Y-108834819D01*
X170163221Y-109787200D02*
X170306078Y-109834819D01*
X170306078Y-109834819D02*
X170544173Y-109834819D01*
X170544173Y-109834819D02*
X170639411Y-109787200D01*
X170639411Y-109787200D02*
X170687030Y-109739580D01*
X170687030Y-109739580D02*
X170734649Y-109644342D01*
X170734649Y-109644342D02*
X170734649Y-109549104D01*
X170734649Y-109549104D02*
X170687030Y-109453866D01*
X170687030Y-109453866D02*
X170639411Y-109406247D01*
X170639411Y-109406247D02*
X170544173Y-109358628D01*
X170544173Y-109358628D02*
X170353697Y-109311009D01*
X170353697Y-109311009D02*
X170258459Y-109263390D01*
X170258459Y-109263390D02*
X170210840Y-109215771D01*
X170210840Y-109215771D02*
X170163221Y-109120533D01*
X170163221Y-109120533D02*
X170163221Y-109025295D01*
X170163221Y-109025295D02*
X170210840Y-108930057D01*
X170210840Y-108930057D02*
X170258459Y-108882438D01*
X170258459Y-108882438D02*
X170353697Y-108834819D01*
X170353697Y-108834819D02*
X170591792Y-108834819D01*
X170591792Y-108834819D02*
X170734649Y-108882438D01*
X171163221Y-109834819D02*
X171163221Y-108834819D01*
X168829887Y-117454819D02*
X168496554Y-116978628D01*
X168258459Y-117454819D02*
X168258459Y-116454819D01*
X168258459Y-116454819D02*
X168639411Y-116454819D01*
X168639411Y-116454819D02*
X168734649Y-116502438D01*
X168734649Y-116502438D02*
X168782268Y-116550057D01*
X168782268Y-116550057D02*
X168829887Y-116645295D01*
X168829887Y-116645295D02*
X168829887Y-116788152D01*
X168829887Y-116788152D02*
X168782268Y-116883390D01*
X168782268Y-116883390D02*
X168734649Y-116931009D01*
X168734649Y-116931009D02*
X168639411Y-116978628D01*
X168639411Y-116978628D02*
X168258459Y-116978628D01*
X169210840Y-117407200D02*
X169353697Y-117454819D01*
X169353697Y-117454819D02*
X169591792Y-117454819D01*
X169591792Y-117454819D02*
X169687030Y-117407200D01*
X169687030Y-117407200D02*
X169734649Y-117359580D01*
X169734649Y-117359580D02*
X169782268Y-117264342D01*
X169782268Y-117264342D02*
X169782268Y-117169104D01*
X169782268Y-117169104D02*
X169734649Y-117073866D01*
X169734649Y-117073866D02*
X169687030Y-117026247D01*
X169687030Y-117026247D02*
X169591792Y-116978628D01*
X169591792Y-116978628D02*
X169401316Y-116931009D01*
X169401316Y-116931009D02*
X169306078Y-116883390D01*
X169306078Y-116883390D02*
X169258459Y-116835771D01*
X169258459Y-116835771D02*
X169210840Y-116740533D01*
X169210840Y-116740533D02*
X169210840Y-116645295D01*
X169210840Y-116645295D02*
X169258459Y-116550057D01*
X169258459Y-116550057D02*
X169306078Y-116502438D01*
X169306078Y-116502438D02*
X169401316Y-116454819D01*
X169401316Y-116454819D02*
X169639411Y-116454819D01*
X169639411Y-116454819D02*
X169782268Y-116502438D01*
X170163221Y-117407200D02*
X170306078Y-117454819D01*
X170306078Y-117454819D02*
X170544173Y-117454819D01*
X170544173Y-117454819D02*
X170639411Y-117407200D01*
X170639411Y-117407200D02*
X170687030Y-117359580D01*
X170687030Y-117359580D02*
X170734649Y-117264342D01*
X170734649Y-117264342D02*
X170734649Y-117169104D01*
X170734649Y-117169104D02*
X170687030Y-117073866D01*
X170687030Y-117073866D02*
X170639411Y-117026247D01*
X170639411Y-117026247D02*
X170544173Y-116978628D01*
X170544173Y-116978628D02*
X170353697Y-116931009D01*
X170353697Y-116931009D02*
X170258459Y-116883390D01*
X170258459Y-116883390D02*
X170210840Y-116835771D01*
X170210840Y-116835771D02*
X170163221Y-116740533D01*
X170163221Y-116740533D02*
X170163221Y-116645295D01*
X170163221Y-116645295D02*
X170210840Y-116550057D01*
X170210840Y-116550057D02*
X170258459Y-116502438D01*
X170258459Y-116502438D02*
X170353697Y-116454819D01*
X170353697Y-116454819D02*
X170591792Y-116454819D01*
X170591792Y-116454819D02*
X170734649Y-116502438D01*
X171163221Y-117454819D02*
X171163221Y-116454819D01*
X169115601Y-121582438D02*
X169020363Y-121534819D01*
X169020363Y-121534819D02*
X168877506Y-121534819D01*
X168877506Y-121534819D02*
X168734649Y-121582438D01*
X168734649Y-121582438D02*
X168639411Y-121677676D01*
X168639411Y-121677676D02*
X168591792Y-121772914D01*
X168591792Y-121772914D02*
X168544173Y-121963390D01*
X168544173Y-121963390D02*
X168544173Y-122106247D01*
X168544173Y-122106247D02*
X168591792Y-122296723D01*
X168591792Y-122296723D02*
X168639411Y-122391961D01*
X168639411Y-122391961D02*
X168734649Y-122487200D01*
X168734649Y-122487200D02*
X168877506Y-122534819D01*
X168877506Y-122534819D02*
X168972744Y-122534819D01*
X168972744Y-122534819D02*
X169115601Y-122487200D01*
X169115601Y-122487200D02*
X169163220Y-122439580D01*
X169163220Y-122439580D02*
X169163220Y-122106247D01*
X169163220Y-122106247D02*
X168972744Y-122106247D01*
X169591792Y-122534819D02*
X169591792Y-121534819D01*
X169591792Y-121534819D02*
X170163220Y-122534819D01*
X170163220Y-122534819D02*
X170163220Y-121534819D01*
X170639411Y-122534819D02*
X170639411Y-121534819D01*
X170639411Y-121534819D02*
X170877506Y-121534819D01*
X170877506Y-121534819D02*
X171020363Y-121582438D01*
X171020363Y-121582438D02*
X171115601Y-121677676D01*
X171115601Y-121677676D02*
X171163220Y-121772914D01*
X171163220Y-121772914D02*
X171210839Y-121963390D01*
X171210839Y-121963390D02*
X171210839Y-122106247D01*
X171210839Y-122106247D02*
X171163220Y-122296723D01*
X171163220Y-122296723D02*
X171115601Y-122391961D01*
X171115601Y-122391961D02*
X171020363Y-122487200D01*
X171020363Y-122487200D02*
X170877506Y-122534819D01*
X170877506Y-122534819D02*
X170639411Y-122534819D01*
X167829887Y-114867200D02*
X167972744Y-114914819D01*
X167972744Y-114914819D02*
X168210839Y-114914819D01*
X168210839Y-114914819D02*
X168306077Y-114867200D01*
X168306077Y-114867200D02*
X168353696Y-114819580D01*
X168353696Y-114819580D02*
X168401315Y-114724342D01*
X168401315Y-114724342D02*
X168401315Y-114629104D01*
X168401315Y-114629104D02*
X168353696Y-114533866D01*
X168353696Y-114533866D02*
X168306077Y-114486247D01*
X168306077Y-114486247D02*
X168210839Y-114438628D01*
X168210839Y-114438628D02*
X168020363Y-114391009D01*
X168020363Y-114391009D02*
X167925125Y-114343390D01*
X167925125Y-114343390D02*
X167877506Y-114295771D01*
X167877506Y-114295771D02*
X167829887Y-114200533D01*
X167829887Y-114200533D02*
X167829887Y-114105295D01*
X167829887Y-114105295D02*
X167877506Y-114010057D01*
X167877506Y-114010057D02*
X167925125Y-113962438D01*
X167925125Y-113962438D02*
X168020363Y-113914819D01*
X168020363Y-113914819D02*
X168258458Y-113914819D01*
X168258458Y-113914819D02*
X168401315Y-113962438D01*
X169401315Y-114819580D02*
X169353696Y-114867200D01*
X169353696Y-114867200D02*
X169210839Y-114914819D01*
X169210839Y-114914819D02*
X169115601Y-114914819D01*
X169115601Y-114914819D02*
X168972744Y-114867200D01*
X168972744Y-114867200D02*
X168877506Y-114771961D01*
X168877506Y-114771961D02*
X168829887Y-114676723D01*
X168829887Y-114676723D02*
X168782268Y-114486247D01*
X168782268Y-114486247D02*
X168782268Y-114343390D01*
X168782268Y-114343390D02*
X168829887Y-114152914D01*
X168829887Y-114152914D02*
X168877506Y-114057676D01*
X168877506Y-114057676D02*
X168972744Y-113962438D01*
X168972744Y-113962438D02*
X169115601Y-113914819D01*
X169115601Y-113914819D02*
X169210839Y-113914819D01*
X169210839Y-113914819D02*
X169353696Y-113962438D01*
X169353696Y-113962438D02*
X169401315Y-114010057D01*
X170306077Y-114914819D02*
X169829887Y-114914819D01*
X169829887Y-114914819D02*
X169829887Y-113914819D01*
X170639411Y-114914819D02*
X170639411Y-113914819D01*
X171210839Y-114914819D02*
X170782268Y-114343390D01*
X171210839Y-113914819D02*
X170639411Y-114486247D01*
X169687030Y-112327200D02*
X169829887Y-112374819D01*
X169829887Y-112374819D02*
X170067982Y-112374819D01*
X170067982Y-112374819D02*
X170163220Y-112327200D01*
X170163220Y-112327200D02*
X170210839Y-112279580D01*
X170210839Y-112279580D02*
X170258458Y-112184342D01*
X170258458Y-112184342D02*
X170258458Y-112089104D01*
X170258458Y-112089104D02*
X170210839Y-111993866D01*
X170210839Y-111993866D02*
X170163220Y-111946247D01*
X170163220Y-111946247D02*
X170067982Y-111898628D01*
X170067982Y-111898628D02*
X169877506Y-111851009D01*
X169877506Y-111851009D02*
X169782268Y-111803390D01*
X169782268Y-111803390D02*
X169734649Y-111755771D01*
X169734649Y-111755771D02*
X169687030Y-111660533D01*
X169687030Y-111660533D02*
X169687030Y-111565295D01*
X169687030Y-111565295D02*
X169734649Y-111470057D01*
X169734649Y-111470057D02*
X169782268Y-111422438D01*
X169782268Y-111422438D02*
X169877506Y-111374819D01*
X169877506Y-111374819D02*
X170115601Y-111374819D01*
X170115601Y-111374819D02*
X170258458Y-111422438D01*
X170639411Y-112327200D02*
X170782268Y-112374819D01*
X170782268Y-112374819D02*
X171020363Y-112374819D01*
X171020363Y-112374819D02*
X171115601Y-112327200D01*
X171115601Y-112327200D02*
X171163220Y-112279580D01*
X171163220Y-112279580D02*
X171210839Y-112184342D01*
X171210839Y-112184342D02*
X171210839Y-112089104D01*
X171210839Y-112089104D02*
X171163220Y-111993866D01*
X171163220Y-111993866D02*
X171115601Y-111946247D01*
X171115601Y-111946247D02*
X171020363Y-111898628D01*
X171020363Y-111898628D02*
X170829887Y-111851009D01*
X170829887Y-111851009D02*
X170734649Y-111803390D01*
X170734649Y-111803390D02*
X170687030Y-111755771D01*
X170687030Y-111755771D02*
X170639411Y-111660533D01*
X170639411Y-111660533D02*
X170639411Y-111565295D01*
X170639411Y-111565295D02*
X170687030Y-111470057D01*
X170687030Y-111470057D02*
X170734649Y-111422438D01*
X170734649Y-111422438D02*
X170829887Y-111374819D01*
X170829887Y-111374819D02*
X171067982Y-111374819D01*
X171067982Y-111374819D02*
X171210839Y-111422438D01*
X169596554Y-111097200D02*
X171301316Y-111097200D01*
D11*
X86177419Y-92201904D02*
X86986942Y-92201904D01*
X86986942Y-92201904D02*
X87082180Y-92154285D01*
X87082180Y-92154285D02*
X87129800Y-92106666D01*
X87129800Y-92106666D02*
X87177419Y-92011428D01*
X87177419Y-92011428D02*
X87177419Y-91820952D01*
X87177419Y-91820952D02*
X87129800Y-91725714D01*
X87129800Y-91725714D02*
X87082180Y-91678095D01*
X87082180Y-91678095D02*
X86986942Y-91630476D01*
X86986942Y-91630476D02*
X86177419Y-91630476D01*
X86177419Y-90678095D02*
X86177419Y-91154285D01*
X86177419Y-91154285D02*
X86653609Y-91201904D01*
X86653609Y-91201904D02*
X86605990Y-91154285D01*
X86605990Y-91154285D02*
X86558371Y-91059047D01*
X86558371Y-91059047D02*
X86558371Y-90820952D01*
X86558371Y-90820952D02*
X86605990Y-90725714D01*
X86605990Y-90725714D02*
X86653609Y-90678095D01*
X86653609Y-90678095D02*
X86748847Y-90630476D01*
X86748847Y-90630476D02*
X86986942Y-90630476D01*
X86986942Y-90630476D02*
X87082180Y-90678095D01*
X87082180Y-90678095D02*
X87129800Y-90725714D01*
X87129800Y-90725714D02*
X87177419Y-90820952D01*
X87177419Y-90820952D02*
X87177419Y-91059047D01*
X87177419Y-91059047D02*
X87129800Y-91154285D01*
X87129800Y-91154285D02*
X87082180Y-91201904D01*
D12*
X134430112Y-95952800D02*
X134287255Y-95905180D01*
X134287255Y-95905180D02*
X134049160Y-95905180D01*
X134049160Y-95905180D02*
X133953922Y-95952800D01*
X133953922Y-95952800D02*
X133906303Y-96000419D01*
X133906303Y-96000419D02*
X133858684Y-96095657D01*
X133858684Y-96095657D02*
X133858684Y-96190895D01*
X133858684Y-96190895D02*
X133906303Y-96286133D01*
X133906303Y-96286133D02*
X133953922Y-96333752D01*
X133953922Y-96333752D02*
X134049160Y-96381371D01*
X134049160Y-96381371D02*
X134239636Y-96428990D01*
X134239636Y-96428990D02*
X134334874Y-96476609D01*
X134334874Y-96476609D02*
X134382493Y-96524228D01*
X134382493Y-96524228D02*
X134430112Y-96619466D01*
X134430112Y-96619466D02*
X134430112Y-96714704D01*
X134430112Y-96714704D02*
X134382493Y-96809942D01*
X134382493Y-96809942D02*
X134334874Y-96857561D01*
X134334874Y-96857561D02*
X134239636Y-96905180D01*
X134239636Y-96905180D02*
X134001541Y-96905180D01*
X134001541Y-96905180D02*
X133858684Y-96857561D01*
X132858684Y-96000419D02*
X132906303Y-95952800D01*
X132906303Y-95952800D02*
X133049160Y-95905180D01*
X133049160Y-95905180D02*
X133144398Y-95905180D01*
X133144398Y-95905180D02*
X133287255Y-95952800D01*
X133287255Y-95952800D02*
X133382493Y-96048038D01*
X133382493Y-96048038D02*
X133430112Y-96143276D01*
X133430112Y-96143276D02*
X133477731Y-96333752D01*
X133477731Y-96333752D02*
X133477731Y-96476609D01*
X133477731Y-96476609D02*
X133430112Y-96667085D01*
X133430112Y-96667085D02*
X133382493Y-96762323D01*
X133382493Y-96762323D02*
X133287255Y-96857561D01*
X133287255Y-96857561D02*
X133144398Y-96905180D01*
X133144398Y-96905180D02*
X133049160Y-96905180D01*
X133049160Y-96905180D02*
X132906303Y-96857561D01*
X132906303Y-96857561D02*
X132858684Y-96809942D01*
X131953922Y-95905180D02*
X132430112Y-95905180D01*
X132430112Y-95905180D02*
X132430112Y-96905180D01*
X131620588Y-95905180D02*
X131620588Y-96905180D01*
X131049160Y-95905180D02*
X131477731Y-96476609D01*
X131049160Y-96905180D02*
X131620588Y-96333752D01*
X132572969Y-98492800D02*
X132430112Y-98445180D01*
X132430112Y-98445180D02*
X132192017Y-98445180D01*
X132192017Y-98445180D02*
X132096779Y-98492800D01*
X132096779Y-98492800D02*
X132049160Y-98540419D01*
X132049160Y-98540419D02*
X132001541Y-98635657D01*
X132001541Y-98635657D02*
X132001541Y-98730895D01*
X132001541Y-98730895D02*
X132049160Y-98826133D01*
X132049160Y-98826133D02*
X132096779Y-98873752D01*
X132096779Y-98873752D02*
X132192017Y-98921371D01*
X132192017Y-98921371D02*
X132382493Y-98968990D01*
X132382493Y-98968990D02*
X132477731Y-99016609D01*
X132477731Y-99016609D02*
X132525350Y-99064228D01*
X132525350Y-99064228D02*
X132572969Y-99159466D01*
X132572969Y-99159466D02*
X132572969Y-99254704D01*
X132572969Y-99254704D02*
X132525350Y-99349942D01*
X132525350Y-99349942D02*
X132477731Y-99397561D01*
X132477731Y-99397561D02*
X132382493Y-99445180D01*
X132382493Y-99445180D02*
X132144398Y-99445180D01*
X132144398Y-99445180D02*
X132001541Y-99397561D01*
X131620588Y-98492800D02*
X131477731Y-98445180D01*
X131477731Y-98445180D02*
X131239636Y-98445180D01*
X131239636Y-98445180D02*
X131144398Y-98492800D01*
X131144398Y-98492800D02*
X131096779Y-98540419D01*
X131096779Y-98540419D02*
X131049160Y-98635657D01*
X131049160Y-98635657D02*
X131049160Y-98730895D01*
X131049160Y-98730895D02*
X131096779Y-98826133D01*
X131096779Y-98826133D02*
X131144398Y-98873752D01*
X131144398Y-98873752D02*
X131239636Y-98921371D01*
X131239636Y-98921371D02*
X131430112Y-98968990D01*
X131430112Y-98968990D02*
X131525350Y-99016609D01*
X131525350Y-99016609D02*
X131572969Y-99064228D01*
X131572969Y-99064228D02*
X131620588Y-99159466D01*
X131620588Y-99159466D02*
X131620588Y-99254704D01*
X131620588Y-99254704D02*
X131572969Y-99349942D01*
X131572969Y-99349942D02*
X131525350Y-99397561D01*
X131525350Y-99397561D02*
X131430112Y-99445180D01*
X131430112Y-99445180D02*
X131192017Y-99445180D01*
X131192017Y-99445180D02*
X131049160Y-99397561D01*
X132663446Y-99722800D02*
X130958684Y-99722800D01*
X134239635Y-100985180D02*
X134239635Y-101985180D01*
X134239635Y-101985180D02*
X133906302Y-101270895D01*
X133906302Y-101270895D02*
X133572969Y-101985180D01*
X133572969Y-101985180D02*
X133572969Y-100985180D01*
X132906302Y-101985180D02*
X132715826Y-101985180D01*
X132715826Y-101985180D02*
X132620588Y-101937561D01*
X132620588Y-101937561D02*
X132525350Y-101842323D01*
X132525350Y-101842323D02*
X132477731Y-101651847D01*
X132477731Y-101651847D02*
X132477731Y-101318514D01*
X132477731Y-101318514D02*
X132525350Y-101128038D01*
X132525350Y-101128038D02*
X132620588Y-101032800D01*
X132620588Y-101032800D02*
X132715826Y-100985180D01*
X132715826Y-100985180D02*
X132906302Y-100985180D01*
X132906302Y-100985180D02*
X133001540Y-101032800D01*
X133001540Y-101032800D02*
X133096778Y-101128038D01*
X133096778Y-101128038D02*
X133144397Y-101318514D01*
X133144397Y-101318514D02*
X133144397Y-101651847D01*
X133144397Y-101651847D02*
X133096778Y-101842323D01*
X133096778Y-101842323D02*
X133001540Y-101937561D01*
X133001540Y-101937561D02*
X132906302Y-101985180D01*
X132096778Y-101032800D02*
X131953921Y-100985180D01*
X131953921Y-100985180D02*
X131715826Y-100985180D01*
X131715826Y-100985180D02*
X131620588Y-101032800D01*
X131620588Y-101032800D02*
X131572969Y-101080419D01*
X131572969Y-101080419D02*
X131525350Y-101175657D01*
X131525350Y-101175657D02*
X131525350Y-101270895D01*
X131525350Y-101270895D02*
X131572969Y-101366133D01*
X131572969Y-101366133D02*
X131620588Y-101413752D01*
X131620588Y-101413752D02*
X131715826Y-101461371D01*
X131715826Y-101461371D02*
X131906302Y-101508990D01*
X131906302Y-101508990D02*
X132001540Y-101556609D01*
X132001540Y-101556609D02*
X132049159Y-101604228D01*
X132049159Y-101604228D02*
X132096778Y-101699466D01*
X132096778Y-101699466D02*
X132096778Y-101794704D01*
X132096778Y-101794704D02*
X132049159Y-101889942D01*
X132049159Y-101889942D02*
X132001540Y-101937561D01*
X132001540Y-101937561D02*
X131906302Y-101985180D01*
X131906302Y-101985180D02*
X131668207Y-101985180D01*
X131668207Y-101985180D02*
X131525350Y-101937561D01*
X131096778Y-100985180D02*
X131096778Y-101985180D01*
X136334874Y-91825180D02*
X135715827Y-91825180D01*
X135715827Y-91825180D02*
X136049160Y-91444228D01*
X136049160Y-91444228D02*
X135906303Y-91444228D01*
X135906303Y-91444228D02*
X135811065Y-91396609D01*
X135811065Y-91396609D02*
X135763446Y-91348990D01*
X135763446Y-91348990D02*
X135715827Y-91253752D01*
X135715827Y-91253752D02*
X135715827Y-91015657D01*
X135715827Y-91015657D02*
X135763446Y-90920419D01*
X135763446Y-90920419D02*
X135811065Y-90872800D01*
X135811065Y-90872800D02*
X135906303Y-90825180D01*
X135906303Y-90825180D02*
X136192017Y-90825180D01*
X136192017Y-90825180D02*
X136287255Y-90872800D01*
X136287255Y-90872800D02*
X136334874Y-90920419D01*
X135430112Y-91825180D02*
X135096779Y-90825180D01*
X135096779Y-90825180D02*
X134763446Y-91825180D01*
X134525350Y-91825180D02*
X133906303Y-91825180D01*
X133906303Y-91825180D02*
X134239636Y-91444228D01*
X134239636Y-91444228D02*
X134096779Y-91444228D01*
X134096779Y-91444228D02*
X134001541Y-91396609D01*
X134001541Y-91396609D02*
X133953922Y-91348990D01*
X133953922Y-91348990D02*
X133906303Y-91253752D01*
X133906303Y-91253752D02*
X133906303Y-91015657D01*
X133906303Y-91015657D02*
X133953922Y-90920419D01*
X133953922Y-90920419D02*
X134001541Y-90872800D01*
X134001541Y-90872800D02*
X134096779Y-90825180D01*
X134096779Y-90825180D02*
X134382493Y-90825180D01*
X134382493Y-90825180D02*
X134477731Y-90872800D01*
X134477731Y-90872800D02*
X134525350Y-90920419D01*
X132763446Y-91872800D02*
X133620588Y-90587085D01*
X131953922Y-91825180D02*
X132430112Y-91825180D01*
X132430112Y-91825180D02*
X132477731Y-91348990D01*
X132477731Y-91348990D02*
X132430112Y-91396609D01*
X132430112Y-91396609D02*
X132334874Y-91444228D01*
X132334874Y-91444228D02*
X132096779Y-91444228D01*
X132096779Y-91444228D02*
X132001541Y-91396609D01*
X132001541Y-91396609D02*
X131953922Y-91348990D01*
X131953922Y-91348990D02*
X131906303Y-91253752D01*
X131906303Y-91253752D02*
X131906303Y-91015657D01*
X131906303Y-91015657D02*
X131953922Y-90920419D01*
X131953922Y-90920419D02*
X132001541Y-90872800D01*
X132001541Y-90872800D02*
X132096779Y-90825180D01*
X132096779Y-90825180D02*
X132334874Y-90825180D01*
X132334874Y-90825180D02*
X132430112Y-90872800D01*
X132430112Y-90872800D02*
X132477731Y-90920419D01*
X131620588Y-91825180D02*
X131287255Y-90825180D01*
X131287255Y-90825180D02*
X130953922Y-91825180D01*
X133144398Y-89237561D02*
X133239636Y-89285180D01*
X133239636Y-89285180D02*
X133382493Y-89285180D01*
X133382493Y-89285180D02*
X133525350Y-89237561D01*
X133525350Y-89237561D02*
X133620588Y-89142323D01*
X133620588Y-89142323D02*
X133668207Y-89047085D01*
X133668207Y-89047085D02*
X133715826Y-88856609D01*
X133715826Y-88856609D02*
X133715826Y-88713752D01*
X133715826Y-88713752D02*
X133668207Y-88523276D01*
X133668207Y-88523276D02*
X133620588Y-88428038D01*
X133620588Y-88428038D02*
X133525350Y-88332800D01*
X133525350Y-88332800D02*
X133382493Y-88285180D01*
X133382493Y-88285180D02*
X133287255Y-88285180D01*
X133287255Y-88285180D02*
X133144398Y-88332800D01*
X133144398Y-88332800D02*
X133096779Y-88380419D01*
X133096779Y-88380419D02*
X133096779Y-88713752D01*
X133096779Y-88713752D02*
X133287255Y-88713752D01*
X132668207Y-88285180D02*
X132668207Y-89285180D01*
X132668207Y-89285180D02*
X132096779Y-88285180D01*
X132096779Y-88285180D02*
X132096779Y-89285180D01*
X131620588Y-88285180D02*
X131620588Y-89285180D01*
X131620588Y-89285180D02*
X131382493Y-89285180D01*
X131382493Y-89285180D02*
X131239636Y-89237561D01*
X131239636Y-89237561D02*
X131144398Y-89142323D01*
X131144398Y-89142323D02*
X131096779Y-89047085D01*
X131096779Y-89047085D02*
X131049160Y-88856609D01*
X131049160Y-88856609D02*
X131049160Y-88713752D01*
X131049160Y-88713752D02*
X131096779Y-88523276D01*
X131096779Y-88523276D02*
X131144398Y-88428038D01*
X131144398Y-88428038D02*
X131239636Y-88332800D01*
X131239636Y-88332800D02*
X131382493Y-88285180D01*
X131382493Y-88285180D02*
X131620588Y-88285180D01*
X133430112Y-93365180D02*
X133763445Y-93841371D01*
X134001540Y-93365180D02*
X134001540Y-94365180D01*
X134001540Y-94365180D02*
X133620588Y-94365180D01*
X133620588Y-94365180D02*
X133525350Y-94317561D01*
X133525350Y-94317561D02*
X133477731Y-94269942D01*
X133477731Y-94269942D02*
X133430112Y-94174704D01*
X133430112Y-94174704D02*
X133430112Y-94031847D01*
X133430112Y-94031847D02*
X133477731Y-93936609D01*
X133477731Y-93936609D02*
X133525350Y-93888990D01*
X133525350Y-93888990D02*
X133620588Y-93841371D01*
X133620588Y-93841371D02*
X134001540Y-93841371D01*
X133049159Y-93412800D02*
X132906302Y-93365180D01*
X132906302Y-93365180D02*
X132668207Y-93365180D01*
X132668207Y-93365180D02*
X132572969Y-93412800D01*
X132572969Y-93412800D02*
X132525350Y-93460419D01*
X132525350Y-93460419D02*
X132477731Y-93555657D01*
X132477731Y-93555657D02*
X132477731Y-93650895D01*
X132477731Y-93650895D02*
X132525350Y-93746133D01*
X132525350Y-93746133D02*
X132572969Y-93793752D01*
X132572969Y-93793752D02*
X132668207Y-93841371D01*
X132668207Y-93841371D02*
X132858683Y-93888990D01*
X132858683Y-93888990D02*
X132953921Y-93936609D01*
X132953921Y-93936609D02*
X133001540Y-93984228D01*
X133001540Y-93984228D02*
X133049159Y-94079466D01*
X133049159Y-94079466D02*
X133049159Y-94174704D01*
X133049159Y-94174704D02*
X133001540Y-94269942D01*
X133001540Y-94269942D02*
X132953921Y-94317561D01*
X132953921Y-94317561D02*
X132858683Y-94365180D01*
X132858683Y-94365180D02*
X132620588Y-94365180D01*
X132620588Y-94365180D02*
X132477731Y-94317561D01*
X132096778Y-93412800D02*
X131953921Y-93365180D01*
X131953921Y-93365180D02*
X131715826Y-93365180D01*
X131715826Y-93365180D02*
X131620588Y-93412800D01*
X131620588Y-93412800D02*
X131572969Y-93460419D01*
X131572969Y-93460419D02*
X131525350Y-93555657D01*
X131525350Y-93555657D02*
X131525350Y-93650895D01*
X131525350Y-93650895D02*
X131572969Y-93746133D01*
X131572969Y-93746133D02*
X131620588Y-93793752D01*
X131620588Y-93793752D02*
X131715826Y-93841371D01*
X131715826Y-93841371D02*
X131906302Y-93888990D01*
X131906302Y-93888990D02*
X132001540Y-93936609D01*
X132001540Y-93936609D02*
X132049159Y-93984228D01*
X132049159Y-93984228D02*
X132096778Y-94079466D01*
X132096778Y-94079466D02*
X132096778Y-94174704D01*
X132096778Y-94174704D02*
X132049159Y-94269942D01*
X132049159Y-94269942D02*
X132001540Y-94317561D01*
X132001540Y-94317561D02*
X131906302Y-94365180D01*
X131906302Y-94365180D02*
X131668207Y-94365180D01*
X131668207Y-94365180D02*
X131525350Y-94317561D01*
X131096778Y-93365180D02*
X131096778Y-94365180D01*
D13*
%TO.C,G\u002A\u002A\u002A*%
G36*
X149077325Y-138508277D02*
G01*
X149766472Y-138508303D01*
X149573863Y-138691894D01*
X149381254Y-138875484D01*
X149081615Y-138874776D01*
X148781976Y-138874068D01*
X148585077Y-138691159D01*
X148388178Y-138508251D01*
X149077325Y-138508277D01*
G37*
G36*
X150800193Y-138507755D02*
G01*
X151489340Y-138507794D01*
X151299085Y-138691639D01*
X151108830Y-138875484D01*
X150806837Y-138874508D01*
X150504844Y-138873532D01*
X150307945Y-138690623D01*
X150111046Y-138507715D01*
X150800193Y-138507755D01*
G37*
G36*
X158897674Y-140648890D02*
G01*
X159193023Y-140649530D01*
X159389922Y-140832439D01*
X159586821Y-141015347D01*
X158897674Y-141014915D01*
X158208527Y-141014484D01*
X158405426Y-140831367D01*
X158602325Y-140648250D01*
X158897674Y-140648890D01*
G37*
G36*
X158343895Y-138853901D02*
G01*
X158540794Y-139032557D01*
X158540794Y-139296245D01*
X158540794Y-139559933D01*
X158399273Y-139639698D01*
X158316258Y-139687237D01*
X158243189Y-139730372D01*
X158202373Y-139755634D01*
X158146996Y-139791805D01*
X158146996Y-139233525D01*
X158146996Y-138675245D01*
X158343895Y-138853901D01*
G37*
G36*
X147786499Y-138594628D02*
G01*
X147871317Y-138682958D01*
X147760561Y-138779154D01*
X147649806Y-138875351D01*
X147354457Y-138874408D01*
X147059108Y-138873466D01*
X146950446Y-138775232D01*
X146841784Y-138676999D01*
X146924509Y-138591649D01*
X147007233Y-138506298D01*
X147354457Y-138506298D01*
X147701680Y-138506298D01*
X147786499Y-138594628D01*
G37*
G36*
X153986072Y-138935857D02*
G01*
X154085949Y-139033149D01*
X154085949Y-139308031D01*
X154085949Y-139582913D01*
X153993653Y-139685871D01*
X153901356Y-139788829D01*
X153784447Y-139680645D01*
X153667538Y-139572460D01*
X153667538Y-139320989D01*
X153667538Y-139069518D01*
X153776867Y-138954042D01*
X153886195Y-138838566D01*
X153986072Y-138935857D01*
G37*
G36*
X155114286Y-138924139D02*
G01*
X155116576Y-139078843D01*
X155117106Y-139252000D01*
X155115877Y-139417623D01*
X155114286Y-139502938D01*
X155107364Y-139782995D01*
X154904520Y-139667660D01*
X154701677Y-139552326D01*
X154701468Y-139277568D01*
X154701259Y-139002811D01*
X154904311Y-138814104D01*
X155107364Y-138625397D01*
X155114286Y-138924139D01*
G37*
G36*
X148529699Y-139832399D02*
G01*
X148732751Y-139925448D01*
X148739714Y-140215996D01*
X148742788Y-140337343D01*
X148741709Y-140424900D01*
X148731244Y-140490015D01*
X148706154Y-140544042D01*
X148661206Y-140598332D01*
X148591161Y-140664235D01*
X148492780Y-140751332D01*
X148326647Y-140898771D01*
X148326647Y-140319061D01*
X148326647Y-139739351D01*
X148529699Y-139832399D01*
G37*
G36*
X150189180Y-139801394D02*
G01*
X150277138Y-139841150D01*
X150357381Y-139878847D01*
X150398385Y-139899121D01*
X150467926Y-139935082D01*
X150467926Y-140199874D01*
X150467926Y-140464666D01*
X150338711Y-140587336D01*
X150260216Y-140661260D01*
X150183207Y-140732814D01*
X150129505Y-140781847D01*
X150049515Y-140853686D01*
X150049515Y-140296657D01*
X150049515Y-139739627D01*
X150189180Y-139801394D01*
G37*
G36*
X157662764Y-138812951D02*
G01*
X157470154Y-138996542D01*
X157175580Y-138997544D01*
X156881005Y-138998546D01*
X156757163Y-138876243D01*
X156633322Y-138753940D01*
X156497959Y-138875178D01*
X156362596Y-138996415D01*
X156079554Y-138997145D01*
X155796511Y-138997874D01*
X155599612Y-138814757D01*
X155402713Y-138631640D01*
X156629043Y-138630500D01*
X157855373Y-138629360D01*
X157662764Y-138812951D01*
G37*
G36*
X155384253Y-138728204D02*
G01*
X155435352Y-138771392D01*
X155507140Y-138835800D01*
X155585033Y-138908312D01*
X155593459Y-138916326D01*
X155734980Y-139051257D01*
X155734824Y-139301791D01*
X155734669Y-139552326D01*
X155654834Y-139598223D01*
X155587657Y-139636684D01*
X155501217Y-139685967D01*
X155445784Y-139717482D01*
X155316569Y-139790842D01*
X155316569Y-139232927D01*
X155316569Y-138675013D01*
X155384253Y-138728204D01*
G37*
G36*
X146131300Y-139665253D02*
G01*
X146184873Y-139673059D01*
X146207468Y-139688442D01*
X146209980Y-139700000D01*
X146199848Y-139720058D01*
X146163416Y-139731539D01*
X146091631Y-139736380D01*
X146037693Y-139736919D01*
X145944087Y-139734747D01*
X145890513Y-139726941D01*
X145867918Y-139711558D01*
X145865406Y-139700000D01*
X145875538Y-139679941D01*
X145911970Y-139668461D01*
X145983755Y-139663620D01*
X146037693Y-139663081D01*
X146131300Y-139665253D01*
G37*
G36*
X146758043Y-137549099D02*
G01*
X146814160Y-137597940D01*
X146841174Y-137624477D01*
X146897478Y-137687055D01*
X146931934Y-137738009D01*
X146937718Y-137765221D01*
X146918139Y-137786681D01*
X146892661Y-137785226D01*
X146852834Y-137756498D01*
X146790209Y-137696138D01*
X146776165Y-137681885D01*
X146716642Y-137617089D01*
X146690212Y-137575273D01*
X146692129Y-137547929D01*
X146697657Y-137541141D01*
X146721954Y-137531760D01*
X146758043Y-137549099D01*
G37*
G36*
X146938313Y-141641411D02*
G01*
X146935937Y-141681183D01*
X146900020Y-141736939D01*
X146848112Y-141793879D01*
X146781083Y-141859704D01*
X146738229Y-141893066D01*
X146711038Y-141898311D01*
X146690997Y-141879781D01*
X146688238Y-141875474D01*
X146696003Y-141845632D01*
X146733043Y-141792876D01*
X146792158Y-141727347D01*
X146796475Y-141723006D01*
X146862444Y-141659382D01*
X146903114Y-141627913D01*
X146926147Y-141624194D01*
X146938313Y-141641411D01*
G37*
G36*
X148094065Y-139766870D02*
G01*
X148097250Y-139793897D01*
X148099532Y-139862978D01*
X148100844Y-139966947D01*
X148101116Y-140098639D01*
X148100280Y-140250890D01*
X148099453Y-140330139D01*
X148092829Y-140881395D01*
X147902083Y-140681910D01*
X147711337Y-140482426D01*
X147711363Y-140201969D01*
X147711390Y-139921512D01*
X147896722Y-139838184D01*
X147983184Y-139801267D01*
X148051288Y-139775858D01*
X148089787Y-139766020D01*
X148094065Y-139766870D01*
G37*
G36*
X148919372Y-142449269D02*
G01*
X148934224Y-142471479D01*
X148940636Y-142521789D01*
X148941957Y-142604264D01*
X148940423Y-142690843D01*
X148933589Y-142739112D01*
X148918109Y-142759950D01*
X148892732Y-142764244D01*
X148866092Y-142759258D01*
X148851240Y-142737048D01*
X148844828Y-142686738D01*
X148843507Y-142604264D01*
X148845041Y-142517685D01*
X148851875Y-142469415D01*
X148867355Y-142448577D01*
X148892732Y-142444283D01*
X148919372Y-142449269D01*
G37*
G36*
X149816934Y-139766870D02*
G01*
X149820111Y-139793891D01*
X149822391Y-139862986D01*
X149823706Y-139967009D01*
X149823987Y-140098816D01*
X149823167Y-140251262D01*
X149822322Y-140333080D01*
X149815697Y-140887277D01*
X149624801Y-140712050D01*
X149433905Y-140536822D01*
X149434082Y-140229167D01*
X149434259Y-139921512D01*
X149619590Y-139838184D01*
X149706052Y-139801267D01*
X149774156Y-139775858D01*
X149812655Y-139766020D01*
X149816934Y-139766870D01*
G37*
G36*
X151202869Y-137534935D02*
G01*
X151210869Y-137541141D01*
X151220519Y-137565754D01*
X151203275Y-137602234D01*
X151154392Y-137659087D01*
X151132361Y-137681885D01*
X151064839Y-137748275D01*
X151021605Y-137782265D01*
X150994211Y-137788213D01*
X150974205Y-137770477D01*
X150970808Y-137765221D01*
X150978170Y-137734985D01*
X151014442Y-137682830D01*
X151067352Y-137624477D01*
X151132805Y-137562982D01*
X151175232Y-137534728D01*
X151202869Y-137534935D01*
G37*
G36*
X151849812Y-139665546D02*
G01*
X151899688Y-139674353D01*
X151918886Y-139691621D01*
X151920058Y-139700000D01*
X151909377Y-139720708D01*
X151871214Y-139732218D01*
X151796385Y-139736648D01*
X151760077Y-139736919D01*
X151670341Y-139734454D01*
X151620466Y-139725647D01*
X151601268Y-139708379D01*
X151600096Y-139700000D01*
X151610777Y-139679292D01*
X151648940Y-139667782D01*
X151723769Y-139663352D01*
X151760077Y-139663081D01*
X151849812Y-139665546D01*
G37*
G36*
X153987433Y-139946059D02*
G01*
X154085949Y-140042257D01*
X154085949Y-140426066D01*
X154085949Y-140809874D01*
X153992615Y-140901013D01*
X153938062Y-140952088D01*
X153898426Y-140985160D01*
X153886289Y-140992151D01*
X153861942Y-140977444D01*
X153812969Y-140939564D01*
X153770418Y-140904090D01*
X153667538Y-140816029D01*
X153667538Y-140441579D01*
X153667538Y-140067129D01*
X153778228Y-139958495D01*
X153888918Y-139849861D01*
X153987433Y-139946059D01*
G37*
G36*
X157916894Y-139867799D02*
G01*
X157919344Y-139894073D01*
X157920988Y-139962507D01*
X157921789Y-140066042D01*
X157921713Y-140197620D01*
X157920723Y-140350181D01*
X157919802Y-140438184D01*
X157913178Y-140999036D01*
X157722432Y-140820876D01*
X157531685Y-140642715D01*
X157531685Y-140336091D01*
X157531685Y-140029467D01*
X157719523Y-139943866D01*
X157806176Y-139905912D01*
X157874148Y-139879026D01*
X157912478Y-139867432D01*
X157916894Y-139867799D01*
G37*
G36*
X157925484Y-139230694D02*
G01*
X157925224Y-139389934D01*
X157924497Y-139531137D01*
X157923378Y-139647404D01*
X157921944Y-139731842D01*
X157920273Y-139777552D01*
X157919331Y-139783726D01*
X157896787Y-139771142D01*
X157841626Y-139739493D01*
X157763771Y-139694485D01*
X157722432Y-139670496D01*
X157531685Y-139559683D01*
X157531685Y-139296120D01*
X157531685Y-139032557D01*
X157728585Y-138853901D01*
X157925484Y-138675245D01*
X157925484Y-139230694D01*
G37*
G36*
X146806831Y-139832407D02*
G01*
X147009883Y-139925463D01*
X147016727Y-140246271D01*
X147023572Y-140567079D01*
X146844441Y-140709862D01*
X146762202Y-140775312D01*
X146692464Y-140830627D01*
X146645708Y-140867503D01*
X146634544Y-140876187D01*
X146624501Y-140874519D01*
X146616775Y-140849145D01*
X146611107Y-140795415D01*
X146607242Y-140708682D01*
X146604923Y-140584297D01*
X146603891Y-140417612D01*
X146603778Y-140319540D01*
X146603778Y-139739351D01*
X146806831Y-139832407D01*
G37*
G36*
X146907352Y-138846729D02*
G01*
X147022189Y-138963319D01*
X147022189Y-139200290D01*
X147022189Y-139437262D01*
X146826437Y-139550171D01*
X146739184Y-139599707D01*
X146668794Y-139638186D01*
X146625511Y-139660081D01*
X146617231Y-139663081D01*
X146612678Y-139639846D01*
X146608784Y-139575647D01*
X146605832Y-139478743D01*
X146604108Y-139357392D01*
X146603778Y-139271351D01*
X146603778Y-138879621D01*
X146698147Y-138804880D01*
X146792515Y-138730138D01*
X146907352Y-138846729D01*
G37*
G36*
X148015831Y-138802174D02*
G01*
X148105135Y-138880584D01*
X148105135Y-139271833D01*
X148104040Y-139404102D01*
X148101016Y-139516943D01*
X148096450Y-139602161D01*
X148090733Y-139651561D01*
X148086676Y-139660600D01*
X148058132Y-139647951D01*
X147998323Y-139616457D01*
X147918485Y-139572102D01*
X147890244Y-139555998D01*
X147712272Y-139453876D01*
X147711804Y-139194417D01*
X147711337Y-138934958D01*
X147818932Y-138829361D01*
X147926528Y-138723764D01*
X148015831Y-138802174D01*
G37*
G36*
X151029788Y-141647298D02*
G01*
X151086148Y-141696670D01*
X151118553Y-141728897D01*
X151175388Y-141792519D01*
X151211863Y-141845087D01*
X151220279Y-141875458D01*
X151220060Y-141875842D01*
X151201251Y-141896662D01*
X151176687Y-141895805D01*
X151138205Y-141868842D01*
X151077637Y-141811348D01*
X151050302Y-141783793D01*
X150988390Y-141717655D01*
X150958834Y-141675436D01*
X150956858Y-141648742D01*
X150966727Y-141636848D01*
X150992714Y-141629014D01*
X151029788Y-141647298D01*
G37*
G36*
X151274225Y-140700470D02*
G01*
X151353672Y-140775051D01*
X151418542Y-140838213D01*
X151460850Y-140882044D01*
X151472932Y-140897369D01*
X151451550Y-140902760D01*
X151387092Y-140907554D01*
X151285702Y-140911570D01*
X151153528Y-140914629D01*
X150996716Y-140916552D01*
X150821411Y-140917160D01*
X150796091Y-140917130D01*
X150111046Y-140915946D01*
X150320251Y-140720409D01*
X150529457Y-140524872D01*
X150806590Y-140524694D01*
X151083722Y-140524515D01*
X151274225Y-140700470D01*
G37*
G36*
X159376024Y-138813953D02*
G01*
X159178638Y-138998546D01*
X158895661Y-138998546D01*
X158612683Y-138998546D01*
X158435217Y-138834521D01*
X158356817Y-138762160D01*
X158290914Y-138701520D01*
X158246635Y-138660992D01*
X158234370Y-138649928D01*
X158251697Y-138644592D01*
X158312269Y-138639771D01*
X158410105Y-138635652D01*
X158539226Y-138632421D01*
X158693653Y-138630266D01*
X158867404Y-138629374D01*
X158892199Y-138629360D01*
X159573410Y-138629360D01*
X159376024Y-138813953D01*
G37*
G36*
X148970706Y-136592539D02*
G01*
X148983740Y-136613965D01*
X148989728Y-136665096D01*
X148991181Y-136755610D01*
X148991182Y-136757013D01*
X148989927Y-136848031D01*
X148984138Y-136900360D01*
X148970773Y-136924512D01*
X148946792Y-136931001D01*
X148940832Y-136931105D01*
X148914249Y-136927068D01*
X148899967Y-136907774D01*
X148895188Y-136862446D01*
X148897114Y-136780307D01*
X148897761Y-136765225D01*
X148904119Y-136673577D01*
X148915153Y-136620710D01*
X148933877Y-136596210D01*
X148948110Y-136591134D01*
X148970706Y-136592539D01*
G37*
G36*
X149828003Y-139116780D02*
G01*
X149827212Y-139274629D01*
X149824995Y-139414376D01*
X149821588Y-139529069D01*
X149817228Y-139611756D01*
X149812150Y-139655486D01*
X149809544Y-139660600D01*
X149781000Y-139647951D01*
X149721191Y-139616457D01*
X149641354Y-139572102D01*
X149613112Y-139555998D01*
X149435140Y-139453876D01*
X149434672Y-139194417D01*
X149434205Y-138934958D01*
X149538808Y-138837267D01*
X149617841Y-138763772D01*
X149700357Y-138687511D01*
X149735707Y-138655028D01*
X149828003Y-138570479D01*
X149828003Y-139116780D01*
G37*
G36*
X158183839Y-139869495D02*
G01*
X158243231Y-139894826D01*
X158324915Y-139931152D01*
X158354837Y-139944724D01*
X158540794Y-140029467D01*
X158540794Y-140308597D01*
X158540794Y-140587728D01*
X158411579Y-140710573D01*
X158335871Y-140781797D01*
X158264202Y-140847967D01*
X158214680Y-140892462D01*
X158146996Y-140951507D01*
X158146996Y-140405744D01*
X158147466Y-140247793D01*
X158148782Y-140107778D01*
X158150805Y-139992697D01*
X158153395Y-139909548D01*
X158156410Y-139865326D01*
X158157938Y-139859981D01*
X158183839Y-139869495D01*
G37*
G36*
X156654221Y-138891009D02*
G01*
X156704214Y-138929902D01*
X156744018Y-138964492D01*
X156842538Y-139053499D01*
X156842538Y-139343855D01*
X156842538Y-139634211D01*
X156739240Y-139710177D01*
X156678495Y-139752758D01*
X156634903Y-139779458D01*
X156622331Y-139784272D01*
X156595884Y-139769971D01*
X156544764Y-139735986D01*
X156517342Y-139716587D01*
X156425964Y-139650775D01*
X156425046Y-139349604D01*
X156424127Y-139048434D01*
X156516424Y-138962625D01*
X156572428Y-138913518D01*
X156614312Y-138882146D01*
X156627109Y-138876150D01*
X156654221Y-138891009D01*
G37*
G36*
X148392634Y-138622912D02*
G01*
X148439413Y-138659426D01*
X148503908Y-138720778D01*
X148585329Y-138800033D01*
X148745058Y-138953413D01*
X148745058Y-139195152D01*
X148745058Y-139436891D01*
X148552148Y-139549986D01*
X148465330Y-139599898D01*
X148394888Y-139638552D01*
X148351268Y-139660303D01*
X148342943Y-139663081D01*
X148338215Y-139639639D01*
X148334025Y-139573989D01*
X148330586Y-139473147D01*
X148328106Y-139344129D01*
X148326798Y-139193951D01*
X148326647Y-139120213D01*
X148326138Y-138934654D01*
X148326485Y-138794804D01*
X148330498Y-138697182D01*
X148340987Y-138638312D01*
X148360762Y-138614715D01*
X148392634Y-138622912D01*
G37*
G36*
X150113946Y-138623543D02*
G01*
X150160081Y-138658678D01*
X150223798Y-138717968D01*
X150304489Y-138794652D01*
X150467926Y-138947637D01*
X150467926Y-139192264D01*
X150467926Y-139436891D01*
X150275016Y-139549986D01*
X150188198Y-139599898D01*
X150117756Y-139638552D01*
X150074137Y-139660303D01*
X150065811Y-139663081D01*
X150061083Y-139639639D01*
X150056894Y-139573989D01*
X150053454Y-139473147D01*
X150050974Y-139344129D01*
X150049666Y-139193951D01*
X150049515Y-139120213D01*
X150048971Y-138935333D01*
X150049207Y-138796062D01*
X150053021Y-138698822D01*
X150063216Y-138640040D01*
X150082591Y-138616139D01*
X150113946Y-138623543D01*
G37*
G36*
X155084434Y-139882628D02*
G01*
X155104600Y-139911941D01*
X155115566Y-139970397D01*
X155119980Y-140062679D01*
X155120490Y-140193467D01*
X155119744Y-140367445D01*
X155119670Y-140424407D01*
X155118907Y-140585580D01*
X155116768Y-140728878D01*
X155113474Y-140847459D01*
X155109250Y-140934482D01*
X155104317Y-140983103D01*
X155101211Y-140991011D01*
X155076622Y-140974757D01*
X155024596Y-140931705D01*
X154953421Y-140868921D01*
X154891855Y-140812571D01*
X154700959Y-140635271D01*
X154701109Y-140336089D01*
X154701259Y-140036907D01*
X154858813Y-139963179D01*
X154942257Y-139922735D01*
X155005910Y-139892707D01*
X155052420Y-139877777D01*
X155084434Y-139882628D01*
G37*
G36*
X155369688Y-139869930D02*
G01*
X155433148Y-139896424D01*
X155517162Y-139934430D01*
X155547832Y-139948857D01*
X155734980Y-140037733D01*
X155734980Y-140339148D01*
X155734980Y-140640564D01*
X155540291Y-140816357D01*
X155459297Y-140888335D01*
X155391908Y-140946057D01*
X155346285Y-140982665D01*
X155331086Y-140992151D01*
X155326957Y-140968684D01*
X155323285Y-140902864D01*
X155320246Y-140801561D01*
X155318015Y-140671646D01*
X155316770Y-140519990D01*
X155316569Y-140426066D01*
X155317486Y-140261084D01*
X155320069Y-140116126D01*
X155324064Y-139997668D01*
X155329220Y-139912190D01*
X155335285Y-139866171D01*
X155338627Y-139859981D01*
X155369688Y-139869930D01*
G37*
G36*
X151257373Y-139592049D02*
G01*
X151336500Y-139640261D01*
X151396095Y-139678865D01*
X151426087Y-139701258D01*
X151427809Y-139703766D01*
X151407265Y-139718480D01*
X151352686Y-139748298D01*
X151274652Y-139787527D01*
X151250064Y-139799411D01*
X151169048Y-139836999D01*
X151104326Y-139861416D01*
X151041174Y-139875390D01*
X150964870Y-139881644D01*
X150860691Y-139882905D01*
X150800888Y-139882570D01*
X150678030Y-139880682D01*
X150589179Y-139875224D01*
X150519121Y-139863266D01*
X150452643Y-139841878D01*
X150374530Y-139808128D01*
X150346192Y-139794986D01*
X150162927Y-139709425D01*
X150346192Y-139600388D01*
X150529457Y-139491350D01*
X150808196Y-139491072D01*
X151086936Y-139490795D01*
X151257373Y-139592049D01*
G37*
G36*
X156648900Y-139878317D02*
G01*
X156697130Y-139911324D01*
X156769073Y-139975033D01*
X156774854Y-139980263D01*
X156803570Y-140008033D01*
X156822742Y-140036302D01*
X156834299Y-140075111D01*
X156840165Y-140134502D01*
X156842269Y-140224516D01*
X156842538Y-140332976D01*
X156842538Y-140624475D01*
X156741925Y-140802160D01*
X156694779Y-140884729D01*
X156657303Y-140949070D01*
X156635705Y-140984572D01*
X156633136Y-140988134D01*
X156616144Y-140976167D01*
X156589539Y-140938909D01*
X156521716Y-140826233D01*
X156475507Y-140738084D01*
X156446780Y-140659536D01*
X156431397Y-140575662D01*
X156425225Y-140471538D01*
X156424127Y-140341817D01*
X156424127Y-140042257D01*
X156521480Y-139947195D01*
X156573575Y-139897884D01*
X156611882Y-139874381D01*
X156648900Y-139878317D01*
G37*
G36*
X149204237Y-139491660D02*
G01*
X149289716Y-139495327D01*
X149351691Y-139504497D01*
X149403020Y-139521593D01*
X149456560Y-139549036D01*
X149488500Y-139567585D01*
X149591969Y-139628527D01*
X149655457Y-139670264D01*
X149680352Y-139700264D01*
X149668045Y-139725997D01*
X149619924Y-139754931D01*
X149537379Y-139794536D01*
X149531262Y-139797462D01*
X149448597Y-139835886D01*
X149382993Y-139860877D01*
X149319622Y-139875234D01*
X149243656Y-139881755D01*
X149140267Y-139883237D01*
X149078019Y-139882989D01*
X148955237Y-139881300D01*
X148866456Y-139876003D01*
X148796456Y-139864185D01*
X148730018Y-139842931D01*
X148651922Y-139809328D01*
X148622653Y-139795802D01*
X148438718Y-139710220D01*
X148622653Y-139600785D01*
X148806589Y-139491350D01*
X149082395Y-139491072D01*
X149204237Y-139491660D01*
G37*
G36*
X159351754Y-139703183D02*
G01*
X159427515Y-139749821D01*
X159485027Y-139788045D01*
X159512449Y-139809961D01*
X159512861Y-139810556D01*
X159497463Y-139828152D01*
X159446637Y-139858673D01*
X159370455Y-139896257D01*
X159349185Y-139905823D01*
X159269851Y-139939423D01*
X159204189Y-139961470D01*
X159137983Y-139974295D01*
X159057019Y-139980228D01*
X158947080Y-139981598D01*
X158888341Y-139981372D01*
X158762013Y-139979759D01*
X158670799Y-139974979D01*
X158600589Y-139964516D01*
X158537277Y-139945852D01*
X158466755Y-139916469D01*
X158430038Y-139899605D01*
X158257751Y-139819509D01*
X158368507Y-139750888D01*
X158443699Y-139704219D01*
X158509952Y-139662962D01*
X158533775Y-139648062D01*
X158579249Y-139631620D01*
X158657572Y-139620825D01*
X158774592Y-139615124D01*
X158895044Y-139613857D01*
X159201801Y-139613857D01*
X159351754Y-139703183D01*
G37*
G36*
X154489657Y-138813953D02*
G01*
X154423449Y-138900369D01*
X154376457Y-138954516D01*
X154338912Y-138983914D01*
X154301046Y-138996083D01*
X154253092Y-138998543D01*
X154249875Y-138998546D01*
X154190934Y-138994053D01*
X154141321Y-138975258D01*
X154086437Y-138934185D01*
X154024197Y-138875266D01*
X153899366Y-138751986D01*
X153761048Y-138875266D01*
X153682968Y-138941215D01*
X153624570Y-138978811D01*
X153571666Y-138995421D01*
X153523511Y-138998546D01*
X153471181Y-138995693D01*
X153430877Y-138981592D01*
X153390954Y-138947936D01*
X153339764Y-138886413D01*
X153307904Y-138844719D01*
X153249351Y-138767356D01*
X153200583Y-138702967D01*
X153170735Y-138663612D01*
X153168083Y-138660126D01*
X153170417Y-138651115D01*
X153195427Y-138643943D01*
X153247299Y-138638431D01*
X153330219Y-138634400D01*
X153448372Y-138631672D01*
X153605943Y-138630065D01*
X153807118Y-138629403D01*
X153886622Y-138629360D01*
X154628593Y-138629360D01*
X154489657Y-138813953D01*
G37*
G36*
X149298837Y-135969150D02*
G01*
X149730419Y-136038536D01*
X150142514Y-136151962D01*
X150532759Y-136307320D01*
X150898789Y-136502501D01*
X151238242Y-136735395D01*
X151548755Y-137003893D01*
X151827965Y-137305886D01*
X152073508Y-137639265D01*
X152283022Y-138001920D01*
X152454143Y-138391743D01*
X152584508Y-138806624D01*
X152613532Y-138927650D01*
X152633517Y-139022619D01*
X152648307Y-139110331D01*
X152658654Y-139200942D01*
X152665309Y-139304606D01*
X152669025Y-139431479D01*
X152670554Y-139591714D01*
X152670736Y-139700000D01*
X152670104Y-139883397D01*
X152667707Y-140027734D01*
X152662793Y-140143166D01*
X152654610Y-140239848D01*
X152642405Y-140327936D01*
X152625427Y-140417584D01*
X152613532Y-140472350D01*
X152496231Y-140889177D01*
X152337238Y-141283675D01*
X152139006Y-141653321D01*
X151903985Y-141995595D01*
X151634625Y-142307976D01*
X151333379Y-142587943D01*
X151002697Y-142832977D01*
X150645029Y-143040555D01*
X150262828Y-143208158D01*
X149858543Y-143333264D01*
X149823520Y-143341791D01*
X149539112Y-143397640D01*
X149244765Y-143433688D01*
X148957061Y-143448596D01*
X148692580Y-143441023D01*
X148646608Y-143436961D01*
X148214247Y-143370688D01*
X147800771Y-143260864D01*
X147408643Y-143109624D01*
X147040325Y-142919106D01*
X146698280Y-142691446D01*
X146384972Y-142428780D01*
X146102863Y-142133246D01*
X145854416Y-141806980D01*
X145642093Y-141452119D01*
X145468359Y-141070799D01*
X145335675Y-140665158D01*
X145303729Y-140536822D01*
X145232818Y-140122278D01*
X145209559Y-139703946D01*
X145209781Y-139700000D01*
X145791569Y-139700000D01*
X145810389Y-140069044D01*
X145868578Y-140416376D01*
X145968735Y-140753009D01*
X146113454Y-141089954D01*
X146124604Y-141112407D01*
X146322475Y-141454170D01*
X146556956Y-141764264D01*
X146825417Y-142040739D01*
X147125229Y-142281646D01*
X147453762Y-142485035D01*
X147808384Y-142648957D01*
X148186466Y-142771460D01*
X148437403Y-142826838D01*
X148586208Y-142845853D01*
X148767669Y-142856540D01*
X148965932Y-142858932D01*
X149165142Y-142853064D01*
X149349447Y-142838972D01*
X149458817Y-142824604D01*
X149836289Y-142739201D01*
X150195375Y-142609882D01*
X150533114Y-142439479D01*
X150846540Y-142230823D01*
X151132691Y-141986745D01*
X151388604Y-141710077D01*
X151611314Y-141403649D01*
X151797859Y-141070292D01*
X151945275Y-140712839D01*
X152046662Y-140352229D01*
X152085027Y-140115997D01*
X152104724Y-139852144D01*
X152105755Y-139578456D01*
X152088122Y-139312718D01*
X152051827Y-139072716D01*
X152046501Y-139047771D01*
X151937074Y-138663456D01*
X151784474Y-138300862D01*
X151590909Y-137962817D01*
X151358582Y-137652148D01*
X151089699Y-137371680D01*
X150786464Y-137124241D01*
X150451083Y-136912658D01*
X150332558Y-136850602D01*
X150002859Y-136712823D01*
X149651643Y-136614962D01*
X149286553Y-136557278D01*
X148915231Y-136540030D01*
X148545320Y-136563478D01*
X148184463Y-136627882D01*
X147840303Y-136733500D01*
X147764805Y-136763445D01*
X147406540Y-136937957D01*
X147076870Y-137151716D01*
X146778181Y-137402504D01*
X146512862Y-137688102D01*
X146283300Y-138006292D01*
X146124604Y-138287593D01*
X145976861Y-138624945D01*
X145873852Y-138961260D01*
X145812980Y-139307550D01*
X145791649Y-139674826D01*
X145791569Y-139700000D01*
X145209781Y-139700000D01*
X145233069Y-139286249D01*
X145302467Y-138873611D01*
X145416868Y-138470453D01*
X145575390Y-138081199D01*
X145777151Y-137710271D01*
X145906959Y-137514648D01*
X146018452Y-137371551D01*
X146159014Y-137212256D01*
X146317070Y-137048337D01*
X146481046Y-136891368D01*
X146639369Y-136752924D01*
X146768911Y-136652696D01*
X147109868Y-136438526D01*
X147475114Y-136260878D01*
X147857791Y-136121604D01*
X148251041Y-136022558D01*
X148648004Y-135965591D01*
X149041823Y-135952559D01*
X149298837Y-135969150D01*
G37*
D12*
%TO.C,U6*%
X88220000Y-107380000D02*
X130220000Y-107380000D01*
X88220000Y-131380000D02*
X88220000Y-107380000D01*
D14*
X126950000Y-115410000D02*
X128220000Y-115410000D01*
X126950000Y-116680000D02*
X126950000Y-115410000D01*
X126950000Y-117950000D02*
X126950000Y-130650000D01*
X126950000Y-117950000D02*
X129490000Y-117950000D01*
X126950000Y-130650000D02*
X129490000Y-130650000D01*
X129490000Y-117950000D02*
X129490000Y-130650000D01*
D12*
X130220000Y-107380000D02*
X130220000Y-131380000D01*
X130220000Y-131380000D02*
X88220000Y-131380000D01*
D11*
X94220000Y-111380000D02*
G75*
G02*
X90220000Y-111380000I-2000000J0D01*
G01*
X90220000Y-111380000D02*
G75*
G02*
X94220000Y-111380000I2000000J0D01*
G01*
X94220000Y-119380000D02*
G75*
G02*
X90220000Y-119380000I-2000000J0D01*
G01*
X90220000Y-119380000D02*
G75*
G02*
X94220000Y-119380000I2000000J0D01*
G01*
D12*
%TO.C,U2*%
X172040000Y-79280000D02*
X214040000Y-79280000D01*
X172040000Y-103280000D02*
X172040000Y-79280000D01*
D14*
X172770000Y-92710000D02*
X172770000Y-80010000D01*
X175310000Y-80010000D02*
X172770000Y-80010000D01*
X175310000Y-92710000D02*
X172770000Y-92710000D01*
X175310000Y-92710000D02*
X175310000Y-80010000D01*
X175310000Y-93980000D02*
X175310000Y-95250000D01*
X175310000Y-95250000D02*
X174040000Y-95250000D01*
D12*
X214040000Y-79280000D02*
X214040000Y-103280000D01*
X214040000Y-103280000D02*
X172040000Y-103280000D01*
D11*
X212040000Y-91280000D02*
G75*
G02*
X208040000Y-91280000I-2000000J0D01*
G01*
X208040000Y-91280000D02*
G75*
G02*
X212040000Y-91280000I2000000J0D01*
G01*
X212040000Y-99280000D02*
G75*
G02*
X208040000Y-99280000I-2000000J0D01*
G01*
X208040000Y-99280000D02*
G75*
G02*
X212040000Y-99280000I2000000J0D01*
G01*
D14*
%TO.C,SW1*%
X173250000Y-137000000D02*
X173250000Y-138500000D01*
X174500000Y-141000000D02*
X179000000Y-141000000D01*
X179000000Y-134500000D02*
X174500000Y-134500000D01*
X180250000Y-138500000D02*
X180250000Y-137000000D01*
D12*
%TO.C,U4*%
X172040000Y-107380000D02*
X214040000Y-107380000D01*
X172040000Y-131380000D02*
X172040000Y-107380000D01*
D14*
X172770000Y-120810000D02*
X172770000Y-108110000D01*
X175310000Y-108110000D02*
X172770000Y-108110000D01*
X175310000Y-120810000D02*
X172770000Y-120810000D01*
X175310000Y-120810000D02*
X175310000Y-108110000D01*
X175310000Y-122080000D02*
X175310000Y-123350000D01*
X175310000Y-123350000D02*
X174040000Y-123350000D01*
D12*
X214040000Y-107380000D02*
X214040000Y-131380000D01*
X214040000Y-131380000D02*
X172040000Y-131380000D01*
D11*
X212040000Y-119380000D02*
G75*
G02*
X208040000Y-119380000I-2000000J0D01*
G01*
X208040000Y-119380000D02*
G75*
G02*
X212040000Y-119380000I2000000J0D01*
G01*
X212040000Y-127380000D02*
G75*
G02*
X208040000Y-127380000I-2000000J0D01*
G01*
X208040000Y-127380000D02*
G75*
G02*
X212040000Y-127380000I2000000J0D01*
G01*
D12*
%TO.C,U5*%
X88220000Y-79440000D02*
X130220000Y-79440000D01*
X88220000Y-103440000D02*
X88220000Y-79440000D01*
D14*
X126950000Y-87470000D02*
X128220000Y-87470000D01*
X126950000Y-88740000D02*
X126950000Y-87470000D01*
X126950000Y-90010000D02*
X126950000Y-102710000D01*
X126950000Y-90010000D02*
X129490000Y-90010000D01*
X126950000Y-102710000D02*
X129490000Y-102710000D01*
X129490000Y-90010000D02*
X129490000Y-102710000D01*
D12*
X130220000Y-79440000D02*
X130220000Y-103440000D01*
X130220000Y-103440000D02*
X88220000Y-103440000D01*
D11*
X94220000Y-83440000D02*
G75*
G02*
X90220000Y-83440000I-2000000J0D01*
G01*
X90220000Y-83440000D02*
G75*
G02*
X94220000Y-83440000I2000000J0D01*
G01*
X94220000Y-91440000D02*
G75*
G02*
X90220000Y-91440000I-2000000J0D01*
G01*
X90220000Y-91440000D02*
G75*
G02*
X94220000Y-91440000I2000000J0D01*
G01*
%TD*%
M02*
