%TF.GenerationSoftware,KiCad,Pcbnew,9.0.0*%
%TF.CreationDate,2026-01-17T10:43:27+00:00*%
%TF.ProjectId,NaeTime Split Timer,4e616554-696d-4652-9053-706c69742054,rev?*%
%TF.SameCoordinates,Original*%
%TF.FileFunction,Soldermask,Top*%
%TF.FilePolarity,Negative*%
%FSLAX46Y46*%
G04 Gerber Fmt 4.6, Leading zero omitted, Abs format (unit mm)*
G04 Created by KiCad (PCBNEW 9.0.0) date 2026-01-17 10:43:27*
%MOMM*%
%LPD*%
G01*
G04 APERTURE LIST*
G04 Aperture macros list*
%AMRoundRect*
0 Rectangle with rounded corners*
0 $1 Rounding radius*
0 $2 $3 $4 $5 $6 $7 $8 $9 X,Y pos of 4 corners*
0 Add a 4 corners polygon primitive as box body*
4,1,4,$2,$3,$4,$5,$6,$7,$8,$9,$2,$3,0*
0 Add four circle primitives for the rounded corners*
1,1,$1+$1,$2,$3*
1,1,$1+$1,$4,$5*
1,1,$1+$1,$6,$7*
1,1,$1+$1,$8,$9*
0 Add four rect primitives between the rounded corners*
20,1,$1+$1,$2,$3,$4,$5,0*
20,1,$1+$1,$4,$5,$6,$7,0*
20,1,$1+$1,$6,$7,$8,$9,0*
20,1,$1+$1,$8,$9,$2,$3,0*%
G04 Aperture macros list end*
%ADD10RoundRect,0.375000X0.875000X-2.125000X0.875000X2.125000X-0.875000X2.125000X-0.875000X-2.125000X0*%
%ADD11C,3.200000*%
%ADD12R,1.700000X1.700000*%
%ADD13C,1.700000*%
%ADD14C,2.000000*%
%ADD15C,2.200000*%
G04 APERTURE END LIST*
D10*
%TO.C,U7*%
X100000000Y-139700000D03*
X105080000Y-139700000D03*
%TD*%
D11*
%TO.C,REF\u002A\u002A*%
X85000000Y-75000000D03*
%TD*%
%TO.C,U6*%
X92220000Y-119380000D03*
X92220000Y-111380000D03*
D12*
X128220000Y-116680000D03*
D13*
X128220000Y-119220000D03*
X128220000Y-121760000D03*
X128220000Y-124300000D03*
X128220000Y-126840000D03*
X128220000Y-129380000D03*
%TD*%
D11*
%TO.C,U2*%
X210040000Y-91280000D03*
X210040000Y-99280000D03*
D12*
X174040000Y-93980000D03*
D13*
X174040000Y-91440000D03*
X174040000Y-88900000D03*
X174040000Y-86360000D03*
X174040000Y-83820000D03*
X174040000Y-81280000D03*
%TD*%
D11*
%TO.C,REF\u002A\u002A*%
X215000000Y-140000000D03*
%TD*%
D10*
%TO.C,U8*%
X194920000Y-140000000D03*
X200000000Y-140000000D03*
%TD*%
D14*
%TO.C,SW1*%
X173500000Y-135500000D03*
X180000000Y-135500000D03*
X173500000Y-140000000D03*
X180000000Y-140000000D03*
%TD*%
D11*
%TO.C,REF\u002A\u002A*%
X215000000Y-75000000D03*
%TD*%
D15*
%TO.C,U3*%
X127000000Y-139700000D03*
X129540000Y-139700000D03*
X132080000Y-139700000D03*
X134620000Y-139700000D03*
%TD*%
%TO.C,U1*%
X142220000Y-82300000D03*
X142220000Y-84840000D03*
X142220000Y-87380000D03*
X142220000Y-89920000D03*
X142220000Y-92460000D03*
X142220000Y-95000000D03*
X142220000Y-97540000D03*
X142220000Y-100080000D03*
X142220000Y-102620000D03*
X142220000Y-105160000D03*
X142220000Y-107700000D03*
X142220000Y-110240000D03*
X142220000Y-112780000D03*
X142220000Y-115320000D03*
X142220000Y-117860000D03*
X142220000Y-120400000D03*
X142220000Y-122940000D03*
X142220000Y-125480000D03*
X142220000Y-128020000D03*
X142220000Y-130560000D03*
X160000000Y-82300000D03*
X160000000Y-84840000D03*
X160000000Y-87380000D03*
X160000000Y-89920000D03*
X160000000Y-92460000D03*
X160000000Y-95000000D03*
X160000000Y-97540000D03*
X160000000Y-100080000D03*
X160000000Y-102620000D03*
X160000000Y-105160000D03*
X160000000Y-107700000D03*
X160000000Y-110240000D03*
X160000000Y-112780000D03*
X160000000Y-115320000D03*
X160000000Y-117860000D03*
X160000000Y-120400000D03*
X160000000Y-122940000D03*
X160000000Y-125480000D03*
X160000000Y-128020000D03*
X160000000Y-130560000D03*
%TD*%
D11*
%TO.C,REF\u002A\u002A*%
X85000000Y-140000000D03*
%TD*%
%TO.C,U4*%
X210040000Y-119380000D03*
X210040000Y-127380000D03*
D12*
X174040000Y-122080000D03*
D13*
X174040000Y-119540000D03*
X174040000Y-117000000D03*
X174040000Y-114460000D03*
X174040000Y-111920000D03*
X174040000Y-109380000D03*
%TD*%
D11*
%TO.C,U5*%
X92220000Y-91440000D03*
X92220000Y-83440000D03*
D12*
X128220000Y-88740000D03*
D13*
X128220000Y-91280000D03*
X128220000Y-93820000D03*
X128220000Y-96360000D03*
X128220000Y-98900000D03*
X128220000Y-101440000D03*
%TD*%
M02*
