M48
; DRILL file {KiCad 9.0.0} date 2026-01-17T10:43:30+0000
; FORMAT={-:-/ absolute / metric / decimal}
; #@! TF.CreationDate,2026-01-17T10:43:30+00:00
; #@! TF.GenerationSoftware,Kicad,Pcbnew,9.0.0
; #@! TF.FileFunction,Plated,1,2,PTH
FMAT,2
METRIC
; #@! TA.AperFunction,Plated,PTH,ViaDrill
T1C0.300
; #@! TA.AperFunction,Plated,PTH,ComponentDrill
T2C1.000
; #@! TA.AperFunction,Plated,PTH,ComponentDrill
T3C1.100
; #@! TA.AperFunction,Plated,PTH,ComponentDrill
T4C1.200
%
G90
G05
T1
X119.38Y-98.425
X121.92Y-100.965
X133.985Y-93.345
X134.05Y-99.06
X163.5Y-121.0
X164.465Y-99.695
X181.61Y-81.28
X181.61Y-108.585
T2
X128.22Y-88.74
X128.22Y-91.28
X128.22Y-93.82
X128.22Y-96.36
X128.22Y-98.9
X128.22Y-101.44
X128.22Y-116.68
X128.22Y-119.22
X128.22Y-121.76
X128.22Y-124.3
X128.22Y-126.84
X128.22Y-129.38
X174.04Y-81.28
X174.04Y-83.82
X174.04Y-86.36
X174.04Y-88.9
X174.04Y-91.44
X174.04Y-93.98
X174.04Y-109.38
X174.04Y-111.92
X174.04Y-114.46
X174.04Y-117.0
X174.04Y-119.54
X174.04Y-122.08
T3
X173.5Y-135.5
X173.5Y-140.0
X180.0Y-135.5
X180.0Y-140.0
T4
X127.0Y-139.7
X129.54Y-139.7
X132.08Y-139.7
X134.62Y-139.7
X142.22Y-82.3
X142.22Y-84.84
X142.22Y-87.38
X142.22Y-89.92
X142.22Y-92.46
X142.22Y-95.0
X142.22Y-97.54
X142.22Y-100.08
X142.22Y-102.62
X142.22Y-105.16
X142.22Y-107.7
X142.22Y-110.24
X142.22Y-112.78
X142.22Y-115.32
X142.22Y-117.86
X142.22Y-120.4
X142.22Y-122.94
X142.22Y-125.48
X142.22Y-128.02
X142.22Y-130.56
X160.0Y-82.3
X160.0Y-84.84
X160.0Y-87.38
X160.0Y-89.92
X160.0Y-92.46
X160.0Y-95.0
X160.0Y-97.54
X160.0Y-100.08
X160.0Y-102.62
X160.0Y-105.16
X160.0Y-107.7
X160.0Y-110.24
X160.0Y-112.78
X160.0Y-115.32
X160.0Y-117.86
X160.0Y-120.4
X160.0Y-122.94
X160.0Y-125.48
X160.0Y-128.02
X160.0Y-130.56
M30
