%TF.GenerationSoftware,KiCad,Pcbnew,9.0.0*%
%TF.CreationDate,2025-12-19T15:41:33+00:00*%
%TF.ProjectId,NaeTime Receiver,4e616554-696d-4652-9052-656365697665,rev?*%
%TF.SameCoordinates,Original*%
%TF.FileFunction,Soldermask,Top*%
%TF.FilePolarity,Negative*%
%FSLAX46Y46*%
G04 Gerber Fmt 4.6, Leading zero omitted, Abs format (unit mm)*
G04 Created by KiCad (PCBNEW 9.0.0) date 2025-12-19 15:41:33*
%MOMM*%
%LPD*%
G01*
G04 APERTURE LIST*
%ADD10C,3.200000*%
%ADD11C,2.200000*%
%ADD12C,2.000000*%
%ADD13R,2.000000X2.000000*%
G04 APERTURE END LIST*
D10*
%TO.C,REF\u002A\u002A*%
X5000000Y-60000000D03*
%TD*%
%TO.C,REF\u002A\u002A*%
X65000000Y-5000000D03*
%TD*%
%TO.C,REF\u002A\u002A*%
X5000000Y-130000000D03*
%TD*%
%TO.C,REF\u002A\u002A*%
X65000000Y-130000000D03*
%TD*%
D11*
%TO.C,U1*%
X24130000Y-3048000D03*
X24130000Y-5588000D03*
X24130000Y-8128000D03*
X24130000Y-10668000D03*
X24130000Y-13208000D03*
X24130000Y-15748000D03*
X24130000Y-18288000D03*
X24130000Y-20828000D03*
X24130000Y-23368000D03*
X24130000Y-25908000D03*
X24130000Y-28448000D03*
X24130000Y-30988000D03*
X24130000Y-33528000D03*
X24130000Y-36068000D03*
X24130000Y-38608000D03*
X49530000Y-3048000D03*
X49530000Y-5588000D03*
X49530000Y-8128000D03*
X49530000Y-10668000D03*
X49530000Y-13208000D03*
X49530000Y-15748000D03*
X49530000Y-18288000D03*
X49530000Y-20828000D03*
X49530000Y-23368000D03*
X49530000Y-25908000D03*
X49530000Y-28448000D03*
X49530000Y-30988000D03*
X49530000Y-33528000D03*
X49530000Y-36068000D03*
X49530000Y-38608000D03*
%TD*%
%TO.C,U3*%
X61722000Y-20828000D03*
X61722000Y-23368000D03*
X61722000Y-25908000D03*
X61722000Y-28448000D03*
X61722000Y-30988000D03*
X61722000Y-33528000D03*
X61722000Y-36068000D03*
X61722000Y-38608000D03*
%TD*%
D12*
%TO.C,U13*%
X21082000Y-94488000D03*
X21082000Y-97028000D03*
X21082000Y-99568000D03*
X21082000Y-91948000D03*
X21082000Y-104648000D03*
X21082000Y-102108000D03*
%TD*%
%TO.C,U10*%
X61722000Y-112268000D03*
X61722000Y-114808000D03*
X61722000Y-117348000D03*
X61722000Y-109728000D03*
X61722000Y-122428000D03*
X61722000Y-119888000D03*
%TD*%
D11*
%TO.C,U2*%
X49282000Y-122418000D03*
X49282000Y-119878000D03*
X49282000Y-117338000D03*
X49282000Y-114798000D03*
X49282000Y-112258000D03*
X49282000Y-109718000D03*
X49282000Y-107178000D03*
X49282000Y-104638000D03*
X49282000Y-102098000D03*
X49282000Y-99558000D03*
X49282000Y-97018000D03*
X49282000Y-94478000D03*
X49282000Y-91938000D03*
X49282000Y-89398000D03*
X49282000Y-86858000D03*
X49282000Y-84318000D03*
X49282000Y-81778000D03*
X49282000Y-79238000D03*
X49282000Y-76698000D03*
X49282000Y-74158000D03*
X34042000Y-122418000D03*
X34042000Y-119878000D03*
X34042000Y-117338000D03*
X34042000Y-114798000D03*
X34042000Y-112258000D03*
X34042000Y-109718000D03*
X34042000Y-107178000D03*
X34042000Y-104638000D03*
X34042000Y-102098000D03*
X34042000Y-99558000D03*
X34042000Y-97018000D03*
X34042000Y-94478000D03*
X34042000Y-91938000D03*
X34042000Y-89398000D03*
X34042000Y-86858000D03*
X34042000Y-84318000D03*
X34042000Y-81778000D03*
X34042000Y-79238000D03*
X34042000Y-76698000D03*
X34042000Y-74158000D03*
%TD*%
D12*
%TO.C,LS1*%
X14214000Y-43688000D03*
D13*
X6614000Y-43688000D03*
%TD*%
D12*
%TO.C,U11*%
X21082000Y-58928000D03*
X21082000Y-61468000D03*
X21082000Y-64008000D03*
X21082000Y-56388000D03*
X21082000Y-69088000D03*
X21082000Y-66548000D03*
%TD*%
D11*
%TO.C,U5*%
X9144000Y-10922000D03*
X9144000Y-8382000D03*
X9144000Y-5842000D03*
X9144000Y-3302000D03*
%TD*%
D12*
%TO.C,U12*%
X21082000Y-76708000D03*
X21082000Y-79248000D03*
X21082000Y-81788000D03*
X21082000Y-74168000D03*
X21082000Y-86868000D03*
X21082000Y-84328000D03*
%TD*%
%TO.C,U7*%
X61722000Y-58928000D03*
X61722000Y-61468000D03*
X61722000Y-64008000D03*
X61722000Y-56388000D03*
X61722000Y-69088000D03*
X61722000Y-66548000D03*
%TD*%
%TO.C,U8*%
X61722000Y-76708000D03*
X61722000Y-79248000D03*
X61722000Y-81788000D03*
X61722000Y-74168000D03*
X61722000Y-86868000D03*
X61722000Y-84328000D03*
%TD*%
D11*
%TO.C,U4*%
X7620000Y-119380000D03*
X7620000Y-116840000D03*
X7620000Y-114300000D03*
X7620000Y-111760000D03*
%TD*%
D12*
%TO.C,U9*%
X61722000Y-94488000D03*
X61722000Y-97028000D03*
X61722000Y-99568000D03*
X61722000Y-91948000D03*
X61722000Y-104648000D03*
X61722000Y-102108000D03*
%TD*%
%TO.C,U14*%
X21082000Y-112268000D03*
X21082000Y-114808000D03*
X21082000Y-117348000D03*
X21082000Y-109728000D03*
X21082000Y-122428000D03*
X21082000Y-119888000D03*
%TD*%
D11*
%TO.C,U6*%
X9144000Y-30480000D03*
X9144000Y-27940000D03*
X9144000Y-25400000D03*
X9144000Y-22860000D03*
X9144000Y-20320000D03*
%TD*%
M02*
