M48
; DRILL file {KiCad 9.0.0} date 2025-12-19T15:42:49+0000
; FORMAT={-:-/ absolute / metric / decimal}
; #@! TF.CreationDate,2025-12-19T15:42:49+00:00
; #@! TF.GenerationSoftware,Kicad,Pcbnew,9.0.0
; #@! TF.FileFunction,Plated,1,4,PTH
FMAT,2
METRIC
; #@! TA.AperFunction,Plated,PTH,ViaDrill
T1C0.300
; #@! TA.AperFunction,Plated,PTH,ComponentDrill
T2C1.000
; #@! TA.AperFunction,Plated,PTH,ComponentDrill
T3C1.200
%
G90
G05
T1
X22.86Y-124.46
X25.4Y-124.46
T2
X6.614Y-43.688
X14.214Y-43.688
T3
X7.62Y-111.76
X7.62Y-114.3
X7.62Y-116.84
X7.62Y-119.38
X9.144Y-3.302
X9.144Y-5.842
X9.144Y-8.382
X9.144Y-10.922
X9.144Y-20.32
X9.144Y-22.86
X9.144Y-25.4
X9.144Y-27.94
X9.144Y-30.48
X21.082Y-56.388
X21.082Y-58.928
X21.082Y-61.468
X21.082Y-64.008
X21.082Y-66.548
X21.082Y-69.088
X21.082Y-74.168
X21.082Y-76.708
X21.082Y-79.248
X21.082Y-81.788
X21.082Y-84.328
X21.082Y-86.868
X21.082Y-91.948
X21.082Y-94.488
X21.082Y-97.028
X21.082Y-99.568
X21.082Y-102.108
X21.082Y-104.648
X21.082Y-109.728
X21.082Y-112.268
X21.082Y-114.808
X21.082Y-117.348
X21.082Y-119.888
X21.082Y-122.428
X24.13Y-3.048
X24.13Y-5.588
X24.13Y-8.128
X24.13Y-10.668
X24.13Y-13.208
X24.13Y-15.748
X24.13Y-18.288
X24.13Y-20.828
X24.13Y-23.368
X24.13Y-25.908
X24.13Y-28.448
X24.13Y-30.988
X24.13Y-33.528
X24.13Y-36.068
X24.13Y-38.608
X34.042Y-74.158
X34.042Y-76.698
X34.042Y-79.238
X34.042Y-81.778
X34.042Y-84.318
X34.042Y-86.858
X34.042Y-89.398
X34.042Y-91.938
X34.042Y-94.478
X34.042Y-97.018
X34.042Y-99.558
X34.042Y-102.098
X34.042Y-104.638
X34.042Y-107.178
X34.042Y-109.718
X34.042Y-112.258
X34.042Y-114.798
X34.042Y-117.338
X34.042Y-119.878
X34.042Y-122.418
X49.282Y-74.158
X49.282Y-76.698
X49.282Y-79.238
X49.282Y-81.778
X49.282Y-84.318
X49.282Y-86.858
X49.282Y-89.398
X49.282Y-91.938
X49.282Y-94.478
X49.282Y-97.018
X49.282Y-99.558
X49.282Y-102.098
X49.282Y-104.638
X49.282Y-107.178
X49.282Y-109.718
X49.282Y-112.258
X49.282Y-114.798
X49.282Y-117.338
X49.282Y-119.878
X49.282Y-122.418
X49.53Y-3.048
X49.53Y-5.588
X49.53Y-8.128
X49.53Y-10.668
X49.53Y-13.208
X49.53Y-15.748
X49.53Y-18.288
X49.53Y-20.828
X49.53Y-23.368
X49.53Y-25.908
X49.53Y-28.448
X49.53Y-30.988
X49.53Y-33.528
X49.53Y-36.068
X49.53Y-38.608
X61.722Y-20.828
X61.722Y-23.368
X61.722Y-25.908
X61.722Y-28.448
X61.722Y-30.988
X61.722Y-33.528
X61.722Y-36.068
X61.722Y-38.608
X61.722Y-56.388
X61.722Y-58.928
X61.722Y-61.468
X61.722Y-64.008
X61.722Y-66.548
X61.722Y-69.088
X61.722Y-74.168
X61.722Y-76.708
X61.722Y-79.248
X61.722Y-81.788
X61.722Y-84.328
X61.722Y-86.868
X61.722Y-91.948
X61.722Y-94.488
X61.722Y-97.028
X61.722Y-99.568
X61.722Y-102.108
X61.722Y-104.648
X61.722Y-109.728
X61.722Y-112.268
X61.722Y-114.808
X61.722Y-117.348
X61.722Y-119.888
X61.722Y-122.428
M30
