%TF.GenerationSoftware,KiCad,Pcbnew,9.0.0*%
%TF.CreationDate,2025-12-19T15:35:01+00:00*%
%TF.ProjectId,NaeTime Receiver,4e616554-696d-4652-9052-656365697665,rev?*%
%TF.SameCoordinates,Original*%
%TF.FileFunction,Legend,Top*%
%TF.FilePolarity,Positive*%
%FSLAX46Y46*%
G04 Gerber Fmt 4.6, Leading zero omitted, Abs format (unit mm)*
G04 Created by KiCad (PCBNEW 9.0.0) date 2025-12-19 15:35:01*
%MOMM*%
%LPD*%
G01*
G04 APERTURE LIST*
%ADD10C,0.300000*%
%ADD11C,0.150000*%
%ADD12C,0.100000*%
%ADD13C,0.000000*%
%ADD14C,0.120000*%
G04 APERTURE END LIST*
D10*
X38940828Y-25059774D02*
X40440828Y-24559774D01*
X40440828Y-24559774D02*
X38940828Y-24059774D01*
X40440828Y-22774060D02*
X40440828Y-23631203D01*
X40440828Y-23202632D02*
X38940828Y-23202632D01*
X38940828Y-23202632D02*
X39155114Y-23345489D01*
X39155114Y-23345489D02*
X39297971Y-23488346D01*
X39297971Y-23488346D02*
X39369400Y-23631203D01*
D11*
X35699819Y-35366077D02*
X35699819Y-34794649D01*
X36699819Y-35080363D02*
X35699819Y-35080363D01*
X36699819Y-34461315D02*
X35699819Y-34461315D01*
X36699819Y-34032744D02*
X36176009Y-34032744D01*
X36176009Y-34032744D02*
X36080771Y-34080363D01*
X36080771Y-34080363D02*
X36033152Y-34175601D01*
X36033152Y-34175601D02*
X36033152Y-34318458D01*
X36033152Y-34318458D02*
X36080771Y-34413696D01*
X36080771Y-34413696D02*
X36128390Y-34461315D01*
X36652200Y-33175601D02*
X36699819Y-33270839D01*
X36699819Y-33270839D02*
X36699819Y-33461315D01*
X36699819Y-33461315D02*
X36652200Y-33556553D01*
X36652200Y-33556553D02*
X36556961Y-33604172D01*
X36556961Y-33604172D02*
X36176009Y-33604172D01*
X36176009Y-33604172D02*
X36080771Y-33556553D01*
X36080771Y-33556553D02*
X36033152Y-33461315D01*
X36033152Y-33461315D02*
X36033152Y-33270839D01*
X36033152Y-33270839D02*
X36080771Y-33175601D01*
X36080771Y-33175601D02*
X36176009Y-33127982D01*
X36176009Y-33127982D02*
X36271247Y-33127982D01*
X36271247Y-33127982D02*
X36366485Y-33604172D01*
X36652200Y-31985124D02*
X36699819Y-31842267D01*
X36699819Y-31842267D02*
X36699819Y-31604172D01*
X36699819Y-31604172D02*
X36652200Y-31508934D01*
X36652200Y-31508934D02*
X36604580Y-31461315D01*
X36604580Y-31461315D02*
X36509342Y-31413696D01*
X36509342Y-31413696D02*
X36414104Y-31413696D01*
X36414104Y-31413696D02*
X36318866Y-31461315D01*
X36318866Y-31461315D02*
X36271247Y-31508934D01*
X36271247Y-31508934D02*
X36223628Y-31604172D01*
X36223628Y-31604172D02*
X36176009Y-31794648D01*
X36176009Y-31794648D02*
X36128390Y-31889886D01*
X36128390Y-31889886D02*
X36080771Y-31937505D01*
X36080771Y-31937505D02*
X35985533Y-31985124D01*
X35985533Y-31985124D02*
X35890295Y-31985124D01*
X35890295Y-31985124D02*
X35795057Y-31937505D01*
X35795057Y-31937505D02*
X35747438Y-31889886D01*
X35747438Y-31889886D02*
X35699819Y-31794648D01*
X35699819Y-31794648D02*
X35699819Y-31556553D01*
X35699819Y-31556553D02*
X35747438Y-31413696D01*
X36033152Y-31080362D02*
X36699819Y-30889886D01*
X36699819Y-30889886D02*
X36223628Y-30699410D01*
X36223628Y-30699410D02*
X36699819Y-30508934D01*
X36699819Y-30508934D02*
X36033152Y-30318458D01*
X36699819Y-29937505D02*
X36033152Y-29937505D01*
X35699819Y-29937505D02*
X35747438Y-29985124D01*
X35747438Y-29985124D02*
X35795057Y-29937505D01*
X35795057Y-29937505D02*
X35747438Y-29889886D01*
X35747438Y-29889886D02*
X35699819Y-29937505D01*
X35699819Y-29937505D02*
X35795057Y-29937505D01*
X36652200Y-29508934D02*
X36699819Y-29413696D01*
X36699819Y-29413696D02*
X36699819Y-29223220D01*
X36699819Y-29223220D02*
X36652200Y-29127982D01*
X36652200Y-29127982D02*
X36556961Y-29080363D01*
X36556961Y-29080363D02*
X36509342Y-29080363D01*
X36509342Y-29080363D02*
X36414104Y-29127982D01*
X36414104Y-29127982D02*
X36366485Y-29223220D01*
X36366485Y-29223220D02*
X36366485Y-29366077D01*
X36366485Y-29366077D02*
X36318866Y-29461315D01*
X36318866Y-29461315D02*
X36223628Y-29508934D01*
X36223628Y-29508934D02*
X36176009Y-29508934D01*
X36176009Y-29508934D02*
X36080771Y-29461315D01*
X36080771Y-29461315D02*
X36033152Y-29366077D01*
X36033152Y-29366077D02*
X36033152Y-29223220D01*
X36033152Y-29223220D02*
X36080771Y-29127982D01*
X36652200Y-28699410D02*
X36699819Y-28604172D01*
X36699819Y-28604172D02*
X36699819Y-28413696D01*
X36699819Y-28413696D02*
X36652200Y-28318458D01*
X36652200Y-28318458D02*
X36556961Y-28270839D01*
X36556961Y-28270839D02*
X36509342Y-28270839D01*
X36509342Y-28270839D02*
X36414104Y-28318458D01*
X36414104Y-28318458D02*
X36366485Y-28413696D01*
X36366485Y-28413696D02*
X36366485Y-28556553D01*
X36366485Y-28556553D02*
X36318866Y-28651791D01*
X36318866Y-28651791D02*
X36223628Y-28699410D01*
X36223628Y-28699410D02*
X36176009Y-28699410D01*
X36176009Y-28699410D02*
X36080771Y-28651791D01*
X36080771Y-28651791D02*
X36033152Y-28556553D01*
X36033152Y-28556553D02*
X36033152Y-28413696D01*
X36033152Y-28413696D02*
X36080771Y-28318458D01*
X36604580Y-26508934D02*
X36652200Y-26556553D01*
X36652200Y-26556553D02*
X36699819Y-26699410D01*
X36699819Y-26699410D02*
X36699819Y-26794648D01*
X36699819Y-26794648D02*
X36652200Y-26937505D01*
X36652200Y-26937505D02*
X36556961Y-27032743D01*
X36556961Y-27032743D02*
X36461723Y-27080362D01*
X36461723Y-27080362D02*
X36271247Y-27127981D01*
X36271247Y-27127981D02*
X36128390Y-27127981D01*
X36128390Y-27127981D02*
X35937914Y-27080362D01*
X35937914Y-27080362D02*
X35842676Y-27032743D01*
X35842676Y-27032743D02*
X35747438Y-26937505D01*
X35747438Y-26937505D02*
X35699819Y-26794648D01*
X35699819Y-26794648D02*
X35699819Y-26699410D01*
X35699819Y-26699410D02*
X35747438Y-26556553D01*
X35747438Y-26556553D02*
X35795057Y-26508934D01*
X36699819Y-26080362D02*
X35699819Y-26080362D01*
X36699819Y-25651791D02*
X36176009Y-25651791D01*
X36176009Y-25651791D02*
X36080771Y-25699410D01*
X36080771Y-25699410D02*
X36033152Y-25794648D01*
X36033152Y-25794648D02*
X36033152Y-25937505D01*
X36033152Y-25937505D02*
X36080771Y-26032743D01*
X36080771Y-26032743D02*
X36128390Y-26080362D01*
X36652200Y-24794648D02*
X36699819Y-24889886D01*
X36699819Y-24889886D02*
X36699819Y-25080362D01*
X36699819Y-25080362D02*
X36652200Y-25175600D01*
X36652200Y-25175600D02*
X36556961Y-25223219D01*
X36556961Y-25223219D02*
X36176009Y-25223219D01*
X36176009Y-25223219D02*
X36080771Y-25175600D01*
X36080771Y-25175600D02*
X36033152Y-25080362D01*
X36033152Y-25080362D02*
X36033152Y-24889886D01*
X36033152Y-24889886D02*
X36080771Y-24794648D01*
X36080771Y-24794648D02*
X36176009Y-24747029D01*
X36176009Y-24747029D02*
X36271247Y-24747029D01*
X36271247Y-24747029D02*
X36366485Y-25223219D01*
X36652200Y-23937505D02*
X36699819Y-24032743D01*
X36699819Y-24032743D02*
X36699819Y-24223219D01*
X36699819Y-24223219D02*
X36652200Y-24318457D01*
X36652200Y-24318457D02*
X36556961Y-24366076D01*
X36556961Y-24366076D02*
X36176009Y-24366076D01*
X36176009Y-24366076D02*
X36080771Y-24318457D01*
X36080771Y-24318457D02*
X36033152Y-24223219D01*
X36033152Y-24223219D02*
X36033152Y-24032743D01*
X36033152Y-24032743D02*
X36080771Y-23937505D01*
X36080771Y-23937505D02*
X36176009Y-23889886D01*
X36176009Y-23889886D02*
X36271247Y-23889886D01*
X36271247Y-23889886D02*
X36366485Y-24366076D01*
X36652200Y-23508933D02*
X36699819Y-23413695D01*
X36699819Y-23413695D02*
X36699819Y-23223219D01*
X36699819Y-23223219D02*
X36652200Y-23127981D01*
X36652200Y-23127981D02*
X36556961Y-23080362D01*
X36556961Y-23080362D02*
X36509342Y-23080362D01*
X36509342Y-23080362D02*
X36414104Y-23127981D01*
X36414104Y-23127981D02*
X36366485Y-23223219D01*
X36366485Y-23223219D02*
X36366485Y-23366076D01*
X36366485Y-23366076D02*
X36318866Y-23461314D01*
X36318866Y-23461314D02*
X36223628Y-23508933D01*
X36223628Y-23508933D02*
X36176009Y-23508933D01*
X36176009Y-23508933D02*
X36080771Y-23461314D01*
X36080771Y-23461314D02*
X36033152Y-23366076D01*
X36033152Y-23366076D02*
X36033152Y-23223219D01*
X36033152Y-23223219D02*
X36080771Y-23127981D01*
X36652200Y-22270838D02*
X36699819Y-22366076D01*
X36699819Y-22366076D02*
X36699819Y-22556552D01*
X36699819Y-22556552D02*
X36652200Y-22651790D01*
X36652200Y-22651790D02*
X36556961Y-22699409D01*
X36556961Y-22699409D02*
X36176009Y-22699409D01*
X36176009Y-22699409D02*
X36080771Y-22651790D01*
X36080771Y-22651790D02*
X36033152Y-22556552D01*
X36033152Y-22556552D02*
X36033152Y-22366076D01*
X36033152Y-22366076D02*
X36080771Y-22270838D01*
X36080771Y-22270838D02*
X36176009Y-22223219D01*
X36176009Y-22223219D02*
X36271247Y-22223219D01*
X36271247Y-22223219D02*
X36366485Y-22699409D01*
X15529160Y-61798200D02*
X15672017Y-61845819D01*
X15672017Y-61845819D02*
X15910112Y-61845819D01*
X15910112Y-61845819D02*
X16005350Y-61798200D01*
X16005350Y-61798200D02*
X16052969Y-61750580D01*
X16052969Y-61750580D02*
X16100588Y-61655342D01*
X16100588Y-61655342D02*
X16100588Y-61560104D01*
X16100588Y-61560104D02*
X16052969Y-61464866D01*
X16052969Y-61464866D02*
X16005350Y-61417247D01*
X16005350Y-61417247D02*
X15910112Y-61369628D01*
X15910112Y-61369628D02*
X15719636Y-61322009D01*
X15719636Y-61322009D02*
X15624398Y-61274390D01*
X15624398Y-61274390D02*
X15576779Y-61226771D01*
X15576779Y-61226771D02*
X15529160Y-61131533D01*
X15529160Y-61131533D02*
X15529160Y-61036295D01*
X15529160Y-61036295D02*
X15576779Y-60941057D01*
X15576779Y-60941057D02*
X15624398Y-60893438D01*
X15624398Y-60893438D02*
X15719636Y-60845819D01*
X15719636Y-60845819D02*
X15957731Y-60845819D01*
X15957731Y-60845819D02*
X16100588Y-60893438D01*
X17100588Y-61750580D02*
X17052969Y-61798200D01*
X17052969Y-61798200D02*
X16910112Y-61845819D01*
X16910112Y-61845819D02*
X16814874Y-61845819D01*
X16814874Y-61845819D02*
X16672017Y-61798200D01*
X16672017Y-61798200D02*
X16576779Y-61702961D01*
X16576779Y-61702961D02*
X16529160Y-61607723D01*
X16529160Y-61607723D02*
X16481541Y-61417247D01*
X16481541Y-61417247D02*
X16481541Y-61274390D01*
X16481541Y-61274390D02*
X16529160Y-61083914D01*
X16529160Y-61083914D02*
X16576779Y-60988676D01*
X16576779Y-60988676D02*
X16672017Y-60893438D01*
X16672017Y-60893438D02*
X16814874Y-60845819D01*
X16814874Y-60845819D02*
X16910112Y-60845819D01*
X16910112Y-60845819D02*
X17052969Y-60893438D01*
X17052969Y-60893438D02*
X17100588Y-60941057D01*
X18005350Y-61845819D02*
X17529160Y-61845819D01*
X17529160Y-61845819D02*
X17529160Y-60845819D01*
X18338684Y-61845819D02*
X18338684Y-60845819D01*
X18910112Y-61845819D02*
X18481541Y-61274390D01*
X18910112Y-60845819D02*
X18338684Y-61417247D01*
X16052969Y-65671819D02*
X15576779Y-65671819D01*
X15576779Y-65671819D02*
X15529160Y-66148009D01*
X15529160Y-66148009D02*
X15576779Y-66100390D01*
X15576779Y-66100390D02*
X15672017Y-66052771D01*
X15672017Y-66052771D02*
X15910112Y-66052771D01*
X15910112Y-66052771D02*
X16005350Y-66100390D01*
X16005350Y-66100390D02*
X16052969Y-66148009D01*
X16052969Y-66148009D02*
X16100588Y-66243247D01*
X16100588Y-66243247D02*
X16100588Y-66481342D01*
X16100588Y-66481342D02*
X16052969Y-66576580D01*
X16052969Y-66576580D02*
X16005350Y-66624200D01*
X16005350Y-66624200D02*
X15910112Y-66671819D01*
X15910112Y-66671819D02*
X15672017Y-66671819D01*
X15672017Y-66671819D02*
X15576779Y-66624200D01*
X15576779Y-66624200D02*
X15529160Y-66576580D01*
X16386303Y-65671819D02*
X16719636Y-66671819D01*
X16719636Y-66671819D02*
X17052969Y-65671819D01*
X16148207Y-64385819D02*
X15814874Y-63909628D01*
X15576779Y-64385819D02*
X15576779Y-63385819D01*
X15576779Y-63385819D02*
X15957731Y-63385819D01*
X15957731Y-63385819D02*
X16052969Y-63433438D01*
X16052969Y-63433438D02*
X16100588Y-63481057D01*
X16100588Y-63481057D02*
X16148207Y-63576295D01*
X16148207Y-63576295D02*
X16148207Y-63719152D01*
X16148207Y-63719152D02*
X16100588Y-63814390D01*
X16100588Y-63814390D02*
X16052969Y-63862009D01*
X16052969Y-63862009D02*
X15957731Y-63909628D01*
X15957731Y-63909628D02*
X15576779Y-63909628D01*
X16529160Y-64338200D02*
X16672017Y-64385819D01*
X16672017Y-64385819D02*
X16910112Y-64385819D01*
X16910112Y-64385819D02*
X17005350Y-64338200D01*
X17005350Y-64338200D02*
X17052969Y-64290580D01*
X17052969Y-64290580D02*
X17100588Y-64195342D01*
X17100588Y-64195342D02*
X17100588Y-64100104D01*
X17100588Y-64100104D02*
X17052969Y-64004866D01*
X17052969Y-64004866D02*
X17005350Y-63957247D01*
X17005350Y-63957247D02*
X16910112Y-63909628D01*
X16910112Y-63909628D02*
X16719636Y-63862009D01*
X16719636Y-63862009D02*
X16624398Y-63814390D01*
X16624398Y-63814390D02*
X16576779Y-63766771D01*
X16576779Y-63766771D02*
X16529160Y-63671533D01*
X16529160Y-63671533D02*
X16529160Y-63576295D01*
X16529160Y-63576295D02*
X16576779Y-63481057D01*
X16576779Y-63481057D02*
X16624398Y-63433438D01*
X16624398Y-63433438D02*
X16719636Y-63385819D01*
X16719636Y-63385819D02*
X16957731Y-63385819D01*
X16957731Y-63385819D02*
X17100588Y-63433438D01*
X17481541Y-64338200D02*
X17624398Y-64385819D01*
X17624398Y-64385819D02*
X17862493Y-64385819D01*
X17862493Y-64385819D02*
X17957731Y-64338200D01*
X17957731Y-64338200D02*
X18005350Y-64290580D01*
X18005350Y-64290580D02*
X18052969Y-64195342D01*
X18052969Y-64195342D02*
X18052969Y-64100104D01*
X18052969Y-64100104D02*
X18005350Y-64004866D01*
X18005350Y-64004866D02*
X17957731Y-63957247D01*
X17957731Y-63957247D02*
X17862493Y-63909628D01*
X17862493Y-63909628D02*
X17672017Y-63862009D01*
X17672017Y-63862009D02*
X17576779Y-63814390D01*
X17576779Y-63814390D02*
X17529160Y-63766771D01*
X17529160Y-63766771D02*
X17481541Y-63671533D01*
X17481541Y-63671533D02*
X17481541Y-63576295D01*
X17481541Y-63576295D02*
X17529160Y-63481057D01*
X17529160Y-63481057D02*
X17576779Y-63433438D01*
X17576779Y-63433438D02*
X17672017Y-63385819D01*
X17672017Y-63385819D02*
X17910112Y-63385819D01*
X17910112Y-63385819D02*
X18052969Y-63433438D01*
X18481541Y-64385819D02*
X18481541Y-63385819D01*
X15322779Y-56511819D02*
X15322779Y-55511819D01*
X15322779Y-55511819D02*
X15656112Y-56226104D01*
X15656112Y-56226104D02*
X15989445Y-55511819D01*
X15989445Y-55511819D02*
X15989445Y-56511819D01*
X16656112Y-55511819D02*
X16846588Y-55511819D01*
X16846588Y-55511819D02*
X16941826Y-55559438D01*
X16941826Y-55559438D02*
X17037064Y-55654676D01*
X17037064Y-55654676D02*
X17084683Y-55845152D01*
X17084683Y-55845152D02*
X17084683Y-56178485D01*
X17084683Y-56178485D02*
X17037064Y-56368961D01*
X17037064Y-56368961D02*
X16941826Y-56464200D01*
X16941826Y-56464200D02*
X16846588Y-56511819D01*
X16846588Y-56511819D02*
X16656112Y-56511819D01*
X16656112Y-56511819D02*
X16560874Y-56464200D01*
X16560874Y-56464200D02*
X16465636Y-56368961D01*
X16465636Y-56368961D02*
X16418017Y-56178485D01*
X16418017Y-56178485D02*
X16418017Y-55845152D01*
X16418017Y-55845152D02*
X16465636Y-55654676D01*
X16465636Y-55654676D02*
X16560874Y-55559438D01*
X16560874Y-55559438D02*
X16656112Y-55511819D01*
X17465636Y-56464200D02*
X17608493Y-56511819D01*
X17608493Y-56511819D02*
X17846588Y-56511819D01*
X17846588Y-56511819D02*
X17941826Y-56464200D01*
X17941826Y-56464200D02*
X17989445Y-56416580D01*
X17989445Y-56416580D02*
X18037064Y-56321342D01*
X18037064Y-56321342D02*
X18037064Y-56226104D01*
X18037064Y-56226104D02*
X17989445Y-56130866D01*
X17989445Y-56130866D02*
X17941826Y-56083247D01*
X17941826Y-56083247D02*
X17846588Y-56035628D01*
X17846588Y-56035628D02*
X17656112Y-55988009D01*
X17656112Y-55988009D02*
X17560874Y-55940390D01*
X17560874Y-55940390D02*
X17513255Y-55892771D01*
X17513255Y-55892771D02*
X17465636Y-55797533D01*
X17465636Y-55797533D02*
X17465636Y-55702295D01*
X17465636Y-55702295D02*
X17513255Y-55607057D01*
X17513255Y-55607057D02*
X17560874Y-55559438D01*
X17560874Y-55559438D02*
X17656112Y-55511819D01*
X17656112Y-55511819D02*
X17894207Y-55511819D01*
X17894207Y-55511819D02*
X18037064Y-55559438D01*
X18465636Y-56511819D02*
X18465636Y-55511819D01*
X16100588Y-68259438D02*
X16005350Y-68211819D01*
X16005350Y-68211819D02*
X15862493Y-68211819D01*
X15862493Y-68211819D02*
X15719636Y-68259438D01*
X15719636Y-68259438D02*
X15624398Y-68354676D01*
X15624398Y-68354676D02*
X15576779Y-68449914D01*
X15576779Y-68449914D02*
X15529160Y-68640390D01*
X15529160Y-68640390D02*
X15529160Y-68783247D01*
X15529160Y-68783247D02*
X15576779Y-68973723D01*
X15576779Y-68973723D02*
X15624398Y-69068961D01*
X15624398Y-69068961D02*
X15719636Y-69164200D01*
X15719636Y-69164200D02*
X15862493Y-69211819D01*
X15862493Y-69211819D02*
X15957731Y-69211819D01*
X15957731Y-69211819D02*
X16100588Y-69164200D01*
X16100588Y-69164200D02*
X16148207Y-69116580D01*
X16148207Y-69116580D02*
X16148207Y-68783247D01*
X16148207Y-68783247D02*
X15957731Y-68783247D01*
X16576779Y-69211819D02*
X16576779Y-68211819D01*
X16576779Y-68211819D02*
X17148207Y-69211819D01*
X17148207Y-69211819D02*
X17148207Y-68211819D01*
X17624398Y-69211819D02*
X17624398Y-68211819D01*
X17624398Y-68211819D02*
X17862493Y-68211819D01*
X17862493Y-68211819D02*
X18005350Y-68259438D01*
X18005350Y-68259438D02*
X18100588Y-68354676D01*
X18100588Y-68354676D02*
X18148207Y-68449914D01*
X18148207Y-68449914D02*
X18195826Y-68640390D01*
X18195826Y-68640390D02*
X18195826Y-68783247D01*
X18195826Y-68783247D02*
X18148207Y-68973723D01*
X18148207Y-68973723D02*
X18100588Y-69068961D01*
X18100588Y-69068961D02*
X18005350Y-69164200D01*
X18005350Y-69164200D02*
X17862493Y-69211819D01*
X17862493Y-69211819D02*
X17624398Y-69211819D01*
X15529160Y-59004200D02*
X15672017Y-59051819D01*
X15672017Y-59051819D02*
X15910112Y-59051819D01*
X15910112Y-59051819D02*
X16005350Y-59004200D01*
X16005350Y-59004200D02*
X16052969Y-58956580D01*
X16052969Y-58956580D02*
X16100588Y-58861342D01*
X16100588Y-58861342D02*
X16100588Y-58766104D01*
X16100588Y-58766104D02*
X16052969Y-58670866D01*
X16052969Y-58670866D02*
X16005350Y-58623247D01*
X16005350Y-58623247D02*
X15910112Y-58575628D01*
X15910112Y-58575628D02*
X15719636Y-58528009D01*
X15719636Y-58528009D02*
X15624398Y-58480390D01*
X15624398Y-58480390D02*
X15576779Y-58432771D01*
X15576779Y-58432771D02*
X15529160Y-58337533D01*
X15529160Y-58337533D02*
X15529160Y-58242295D01*
X15529160Y-58242295D02*
X15576779Y-58147057D01*
X15576779Y-58147057D02*
X15624398Y-58099438D01*
X15624398Y-58099438D02*
X15719636Y-58051819D01*
X15719636Y-58051819D02*
X15957731Y-58051819D01*
X15957731Y-58051819D02*
X16100588Y-58099438D01*
X16481541Y-59004200D02*
X16624398Y-59051819D01*
X16624398Y-59051819D02*
X16862493Y-59051819D01*
X16862493Y-59051819D02*
X16957731Y-59004200D01*
X16957731Y-59004200D02*
X17005350Y-58956580D01*
X17005350Y-58956580D02*
X17052969Y-58861342D01*
X17052969Y-58861342D02*
X17052969Y-58766104D01*
X17052969Y-58766104D02*
X17005350Y-58670866D01*
X17005350Y-58670866D02*
X16957731Y-58623247D01*
X16957731Y-58623247D02*
X16862493Y-58575628D01*
X16862493Y-58575628D02*
X16672017Y-58528009D01*
X16672017Y-58528009D02*
X16576779Y-58480390D01*
X16576779Y-58480390D02*
X16529160Y-58432771D01*
X16529160Y-58432771D02*
X16481541Y-58337533D01*
X16481541Y-58337533D02*
X16481541Y-58242295D01*
X16481541Y-58242295D02*
X16529160Y-58147057D01*
X16529160Y-58147057D02*
X16576779Y-58099438D01*
X16576779Y-58099438D02*
X16672017Y-58051819D01*
X16672017Y-58051819D02*
X16910112Y-58051819D01*
X16910112Y-58051819D02*
X17052969Y-58099438D01*
X15529160Y-79832200D02*
X15672017Y-79879819D01*
X15672017Y-79879819D02*
X15910112Y-79879819D01*
X15910112Y-79879819D02*
X16005350Y-79832200D01*
X16005350Y-79832200D02*
X16052969Y-79784580D01*
X16052969Y-79784580D02*
X16100588Y-79689342D01*
X16100588Y-79689342D02*
X16100588Y-79594104D01*
X16100588Y-79594104D02*
X16052969Y-79498866D01*
X16052969Y-79498866D02*
X16005350Y-79451247D01*
X16005350Y-79451247D02*
X15910112Y-79403628D01*
X15910112Y-79403628D02*
X15719636Y-79356009D01*
X15719636Y-79356009D02*
X15624398Y-79308390D01*
X15624398Y-79308390D02*
X15576779Y-79260771D01*
X15576779Y-79260771D02*
X15529160Y-79165533D01*
X15529160Y-79165533D02*
X15529160Y-79070295D01*
X15529160Y-79070295D02*
X15576779Y-78975057D01*
X15576779Y-78975057D02*
X15624398Y-78927438D01*
X15624398Y-78927438D02*
X15719636Y-78879819D01*
X15719636Y-78879819D02*
X15957731Y-78879819D01*
X15957731Y-78879819D02*
X16100588Y-78927438D01*
X17100588Y-79784580D02*
X17052969Y-79832200D01*
X17052969Y-79832200D02*
X16910112Y-79879819D01*
X16910112Y-79879819D02*
X16814874Y-79879819D01*
X16814874Y-79879819D02*
X16672017Y-79832200D01*
X16672017Y-79832200D02*
X16576779Y-79736961D01*
X16576779Y-79736961D02*
X16529160Y-79641723D01*
X16529160Y-79641723D02*
X16481541Y-79451247D01*
X16481541Y-79451247D02*
X16481541Y-79308390D01*
X16481541Y-79308390D02*
X16529160Y-79117914D01*
X16529160Y-79117914D02*
X16576779Y-79022676D01*
X16576779Y-79022676D02*
X16672017Y-78927438D01*
X16672017Y-78927438D02*
X16814874Y-78879819D01*
X16814874Y-78879819D02*
X16910112Y-78879819D01*
X16910112Y-78879819D02*
X17052969Y-78927438D01*
X17052969Y-78927438D02*
X17100588Y-78975057D01*
X18005350Y-79879819D02*
X17529160Y-79879819D01*
X17529160Y-79879819D02*
X17529160Y-78879819D01*
X18338684Y-79879819D02*
X18338684Y-78879819D01*
X18910112Y-79879819D02*
X18481541Y-79308390D01*
X18910112Y-78879819D02*
X18338684Y-79451247D01*
X16052969Y-83705819D02*
X15576779Y-83705819D01*
X15576779Y-83705819D02*
X15529160Y-84182009D01*
X15529160Y-84182009D02*
X15576779Y-84134390D01*
X15576779Y-84134390D02*
X15672017Y-84086771D01*
X15672017Y-84086771D02*
X15910112Y-84086771D01*
X15910112Y-84086771D02*
X16005350Y-84134390D01*
X16005350Y-84134390D02*
X16052969Y-84182009D01*
X16052969Y-84182009D02*
X16100588Y-84277247D01*
X16100588Y-84277247D02*
X16100588Y-84515342D01*
X16100588Y-84515342D02*
X16052969Y-84610580D01*
X16052969Y-84610580D02*
X16005350Y-84658200D01*
X16005350Y-84658200D02*
X15910112Y-84705819D01*
X15910112Y-84705819D02*
X15672017Y-84705819D01*
X15672017Y-84705819D02*
X15576779Y-84658200D01*
X15576779Y-84658200D02*
X15529160Y-84610580D01*
X16386303Y-83705819D02*
X16719636Y-84705819D01*
X16719636Y-84705819D02*
X17052969Y-83705819D01*
X16148207Y-82419819D02*
X15814874Y-81943628D01*
X15576779Y-82419819D02*
X15576779Y-81419819D01*
X15576779Y-81419819D02*
X15957731Y-81419819D01*
X15957731Y-81419819D02*
X16052969Y-81467438D01*
X16052969Y-81467438D02*
X16100588Y-81515057D01*
X16100588Y-81515057D02*
X16148207Y-81610295D01*
X16148207Y-81610295D02*
X16148207Y-81753152D01*
X16148207Y-81753152D02*
X16100588Y-81848390D01*
X16100588Y-81848390D02*
X16052969Y-81896009D01*
X16052969Y-81896009D02*
X15957731Y-81943628D01*
X15957731Y-81943628D02*
X15576779Y-81943628D01*
X16529160Y-82372200D02*
X16672017Y-82419819D01*
X16672017Y-82419819D02*
X16910112Y-82419819D01*
X16910112Y-82419819D02*
X17005350Y-82372200D01*
X17005350Y-82372200D02*
X17052969Y-82324580D01*
X17052969Y-82324580D02*
X17100588Y-82229342D01*
X17100588Y-82229342D02*
X17100588Y-82134104D01*
X17100588Y-82134104D02*
X17052969Y-82038866D01*
X17052969Y-82038866D02*
X17005350Y-81991247D01*
X17005350Y-81991247D02*
X16910112Y-81943628D01*
X16910112Y-81943628D02*
X16719636Y-81896009D01*
X16719636Y-81896009D02*
X16624398Y-81848390D01*
X16624398Y-81848390D02*
X16576779Y-81800771D01*
X16576779Y-81800771D02*
X16529160Y-81705533D01*
X16529160Y-81705533D02*
X16529160Y-81610295D01*
X16529160Y-81610295D02*
X16576779Y-81515057D01*
X16576779Y-81515057D02*
X16624398Y-81467438D01*
X16624398Y-81467438D02*
X16719636Y-81419819D01*
X16719636Y-81419819D02*
X16957731Y-81419819D01*
X16957731Y-81419819D02*
X17100588Y-81467438D01*
X17481541Y-82372200D02*
X17624398Y-82419819D01*
X17624398Y-82419819D02*
X17862493Y-82419819D01*
X17862493Y-82419819D02*
X17957731Y-82372200D01*
X17957731Y-82372200D02*
X18005350Y-82324580D01*
X18005350Y-82324580D02*
X18052969Y-82229342D01*
X18052969Y-82229342D02*
X18052969Y-82134104D01*
X18052969Y-82134104D02*
X18005350Y-82038866D01*
X18005350Y-82038866D02*
X17957731Y-81991247D01*
X17957731Y-81991247D02*
X17862493Y-81943628D01*
X17862493Y-81943628D02*
X17672017Y-81896009D01*
X17672017Y-81896009D02*
X17576779Y-81848390D01*
X17576779Y-81848390D02*
X17529160Y-81800771D01*
X17529160Y-81800771D02*
X17481541Y-81705533D01*
X17481541Y-81705533D02*
X17481541Y-81610295D01*
X17481541Y-81610295D02*
X17529160Y-81515057D01*
X17529160Y-81515057D02*
X17576779Y-81467438D01*
X17576779Y-81467438D02*
X17672017Y-81419819D01*
X17672017Y-81419819D02*
X17910112Y-81419819D01*
X17910112Y-81419819D02*
X18052969Y-81467438D01*
X18481541Y-82419819D02*
X18481541Y-81419819D01*
X15322779Y-74545819D02*
X15322779Y-73545819D01*
X15322779Y-73545819D02*
X15656112Y-74260104D01*
X15656112Y-74260104D02*
X15989445Y-73545819D01*
X15989445Y-73545819D02*
X15989445Y-74545819D01*
X16656112Y-73545819D02*
X16846588Y-73545819D01*
X16846588Y-73545819D02*
X16941826Y-73593438D01*
X16941826Y-73593438D02*
X17037064Y-73688676D01*
X17037064Y-73688676D02*
X17084683Y-73879152D01*
X17084683Y-73879152D02*
X17084683Y-74212485D01*
X17084683Y-74212485D02*
X17037064Y-74402961D01*
X17037064Y-74402961D02*
X16941826Y-74498200D01*
X16941826Y-74498200D02*
X16846588Y-74545819D01*
X16846588Y-74545819D02*
X16656112Y-74545819D01*
X16656112Y-74545819D02*
X16560874Y-74498200D01*
X16560874Y-74498200D02*
X16465636Y-74402961D01*
X16465636Y-74402961D02*
X16418017Y-74212485D01*
X16418017Y-74212485D02*
X16418017Y-73879152D01*
X16418017Y-73879152D02*
X16465636Y-73688676D01*
X16465636Y-73688676D02*
X16560874Y-73593438D01*
X16560874Y-73593438D02*
X16656112Y-73545819D01*
X17465636Y-74498200D02*
X17608493Y-74545819D01*
X17608493Y-74545819D02*
X17846588Y-74545819D01*
X17846588Y-74545819D02*
X17941826Y-74498200D01*
X17941826Y-74498200D02*
X17989445Y-74450580D01*
X17989445Y-74450580D02*
X18037064Y-74355342D01*
X18037064Y-74355342D02*
X18037064Y-74260104D01*
X18037064Y-74260104D02*
X17989445Y-74164866D01*
X17989445Y-74164866D02*
X17941826Y-74117247D01*
X17941826Y-74117247D02*
X17846588Y-74069628D01*
X17846588Y-74069628D02*
X17656112Y-74022009D01*
X17656112Y-74022009D02*
X17560874Y-73974390D01*
X17560874Y-73974390D02*
X17513255Y-73926771D01*
X17513255Y-73926771D02*
X17465636Y-73831533D01*
X17465636Y-73831533D02*
X17465636Y-73736295D01*
X17465636Y-73736295D02*
X17513255Y-73641057D01*
X17513255Y-73641057D02*
X17560874Y-73593438D01*
X17560874Y-73593438D02*
X17656112Y-73545819D01*
X17656112Y-73545819D02*
X17894207Y-73545819D01*
X17894207Y-73545819D02*
X18037064Y-73593438D01*
X18465636Y-74545819D02*
X18465636Y-73545819D01*
X16100588Y-86293438D02*
X16005350Y-86245819D01*
X16005350Y-86245819D02*
X15862493Y-86245819D01*
X15862493Y-86245819D02*
X15719636Y-86293438D01*
X15719636Y-86293438D02*
X15624398Y-86388676D01*
X15624398Y-86388676D02*
X15576779Y-86483914D01*
X15576779Y-86483914D02*
X15529160Y-86674390D01*
X15529160Y-86674390D02*
X15529160Y-86817247D01*
X15529160Y-86817247D02*
X15576779Y-87007723D01*
X15576779Y-87007723D02*
X15624398Y-87102961D01*
X15624398Y-87102961D02*
X15719636Y-87198200D01*
X15719636Y-87198200D02*
X15862493Y-87245819D01*
X15862493Y-87245819D02*
X15957731Y-87245819D01*
X15957731Y-87245819D02*
X16100588Y-87198200D01*
X16100588Y-87198200D02*
X16148207Y-87150580D01*
X16148207Y-87150580D02*
X16148207Y-86817247D01*
X16148207Y-86817247D02*
X15957731Y-86817247D01*
X16576779Y-87245819D02*
X16576779Y-86245819D01*
X16576779Y-86245819D02*
X17148207Y-87245819D01*
X17148207Y-87245819D02*
X17148207Y-86245819D01*
X17624398Y-87245819D02*
X17624398Y-86245819D01*
X17624398Y-86245819D02*
X17862493Y-86245819D01*
X17862493Y-86245819D02*
X18005350Y-86293438D01*
X18005350Y-86293438D02*
X18100588Y-86388676D01*
X18100588Y-86388676D02*
X18148207Y-86483914D01*
X18148207Y-86483914D02*
X18195826Y-86674390D01*
X18195826Y-86674390D02*
X18195826Y-86817247D01*
X18195826Y-86817247D02*
X18148207Y-87007723D01*
X18148207Y-87007723D02*
X18100588Y-87102961D01*
X18100588Y-87102961D02*
X18005350Y-87198200D01*
X18005350Y-87198200D02*
X17862493Y-87245819D01*
X17862493Y-87245819D02*
X17624398Y-87245819D01*
X15529160Y-77038200D02*
X15672017Y-77085819D01*
X15672017Y-77085819D02*
X15910112Y-77085819D01*
X15910112Y-77085819D02*
X16005350Y-77038200D01*
X16005350Y-77038200D02*
X16052969Y-76990580D01*
X16052969Y-76990580D02*
X16100588Y-76895342D01*
X16100588Y-76895342D02*
X16100588Y-76800104D01*
X16100588Y-76800104D02*
X16052969Y-76704866D01*
X16052969Y-76704866D02*
X16005350Y-76657247D01*
X16005350Y-76657247D02*
X15910112Y-76609628D01*
X15910112Y-76609628D02*
X15719636Y-76562009D01*
X15719636Y-76562009D02*
X15624398Y-76514390D01*
X15624398Y-76514390D02*
X15576779Y-76466771D01*
X15576779Y-76466771D02*
X15529160Y-76371533D01*
X15529160Y-76371533D02*
X15529160Y-76276295D01*
X15529160Y-76276295D02*
X15576779Y-76181057D01*
X15576779Y-76181057D02*
X15624398Y-76133438D01*
X15624398Y-76133438D02*
X15719636Y-76085819D01*
X15719636Y-76085819D02*
X15957731Y-76085819D01*
X15957731Y-76085819D02*
X16100588Y-76133438D01*
X16481541Y-77038200D02*
X16624398Y-77085819D01*
X16624398Y-77085819D02*
X16862493Y-77085819D01*
X16862493Y-77085819D02*
X16957731Y-77038200D01*
X16957731Y-77038200D02*
X17005350Y-76990580D01*
X17005350Y-76990580D02*
X17052969Y-76895342D01*
X17052969Y-76895342D02*
X17052969Y-76800104D01*
X17052969Y-76800104D02*
X17005350Y-76704866D01*
X17005350Y-76704866D02*
X16957731Y-76657247D01*
X16957731Y-76657247D02*
X16862493Y-76609628D01*
X16862493Y-76609628D02*
X16672017Y-76562009D01*
X16672017Y-76562009D02*
X16576779Y-76514390D01*
X16576779Y-76514390D02*
X16529160Y-76466771D01*
X16529160Y-76466771D02*
X16481541Y-76371533D01*
X16481541Y-76371533D02*
X16481541Y-76276295D01*
X16481541Y-76276295D02*
X16529160Y-76181057D01*
X16529160Y-76181057D02*
X16576779Y-76133438D01*
X16576779Y-76133438D02*
X16672017Y-76085819D01*
X16672017Y-76085819D02*
X16910112Y-76085819D01*
X16910112Y-76085819D02*
X17052969Y-76133438D01*
X15783160Y-115392200D02*
X15926017Y-115439819D01*
X15926017Y-115439819D02*
X16164112Y-115439819D01*
X16164112Y-115439819D02*
X16259350Y-115392200D01*
X16259350Y-115392200D02*
X16306969Y-115344580D01*
X16306969Y-115344580D02*
X16354588Y-115249342D01*
X16354588Y-115249342D02*
X16354588Y-115154104D01*
X16354588Y-115154104D02*
X16306969Y-115058866D01*
X16306969Y-115058866D02*
X16259350Y-115011247D01*
X16259350Y-115011247D02*
X16164112Y-114963628D01*
X16164112Y-114963628D02*
X15973636Y-114916009D01*
X15973636Y-114916009D02*
X15878398Y-114868390D01*
X15878398Y-114868390D02*
X15830779Y-114820771D01*
X15830779Y-114820771D02*
X15783160Y-114725533D01*
X15783160Y-114725533D02*
X15783160Y-114630295D01*
X15783160Y-114630295D02*
X15830779Y-114535057D01*
X15830779Y-114535057D02*
X15878398Y-114487438D01*
X15878398Y-114487438D02*
X15973636Y-114439819D01*
X15973636Y-114439819D02*
X16211731Y-114439819D01*
X16211731Y-114439819D02*
X16354588Y-114487438D01*
X17354588Y-115344580D02*
X17306969Y-115392200D01*
X17306969Y-115392200D02*
X17164112Y-115439819D01*
X17164112Y-115439819D02*
X17068874Y-115439819D01*
X17068874Y-115439819D02*
X16926017Y-115392200D01*
X16926017Y-115392200D02*
X16830779Y-115296961D01*
X16830779Y-115296961D02*
X16783160Y-115201723D01*
X16783160Y-115201723D02*
X16735541Y-115011247D01*
X16735541Y-115011247D02*
X16735541Y-114868390D01*
X16735541Y-114868390D02*
X16783160Y-114677914D01*
X16783160Y-114677914D02*
X16830779Y-114582676D01*
X16830779Y-114582676D02*
X16926017Y-114487438D01*
X16926017Y-114487438D02*
X17068874Y-114439819D01*
X17068874Y-114439819D02*
X17164112Y-114439819D01*
X17164112Y-114439819D02*
X17306969Y-114487438D01*
X17306969Y-114487438D02*
X17354588Y-114535057D01*
X18259350Y-115439819D02*
X17783160Y-115439819D01*
X17783160Y-115439819D02*
X17783160Y-114439819D01*
X18592684Y-115439819D02*
X18592684Y-114439819D01*
X19164112Y-115439819D02*
X18735541Y-114868390D01*
X19164112Y-114439819D02*
X18592684Y-115011247D01*
X16306969Y-119265819D02*
X15830779Y-119265819D01*
X15830779Y-119265819D02*
X15783160Y-119742009D01*
X15783160Y-119742009D02*
X15830779Y-119694390D01*
X15830779Y-119694390D02*
X15926017Y-119646771D01*
X15926017Y-119646771D02*
X16164112Y-119646771D01*
X16164112Y-119646771D02*
X16259350Y-119694390D01*
X16259350Y-119694390D02*
X16306969Y-119742009D01*
X16306969Y-119742009D02*
X16354588Y-119837247D01*
X16354588Y-119837247D02*
X16354588Y-120075342D01*
X16354588Y-120075342D02*
X16306969Y-120170580D01*
X16306969Y-120170580D02*
X16259350Y-120218200D01*
X16259350Y-120218200D02*
X16164112Y-120265819D01*
X16164112Y-120265819D02*
X15926017Y-120265819D01*
X15926017Y-120265819D02*
X15830779Y-120218200D01*
X15830779Y-120218200D02*
X15783160Y-120170580D01*
X16640303Y-119265819D02*
X16973636Y-120265819D01*
X16973636Y-120265819D02*
X17306969Y-119265819D01*
X16402207Y-117979819D02*
X16068874Y-117503628D01*
X15830779Y-117979819D02*
X15830779Y-116979819D01*
X15830779Y-116979819D02*
X16211731Y-116979819D01*
X16211731Y-116979819D02*
X16306969Y-117027438D01*
X16306969Y-117027438D02*
X16354588Y-117075057D01*
X16354588Y-117075057D02*
X16402207Y-117170295D01*
X16402207Y-117170295D02*
X16402207Y-117313152D01*
X16402207Y-117313152D02*
X16354588Y-117408390D01*
X16354588Y-117408390D02*
X16306969Y-117456009D01*
X16306969Y-117456009D02*
X16211731Y-117503628D01*
X16211731Y-117503628D02*
X15830779Y-117503628D01*
X16783160Y-117932200D02*
X16926017Y-117979819D01*
X16926017Y-117979819D02*
X17164112Y-117979819D01*
X17164112Y-117979819D02*
X17259350Y-117932200D01*
X17259350Y-117932200D02*
X17306969Y-117884580D01*
X17306969Y-117884580D02*
X17354588Y-117789342D01*
X17354588Y-117789342D02*
X17354588Y-117694104D01*
X17354588Y-117694104D02*
X17306969Y-117598866D01*
X17306969Y-117598866D02*
X17259350Y-117551247D01*
X17259350Y-117551247D02*
X17164112Y-117503628D01*
X17164112Y-117503628D02*
X16973636Y-117456009D01*
X16973636Y-117456009D02*
X16878398Y-117408390D01*
X16878398Y-117408390D02*
X16830779Y-117360771D01*
X16830779Y-117360771D02*
X16783160Y-117265533D01*
X16783160Y-117265533D02*
X16783160Y-117170295D01*
X16783160Y-117170295D02*
X16830779Y-117075057D01*
X16830779Y-117075057D02*
X16878398Y-117027438D01*
X16878398Y-117027438D02*
X16973636Y-116979819D01*
X16973636Y-116979819D02*
X17211731Y-116979819D01*
X17211731Y-116979819D02*
X17354588Y-117027438D01*
X17735541Y-117932200D02*
X17878398Y-117979819D01*
X17878398Y-117979819D02*
X18116493Y-117979819D01*
X18116493Y-117979819D02*
X18211731Y-117932200D01*
X18211731Y-117932200D02*
X18259350Y-117884580D01*
X18259350Y-117884580D02*
X18306969Y-117789342D01*
X18306969Y-117789342D02*
X18306969Y-117694104D01*
X18306969Y-117694104D02*
X18259350Y-117598866D01*
X18259350Y-117598866D02*
X18211731Y-117551247D01*
X18211731Y-117551247D02*
X18116493Y-117503628D01*
X18116493Y-117503628D02*
X17926017Y-117456009D01*
X17926017Y-117456009D02*
X17830779Y-117408390D01*
X17830779Y-117408390D02*
X17783160Y-117360771D01*
X17783160Y-117360771D02*
X17735541Y-117265533D01*
X17735541Y-117265533D02*
X17735541Y-117170295D01*
X17735541Y-117170295D02*
X17783160Y-117075057D01*
X17783160Y-117075057D02*
X17830779Y-117027438D01*
X17830779Y-117027438D02*
X17926017Y-116979819D01*
X17926017Y-116979819D02*
X18164112Y-116979819D01*
X18164112Y-116979819D02*
X18306969Y-117027438D01*
X18735541Y-117979819D02*
X18735541Y-116979819D01*
X15576779Y-110105819D02*
X15576779Y-109105819D01*
X15576779Y-109105819D02*
X15910112Y-109820104D01*
X15910112Y-109820104D02*
X16243445Y-109105819D01*
X16243445Y-109105819D02*
X16243445Y-110105819D01*
X16910112Y-109105819D02*
X17100588Y-109105819D01*
X17100588Y-109105819D02*
X17195826Y-109153438D01*
X17195826Y-109153438D02*
X17291064Y-109248676D01*
X17291064Y-109248676D02*
X17338683Y-109439152D01*
X17338683Y-109439152D02*
X17338683Y-109772485D01*
X17338683Y-109772485D02*
X17291064Y-109962961D01*
X17291064Y-109962961D02*
X17195826Y-110058200D01*
X17195826Y-110058200D02*
X17100588Y-110105819D01*
X17100588Y-110105819D02*
X16910112Y-110105819D01*
X16910112Y-110105819D02*
X16814874Y-110058200D01*
X16814874Y-110058200D02*
X16719636Y-109962961D01*
X16719636Y-109962961D02*
X16672017Y-109772485D01*
X16672017Y-109772485D02*
X16672017Y-109439152D01*
X16672017Y-109439152D02*
X16719636Y-109248676D01*
X16719636Y-109248676D02*
X16814874Y-109153438D01*
X16814874Y-109153438D02*
X16910112Y-109105819D01*
X17719636Y-110058200D02*
X17862493Y-110105819D01*
X17862493Y-110105819D02*
X18100588Y-110105819D01*
X18100588Y-110105819D02*
X18195826Y-110058200D01*
X18195826Y-110058200D02*
X18243445Y-110010580D01*
X18243445Y-110010580D02*
X18291064Y-109915342D01*
X18291064Y-109915342D02*
X18291064Y-109820104D01*
X18291064Y-109820104D02*
X18243445Y-109724866D01*
X18243445Y-109724866D02*
X18195826Y-109677247D01*
X18195826Y-109677247D02*
X18100588Y-109629628D01*
X18100588Y-109629628D02*
X17910112Y-109582009D01*
X17910112Y-109582009D02*
X17814874Y-109534390D01*
X17814874Y-109534390D02*
X17767255Y-109486771D01*
X17767255Y-109486771D02*
X17719636Y-109391533D01*
X17719636Y-109391533D02*
X17719636Y-109296295D01*
X17719636Y-109296295D02*
X17767255Y-109201057D01*
X17767255Y-109201057D02*
X17814874Y-109153438D01*
X17814874Y-109153438D02*
X17910112Y-109105819D01*
X17910112Y-109105819D02*
X18148207Y-109105819D01*
X18148207Y-109105819D02*
X18291064Y-109153438D01*
X18719636Y-110105819D02*
X18719636Y-109105819D01*
X16354588Y-121853438D02*
X16259350Y-121805819D01*
X16259350Y-121805819D02*
X16116493Y-121805819D01*
X16116493Y-121805819D02*
X15973636Y-121853438D01*
X15973636Y-121853438D02*
X15878398Y-121948676D01*
X15878398Y-121948676D02*
X15830779Y-122043914D01*
X15830779Y-122043914D02*
X15783160Y-122234390D01*
X15783160Y-122234390D02*
X15783160Y-122377247D01*
X15783160Y-122377247D02*
X15830779Y-122567723D01*
X15830779Y-122567723D02*
X15878398Y-122662961D01*
X15878398Y-122662961D02*
X15973636Y-122758200D01*
X15973636Y-122758200D02*
X16116493Y-122805819D01*
X16116493Y-122805819D02*
X16211731Y-122805819D01*
X16211731Y-122805819D02*
X16354588Y-122758200D01*
X16354588Y-122758200D02*
X16402207Y-122710580D01*
X16402207Y-122710580D02*
X16402207Y-122377247D01*
X16402207Y-122377247D02*
X16211731Y-122377247D01*
X16830779Y-122805819D02*
X16830779Y-121805819D01*
X16830779Y-121805819D02*
X17402207Y-122805819D01*
X17402207Y-122805819D02*
X17402207Y-121805819D01*
X17878398Y-122805819D02*
X17878398Y-121805819D01*
X17878398Y-121805819D02*
X18116493Y-121805819D01*
X18116493Y-121805819D02*
X18259350Y-121853438D01*
X18259350Y-121853438D02*
X18354588Y-121948676D01*
X18354588Y-121948676D02*
X18402207Y-122043914D01*
X18402207Y-122043914D02*
X18449826Y-122234390D01*
X18449826Y-122234390D02*
X18449826Y-122377247D01*
X18449826Y-122377247D02*
X18402207Y-122567723D01*
X18402207Y-122567723D02*
X18354588Y-122662961D01*
X18354588Y-122662961D02*
X18259350Y-122758200D01*
X18259350Y-122758200D02*
X18116493Y-122805819D01*
X18116493Y-122805819D02*
X17878398Y-122805819D01*
X15783160Y-112598200D02*
X15926017Y-112645819D01*
X15926017Y-112645819D02*
X16164112Y-112645819D01*
X16164112Y-112645819D02*
X16259350Y-112598200D01*
X16259350Y-112598200D02*
X16306969Y-112550580D01*
X16306969Y-112550580D02*
X16354588Y-112455342D01*
X16354588Y-112455342D02*
X16354588Y-112360104D01*
X16354588Y-112360104D02*
X16306969Y-112264866D01*
X16306969Y-112264866D02*
X16259350Y-112217247D01*
X16259350Y-112217247D02*
X16164112Y-112169628D01*
X16164112Y-112169628D02*
X15973636Y-112122009D01*
X15973636Y-112122009D02*
X15878398Y-112074390D01*
X15878398Y-112074390D02*
X15830779Y-112026771D01*
X15830779Y-112026771D02*
X15783160Y-111931533D01*
X15783160Y-111931533D02*
X15783160Y-111836295D01*
X15783160Y-111836295D02*
X15830779Y-111741057D01*
X15830779Y-111741057D02*
X15878398Y-111693438D01*
X15878398Y-111693438D02*
X15973636Y-111645819D01*
X15973636Y-111645819D02*
X16211731Y-111645819D01*
X16211731Y-111645819D02*
X16354588Y-111693438D01*
X16735541Y-112598200D02*
X16878398Y-112645819D01*
X16878398Y-112645819D02*
X17116493Y-112645819D01*
X17116493Y-112645819D02*
X17211731Y-112598200D01*
X17211731Y-112598200D02*
X17259350Y-112550580D01*
X17259350Y-112550580D02*
X17306969Y-112455342D01*
X17306969Y-112455342D02*
X17306969Y-112360104D01*
X17306969Y-112360104D02*
X17259350Y-112264866D01*
X17259350Y-112264866D02*
X17211731Y-112217247D01*
X17211731Y-112217247D02*
X17116493Y-112169628D01*
X17116493Y-112169628D02*
X16926017Y-112122009D01*
X16926017Y-112122009D02*
X16830779Y-112074390D01*
X16830779Y-112074390D02*
X16783160Y-112026771D01*
X16783160Y-112026771D02*
X16735541Y-111931533D01*
X16735541Y-111931533D02*
X16735541Y-111836295D01*
X16735541Y-111836295D02*
X16783160Y-111741057D01*
X16783160Y-111741057D02*
X16830779Y-111693438D01*
X16830779Y-111693438D02*
X16926017Y-111645819D01*
X16926017Y-111645819D02*
X17164112Y-111645819D01*
X17164112Y-111645819D02*
X17306969Y-111693438D01*
X64297160Y-115392200D02*
X64440017Y-115439819D01*
X64440017Y-115439819D02*
X64678112Y-115439819D01*
X64678112Y-115439819D02*
X64773350Y-115392200D01*
X64773350Y-115392200D02*
X64820969Y-115344580D01*
X64820969Y-115344580D02*
X64868588Y-115249342D01*
X64868588Y-115249342D02*
X64868588Y-115154104D01*
X64868588Y-115154104D02*
X64820969Y-115058866D01*
X64820969Y-115058866D02*
X64773350Y-115011247D01*
X64773350Y-115011247D02*
X64678112Y-114963628D01*
X64678112Y-114963628D02*
X64487636Y-114916009D01*
X64487636Y-114916009D02*
X64392398Y-114868390D01*
X64392398Y-114868390D02*
X64344779Y-114820771D01*
X64344779Y-114820771D02*
X64297160Y-114725533D01*
X64297160Y-114725533D02*
X64297160Y-114630295D01*
X64297160Y-114630295D02*
X64344779Y-114535057D01*
X64344779Y-114535057D02*
X64392398Y-114487438D01*
X64392398Y-114487438D02*
X64487636Y-114439819D01*
X64487636Y-114439819D02*
X64725731Y-114439819D01*
X64725731Y-114439819D02*
X64868588Y-114487438D01*
X65868588Y-115344580D02*
X65820969Y-115392200D01*
X65820969Y-115392200D02*
X65678112Y-115439819D01*
X65678112Y-115439819D02*
X65582874Y-115439819D01*
X65582874Y-115439819D02*
X65440017Y-115392200D01*
X65440017Y-115392200D02*
X65344779Y-115296961D01*
X65344779Y-115296961D02*
X65297160Y-115201723D01*
X65297160Y-115201723D02*
X65249541Y-115011247D01*
X65249541Y-115011247D02*
X65249541Y-114868390D01*
X65249541Y-114868390D02*
X65297160Y-114677914D01*
X65297160Y-114677914D02*
X65344779Y-114582676D01*
X65344779Y-114582676D02*
X65440017Y-114487438D01*
X65440017Y-114487438D02*
X65582874Y-114439819D01*
X65582874Y-114439819D02*
X65678112Y-114439819D01*
X65678112Y-114439819D02*
X65820969Y-114487438D01*
X65820969Y-114487438D02*
X65868588Y-114535057D01*
X66773350Y-115439819D02*
X66297160Y-115439819D01*
X66297160Y-115439819D02*
X66297160Y-114439819D01*
X67106684Y-115439819D02*
X67106684Y-114439819D01*
X67678112Y-115439819D02*
X67249541Y-114868390D01*
X67678112Y-114439819D02*
X67106684Y-115011247D01*
X64820969Y-119265819D02*
X64344779Y-119265819D01*
X64344779Y-119265819D02*
X64297160Y-119742009D01*
X64297160Y-119742009D02*
X64344779Y-119694390D01*
X64344779Y-119694390D02*
X64440017Y-119646771D01*
X64440017Y-119646771D02*
X64678112Y-119646771D01*
X64678112Y-119646771D02*
X64773350Y-119694390D01*
X64773350Y-119694390D02*
X64820969Y-119742009D01*
X64820969Y-119742009D02*
X64868588Y-119837247D01*
X64868588Y-119837247D02*
X64868588Y-120075342D01*
X64868588Y-120075342D02*
X64820969Y-120170580D01*
X64820969Y-120170580D02*
X64773350Y-120218200D01*
X64773350Y-120218200D02*
X64678112Y-120265819D01*
X64678112Y-120265819D02*
X64440017Y-120265819D01*
X64440017Y-120265819D02*
X64344779Y-120218200D01*
X64344779Y-120218200D02*
X64297160Y-120170580D01*
X65154303Y-119265819D02*
X65487636Y-120265819D01*
X65487636Y-120265819D02*
X65820969Y-119265819D01*
X64916207Y-117979819D02*
X64582874Y-117503628D01*
X64344779Y-117979819D02*
X64344779Y-116979819D01*
X64344779Y-116979819D02*
X64725731Y-116979819D01*
X64725731Y-116979819D02*
X64820969Y-117027438D01*
X64820969Y-117027438D02*
X64868588Y-117075057D01*
X64868588Y-117075057D02*
X64916207Y-117170295D01*
X64916207Y-117170295D02*
X64916207Y-117313152D01*
X64916207Y-117313152D02*
X64868588Y-117408390D01*
X64868588Y-117408390D02*
X64820969Y-117456009D01*
X64820969Y-117456009D02*
X64725731Y-117503628D01*
X64725731Y-117503628D02*
X64344779Y-117503628D01*
X65297160Y-117932200D02*
X65440017Y-117979819D01*
X65440017Y-117979819D02*
X65678112Y-117979819D01*
X65678112Y-117979819D02*
X65773350Y-117932200D01*
X65773350Y-117932200D02*
X65820969Y-117884580D01*
X65820969Y-117884580D02*
X65868588Y-117789342D01*
X65868588Y-117789342D02*
X65868588Y-117694104D01*
X65868588Y-117694104D02*
X65820969Y-117598866D01*
X65820969Y-117598866D02*
X65773350Y-117551247D01*
X65773350Y-117551247D02*
X65678112Y-117503628D01*
X65678112Y-117503628D02*
X65487636Y-117456009D01*
X65487636Y-117456009D02*
X65392398Y-117408390D01*
X65392398Y-117408390D02*
X65344779Y-117360771D01*
X65344779Y-117360771D02*
X65297160Y-117265533D01*
X65297160Y-117265533D02*
X65297160Y-117170295D01*
X65297160Y-117170295D02*
X65344779Y-117075057D01*
X65344779Y-117075057D02*
X65392398Y-117027438D01*
X65392398Y-117027438D02*
X65487636Y-116979819D01*
X65487636Y-116979819D02*
X65725731Y-116979819D01*
X65725731Y-116979819D02*
X65868588Y-117027438D01*
X66249541Y-117932200D02*
X66392398Y-117979819D01*
X66392398Y-117979819D02*
X66630493Y-117979819D01*
X66630493Y-117979819D02*
X66725731Y-117932200D01*
X66725731Y-117932200D02*
X66773350Y-117884580D01*
X66773350Y-117884580D02*
X66820969Y-117789342D01*
X66820969Y-117789342D02*
X66820969Y-117694104D01*
X66820969Y-117694104D02*
X66773350Y-117598866D01*
X66773350Y-117598866D02*
X66725731Y-117551247D01*
X66725731Y-117551247D02*
X66630493Y-117503628D01*
X66630493Y-117503628D02*
X66440017Y-117456009D01*
X66440017Y-117456009D02*
X66344779Y-117408390D01*
X66344779Y-117408390D02*
X66297160Y-117360771D01*
X66297160Y-117360771D02*
X66249541Y-117265533D01*
X66249541Y-117265533D02*
X66249541Y-117170295D01*
X66249541Y-117170295D02*
X66297160Y-117075057D01*
X66297160Y-117075057D02*
X66344779Y-117027438D01*
X66344779Y-117027438D02*
X66440017Y-116979819D01*
X66440017Y-116979819D02*
X66678112Y-116979819D01*
X66678112Y-116979819D02*
X66820969Y-117027438D01*
X67249541Y-117979819D02*
X67249541Y-116979819D01*
X64090779Y-110105819D02*
X64090779Y-109105819D01*
X64090779Y-109105819D02*
X64424112Y-109820104D01*
X64424112Y-109820104D02*
X64757445Y-109105819D01*
X64757445Y-109105819D02*
X64757445Y-110105819D01*
X65424112Y-109105819D02*
X65614588Y-109105819D01*
X65614588Y-109105819D02*
X65709826Y-109153438D01*
X65709826Y-109153438D02*
X65805064Y-109248676D01*
X65805064Y-109248676D02*
X65852683Y-109439152D01*
X65852683Y-109439152D02*
X65852683Y-109772485D01*
X65852683Y-109772485D02*
X65805064Y-109962961D01*
X65805064Y-109962961D02*
X65709826Y-110058200D01*
X65709826Y-110058200D02*
X65614588Y-110105819D01*
X65614588Y-110105819D02*
X65424112Y-110105819D01*
X65424112Y-110105819D02*
X65328874Y-110058200D01*
X65328874Y-110058200D02*
X65233636Y-109962961D01*
X65233636Y-109962961D02*
X65186017Y-109772485D01*
X65186017Y-109772485D02*
X65186017Y-109439152D01*
X65186017Y-109439152D02*
X65233636Y-109248676D01*
X65233636Y-109248676D02*
X65328874Y-109153438D01*
X65328874Y-109153438D02*
X65424112Y-109105819D01*
X66233636Y-110058200D02*
X66376493Y-110105819D01*
X66376493Y-110105819D02*
X66614588Y-110105819D01*
X66614588Y-110105819D02*
X66709826Y-110058200D01*
X66709826Y-110058200D02*
X66757445Y-110010580D01*
X66757445Y-110010580D02*
X66805064Y-109915342D01*
X66805064Y-109915342D02*
X66805064Y-109820104D01*
X66805064Y-109820104D02*
X66757445Y-109724866D01*
X66757445Y-109724866D02*
X66709826Y-109677247D01*
X66709826Y-109677247D02*
X66614588Y-109629628D01*
X66614588Y-109629628D02*
X66424112Y-109582009D01*
X66424112Y-109582009D02*
X66328874Y-109534390D01*
X66328874Y-109534390D02*
X66281255Y-109486771D01*
X66281255Y-109486771D02*
X66233636Y-109391533D01*
X66233636Y-109391533D02*
X66233636Y-109296295D01*
X66233636Y-109296295D02*
X66281255Y-109201057D01*
X66281255Y-109201057D02*
X66328874Y-109153438D01*
X66328874Y-109153438D02*
X66424112Y-109105819D01*
X66424112Y-109105819D02*
X66662207Y-109105819D01*
X66662207Y-109105819D02*
X66805064Y-109153438D01*
X67233636Y-110105819D02*
X67233636Y-109105819D01*
X64868588Y-121853438D02*
X64773350Y-121805819D01*
X64773350Y-121805819D02*
X64630493Y-121805819D01*
X64630493Y-121805819D02*
X64487636Y-121853438D01*
X64487636Y-121853438D02*
X64392398Y-121948676D01*
X64392398Y-121948676D02*
X64344779Y-122043914D01*
X64344779Y-122043914D02*
X64297160Y-122234390D01*
X64297160Y-122234390D02*
X64297160Y-122377247D01*
X64297160Y-122377247D02*
X64344779Y-122567723D01*
X64344779Y-122567723D02*
X64392398Y-122662961D01*
X64392398Y-122662961D02*
X64487636Y-122758200D01*
X64487636Y-122758200D02*
X64630493Y-122805819D01*
X64630493Y-122805819D02*
X64725731Y-122805819D01*
X64725731Y-122805819D02*
X64868588Y-122758200D01*
X64868588Y-122758200D02*
X64916207Y-122710580D01*
X64916207Y-122710580D02*
X64916207Y-122377247D01*
X64916207Y-122377247D02*
X64725731Y-122377247D01*
X65344779Y-122805819D02*
X65344779Y-121805819D01*
X65344779Y-121805819D02*
X65916207Y-122805819D01*
X65916207Y-122805819D02*
X65916207Y-121805819D01*
X66392398Y-122805819D02*
X66392398Y-121805819D01*
X66392398Y-121805819D02*
X66630493Y-121805819D01*
X66630493Y-121805819D02*
X66773350Y-121853438D01*
X66773350Y-121853438D02*
X66868588Y-121948676D01*
X66868588Y-121948676D02*
X66916207Y-122043914D01*
X66916207Y-122043914D02*
X66963826Y-122234390D01*
X66963826Y-122234390D02*
X66963826Y-122377247D01*
X66963826Y-122377247D02*
X66916207Y-122567723D01*
X66916207Y-122567723D02*
X66868588Y-122662961D01*
X66868588Y-122662961D02*
X66773350Y-122758200D01*
X66773350Y-122758200D02*
X66630493Y-122805819D01*
X66630493Y-122805819D02*
X66392398Y-122805819D01*
X64297160Y-112598200D02*
X64440017Y-112645819D01*
X64440017Y-112645819D02*
X64678112Y-112645819D01*
X64678112Y-112645819D02*
X64773350Y-112598200D01*
X64773350Y-112598200D02*
X64820969Y-112550580D01*
X64820969Y-112550580D02*
X64868588Y-112455342D01*
X64868588Y-112455342D02*
X64868588Y-112360104D01*
X64868588Y-112360104D02*
X64820969Y-112264866D01*
X64820969Y-112264866D02*
X64773350Y-112217247D01*
X64773350Y-112217247D02*
X64678112Y-112169628D01*
X64678112Y-112169628D02*
X64487636Y-112122009D01*
X64487636Y-112122009D02*
X64392398Y-112074390D01*
X64392398Y-112074390D02*
X64344779Y-112026771D01*
X64344779Y-112026771D02*
X64297160Y-111931533D01*
X64297160Y-111931533D02*
X64297160Y-111836295D01*
X64297160Y-111836295D02*
X64344779Y-111741057D01*
X64344779Y-111741057D02*
X64392398Y-111693438D01*
X64392398Y-111693438D02*
X64487636Y-111645819D01*
X64487636Y-111645819D02*
X64725731Y-111645819D01*
X64725731Y-111645819D02*
X64868588Y-111693438D01*
X65249541Y-112598200D02*
X65392398Y-112645819D01*
X65392398Y-112645819D02*
X65630493Y-112645819D01*
X65630493Y-112645819D02*
X65725731Y-112598200D01*
X65725731Y-112598200D02*
X65773350Y-112550580D01*
X65773350Y-112550580D02*
X65820969Y-112455342D01*
X65820969Y-112455342D02*
X65820969Y-112360104D01*
X65820969Y-112360104D02*
X65773350Y-112264866D01*
X65773350Y-112264866D02*
X65725731Y-112217247D01*
X65725731Y-112217247D02*
X65630493Y-112169628D01*
X65630493Y-112169628D02*
X65440017Y-112122009D01*
X65440017Y-112122009D02*
X65344779Y-112074390D01*
X65344779Y-112074390D02*
X65297160Y-112026771D01*
X65297160Y-112026771D02*
X65249541Y-111931533D01*
X65249541Y-111931533D02*
X65249541Y-111836295D01*
X65249541Y-111836295D02*
X65297160Y-111741057D01*
X65297160Y-111741057D02*
X65344779Y-111693438D01*
X65344779Y-111693438D02*
X65440017Y-111645819D01*
X65440017Y-111645819D02*
X65678112Y-111645819D01*
X65678112Y-111645819D02*
X65820969Y-111693438D01*
X64551160Y-97612200D02*
X64694017Y-97659819D01*
X64694017Y-97659819D02*
X64932112Y-97659819D01*
X64932112Y-97659819D02*
X65027350Y-97612200D01*
X65027350Y-97612200D02*
X65074969Y-97564580D01*
X65074969Y-97564580D02*
X65122588Y-97469342D01*
X65122588Y-97469342D02*
X65122588Y-97374104D01*
X65122588Y-97374104D02*
X65074969Y-97278866D01*
X65074969Y-97278866D02*
X65027350Y-97231247D01*
X65027350Y-97231247D02*
X64932112Y-97183628D01*
X64932112Y-97183628D02*
X64741636Y-97136009D01*
X64741636Y-97136009D02*
X64646398Y-97088390D01*
X64646398Y-97088390D02*
X64598779Y-97040771D01*
X64598779Y-97040771D02*
X64551160Y-96945533D01*
X64551160Y-96945533D02*
X64551160Y-96850295D01*
X64551160Y-96850295D02*
X64598779Y-96755057D01*
X64598779Y-96755057D02*
X64646398Y-96707438D01*
X64646398Y-96707438D02*
X64741636Y-96659819D01*
X64741636Y-96659819D02*
X64979731Y-96659819D01*
X64979731Y-96659819D02*
X65122588Y-96707438D01*
X66122588Y-97564580D02*
X66074969Y-97612200D01*
X66074969Y-97612200D02*
X65932112Y-97659819D01*
X65932112Y-97659819D02*
X65836874Y-97659819D01*
X65836874Y-97659819D02*
X65694017Y-97612200D01*
X65694017Y-97612200D02*
X65598779Y-97516961D01*
X65598779Y-97516961D02*
X65551160Y-97421723D01*
X65551160Y-97421723D02*
X65503541Y-97231247D01*
X65503541Y-97231247D02*
X65503541Y-97088390D01*
X65503541Y-97088390D02*
X65551160Y-96897914D01*
X65551160Y-96897914D02*
X65598779Y-96802676D01*
X65598779Y-96802676D02*
X65694017Y-96707438D01*
X65694017Y-96707438D02*
X65836874Y-96659819D01*
X65836874Y-96659819D02*
X65932112Y-96659819D01*
X65932112Y-96659819D02*
X66074969Y-96707438D01*
X66074969Y-96707438D02*
X66122588Y-96755057D01*
X67027350Y-97659819D02*
X66551160Y-97659819D01*
X66551160Y-97659819D02*
X66551160Y-96659819D01*
X67360684Y-97659819D02*
X67360684Y-96659819D01*
X67932112Y-97659819D02*
X67503541Y-97088390D01*
X67932112Y-96659819D02*
X67360684Y-97231247D01*
X65074969Y-101485819D02*
X64598779Y-101485819D01*
X64598779Y-101485819D02*
X64551160Y-101962009D01*
X64551160Y-101962009D02*
X64598779Y-101914390D01*
X64598779Y-101914390D02*
X64694017Y-101866771D01*
X64694017Y-101866771D02*
X64932112Y-101866771D01*
X64932112Y-101866771D02*
X65027350Y-101914390D01*
X65027350Y-101914390D02*
X65074969Y-101962009D01*
X65074969Y-101962009D02*
X65122588Y-102057247D01*
X65122588Y-102057247D02*
X65122588Y-102295342D01*
X65122588Y-102295342D02*
X65074969Y-102390580D01*
X65074969Y-102390580D02*
X65027350Y-102438200D01*
X65027350Y-102438200D02*
X64932112Y-102485819D01*
X64932112Y-102485819D02*
X64694017Y-102485819D01*
X64694017Y-102485819D02*
X64598779Y-102438200D01*
X64598779Y-102438200D02*
X64551160Y-102390580D01*
X65408303Y-101485819D02*
X65741636Y-102485819D01*
X65741636Y-102485819D02*
X66074969Y-101485819D01*
X65170207Y-100199819D02*
X64836874Y-99723628D01*
X64598779Y-100199819D02*
X64598779Y-99199819D01*
X64598779Y-99199819D02*
X64979731Y-99199819D01*
X64979731Y-99199819D02*
X65074969Y-99247438D01*
X65074969Y-99247438D02*
X65122588Y-99295057D01*
X65122588Y-99295057D02*
X65170207Y-99390295D01*
X65170207Y-99390295D02*
X65170207Y-99533152D01*
X65170207Y-99533152D02*
X65122588Y-99628390D01*
X65122588Y-99628390D02*
X65074969Y-99676009D01*
X65074969Y-99676009D02*
X64979731Y-99723628D01*
X64979731Y-99723628D02*
X64598779Y-99723628D01*
X65551160Y-100152200D02*
X65694017Y-100199819D01*
X65694017Y-100199819D02*
X65932112Y-100199819D01*
X65932112Y-100199819D02*
X66027350Y-100152200D01*
X66027350Y-100152200D02*
X66074969Y-100104580D01*
X66074969Y-100104580D02*
X66122588Y-100009342D01*
X66122588Y-100009342D02*
X66122588Y-99914104D01*
X66122588Y-99914104D02*
X66074969Y-99818866D01*
X66074969Y-99818866D02*
X66027350Y-99771247D01*
X66027350Y-99771247D02*
X65932112Y-99723628D01*
X65932112Y-99723628D02*
X65741636Y-99676009D01*
X65741636Y-99676009D02*
X65646398Y-99628390D01*
X65646398Y-99628390D02*
X65598779Y-99580771D01*
X65598779Y-99580771D02*
X65551160Y-99485533D01*
X65551160Y-99485533D02*
X65551160Y-99390295D01*
X65551160Y-99390295D02*
X65598779Y-99295057D01*
X65598779Y-99295057D02*
X65646398Y-99247438D01*
X65646398Y-99247438D02*
X65741636Y-99199819D01*
X65741636Y-99199819D02*
X65979731Y-99199819D01*
X65979731Y-99199819D02*
X66122588Y-99247438D01*
X66503541Y-100152200D02*
X66646398Y-100199819D01*
X66646398Y-100199819D02*
X66884493Y-100199819D01*
X66884493Y-100199819D02*
X66979731Y-100152200D01*
X66979731Y-100152200D02*
X67027350Y-100104580D01*
X67027350Y-100104580D02*
X67074969Y-100009342D01*
X67074969Y-100009342D02*
X67074969Y-99914104D01*
X67074969Y-99914104D02*
X67027350Y-99818866D01*
X67027350Y-99818866D02*
X66979731Y-99771247D01*
X66979731Y-99771247D02*
X66884493Y-99723628D01*
X66884493Y-99723628D02*
X66694017Y-99676009D01*
X66694017Y-99676009D02*
X66598779Y-99628390D01*
X66598779Y-99628390D02*
X66551160Y-99580771D01*
X66551160Y-99580771D02*
X66503541Y-99485533D01*
X66503541Y-99485533D02*
X66503541Y-99390295D01*
X66503541Y-99390295D02*
X66551160Y-99295057D01*
X66551160Y-99295057D02*
X66598779Y-99247438D01*
X66598779Y-99247438D02*
X66694017Y-99199819D01*
X66694017Y-99199819D02*
X66932112Y-99199819D01*
X66932112Y-99199819D02*
X67074969Y-99247438D01*
X67503541Y-100199819D02*
X67503541Y-99199819D01*
X64344779Y-92325819D02*
X64344779Y-91325819D01*
X64344779Y-91325819D02*
X64678112Y-92040104D01*
X64678112Y-92040104D02*
X65011445Y-91325819D01*
X65011445Y-91325819D02*
X65011445Y-92325819D01*
X65678112Y-91325819D02*
X65868588Y-91325819D01*
X65868588Y-91325819D02*
X65963826Y-91373438D01*
X65963826Y-91373438D02*
X66059064Y-91468676D01*
X66059064Y-91468676D02*
X66106683Y-91659152D01*
X66106683Y-91659152D02*
X66106683Y-91992485D01*
X66106683Y-91992485D02*
X66059064Y-92182961D01*
X66059064Y-92182961D02*
X65963826Y-92278200D01*
X65963826Y-92278200D02*
X65868588Y-92325819D01*
X65868588Y-92325819D02*
X65678112Y-92325819D01*
X65678112Y-92325819D02*
X65582874Y-92278200D01*
X65582874Y-92278200D02*
X65487636Y-92182961D01*
X65487636Y-92182961D02*
X65440017Y-91992485D01*
X65440017Y-91992485D02*
X65440017Y-91659152D01*
X65440017Y-91659152D02*
X65487636Y-91468676D01*
X65487636Y-91468676D02*
X65582874Y-91373438D01*
X65582874Y-91373438D02*
X65678112Y-91325819D01*
X66487636Y-92278200D02*
X66630493Y-92325819D01*
X66630493Y-92325819D02*
X66868588Y-92325819D01*
X66868588Y-92325819D02*
X66963826Y-92278200D01*
X66963826Y-92278200D02*
X67011445Y-92230580D01*
X67011445Y-92230580D02*
X67059064Y-92135342D01*
X67059064Y-92135342D02*
X67059064Y-92040104D01*
X67059064Y-92040104D02*
X67011445Y-91944866D01*
X67011445Y-91944866D02*
X66963826Y-91897247D01*
X66963826Y-91897247D02*
X66868588Y-91849628D01*
X66868588Y-91849628D02*
X66678112Y-91802009D01*
X66678112Y-91802009D02*
X66582874Y-91754390D01*
X66582874Y-91754390D02*
X66535255Y-91706771D01*
X66535255Y-91706771D02*
X66487636Y-91611533D01*
X66487636Y-91611533D02*
X66487636Y-91516295D01*
X66487636Y-91516295D02*
X66535255Y-91421057D01*
X66535255Y-91421057D02*
X66582874Y-91373438D01*
X66582874Y-91373438D02*
X66678112Y-91325819D01*
X66678112Y-91325819D02*
X66916207Y-91325819D01*
X66916207Y-91325819D02*
X67059064Y-91373438D01*
X67487636Y-92325819D02*
X67487636Y-91325819D01*
X65122588Y-104073438D02*
X65027350Y-104025819D01*
X65027350Y-104025819D02*
X64884493Y-104025819D01*
X64884493Y-104025819D02*
X64741636Y-104073438D01*
X64741636Y-104073438D02*
X64646398Y-104168676D01*
X64646398Y-104168676D02*
X64598779Y-104263914D01*
X64598779Y-104263914D02*
X64551160Y-104454390D01*
X64551160Y-104454390D02*
X64551160Y-104597247D01*
X64551160Y-104597247D02*
X64598779Y-104787723D01*
X64598779Y-104787723D02*
X64646398Y-104882961D01*
X64646398Y-104882961D02*
X64741636Y-104978200D01*
X64741636Y-104978200D02*
X64884493Y-105025819D01*
X64884493Y-105025819D02*
X64979731Y-105025819D01*
X64979731Y-105025819D02*
X65122588Y-104978200D01*
X65122588Y-104978200D02*
X65170207Y-104930580D01*
X65170207Y-104930580D02*
X65170207Y-104597247D01*
X65170207Y-104597247D02*
X64979731Y-104597247D01*
X65598779Y-105025819D02*
X65598779Y-104025819D01*
X65598779Y-104025819D02*
X66170207Y-105025819D01*
X66170207Y-105025819D02*
X66170207Y-104025819D01*
X66646398Y-105025819D02*
X66646398Y-104025819D01*
X66646398Y-104025819D02*
X66884493Y-104025819D01*
X66884493Y-104025819D02*
X67027350Y-104073438D01*
X67027350Y-104073438D02*
X67122588Y-104168676D01*
X67122588Y-104168676D02*
X67170207Y-104263914D01*
X67170207Y-104263914D02*
X67217826Y-104454390D01*
X67217826Y-104454390D02*
X67217826Y-104597247D01*
X67217826Y-104597247D02*
X67170207Y-104787723D01*
X67170207Y-104787723D02*
X67122588Y-104882961D01*
X67122588Y-104882961D02*
X67027350Y-104978200D01*
X67027350Y-104978200D02*
X66884493Y-105025819D01*
X66884493Y-105025819D02*
X66646398Y-105025819D01*
X64551160Y-94818200D02*
X64694017Y-94865819D01*
X64694017Y-94865819D02*
X64932112Y-94865819D01*
X64932112Y-94865819D02*
X65027350Y-94818200D01*
X65027350Y-94818200D02*
X65074969Y-94770580D01*
X65074969Y-94770580D02*
X65122588Y-94675342D01*
X65122588Y-94675342D02*
X65122588Y-94580104D01*
X65122588Y-94580104D02*
X65074969Y-94484866D01*
X65074969Y-94484866D02*
X65027350Y-94437247D01*
X65027350Y-94437247D02*
X64932112Y-94389628D01*
X64932112Y-94389628D02*
X64741636Y-94342009D01*
X64741636Y-94342009D02*
X64646398Y-94294390D01*
X64646398Y-94294390D02*
X64598779Y-94246771D01*
X64598779Y-94246771D02*
X64551160Y-94151533D01*
X64551160Y-94151533D02*
X64551160Y-94056295D01*
X64551160Y-94056295D02*
X64598779Y-93961057D01*
X64598779Y-93961057D02*
X64646398Y-93913438D01*
X64646398Y-93913438D02*
X64741636Y-93865819D01*
X64741636Y-93865819D02*
X64979731Y-93865819D01*
X64979731Y-93865819D02*
X65122588Y-93913438D01*
X65503541Y-94818200D02*
X65646398Y-94865819D01*
X65646398Y-94865819D02*
X65884493Y-94865819D01*
X65884493Y-94865819D02*
X65979731Y-94818200D01*
X65979731Y-94818200D02*
X66027350Y-94770580D01*
X66027350Y-94770580D02*
X66074969Y-94675342D01*
X66074969Y-94675342D02*
X66074969Y-94580104D01*
X66074969Y-94580104D02*
X66027350Y-94484866D01*
X66027350Y-94484866D02*
X65979731Y-94437247D01*
X65979731Y-94437247D02*
X65884493Y-94389628D01*
X65884493Y-94389628D02*
X65694017Y-94342009D01*
X65694017Y-94342009D02*
X65598779Y-94294390D01*
X65598779Y-94294390D02*
X65551160Y-94246771D01*
X65551160Y-94246771D02*
X65503541Y-94151533D01*
X65503541Y-94151533D02*
X65503541Y-94056295D01*
X65503541Y-94056295D02*
X65551160Y-93961057D01*
X65551160Y-93961057D02*
X65598779Y-93913438D01*
X65598779Y-93913438D02*
X65694017Y-93865819D01*
X65694017Y-93865819D02*
X65932112Y-93865819D01*
X65932112Y-93865819D02*
X66074969Y-93913438D01*
X64297160Y-79832200D02*
X64440017Y-79879819D01*
X64440017Y-79879819D02*
X64678112Y-79879819D01*
X64678112Y-79879819D02*
X64773350Y-79832200D01*
X64773350Y-79832200D02*
X64820969Y-79784580D01*
X64820969Y-79784580D02*
X64868588Y-79689342D01*
X64868588Y-79689342D02*
X64868588Y-79594104D01*
X64868588Y-79594104D02*
X64820969Y-79498866D01*
X64820969Y-79498866D02*
X64773350Y-79451247D01*
X64773350Y-79451247D02*
X64678112Y-79403628D01*
X64678112Y-79403628D02*
X64487636Y-79356009D01*
X64487636Y-79356009D02*
X64392398Y-79308390D01*
X64392398Y-79308390D02*
X64344779Y-79260771D01*
X64344779Y-79260771D02*
X64297160Y-79165533D01*
X64297160Y-79165533D02*
X64297160Y-79070295D01*
X64297160Y-79070295D02*
X64344779Y-78975057D01*
X64344779Y-78975057D02*
X64392398Y-78927438D01*
X64392398Y-78927438D02*
X64487636Y-78879819D01*
X64487636Y-78879819D02*
X64725731Y-78879819D01*
X64725731Y-78879819D02*
X64868588Y-78927438D01*
X65868588Y-79784580D02*
X65820969Y-79832200D01*
X65820969Y-79832200D02*
X65678112Y-79879819D01*
X65678112Y-79879819D02*
X65582874Y-79879819D01*
X65582874Y-79879819D02*
X65440017Y-79832200D01*
X65440017Y-79832200D02*
X65344779Y-79736961D01*
X65344779Y-79736961D02*
X65297160Y-79641723D01*
X65297160Y-79641723D02*
X65249541Y-79451247D01*
X65249541Y-79451247D02*
X65249541Y-79308390D01*
X65249541Y-79308390D02*
X65297160Y-79117914D01*
X65297160Y-79117914D02*
X65344779Y-79022676D01*
X65344779Y-79022676D02*
X65440017Y-78927438D01*
X65440017Y-78927438D02*
X65582874Y-78879819D01*
X65582874Y-78879819D02*
X65678112Y-78879819D01*
X65678112Y-78879819D02*
X65820969Y-78927438D01*
X65820969Y-78927438D02*
X65868588Y-78975057D01*
X66773350Y-79879819D02*
X66297160Y-79879819D01*
X66297160Y-79879819D02*
X66297160Y-78879819D01*
X67106684Y-79879819D02*
X67106684Y-78879819D01*
X67678112Y-79879819D02*
X67249541Y-79308390D01*
X67678112Y-78879819D02*
X67106684Y-79451247D01*
X64820969Y-83705819D02*
X64344779Y-83705819D01*
X64344779Y-83705819D02*
X64297160Y-84182009D01*
X64297160Y-84182009D02*
X64344779Y-84134390D01*
X64344779Y-84134390D02*
X64440017Y-84086771D01*
X64440017Y-84086771D02*
X64678112Y-84086771D01*
X64678112Y-84086771D02*
X64773350Y-84134390D01*
X64773350Y-84134390D02*
X64820969Y-84182009D01*
X64820969Y-84182009D02*
X64868588Y-84277247D01*
X64868588Y-84277247D02*
X64868588Y-84515342D01*
X64868588Y-84515342D02*
X64820969Y-84610580D01*
X64820969Y-84610580D02*
X64773350Y-84658200D01*
X64773350Y-84658200D02*
X64678112Y-84705819D01*
X64678112Y-84705819D02*
X64440017Y-84705819D01*
X64440017Y-84705819D02*
X64344779Y-84658200D01*
X64344779Y-84658200D02*
X64297160Y-84610580D01*
X65154303Y-83705819D02*
X65487636Y-84705819D01*
X65487636Y-84705819D02*
X65820969Y-83705819D01*
X64916207Y-82419819D02*
X64582874Y-81943628D01*
X64344779Y-82419819D02*
X64344779Y-81419819D01*
X64344779Y-81419819D02*
X64725731Y-81419819D01*
X64725731Y-81419819D02*
X64820969Y-81467438D01*
X64820969Y-81467438D02*
X64868588Y-81515057D01*
X64868588Y-81515057D02*
X64916207Y-81610295D01*
X64916207Y-81610295D02*
X64916207Y-81753152D01*
X64916207Y-81753152D02*
X64868588Y-81848390D01*
X64868588Y-81848390D02*
X64820969Y-81896009D01*
X64820969Y-81896009D02*
X64725731Y-81943628D01*
X64725731Y-81943628D02*
X64344779Y-81943628D01*
X65297160Y-82372200D02*
X65440017Y-82419819D01*
X65440017Y-82419819D02*
X65678112Y-82419819D01*
X65678112Y-82419819D02*
X65773350Y-82372200D01*
X65773350Y-82372200D02*
X65820969Y-82324580D01*
X65820969Y-82324580D02*
X65868588Y-82229342D01*
X65868588Y-82229342D02*
X65868588Y-82134104D01*
X65868588Y-82134104D02*
X65820969Y-82038866D01*
X65820969Y-82038866D02*
X65773350Y-81991247D01*
X65773350Y-81991247D02*
X65678112Y-81943628D01*
X65678112Y-81943628D02*
X65487636Y-81896009D01*
X65487636Y-81896009D02*
X65392398Y-81848390D01*
X65392398Y-81848390D02*
X65344779Y-81800771D01*
X65344779Y-81800771D02*
X65297160Y-81705533D01*
X65297160Y-81705533D02*
X65297160Y-81610295D01*
X65297160Y-81610295D02*
X65344779Y-81515057D01*
X65344779Y-81515057D02*
X65392398Y-81467438D01*
X65392398Y-81467438D02*
X65487636Y-81419819D01*
X65487636Y-81419819D02*
X65725731Y-81419819D01*
X65725731Y-81419819D02*
X65868588Y-81467438D01*
X66249541Y-82372200D02*
X66392398Y-82419819D01*
X66392398Y-82419819D02*
X66630493Y-82419819D01*
X66630493Y-82419819D02*
X66725731Y-82372200D01*
X66725731Y-82372200D02*
X66773350Y-82324580D01*
X66773350Y-82324580D02*
X66820969Y-82229342D01*
X66820969Y-82229342D02*
X66820969Y-82134104D01*
X66820969Y-82134104D02*
X66773350Y-82038866D01*
X66773350Y-82038866D02*
X66725731Y-81991247D01*
X66725731Y-81991247D02*
X66630493Y-81943628D01*
X66630493Y-81943628D02*
X66440017Y-81896009D01*
X66440017Y-81896009D02*
X66344779Y-81848390D01*
X66344779Y-81848390D02*
X66297160Y-81800771D01*
X66297160Y-81800771D02*
X66249541Y-81705533D01*
X66249541Y-81705533D02*
X66249541Y-81610295D01*
X66249541Y-81610295D02*
X66297160Y-81515057D01*
X66297160Y-81515057D02*
X66344779Y-81467438D01*
X66344779Y-81467438D02*
X66440017Y-81419819D01*
X66440017Y-81419819D02*
X66678112Y-81419819D01*
X66678112Y-81419819D02*
X66820969Y-81467438D01*
X67249541Y-82419819D02*
X67249541Y-81419819D01*
X64090779Y-74545819D02*
X64090779Y-73545819D01*
X64090779Y-73545819D02*
X64424112Y-74260104D01*
X64424112Y-74260104D02*
X64757445Y-73545819D01*
X64757445Y-73545819D02*
X64757445Y-74545819D01*
X65424112Y-73545819D02*
X65614588Y-73545819D01*
X65614588Y-73545819D02*
X65709826Y-73593438D01*
X65709826Y-73593438D02*
X65805064Y-73688676D01*
X65805064Y-73688676D02*
X65852683Y-73879152D01*
X65852683Y-73879152D02*
X65852683Y-74212485D01*
X65852683Y-74212485D02*
X65805064Y-74402961D01*
X65805064Y-74402961D02*
X65709826Y-74498200D01*
X65709826Y-74498200D02*
X65614588Y-74545819D01*
X65614588Y-74545819D02*
X65424112Y-74545819D01*
X65424112Y-74545819D02*
X65328874Y-74498200D01*
X65328874Y-74498200D02*
X65233636Y-74402961D01*
X65233636Y-74402961D02*
X65186017Y-74212485D01*
X65186017Y-74212485D02*
X65186017Y-73879152D01*
X65186017Y-73879152D02*
X65233636Y-73688676D01*
X65233636Y-73688676D02*
X65328874Y-73593438D01*
X65328874Y-73593438D02*
X65424112Y-73545819D01*
X66233636Y-74498200D02*
X66376493Y-74545819D01*
X66376493Y-74545819D02*
X66614588Y-74545819D01*
X66614588Y-74545819D02*
X66709826Y-74498200D01*
X66709826Y-74498200D02*
X66757445Y-74450580D01*
X66757445Y-74450580D02*
X66805064Y-74355342D01*
X66805064Y-74355342D02*
X66805064Y-74260104D01*
X66805064Y-74260104D02*
X66757445Y-74164866D01*
X66757445Y-74164866D02*
X66709826Y-74117247D01*
X66709826Y-74117247D02*
X66614588Y-74069628D01*
X66614588Y-74069628D02*
X66424112Y-74022009D01*
X66424112Y-74022009D02*
X66328874Y-73974390D01*
X66328874Y-73974390D02*
X66281255Y-73926771D01*
X66281255Y-73926771D02*
X66233636Y-73831533D01*
X66233636Y-73831533D02*
X66233636Y-73736295D01*
X66233636Y-73736295D02*
X66281255Y-73641057D01*
X66281255Y-73641057D02*
X66328874Y-73593438D01*
X66328874Y-73593438D02*
X66424112Y-73545819D01*
X66424112Y-73545819D02*
X66662207Y-73545819D01*
X66662207Y-73545819D02*
X66805064Y-73593438D01*
X67233636Y-74545819D02*
X67233636Y-73545819D01*
X64868588Y-86293438D02*
X64773350Y-86245819D01*
X64773350Y-86245819D02*
X64630493Y-86245819D01*
X64630493Y-86245819D02*
X64487636Y-86293438D01*
X64487636Y-86293438D02*
X64392398Y-86388676D01*
X64392398Y-86388676D02*
X64344779Y-86483914D01*
X64344779Y-86483914D02*
X64297160Y-86674390D01*
X64297160Y-86674390D02*
X64297160Y-86817247D01*
X64297160Y-86817247D02*
X64344779Y-87007723D01*
X64344779Y-87007723D02*
X64392398Y-87102961D01*
X64392398Y-87102961D02*
X64487636Y-87198200D01*
X64487636Y-87198200D02*
X64630493Y-87245819D01*
X64630493Y-87245819D02*
X64725731Y-87245819D01*
X64725731Y-87245819D02*
X64868588Y-87198200D01*
X64868588Y-87198200D02*
X64916207Y-87150580D01*
X64916207Y-87150580D02*
X64916207Y-86817247D01*
X64916207Y-86817247D02*
X64725731Y-86817247D01*
X65344779Y-87245819D02*
X65344779Y-86245819D01*
X65344779Y-86245819D02*
X65916207Y-87245819D01*
X65916207Y-87245819D02*
X65916207Y-86245819D01*
X66392398Y-87245819D02*
X66392398Y-86245819D01*
X66392398Y-86245819D02*
X66630493Y-86245819D01*
X66630493Y-86245819D02*
X66773350Y-86293438D01*
X66773350Y-86293438D02*
X66868588Y-86388676D01*
X66868588Y-86388676D02*
X66916207Y-86483914D01*
X66916207Y-86483914D02*
X66963826Y-86674390D01*
X66963826Y-86674390D02*
X66963826Y-86817247D01*
X66963826Y-86817247D02*
X66916207Y-87007723D01*
X66916207Y-87007723D02*
X66868588Y-87102961D01*
X66868588Y-87102961D02*
X66773350Y-87198200D01*
X66773350Y-87198200D02*
X66630493Y-87245819D01*
X66630493Y-87245819D02*
X66392398Y-87245819D01*
X64297160Y-77038200D02*
X64440017Y-77085819D01*
X64440017Y-77085819D02*
X64678112Y-77085819D01*
X64678112Y-77085819D02*
X64773350Y-77038200D01*
X64773350Y-77038200D02*
X64820969Y-76990580D01*
X64820969Y-76990580D02*
X64868588Y-76895342D01*
X64868588Y-76895342D02*
X64868588Y-76800104D01*
X64868588Y-76800104D02*
X64820969Y-76704866D01*
X64820969Y-76704866D02*
X64773350Y-76657247D01*
X64773350Y-76657247D02*
X64678112Y-76609628D01*
X64678112Y-76609628D02*
X64487636Y-76562009D01*
X64487636Y-76562009D02*
X64392398Y-76514390D01*
X64392398Y-76514390D02*
X64344779Y-76466771D01*
X64344779Y-76466771D02*
X64297160Y-76371533D01*
X64297160Y-76371533D02*
X64297160Y-76276295D01*
X64297160Y-76276295D02*
X64344779Y-76181057D01*
X64344779Y-76181057D02*
X64392398Y-76133438D01*
X64392398Y-76133438D02*
X64487636Y-76085819D01*
X64487636Y-76085819D02*
X64725731Y-76085819D01*
X64725731Y-76085819D02*
X64868588Y-76133438D01*
X65249541Y-77038200D02*
X65392398Y-77085819D01*
X65392398Y-77085819D02*
X65630493Y-77085819D01*
X65630493Y-77085819D02*
X65725731Y-77038200D01*
X65725731Y-77038200D02*
X65773350Y-76990580D01*
X65773350Y-76990580D02*
X65820969Y-76895342D01*
X65820969Y-76895342D02*
X65820969Y-76800104D01*
X65820969Y-76800104D02*
X65773350Y-76704866D01*
X65773350Y-76704866D02*
X65725731Y-76657247D01*
X65725731Y-76657247D02*
X65630493Y-76609628D01*
X65630493Y-76609628D02*
X65440017Y-76562009D01*
X65440017Y-76562009D02*
X65344779Y-76514390D01*
X65344779Y-76514390D02*
X65297160Y-76466771D01*
X65297160Y-76466771D02*
X65249541Y-76371533D01*
X65249541Y-76371533D02*
X65249541Y-76276295D01*
X65249541Y-76276295D02*
X65297160Y-76181057D01*
X65297160Y-76181057D02*
X65344779Y-76133438D01*
X65344779Y-76133438D02*
X65440017Y-76085819D01*
X65440017Y-76085819D02*
X65678112Y-76085819D01*
X65678112Y-76085819D02*
X65820969Y-76133438D01*
X64868588Y-68259438D02*
X64773350Y-68211819D01*
X64773350Y-68211819D02*
X64630493Y-68211819D01*
X64630493Y-68211819D02*
X64487636Y-68259438D01*
X64487636Y-68259438D02*
X64392398Y-68354676D01*
X64392398Y-68354676D02*
X64344779Y-68449914D01*
X64344779Y-68449914D02*
X64297160Y-68640390D01*
X64297160Y-68640390D02*
X64297160Y-68783247D01*
X64297160Y-68783247D02*
X64344779Y-68973723D01*
X64344779Y-68973723D02*
X64392398Y-69068961D01*
X64392398Y-69068961D02*
X64487636Y-69164200D01*
X64487636Y-69164200D02*
X64630493Y-69211819D01*
X64630493Y-69211819D02*
X64725731Y-69211819D01*
X64725731Y-69211819D02*
X64868588Y-69164200D01*
X64868588Y-69164200D02*
X64916207Y-69116580D01*
X64916207Y-69116580D02*
X64916207Y-68783247D01*
X64916207Y-68783247D02*
X64725731Y-68783247D01*
X65344779Y-69211819D02*
X65344779Y-68211819D01*
X65344779Y-68211819D02*
X65916207Y-69211819D01*
X65916207Y-69211819D02*
X65916207Y-68211819D01*
X66392398Y-69211819D02*
X66392398Y-68211819D01*
X66392398Y-68211819D02*
X66630493Y-68211819D01*
X66630493Y-68211819D02*
X66773350Y-68259438D01*
X66773350Y-68259438D02*
X66868588Y-68354676D01*
X66868588Y-68354676D02*
X66916207Y-68449914D01*
X66916207Y-68449914D02*
X66963826Y-68640390D01*
X66963826Y-68640390D02*
X66963826Y-68783247D01*
X66963826Y-68783247D02*
X66916207Y-68973723D01*
X66916207Y-68973723D02*
X66868588Y-69068961D01*
X66868588Y-69068961D02*
X66773350Y-69164200D01*
X66773350Y-69164200D02*
X66630493Y-69211819D01*
X66630493Y-69211819D02*
X66392398Y-69211819D01*
X64820969Y-65671819D02*
X64344779Y-65671819D01*
X64344779Y-65671819D02*
X64297160Y-66148009D01*
X64297160Y-66148009D02*
X64344779Y-66100390D01*
X64344779Y-66100390D02*
X64440017Y-66052771D01*
X64440017Y-66052771D02*
X64678112Y-66052771D01*
X64678112Y-66052771D02*
X64773350Y-66100390D01*
X64773350Y-66100390D02*
X64820969Y-66148009D01*
X64820969Y-66148009D02*
X64868588Y-66243247D01*
X64868588Y-66243247D02*
X64868588Y-66481342D01*
X64868588Y-66481342D02*
X64820969Y-66576580D01*
X64820969Y-66576580D02*
X64773350Y-66624200D01*
X64773350Y-66624200D02*
X64678112Y-66671819D01*
X64678112Y-66671819D02*
X64440017Y-66671819D01*
X64440017Y-66671819D02*
X64344779Y-66624200D01*
X64344779Y-66624200D02*
X64297160Y-66576580D01*
X65154303Y-65671819D02*
X65487636Y-66671819D01*
X65487636Y-66671819D02*
X65820969Y-65671819D01*
X64916207Y-64385819D02*
X64582874Y-63909628D01*
X64344779Y-64385819D02*
X64344779Y-63385819D01*
X64344779Y-63385819D02*
X64725731Y-63385819D01*
X64725731Y-63385819D02*
X64820969Y-63433438D01*
X64820969Y-63433438D02*
X64868588Y-63481057D01*
X64868588Y-63481057D02*
X64916207Y-63576295D01*
X64916207Y-63576295D02*
X64916207Y-63719152D01*
X64916207Y-63719152D02*
X64868588Y-63814390D01*
X64868588Y-63814390D02*
X64820969Y-63862009D01*
X64820969Y-63862009D02*
X64725731Y-63909628D01*
X64725731Y-63909628D02*
X64344779Y-63909628D01*
X65297160Y-64338200D02*
X65440017Y-64385819D01*
X65440017Y-64385819D02*
X65678112Y-64385819D01*
X65678112Y-64385819D02*
X65773350Y-64338200D01*
X65773350Y-64338200D02*
X65820969Y-64290580D01*
X65820969Y-64290580D02*
X65868588Y-64195342D01*
X65868588Y-64195342D02*
X65868588Y-64100104D01*
X65868588Y-64100104D02*
X65820969Y-64004866D01*
X65820969Y-64004866D02*
X65773350Y-63957247D01*
X65773350Y-63957247D02*
X65678112Y-63909628D01*
X65678112Y-63909628D02*
X65487636Y-63862009D01*
X65487636Y-63862009D02*
X65392398Y-63814390D01*
X65392398Y-63814390D02*
X65344779Y-63766771D01*
X65344779Y-63766771D02*
X65297160Y-63671533D01*
X65297160Y-63671533D02*
X65297160Y-63576295D01*
X65297160Y-63576295D02*
X65344779Y-63481057D01*
X65344779Y-63481057D02*
X65392398Y-63433438D01*
X65392398Y-63433438D02*
X65487636Y-63385819D01*
X65487636Y-63385819D02*
X65725731Y-63385819D01*
X65725731Y-63385819D02*
X65868588Y-63433438D01*
X66249541Y-64338200D02*
X66392398Y-64385819D01*
X66392398Y-64385819D02*
X66630493Y-64385819D01*
X66630493Y-64385819D02*
X66725731Y-64338200D01*
X66725731Y-64338200D02*
X66773350Y-64290580D01*
X66773350Y-64290580D02*
X66820969Y-64195342D01*
X66820969Y-64195342D02*
X66820969Y-64100104D01*
X66820969Y-64100104D02*
X66773350Y-64004866D01*
X66773350Y-64004866D02*
X66725731Y-63957247D01*
X66725731Y-63957247D02*
X66630493Y-63909628D01*
X66630493Y-63909628D02*
X66440017Y-63862009D01*
X66440017Y-63862009D02*
X66344779Y-63814390D01*
X66344779Y-63814390D02*
X66297160Y-63766771D01*
X66297160Y-63766771D02*
X66249541Y-63671533D01*
X66249541Y-63671533D02*
X66249541Y-63576295D01*
X66249541Y-63576295D02*
X66297160Y-63481057D01*
X66297160Y-63481057D02*
X66344779Y-63433438D01*
X66344779Y-63433438D02*
X66440017Y-63385819D01*
X66440017Y-63385819D02*
X66678112Y-63385819D01*
X66678112Y-63385819D02*
X66820969Y-63433438D01*
X67249541Y-64385819D02*
X67249541Y-63385819D01*
X64297160Y-61798200D02*
X64440017Y-61845819D01*
X64440017Y-61845819D02*
X64678112Y-61845819D01*
X64678112Y-61845819D02*
X64773350Y-61798200D01*
X64773350Y-61798200D02*
X64820969Y-61750580D01*
X64820969Y-61750580D02*
X64868588Y-61655342D01*
X64868588Y-61655342D02*
X64868588Y-61560104D01*
X64868588Y-61560104D02*
X64820969Y-61464866D01*
X64820969Y-61464866D02*
X64773350Y-61417247D01*
X64773350Y-61417247D02*
X64678112Y-61369628D01*
X64678112Y-61369628D02*
X64487636Y-61322009D01*
X64487636Y-61322009D02*
X64392398Y-61274390D01*
X64392398Y-61274390D02*
X64344779Y-61226771D01*
X64344779Y-61226771D02*
X64297160Y-61131533D01*
X64297160Y-61131533D02*
X64297160Y-61036295D01*
X64297160Y-61036295D02*
X64344779Y-60941057D01*
X64344779Y-60941057D02*
X64392398Y-60893438D01*
X64392398Y-60893438D02*
X64487636Y-60845819D01*
X64487636Y-60845819D02*
X64725731Y-60845819D01*
X64725731Y-60845819D02*
X64868588Y-60893438D01*
X65868588Y-61750580D02*
X65820969Y-61798200D01*
X65820969Y-61798200D02*
X65678112Y-61845819D01*
X65678112Y-61845819D02*
X65582874Y-61845819D01*
X65582874Y-61845819D02*
X65440017Y-61798200D01*
X65440017Y-61798200D02*
X65344779Y-61702961D01*
X65344779Y-61702961D02*
X65297160Y-61607723D01*
X65297160Y-61607723D02*
X65249541Y-61417247D01*
X65249541Y-61417247D02*
X65249541Y-61274390D01*
X65249541Y-61274390D02*
X65297160Y-61083914D01*
X65297160Y-61083914D02*
X65344779Y-60988676D01*
X65344779Y-60988676D02*
X65440017Y-60893438D01*
X65440017Y-60893438D02*
X65582874Y-60845819D01*
X65582874Y-60845819D02*
X65678112Y-60845819D01*
X65678112Y-60845819D02*
X65820969Y-60893438D01*
X65820969Y-60893438D02*
X65868588Y-60941057D01*
X66773350Y-61845819D02*
X66297160Y-61845819D01*
X66297160Y-61845819D02*
X66297160Y-60845819D01*
X67106684Y-61845819D02*
X67106684Y-60845819D01*
X67678112Y-61845819D02*
X67249541Y-61274390D01*
X67678112Y-60845819D02*
X67106684Y-61417247D01*
X64297160Y-59004200D02*
X64440017Y-59051819D01*
X64440017Y-59051819D02*
X64678112Y-59051819D01*
X64678112Y-59051819D02*
X64773350Y-59004200D01*
X64773350Y-59004200D02*
X64820969Y-58956580D01*
X64820969Y-58956580D02*
X64868588Y-58861342D01*
X64868588Y-58861342D02*
X64868588Y-58766104D01*
X64868588Y-58766104D02*
X64820969Y-58670866D01*
X64820969Y-58670866D02*
X64773350Y-58623247D01*
X64773350Y-58623247D02*
X64678112Y-58575628D01*
X64678112Y-58575628D02*
X64487636Y-58528009D01*
X64487636Y-58528009D02*
X64392398Y-58480390D01*
X64392398Y-58480390D02*
X64344779Y-58432771D01*
X64344779Y-58432771D02*
X64297160Y-58337533D01*
X64297160Y-58337533D02*
X64297160Y-58242295D01*
X64297160Y-58242295D02*
X64344779Y-58147057D01*
X64344779Y-58147057D02*
X64392398Y-58099438D01*
X64392398Y-58099438D02*
X64487636Y-58051819D01*
X64487636Y-58051819D02*
X64725731Y-58051819D01*
X64725731Y-58051819D02*
X64868588Y-58099438D01*
X65249541Y-59004200D02*
X65392398Y-59051819D01*
X65392398Y-59051819D02*
X65630493Y-59051819D01*
X65630493Y-59051819D02*
X65725731Y-59004200D01*
X65725731Y-59004200D02*
X65773350Y-58956580D01*
X65773350Y-58956580D02*
X65820969Y-58861342D01*
X65820969Y-58861342D02*
X65820969Y-58766104D01*
X65820969Y-58766104D02*
X65773350Y-58670866D01*
X65773350Y-58670866D02*
X65725731Y-58623247D01*
X65725731Y-58623247D02*
X65630493Y-58575628D01*
X65630493Y-58575628D02*
X65440017Y-58528009D01*
X65440017Y-58528009D02*
X65344779Y-58480390D01*
X65344779Y-58480390D02*
X65297160Y-58432771D01*
X65297160Y-58432771D02*
X65249541Y-58337533D01*
X65249541Y-58337533D02*
X65249541Y-58242295D01*
X65249541Y-58242295D02*
X65297160Y-58147057D01*
X65297160Y-58147057D02*
X65344779Y-58099438D01*
X65344779Y-58099438D02*
X65440017Y-58051819D01*
X65440017Y-58051819D02*
X65678112Y-58051819D01*
X65678112Y-58051819D02*
X65820969Y-58099438D01*
X64090779Y-56511819D02*
X64090779Y-55511819D01*
X64090779Y-55511819D02*
X64424112Y-56226104D01*
X64424112Y-56226104D02*
X64757445Y-55511819D01*
X64757445Y-55511819D02*
X64757445Y-56511819D01*
X65424112Y-55511819D02*
X65614588Y-55511819D01*
X65614588Y-55511819D02*
X65709826Y-55559438D01*
X65709826Y-55559438D02*
X65805064Y-55654676D01*
X65805064Y-55654676D02*
X65852683Y-55845152D01*
X65852683Y-55845152D02*
X65852683Y-56178485D01*
X65852683Y-56178485D02*
X65805064Y-56368961D01*
X65805064Y-56368961D02*
X65709826Y-56464200D01*
X65709826Y-56464200D02*
X65614588Y-56511819D01*
X65614588Y-56511819D02*
X65424112Y-56511819D01*
X65424112Y-56511819D02*
X65328874Y-56464200D01*
X65328874Y-56464200D02*
X65233636Y-56368961D01*
X65233636Y-56368961D02*
X65186017Y-56178485D01*
X65186017Y-56178485D02*
X65186017Y-55845152D01*
X65186017Y-55845152D02*
X65233636Y-55654676D01*
X65233636Y-55654676D02*
X65328874Y-55559438D01*
X65328874Y-55559438D02*
X65424112Y-55511819D01*
X66233636Y-56464200D02*
X66376493Y-56511819D01*
X66376493Y-56511819D02*
X66614588Y-56511819D01*
X66614588Y-56511819D02*
X66709826Y-56464200D01*
X66709826Y-56464200D02*
X66757445Y-56416580D01*
X66757445Y-56416580D02*
X66805064Y-56321342D01*
X66805064Y-56321342D02*
X66805064Y-56226104D01*
X66805064Y-56226104D02*
X66757445Y-56130866D01*
X66757445Y-56130866D02*
X66709826Y-56083247D01*
X66709826Y-56083247D02*
X66614588Y-56035628D01*
X66614588Y-56035628D02*
X66424112Y-55988009D01*
X66424112Y-55988009D02*
X66328874Y-55940390D01*
X66328874Y-55940390D02*
X66281255Y-55892771D01*
X66281255Y-55892771D02*
X66233636Y-55797533D01*
X66233636Y-55797533D02*
X66233636Y-55702295D01*
X66233636Y-55702295D02*
X66281255Y-55607057D01*
X66281255Y-55607057D02*
X66328874Y-55559438D01*
X66328874Y-55559438D02*
X66424112Y-55511819D01*
X66424112Y-55511819D02*
X66662207Y-55511819D01*
X66662207Y-55511819D02*
X66805064Y-55559438D01*
X67233636Y-56511819D02*
X67233636Y-55511819D01*
D12*
X32053884Y-12556609D02*
X32387217Y-12556609D01*
X32530074Y-13080419D02*
X32053884Y-13080419D01*
X32053884Y-13080419D02*
X32053884Y-12080419D01*
X32053884Y-12080419D02*
X32530074Y-12080419D01*
X32911027Y-13032800D02*
X33053884Y-13080419D01*
X33053884Y-13080419D02*
X33291979Y-13080419D01*
X33291979Y-13080419D02*
X33387217Y-13032800D01*
X33387217Y-13032800D02*
X33434836Y-12985180D01*
X33434836Y-12985180D02*
X33482455Y-12889942D01*
X33482455Y-12889942D02*
X33482455Y-12794704D01*
X33482455Y-12794704D02*
X33434836Y-12699466D01*
X33434836Y-12699466D02*
X33387217Y-12651847D01*
X33387217Y-12651847D02*
X33291979Y-12604228D01*
X33291979Y-12604228D02*
X33101503Y-12556609D01*
X33101503Y-12556609D02*
X33006265Y-12508990D01*
X33006265Y-12508990D02*
X32958646Y-12461371D01*
X32958646Y-12461371D02*
X32911027Y-12366133D01*
X32911027Y-12366133D02*
X32911027Y-12270895D01*
X32911027Y-12270895D02*
X32958646Y-12175657D01*
X32958646Y-12175657D02*
X33006265Y-12128038D01*
X33006265Y-12128038D02*
X33101503Y-12080419D01*
X33101503Y-12080419D02*
X33339598Y-12080419D01*
X33339598Y-12080419D02*
X33482455Y-12128038D01*
X33911027Y-13080419D02*
X33911027Y-12080419D01*
X33911027Y-12080419D02*
X34291979Y-12080419D01*
X34291979Y-12080419D02*
X34387217Y-12128038D01*
X34387217Y-12128038D02*
X34434836Y-12175657D01*
X34434836Y-12175657D02*
X34482455Y-12270895D01*
X34482455Y-12270895D02*
X34482455Y-12413752D01*
X34482455Y-12413752D02*
X34434836Y-12508990D01*
X34434836Y-12508990D02*
X34387217Y-12556609D01*
X34387217Y-12556609D02*
X34291979Y-12604228D01*
X34291979Y-12604228D02*
X33911027Y-12604228D01*
X34815789Y-12080419D02*
X35434836Y-12080419D01*
X35434836Y-12080419D02*
X35101503Y-12461371D01*
X35101503Y-12461371D02*
X35244360Y-12461371D01*
X35244360Y-12461371D02*
X35339598Y-12508990D01*
X35339598Y-12508990D02*
X35387217Y-12556609D01*
X35387217Y-12556609D02*
X35434836Y-12651847D01*
X35434836Y-12651847D02*
X35434836Y-12889942D01*
X35434836Y-12889942D02*
X35387217Y-12985180D01*
X35387217Y-12985180D02*
X35339598Y-13032800D01*
X35339598Y-13032800D02*
X35244360Y-13080419D01*
X35244360Y-13080419D02*
X34958646Y-13080419D01*
X34958646Y-13080419D02*
X34863408Y-13032800D01*
X34863408Y-13032800D02*
X34815789Y-12985180D01*
X35815789Y-12175657D02*
X35863408Y-12128038D01*
X35863408Y-12128038D02*
X35958646Y-12080419D01*
X35958646Y-12080419D02*
X36196741Y-12080419D01*
X36196741Y-12080419D02*
X36291979Y-12128038D01*
X36291979Y-12128038D02*
X36339598Y-12175657D01*
X36339598Y-12175657D02*
X36387217Y-12270895D01*
X36387217Y-12270895D02*
X36387217Y-12366133D01*
X36387217Y-12366133D02*
X36339598Y-12508990D01*
X36339598Y-12508990D02*
X35768170Y-13080419D01*
X35768170Y-13080419D02*
X36387217Y-13080419D01*
X37482456Y-12080419D02*
X37720551Y-13080419D01*
X37720551Y-13080419D02*
X37911027Y-12366133D01*
X37911027Y-12366133D02*
X38101503Y-13080419D01*
X38101503Y-13080419D02*
X38339599Y-12080419D01*
X39291979Y-13080419D02*
X38958646Y-12604228D01*
X38720551Y-13080419D02*
X38720551Y-12080419D01*
X38720551Y-12080419D02*
X39101503Y-12080419D01*
X39101503Y-12080419D02*
X39196741Y-12128038D01*
X39196741Y-12128038D02*
X39244360Y-12175657D01*
X39244360Y-12175657D02*
X39291979Y-12270895D01*
X39291979Y-12270895D02*
X39291979Y-12413752D01*
X39291979Y-12413752D02*
X39244360Y-12508990D01*
X39244360Y-12508990D02*
X39196741Y-12556609D01*
X39196741Y-12556609D02*
X39101503Y-12604228D01*
X39101503Y-12604228D02*
X38720551Y-12604228D01*
X39911027Y-12080419D02*
X40101503Y-12080419D01*
X40101503Y-12080419D02*
X40196741Y-12128038D01*
X40196741Y-12128038D02*
X40291979Y-12223276D01*
X40291979Y-12223276D02*
X40339598Y-12413752D01*
X40339598Y-12413752D02*
X40339598Y-12747085D01*
X40339598Y-12747085D02*
X40291979Y-12937561D01*
X40291979Y-12937561D02*
X40196741Y-13032800D01*
X40196741Y-13032800D02*
X40101503Y-13080419D01*
X40101503Y-13080419D02*
X39911027Y-13080419D01*
X39911027Y-13080419D02*
X39815789Y-13032800D01*
X39815789Y-13032800D02*
X39720551Y-12937561D01*
X39720551Y-12937561D02*
X39672932Y-12747085D01*
X39672932Y-12747085D02*
X39672932Y-12413752D01*
X39672932Y-12413752D02*
X39720551Y-12223276D01*
X39720551Y-12223276D02*
X39815789Y-12128038D01*
X39815789Y-12128038D02*
X39911027Y-12080419D01*
X40958646Y-12080419D02*
X41149122Y-12080419D01*
X41149122Y-12080419D02*
X41244360Y-12128038D01*
X41244360Y-12128038D02*
X41339598Y-12223276D01*
X41339598Y-12223276D02*
X41387217Y-12413752D01*
X41387217Y-12413752D02*
X41387217Y-12747085D01*
X41387217Y-12747085D02*
X41339598Y-12937561D01*
X41339598Y-12937561D02*
X41244360Y-13032800D01*
X41244360Y-13032800D02*
X41149122Y-13080419D01*
X41149122Y-13080419D02*
X40958646Y-13080419D01*
X40958646Y-13080419D02*
X40863408Y-13032800D01*
X40863408Y-13032800D02*
X40768170Y-12937561D01*
X40768170Y-12937561D02*
X40720551Y-12747085D01*
X40720551Y-12747085D02*
X40720551Y-12413752D01*
X40720551Y-12413752D02*
X40768170Y-12223276D01*
X40768170Y-12223276D02*
X40863408Y-12128038D01*
X40863408Y-12128038D02*
X40958646Y-12080419D01*
X41815789Y-13080419D02*
X41815789Y-12080419D01*
X41815789Y-12080419D02*
X42149122Y-12794704D01*
X42149122Y-12794704D02*
X42482455Y-12080419D01*
X42482455Y-12080419D02*
X42482455Y-13080419D01*
X64518265Y-33352800D02*
X64661122Y-33400419D01*
X64661122Y-33400419D02*
X64899217Y-33400419D01*
X64899217Y-33400419D02*
X64994455Y-33352800D01*
X64994455Y-33352800D02*
X65042074Y-33305180D01*
X65042074Y-33305180D02*
X65089693Y-33209942D01*
X65089693Y-33209942D02*
X65089693Y-33114704D01*
X65089693Y-33114704D02*
X65042074Y-33019466D01*
X65042074Y-33019466D02*
X64994455Y-32971847D01*
X64994455Y-32971847D02*
X64899217Y-32924228D01*
X64899217Y-32924228D02*
X64708741Y-32876609D01*
X64708741Y-32876609D02*
X64613503Y-32828990D01*
X64613503Y-32828990D02*
X64565884Y-32781371D01*
X64565884Y-32781371D02*
X64518265Y-32686133D01*
X64518265Y-32686133D02*
X64518265Y-32590895D01*
X64518265Y-32590895D02*
X64565884Y-32495657D01*
X64565884Y-32495657D02*
X64613503Y-32448038D01*
X64613503Y-32448038D02*
X64708741Y-32400419D01*
X64708741Y-32400419D02*
X64946836Y-32400419D01*
X64946836Y-32400419D02*
X65089693Y-32448038D01*
X66089693Y-33305180D02*
X66042074Y-33352800D01*
X66042074Y-33352800D02*
X65899217Y-33400419D01*
X65899217Y-33400419D02*
X65803979Y-33400419D01*
X65803979Y-33400419D02*
X65661122Y-33352800D01*
X65661122Y-33352800D02*
X65565884Y-33257561D01*
X65565884Y-33257561D02*
X65518265Y-33162323D01*
X65518265Y-33162323D02*
X65470646Y-32971847D01*
X65470646Y-32971847D02*
X65470646Y-32828990D01*
X65470646Y-32828990D02*
X65518265Y-32638514D01*
X65518265Y-32638514D02*
X65565884Y-32543276D01*
X65565884Y-32543276D02*
X65661122Y-32448038D01*
X65661122Y-32448038D02*
X65803979Y-32400419D01*
X65803979Y-32400419D02*
X65899217Y-32400419D01*
X65899217Y-32400419D02*
X66042074Y-32448038D01*
X66042074Y-32448038D02*
X66089693Y-32495657D01*
X66518265Y-33400419D02*
X66518265Y-32400419D01*
X67089693Y-33400419D02*
X66661122Y-32828990D01*
X67089693Y-32400419D02*
X66518265Y-32971847D01*
X65137312Y-23145180D02*
X65089693Y-23192800D01*
X65089693Y-23192800D02*
X64946836Y-23240419D01*
X64946836Y-23240419D02*
X64851598Y-23240419D01*
X64851598Y-23240419D02*
X64708741Y-23192800D01*
X64708741Y-23192800D02*
X64613503Y-23097561D01*
X64613503Y-23097561D02*
X64565884Y-23002323D01*
X64565884Y-23002323D02*
X64518265Y-22811847D01*
X64518265Y-22811847D02*
X64518265Y-22668990D01*
X64518265Y-22668990D02*
X64565884Y-22478514D01*
X64565884Y-22478514D02*
X64613503Y-22383276D01*
X64613503Y-22383276D02*
X64708741Y-22288038D01*
X64708741Y-22288038D02*
X64851598Y-22240419D01*
X64851598Y-22240419D02*
X64946836Y-22240419D01*
X64946836Y-22240419D02*
X65089693Y-22288038D01*
X65089693Y-22288038D02*
X65137312Y-22335657D01*
X65518265Y-23192800D02*
X65661122Y-23240419D01*
X65661122Y-23240419D02*
X65899217Y-23240419D01*
X65899217Y-23240419D02*
X65994455Y-23192800D01*
X65994455Y-23192800D02*
X66042074Y-23145180D01*
X66042074Y-23145180D02*
X66089693Y-23049942D01*
X66089693Y-23049942D02*
X66089693Y-22954704D01*
X66089693Y-22954704D02*
X66042074Y-22859466D01*
X66042074Y-22859466D02*
X65994455Y-22811847D01*
X65994455Y-22811847D02*
X65899217Y-22764228D01*
X65899217Y-22764228D02*
X65708741Y-22716609D01*
X65708741Y-22716609D02*
X65613503Y-22668990D01*
X65613503Y-22668990D02*
X65565884Y-22621371D01*
X65565884Y-22621371D02*
X65518265Y-22526133D01*
X65518265Y-22526133D02*
X65518265Y-22430895D01*
X65518265Y-22430895D02*
X65565884Y-22335657D01*
X65565884Y-22335657D02*
X65613503Y-22288038D01*
X65613503Y-22288038D02*
X65708741Y-22240419D01*
X65708741Y-22240419D02*
X65946836Y-22240419D01*
X65946836Y-22240419D02*
X66089693Y-22288038D01*
X64470646Y-19700419D02*
X65089693Y-19700419D01*
X65089693Y-19700419D02*
X64756360Y-20081371D01*
X64756360Y-20081371D02*
X64899217Y-20081371D01*
X64899217Y-20081371D02*
X64994455Y-20128990D01*
X64994455Y-20128990D02*
X65042074Y-20176609D01*
X65042074Y-20176609D02*
X65089693Y-20271847D01*
X65089693Y-20271847D02*
X65089693Y-20509942D01*
X65089693Y-20509942D02*
X65042074Y-20605180D01*
X65042074Y-20605180D02*
X64994455Y-20652800D01*
X64994455Y-20652800D02*
X64899217Y-20700419D01*
X64899217Y-20700419D02*
X64613503Y-20700419D01*
X64613503Y-20700419D02*
X64518265Y-20652800D01*
X64518265Y-20652800D02*
X64470646Y-20605180D01*
X65375408Y-19700419D02*
X65708741Y-20700419D01*
X65708741Y-20700419D02*
X66042074Y-19700419D01*
X66280170Y-19700419D02*
X66899217Y-19700419D01*
X66899217Y-19700419D02*
X66565884Y-20081371D01*
X66565884Y-20081371D02*
X66708741Y-20081371D01*
X66708741Y-20081371D02*
X66803979Y-20128990D01*
X66803979Y-20128990D02*
X66851598Y-20176609D01*
X66851598Y-20176609D02*
X66899217Y-20271847D01*
X66899217Y-20271847D02*
X66899217Y-20509942D01*
X66899217Y-20509942D02*
X66851598Y-20605180D01*
X66851598Y-20605180D02*
X66803979Y-20652800D01*
X66803979Y-20652800D02*
X66708741Y-20700419D01*
X66708741Y-20700419D02*
X66423027Y-20700419D01*
X66423027Y-20700419D02*
X66327789Y-20652800D01*
X66327789Y-20652800D02*
X66280170Y-20605180D01*
X64518265Y-30812800D02*
X64661122Y-30860419D01*
X64661122Y-30860419D02*
X64899217Y-30860419D01*
X64899217Y-30860419D02*
X64994455Y-30812800D01*
X64994455Y-30812800D02*
X65042074Y-30765180D01*
X65042074Y-30765180D02*
X65089693Y-30669942D01*
X65089693Y-30669942D02*
X65089693Y-30574704D01*
X65089693Y-30574704D02*
X65042074Y-30479466D01*
X65042074Y-30479466D02*
X64994455Y-30431847D01*
X64994455Y-30431847D02*
X64899217Y-30384228D01*
X64899217Y-30384228D02*
X64708741Y-30336609D01*
X64708741Y-30336609D02*
X64613503Y-30288990D01*
X64613503Y-30288990D02*
X64565884Y-30241371D01*
X64565884Y-30241371D02*
X64518265Y-30146133D01*
X64518265Y-30146133D02*
X64518265Y-30050895D01*
X64518265Y-30050895D02*
X64565884Y-29955657D01*
X64565884Y-29955657D02*
X64613503Y-29908038D01*
X64613503Y-29908038D02*
X64708741Y-29860419D01*
X64708741Y-29860419D02*
X64946836Y-29860419D01*
X64946836Y-29860419D02*
X65089693Y-29908038D01*
X65518265Y-30860419D02*
X65518265Y-29860419D01*
X65518265Y-29860419D02*
X65756360Y-29860419D01*
X65756360Y-29860419D02*
X65899217Y-29908038D01*
X65899217Y-29908038D02*
X65994455Y-30003276D01*
X65994455Y-30003276D02*
X66042074Y-30098514D01*
X66042074Y-30098514D02*
X66089693Y-30288990D01*
X66089693Y-30288990D02*
X66089693Y-30431847D01*
X66089693Y-30431847D02*
X66042074Y-30622323D01*
X66042074Y-30622323D02*
X65994455Y-30717561D01*
X65994455Y-30717561D02*
X65899217Y-30812800D01*
X65899217Y-30812800D02*
X65756360Y-30860419D01*
X65756360Y-30860419D02*
X65518265Y-30860419D01*
X66470646Y-30574704D02*
X66946836Y-30574704D01*
X66375408Y-30860419D02*
X66708741Y-29860419D01*
X66708741Y-29860419D02*
X67042074Y-30860419D01*
X65137312Y-25780419D02*
X64803979Y-25304228D01*
X64565884Y-25780419D02*
X64565884Y-24780419D01*
X64565884Y-24780419D02*
X64946836Y-24780419D01*
X64946836Y-24780419D02*
X65042074Y-24828038D01*
X65042074Y-24828038D02*
X65089693Y-24875657D01*
X65089693Y-24875657D02*
X65137312Y-24970895D01*
X65137312Y-24970895D02*
X65137312Y-25113752D01*
X65137312Y-25113752D02*
X65089693Y-25208990D01*
X65089693Y-25208990D02*
X65042074Y-25256609D01*
X65042074Y-25256609D02*
X64946836Y-25304228D01*
X64946836Y-25304228D02*
X64565884Y-25304228D01*
X65518265Y-25732800D02*
X65661122Y-25780419D01*
X65661122Y-25780419D02*
X65899217Y-25780419D01*
X65899217Y-25780419D02*
X65994455Y-25732800D01*
X65994455Y-25732800D02*
X66042074Y-25685180D01*
X66042074Y-25685180D02*
X66089693Y-25589942D01*
X66089693Y-25589942D02*
X66089693Y-25494704D01*
X66089693Y-25494704D02*
X66042074Y-25399466D01*
X66042074Y-25399466D02*
X65994455Y-25351847D01*
X65994455Y-25351847D02*
X65899217Y-25304228D01*
X65899217Y-25304228D02*
X65708741Y-25256609D01*
X65708741Y-25256609D02*
X65613503Y-25208990D01*
X65613503Y-25208990D02*
X65565884Y-25161371D01*
X65565884Y-25161371D02*
X65518265Y-25066133D01*
X65518265Y-25066133D02*
X65518265Y-24970895D01*
X65518265Y-24970895D02*
X65565884Y-24875657D01*
X65565884Y-24875657D02*
X65613503Y-24828038D01*
X65613503Y-24828038D02*
X65708741Y-24780419D01*
X65708741Y-24780419D02*
X65946836Y-24780419D01*
X65946836Y-24780419D02*
X66089693Y-24828038D01*
X64423027Y-34940419D02*
X64756360Y-35940419D01*
X64756360Y-35940419D02*
X65089693Y-34940419D01*
X65994455Y-35845180D02*
X65946836Y-35892800D01*
X65946836Y-35892800D02*
X65803979Y-35940419D01*
X65803979Y-35940419D02*
X65708741Y-35940419D01*
X65708741Y-35940419D02*
X65565884Y-35892800D01*
X65565884Y-35892800D02*
X65470646Y-35797561D01*
X65470646Y-35797561D02*
X65423027Y-35702323D01*
X65423027Y-35702323D02*
X65375408Y-35511847D01*
X65375408Y-35511847D02*
X65375408Y-35368990D01*
X65375408Y-35368990D02*
X65423027Y-35178514D01*
X65423027Y-35178514D02*
X65470646Y-35083276D01*
X65470646Y-35083276D02*
X65565884Y-34988038D01*
X65565884Y-34988038D02*
X65708741Y-34940419D01*
X65708741Y-34940419D02*
X65803979Y-34940419D01*
X65803979Y-34940419D02*
X65946836Y-34988038D01*
X65946836Y-34988038D02*
X65994455Y-35035657D01*
X66994455Y-35845180D02*
X66946836Y-35892800D01*
X66946836Y-35892800D02*
X66803979Y-35940419D01*
X66803979Y-35940419D02*
X66708741Y-35940419D01*
X66708741Y-35940419D02*
X66565884Y-35892800D01*
X66565884Y-35892800D02*
X66470646Y-35797561D01*
X66470646Y-35797561D02*
X66423027Y-35702323D01*
X66423027Y-35702323D02*
X66375408Y-35511847D01*
X66375408Y-35511847D02*
X66375408Y-35368990D01*
X66375408Y-35368990D02*
X66423027Y-35178514D01*
X66423027Y-35178514D02*
X66470646Y-35083276D01*
X66470646Y-35083276D02*
X66565884Y-34988038D01*
X66565884Y-34988038D02*
X66708741Y-34940419D01*
X66708741Y-34940419D02*
X66803979Y-34940419D01*
X66803979Y-34940419D02*
X66946836Y-34988038D01*
X66946836Y-34988038D02*
X66994455Y-35035657D01*
X65089693Y-37528038D02*
X64994455Y-37480419D01*
X64994455Y-37480419D02*
X64851598Y-37480419D01*
X64851598Y-37480419D02*
X64708741Y-37528038D01*
X64708741Y-37528038D02*
X64613503Y-37623276D01*
X64613503Y-37623276D02*
X64565884Y-37718514D01*
X64565884Y-37718514D02*
X64518265Y-37908990D01*
X64518265Y-37908990D02*
X64518265Y-38051847D01*
X64518265Y-38051847D02*
X64565884Y-38242323D01*
X64565884Y-38242323D02*
X64613503Y-38337561D01*
X64613503Y-38337561D02*
X64708741Y-38432800D01*
X64708741Y-38432800D02*
X64851598Y-38480419D01*
X64851598Y-38480419D02*
X64946836Y-38480419D01*
X64946836Y-38480419D02*
X65089693Y-38432800D01*
X65089693Y-38432800D02*
X65137312Y-38385180D01*
X65137312Y-38385180D02*
X65137312Y-38051847D01*
X65137312Y-38051847D02*
X64946836Y-38051847D01*
X65565884Y-38480419D02*
X65565884Y-37480419D01*
X65565884Y-37480419D02*
X66137312Y-38480419D01*
X66137312Y-38480419D02*
X66137312Y-37480419D01*
X66613503Y-38480419D02*
X66613503Y-37480419D01*
X66613503Y-37480419D02*
X66851598Y-37480419D01*
X66851598Y-37480419D02*
X66994455Y-37528038D01*
X66994455Y-37528038D02*
X67089693Y-37623276D01*
X67089693Y-37623276D02*
X67137312Y-37718514D01*
X67137312Y-37718514D02*
X67184931Y-37908990D01*
X67184931Y-37908990D02*
X67184931Y-38051847D01*
X67184931Y-38051847D02*
X67137312Y-38242323D01*
X67137312Y-38242323D02*
X67089693Y-38337561D01*
X67089693Y-38337561D02*
X66994455Y-38432800D01*
X66994455Y-38432800D02*
X66851598Y-38480419D01*
X66851598Y-38480419D02*
X66613503Y-38480419D01*
X65137312Y-28320419D02*
X64803979Y-27844228D01*
X64565884Y-28320419D02*
X64565884Y-27320419D01*
X64565884Y-27320419D02*
X64946836Y-27320419D01*
X64946836Y-27320419D02*
X65042074Y-27368038D01*
X65042074Y-27368038D02*
X65089693Y-27415657D01*
X65089693Y-27415657D02*
X65137312Y-27510895D01*
X65137312Y-27510895D02*
X65137312Y-27653752D01*
X65137312Y-27653752D02*
X65089693Y-27748990D01*
X65089693Y-27748990D02*
X65042074Y-27796609D01*
X65042074Y-27796609D02*
X64946836Y-27844228D01*
X64946836Y-27844228D02*
X64565884Y-27844228D01*
X65565884Y-27796609D02*
X65899217Y-27796609D01*
X66042074Y-28320419D02*
X65565884Y-28320419D01*
X65565884Y-28320419D02*
X65565884Y-27320419D01*
X65565884Y-27320419D02*
X66042074Y-27320419D01*
X66423027Y-28272800D02*
X66565884Y-28320419D01*
X66565884Y-28320419D02*
X66803979Y-28320419D01*
X66803979Y-28320419D02*
X66899217Y-28272800D01*
X66899217Y-28272800D02*
X66946836Y-28225180D01*
X66946836Y-28225180D02*
X66994455Y-28129942D01*
X66994455Y-28129942D02*
X66994455Y-28034704D01*
X66994455Y-28034704D02*
X66946836Y-27939466D01*
X66946836Y-27939466D02*
X66899217Y-27891847D01*
X66899217Y-27891847D02*
X66803979Y-27844228D01*
X66803979Y-27844228D02*
X66613503Y-27796609D01*
X66613503Y-27796609D02*
X66518265Y-27748990D01*
X66518265Y-27748990D02*
X66470646Y-27701371D01*
X66470646Y-27701371D02*
X66423027Y-27606133D01*
X66423027Y-27606133D02*
X66423027Y-27510895D01*
X66423027Y-27510895D02*
X66470646Y-27415657D01*
X66470646Y-27415657D02*
X66518265Y-27368038D01*
X66518265Y-27368038D02*
X66613503Y-27320419D01*
X66613503Y-27320419D02*
X66851598Y-27320419D01*
X66851598Y-27320419D02*
X66994455Y-27368038D01*
X41010609Y-91634115D02*
X41010609Y-91300782D01*
X41534419Y-91157925D02*
X41534419Y-91634115D01*
X41534419Y-91634115D02*
X40534419Y-91634115D01*
X40534419Y-91634115D02*
X40534419Y-91157925D01*
X41486800Y-90776972D02*
X41534419Y-90634115D01*
X41534419Y-90634115D02*
X41534419Y-90396020D01*
X41534419Y-90396020D02*
X41486800Y-90300782D01*
X41486800Y-90300782D02*
X41439180Y-90253163D01*
X41439180Y-90253163D02*
X41343942Y-90205544D01*
X41343942Y-90205544D02*
X41248704Y-90205544D01*
X41248704Y-90205544D02*
X41153466Y-90253163D01*
X41153466Y-90253163D02*
X41105847Y-90300782D01*
X41105847Y-90300782D02*
X41058228Y-90396020D01*
X41058228Y-90396020D02*
X41010609Y-90586496D01*
X41010609Y-90586496D02*
X40962990Y-90681734D01*
X40962990Y-90681734D02*
X40915371Y-90729353D01*
X40915371Y-90729353D02*
X40820133Y-90776972D01*
X40820133Y-90776972D02*
X40724895Y-90776972D01*
X40724895Y-90776972D02*
X40629657Y-90729353D01*
X40629657Y-90729353D02*
X40582038Y-90681734D01*
X40582038Y-90681734D02*
X40534419Y-90586496D01*
X40534419Y-90586496D02*
X40534419Y-90348401D01*
X40534419Y-90348401D02*
X40582038Y-90205544D01*
X41534419Y-89776972D02*
X40534419Y-89776972D01*
X40534419Y-89776972D02*
X40534419Y-89396020D01*
X40534419Y-89396020D02*
X40582038Y-89300782D01*
X40582038Y-89300782D02*
X40629657Y-89253163D01*
X40629657Y-89253163D02*
X40724895Y-89205544D01*
X40724895Y-89205544D02*
X40867752Y-89205544D01*
X40867752Y-89205544D02*
X40962990Y-89253163D01*
X40962990Y-89253163D02*
X41010609Y-89300782D01*
X41010609Y-89300782D02*
X41058228Y-89396020D01*
X41058228Y-89396020D02*
X41058228Y-89776972D01*
X40534419Y-88872210D02*
X40534419Y-88253163D01*
X40534419Y-88253163D02*
X40915371Y-88586496D01*
X40915371Y-88586496D02*
X40915371Y-88443639D01*
X40915371Y-88443639D02*
X40962990Y-88348401D01*
X40962990Y-88348401D02*
X41010609Y-88300782D01*
X41010609Y-88300782D02*
X41105847Y-88253163D01*
X41105847Y-88253163D02*
X41343942Y-88253163D01*
X41343942Y-88253163D02*
X41439180Y-88300782D01*
X41439180Y-88300782D02*
X41486800Y-88348401D01*
X41486800Y-88348401D02*
X41534419Y-88443639D01*
X41534419Y-88443639D02*
X41534419Y-88729353D01*
X41534419Y-88729353D02*
X41486800Y-88824591D01*
X41486800Y-88824591D02*
X41439180Y-88872210D01*
X40629657Y-87872210D02*
X40582038Y-87824591D01*
X40582038Y-87824591D02*
X40534419Y-87729353D01*
X40534419Y-87729353D02*
X40534419Y-87491258D01*
X40534419Y-87491258D02*
X40582038Y-87396020D01*
X40582038Y-87396020D02*
X40629657Y-87348401D01*
X40629657Y-87348401D02*
X40724895Y-87300782D01*
X40724895Y-87300782D02*
X40820133Y-87300782D01*
X40820133Y-87300782D02*
X40962990Y-87348401D01*
X40962990Y-87348401D02*
X41534419Y-87919829D01*
X41534419Y-87919829D02*
X41534419Y-87300782D01*
X41153466Y-86872210D02*
X41153466Y-86110306D01*
X41534419Y-85634115D02*
X40534419Y-85634115D01*
X40534419Y-85634115D02*
X40534419Y-85253163D01*
X40534419Y-85253163D02*
X40582038Y-85157925D01*
X40582038Y-85157925D02*
X40629657Y-85110306D01*
X40629657Y-85110306D02*
X40724895Y-85062687D01*
X40724895Y-85062687D02*
X40867752Y-85062687D01*
X40867752Y-85062687D02*
X40962990Y-85110306D01*
X40962990Y-85110306D02*
X41010609Y-85157925D01*
X41010609Y-85157925D02*
X41058228Y-85253163D01*
X41058228Y-85253163D02*
X41058228Y-85634115D01*
X40867752Y-84205544D02*
X41534419Y-84205544D01*
X40486800Y-84443639D02*
X41201085Y-84681734D01*
X41201085Y-84681734D02*
X41201085Y-84062687D01*
X41153466Y-83681734D02*
X41153466Y-82919830D01*
X41010609Y-82443639D02*
X41010609Y-82110306D01*
X41534419Y-81967449D02*
X41534419Y-82443639D01*
X41534419Y-82443639D02*
X40534419Y-82443639D01*
X40534419Y-82443639D02*
X40534419Y-81967449D01*
X40534419Y-81681734D02*
X40534419Y-81110306D01*
X41534419Y-81396020D02*
X40534419Y-81396020D01*
X41534419Y-80776972D02*
X40534419Y-80776972D01*
X41010609Y-80776972D02*
X41010609Y-80205544D01*
X41534419Y-80205544D02*
X40534419Y-80205544D01*
D11*
X6223048Y-41221866D02*
X6984953Y-41221866D01*
X6604000Y-41602819D02*
X6604000Y-40840914D01*
D12*
X12511693Y-7302038D02*
X12416455Y-7254419D01*
X12416455Y-7254419D02*
X12273598Y-7254419D01*
X12273598Y-7254419D02*
X12130741Y-7302038D01*
X12130741Y-7302038D02*
X12035503Y-7397276D01*
X12035503Y-7397276D02*
X11987884Y-7492514D01*
X11987884Y-7492514D02*
X11940265Y-7682990D01*
X11940265Y-7682990D02*
X11940265Y-7825847D01*
X11940265Y-7825847D02*
X11987884Y-8016323D01*
X11987884Y-8016323D02*
X12035503Y-8111561D01*
X12035503Y-8111561D02*
X12130741Y-8206800D01*
X12130741Y-8206800D02*
X12273598Y-8254419D01*
X12273598Y-8254419D02*
X12368836Y-8254419D01*
X12368836Y-8254419D02*
X12511693Y-8206800D01*
X12511693Y-8206800D02*
X12559312Y-8159180D01*
X12559312Y-8159180D02*
X12559312Y-7825847D01*
X12559312Y-7825847D02*
X12368836Y-7825847D01*
X11845027Y-2174419D02*
X12178360Y-3174419D01*
X12178360Y-3174419D02*
X12511693Y-2174419D01*
X13416455Y-3079180D02*
X13368836Y-3126800D01*
X13368836Y-3126800D02*
X13225979Y-3174419D01*
X13225979Y-3174419D02*
X13130741Y-3174419D01*
X13130741Y-3174419D02*
X12987884Y-3126800D01*
X12987884Y-3126800D02*
X12892646Y-3031561D01*
X12892646Y-3031561D02*
X12845027Y-2936323D01*
X12845027Y-2936323D02*
X12797408Y-2745847D01*
X12797408Y-2745847D02*
X12797408Y-2602990D01*
X12797408Y-2602990D02*
X12845027Y-2412514D01*
X12845027Y-2412514D02*
X12892646Y-2317276D01*
X12892646Y-2317276D02*
X12987884Y-2222038D01*
X12987884Y-2222038D02*
X13130741Y-2174419D01*
X13130741Y-2174419D02*
X13225979Y-2174419D01*
X13225979Y-2174419D02*
X13368836Y-2222038D01*
X13368836Y-2222038D02*
X13416455Y-2269657D01*
X14416455Y-3079180D02*
X14368836Y-3126800D01*
X14368836Y-3126800D02*
X14225979Y-3174419D01*
X14225979Y-3174419D02*
X14130741Y-3174419D01*
X14130741Y-3174419D02*
X13987884Y-3126800D01*
X13987884Y-3126800D02*
X13892646Y-3031561D01*
X13892646Y-3031561D02*
X13845027Y-2936323D01*
X13845027Y-2936323D02*
X13797408Y-2745847D01*
X13797408Y-2745847D02*
X13797408Y-2602990D01*
X13797408Y-2602990D02*
X13845027Y-2412514D01*
X13845027Y-2412514D02*
X13892646Y-2317276D01*
X13892646Y-2317276D02*
X13987884Y-2222038D01*
X13987884Y-2222038D02*
X14130741Y-2174419D01*
X14130741Y-2174419D02*
X14225979Y-2174419D01*
X14225979Y-2174419D02*
X14368836Y-2222038D01*
X14368836Y-2222038D02*
X14416455Y-2269657D01*
X12321217Y-10270609D02*
X12464074Y-10318228D01*
X12464074Y-10318228D02*
X12511693Y-10365847D01*
X12511693Y-10365847D02*
X12559312Y-10461085D01*
X12559312Y-10461085D02*
X12559312Y-10603942D01*
X12559312Y-10603942D02*
X12511693Y-10699180D01*
X12511693Y-10699180D02*
X12464074Y-10746800D01*
X12464074Y-10746800D02*
X12368836Y-10794419D01*
X12368836Y-10794419D02*
X11987884Y-10794419D01*
X11987884Y-10794419D02*
X11987884Y-9794419D01*
X11987884Y-9794419D02*
X12321217Y-9794419D01*
X12321217Y-9794419D02*
X12416455Y-9842038D01*
X12416455Y-9842038D02*
X12464074Y-9889657D01*
X12464074Y-9889657D02*
X12511693Y-9984895D01*
X12511693Y-9984895D02*
X12511693Y-10080133D01*
X12511693Y-10080133D02*
X12464074Y-10175371D01*
X12464074Y-10175371D02*
X12416455Y-10222990D01*
X12416455Y-10222990D02*
X12321217Y-10270609D01*
X12321217Y-10270609D02*
X11987884Y-10270609D01*
X12559312Y-5714419D02*
X12225979Y-5238228D01*
X11987884Y-5714419D02*
X11987884Y-4714419D01*
X11987884Y-4714419D02*
X12368836Y-4714419D01*
X12368836Y-4714419D02*
X12464074Y-4762038D01*
X12464074Y-4762038D02*
X12511693Y-4809657D01*
X12511693Y-4809657D02*
X12559312Y-4904895D01*
X12559312Y-4904895D02*
X12559312Y-5047752D01*
X12559312Y-5047752D02*
X12511693Y-5142990D01*
X12511693Y-5142990D02*
X12464074Y-5190609D01*
X12464074Y-5190609D02*
X12368836Y-5238228D01*
X12368836Y-5238228D02*
X11987884Y-5238228D01*
X10321027Y-110632419D02*
X10654360Y-111632419D01*
X10654360Y-111632419D02*
X10987693Y-110632419D01*
X11892455Y-111537180D02*
X11844836Y-111584800D01*
X11844836Y-111584800D02*
X11701979Y-111632419D01*
X11701979Y-111632419D02*
X11606741Y-111632419D01*
X11606741Y-111632419D02*
X11463884Y-111584800D01*
X11463884Y-111584800D02*
X11368646Y-111489561D01*
X11368646Y-111489561D02*
X11321027Y-111394323D01*
X11321027Y-111394323D02*
X11273408Y-111203847D01*
X11273408Y-111203847D02*
X11273408Y-111060990D01*
X11273408Y-111060990D02*
X11321027Y-110870514D01*
X11321027Y-110870514D02*
X11368646Y-110775276D01*
X11368646Y-110775276D02*
X11463884Y-110680038D01*
X11463884Y-110680038D02*
X11606741Y-110632419D01*
X11606741Y-110632419D02*
X11701979Y-110632419D01*
X11701979Y-110632419D02*
X11844836Y-110680038D01*
X11844836Y-110680038D02*
X11892455Y-110727657D01*
X12892455Y-111537180D02*
X12844836Y-111584800D01*
X12844836Y-111584800D02*
X12701979Y-111632419D01*
X12701979Y-111632419D02*
X12606741Y-111632419D01*
X12606741Y-111632419D02*
X12463884Y-111584800D01*
X12463884Y-111584800D02*
X12368646Y-111489561D01*
X12368646Y-111489561D02*
X12321027Y-111394323D01*
X12321027Y-111394323D02*
X12273408Y-111203847D01*
X12273408Y-111203847D02*
X12273408Y-111060990D01*
X12273408Y-111060990D02*
X12321027Y-110870514D01*
X12321027Y-110870514D02*
X12368646Y-110775276D01*
X12368646Y-110775276D02*
X12463884Y-110680038D01*
X12463884Y-110680038D02*
X12606741Y-110632419D01*
X12606741Y-110632419D02*
X12701979Y-110632419D01*
X12701979Y-110632419D02*
X12844836Y-110680038D01*
X12844836Y-110680038D02*
X12892455Y-110727657D01*
X11035312Y-114172419D02*
X10701979Y-113696228D01*
X10463884Y-114172419D02*
X10463884Y-113172419D01*
X10463884Y-113172419D02*
X10844836Y-113172419D01*
X10844836Y-113172419D02*
X10940074Y-113220038D01*
X10940074Y-113220038D02*
X10987693Y-113267657D01*
X10987693Y-113267657D02*
X11035312Y-113362895D01*
X11035312Y-113362895D02*
X11035312Y-113505752D01*
X11035312Y-113505752D02*
X10987693Y-113600990D01*
X10987693Y-113600990D02*
X10940074Y-113648609D01*
X10940074Y-113648609D02*
X10844836Y-113696228D01*
X10844836Y-113696228D02*
X10463884Y-113696228D01*
X11368646Y-113172419D02*
X12035312Y-114172419D01*
X12035312Y-113172419D02*
X11368646Y-114172419D01*
X10987693Y-118300038D02*
X10892455Y-118252419D01*
X10892455Y-118252419D02*
X10749598Y-118252419D01*
X10749598Y-118252419D02*
X10606741Y-118300038D01*
X10606741Y-118300038D02*
X10511503Y-118395276D01*
X10511503Y-118395276D02*
X10463884Y-118490514D01*
X10463884Y-118490514D02*
X10416265Y-118680990D01*
X10416265Y-118680990D02*
X10416265Y-118823847D01*
X10416265Y-118823847D02*
X10463884Y-119014323D01*
X10463884Y-119014323D02*
X10511503Y-119109561D01*
X10511503Y-119109561D02*
X10606741Y-119204800D01*
X10606741Y-119204800D02*
X10749598Y-119252419D01*
X10749598Y-119252419D02*
X10844836Y-119252419D01*
X10844836Y-119252419D02*
X10987693Y-119204800D01*
X10987693Y-119204800D02*
X11035312Y-119157180D01*
X11035312Y-119157180D02*
X11035312Y-118823847D01*
X11035312Y-118823847D02*
X10844836Y-118823847D01*
X11463884Y-119252419D02*
X11463884Y-118252419D01*
X11463884Y-118252419D02*
X12035312Y-119252419D01*
X12035312Y-119252419D02*
X12035312Y-118252419D01*
X12511503Y-119252419D02*
X12511503Y-118252419D01*
X12511503Y-118252419D02*
X12749598Y-118252419D01*
X12749598Y-118252419D02*
X12892455Y-118300038D01*
X12892455Y-118300038D02*
X12987693Y-118395276D01*
X12987693Y-118395276D02*
X13035312Y-118490514D01*
X13035312Y-118490514D02*
X13082931Y-118680990D01*
X13082931Y-118680990D02*
X13082931Y-118823847D01*
X13082931Y-118823847D02*
X13035312Y-119014323D01*
X13035312Y-119014323D02*
X12987693Y-119109561D01*
X12987693Y-119109561D02*
X12892455Y-119204800D01*
X12892455Y-119204800D02*
X12749598Y-119252419D01*
X12749598Y-119252419D02*
X12511503Y-119252419D01*
X10321027Y-115712419D02*
X10892455Y-115712419D01*
X10606741Y-116712419D02*
X10606741Y-115712419D01*
X11130551Y-115712419D02*
X11797217Y-116712419D01*
X11797217Y-115712419D02*
X11130551Y-116712419D01*
X11987884Y-25272419D02*
X11987884Y-24272419D01*
X11987884Y-24272419D02*
X12225979Y-24272419D01*
X12225979Y-24272419D02*
X12368836Y-24320038D01*
X12368836Y-24320038D02*
X12464074Y-24415276D01*
X12464074Y-24415276D02*
X12511693Y-24510514D01*
X12511693Y-24510514D02*
X12559312Y-24700990D01*
X12559312Y-24700990D02*
X12559312Y-24843847D01*
X12559312Y-24843847D02*
X12511693Y-25034323D01*
X12511693Y-25034323D02*
X12464074Y-25129561D01*
X12464074Y-25129561D02*
X12368836Y-25224800D01*
X12368836Y-25224800D02*
X12225979Y-25272419D01*
X12225979Y-25272419D02*
X11987884Y-25272419D01*
X13178360Y-24272419D02*
X13368836Y-24272419D01*
X13368836Y-24272419D02*
X13464074Y-24320038D01*
X13464074Y-24320038D02*
X13559312Y-24415276D01*
X13559312Y-24415276D02*
X13606931Y-24605752D01*
X13606931Y-24605752D02*
X13606931Y-24939085D01*
X13606931Y-24939085D02*
X13559312Y-25129561D01*
X13559312Y-25129561D02*
X13464074Y-25224800D01*
X13464074Y-25224800D02*
X13368836Y-25272419D01*
X13368836Y-25272419D02*
X13178360Y-25272419D01*
X13178360Y-25272419D02*
X13083122Y-25224800D01*
X13083122Y-25224800D02*
X12987884Y-25129561D01*
X12987884Y-25129561D02*
X12940265Y-24939085D01*
X12940265Y-24939085D02*
X12940265Y-24605752D01*
X12940265Y-24605752D02*
X12987884Y-24415276D01*
X12987884Y-24415276D02*
X13083122Y-24320038D01*
X13083122Y-24320038D02*
X13178360Y-24272419D01*
X13940265Y-24272419D02*
X14178360Y-25272419D01*
X14178360Y-25272419D02*
X14368836Y-24558133D01*
X14368836Y-24558133D02*
X14559312Y-25272419D01*
X14559312Y-25272419D02*
X14797408Y-24272419D01*
X15178360Y-25272419D02*
X15178360Y-24272419D01*
X15178360Y-24272419D02*
X15749788Y-25272419D01*
X15749788Y-25272419D02*
X15749788Y-24272419D01*
X11987884Y-21732419D02*
X11987884Y-22541942D01*
X11987884Y-22541942D02*
X12035503Y-22637180D01*
X12035503Y-22637180D02*
X12083122Y-22684800D01*
X12083122Y-22684800D02*
X12178360Y-22732419D01*
X12178360Y-22732419D02*
X12368836Y-22732419D01*
X12368836Y-22732419D02*
X12464074Y-22684800D01*
X12464074Y-22684800D02*
X12511693Y-22637180D01*
X12511693Y-22637180D02*
X12559312Y-22541942D01*
X12559312Y-22541942D02*
X12559312Y-21732419D01*
X13035503Y-22732419D02*
X13035503Y-21732419D01*
X13035503Y-21732419D02*
X13416455Y-21732419D01*
X13416455Y-21732419D02*
X13511693Y-21780038D01*
X13511693Y-21780038D02*
X13559312Y-21827657D01*
X13559312Y-21827657D02*
X13606931Y-21922895D01*
X13606931Y-21922895D02*
X13606931Y-22065752D01*
X13606931Y-22065752D02*
X13559312Y-22160990D01*
X13559312Y-22160990D02*
X13511693Y-22208609D01*
X13511693Y-22208609D02*
X13416455Y-22256228D01*
X13416455Y-22256228D02*
X13035503Y-22256228D01*
X12464074Y-27812419D02*
X11987884Y-27812419D01*
X11987884Y-27812419D02*
X11987884Y-26812419D01*
X12797408Y-27288609D02*
X13130741Y-27288609D01*
X13273598Y-27812419D02*
X12797408Y-27812419D01*
X12797408Y-27812419D02*
X12797408Y-26812419D01*
X12797408Y-26812419D02*
X13273598Y-26812419D01*
X14035503Y-27288609D02*
X13702170Y-27288609D01*
X13702170Y-27812419D02*
X13702170Y-26812419D01*
X13702170Y-26812419D02*
X14178360Y-26812419D01*
X14416456Y-26812419D02*
X14987884Y-26812419D01*
X14702170Y-27812419D02*
X14702170Y-26812419D01*
X12511693Y-19240038D02*
X12416455Y-19192419D01*
X12416455Y-19192419D02*
X12273598Y-19192419D01*
X12273598Y-19192419D02*
X12130741Y-19240038D01*
X12130741Y-19240038D02*
X12035503Y-19335276D01*
X12035503Y-19335276D02*
X11987884Y-19430514D01*
X11987884Y-19430514D02*
X11940265Y-19620990D01*
X11940265Y-19620990D02*
X11940265Y-19763847D01*
X11940265Y-19763847D02*
X11987884Y-19954323D01*
X11987884Y-19954323D02*
X12035503Y-20049561D01*
X12035503Y-20049561D02*
X12130741Y-20144800D01*
X12130741Y-20144800D02*
X12273598Y-20192419D01*
X12273598Y-20192419D02*
X12368836Y-20192419D01*
X12368836Y-20192419D02*
X12511693Y-20144800D01*
X12511693Y-20144800D02*
X12559312Y-20097180D01*
X12559312Y-20097180D02*
X12559312Y-19763847D01*
X12559312Y-19763847D02*
X12368836Y-19763847D01*
X12987884Y-20192419D02*
X12987884Y-19192419D01*
X12987884Y-19192419D02*
X13559312Y-20192419D01*
X13559312Y-20192419D02*
X13559312Y-19192419D01*
X14035503Y-20192419D02*
X14035503Y-19192419D01*
X14035503Y-19192419D02*
X14273598Y-19192419D01*
X14273598Y-19192419D02*
X14416455Y-19240038D01*
X14416455Y-19240038D02*
X14511693Y-19335276D01*
X14511693Y-19335276D02*
X14559312Y-19430514D01*
X14559312Y-19430514D02*
X14606931Y-19620990D01*
X14606931Y-19620990D02*
X14606931Y-19763847D01*
X14606931Y-19763847D02*
X14559312Y-19954323D01*
X14559312Y-19954323D02*
X14511693Y-20049561D01*
X14511693Y-20049561D02*
X14416455Y-20144800D01*
X14416455Y-20144800D02*
X14273598Y-20192419D01*
X14273598Y-20192419D02*
X14035503Y-20192419D01*
X12559312Y-30352419D02*
X12225979Y-29876228D01*
X11987884Y-30352419D02*
X11987884Y-29352419D01*
X11987884Y-29352419D02*
X12368836Y-29352419D01*
X12368836Y-29352419D02*
X12464074Y-29400038D01*
X12464074Y-29400038D02*
X12511693Y-29447657D01*
X12511693Y-29447657D02*
X12559312Y-29542895D01*
X12559312Y-29542895D02*
X12559312Y-29685752D01*
X12559312Y-29685752D02*
X12511693Y-29780990D01*
X12511693Y-29780990D02*
X12464074Y-29828609D01*
X12464074Y-29828609D02*
X12368836Y-29876228D01*
X12368836Y-29876228D02*
X11987884Y-29876228D01*
X12987884Y-30352419D02*
X12987884Y-29352419D01*
X13987883Y-29400038D02*
X13892645Y-29352419D01*
X13892645Y-29352419D02*
X13749788Y-29352419D01*
X13749788Y-29352419D02*
X13606931Y-29400038D01*
X13606931Y-29400038D02*
X13511693Y-29495276D01*
X13511693Y-29495276D02*
X13464074Y-29590514D01*
X13464074Y-29590514D02*
X13416455Y-29780990D01*
X13416455Y-29780990D02*
X13416455Y-29923847D01*
X13416455Y-29923847D02*
X13464074Y-30114323D01*
X13464074Y-30114323D02*
X13511693Y-30209561D01*
X13511693Y-30209561D02*
X13606931Y-30304800D01*
X13606931Y-30304800D02*
X13749788Y-30352419D01*
X13749788Y-30352419D02*
X13845026Y-30352419D01*
X13845026Y-30352419D02*
X13987883Y-30304800D01*
X13987883Y-30304800D02*
X14035502Y-30257180D01*
X14035502Y-30257180D02*
X14035502Y-29923847D01*
X14035502Y-29923847D02*
X13845026Y-29923847D01*
X14464074Y-30352419D02*
X14464074Y-29352419D01*
X14464074Y-29828609D02*
X15035502Y-29828609D01*
X15035502Y-30352419D02*
X15035502Y-29352419D01*
X15368836Y-29352419D02*
X15940264Y-29352419D01*
X15654550Y-30352419D02*
X15654550Y-29352419D01*
D13*
%TO.C,*%
G36*
X8182539Y-93713559D02*
G01*
X8549720Y-94098778D01*
X8548304Y-94698055D01*
X8546887Y-95297333D01*
X8181070Y-95691132D01*
X7815254Y-96084930D01*
X7815305Y-94706636D01*
X7815357Y-93328341D01*
X8182539Y-93713559D01*
G37*
G36*
X8182030Y-90263115D02*
G01*
X8549720Y-90643625D01*
X8547768Y-91247611D01*
X8545815Y-91851597D01*
X8179998Y-92245395D01*
X7814182Y-92639194D01*
X7814261Y-91260899D01*
X7814340Y-89882605D01*
X8182030Y-90263115D01*
G37*
G36*
X12828582Y-75065938D02*
G01*
X12827719Y-76444232D01*
X12461485Y-76050434D01*
X12095251Y-75656636D01*
X12096532Y-75065938D01*
X12097812Y-74475240D01*
X12463629Y-74081442D01*
X12829445Y-73687643D01*
X12828582Y-75065938D01*
G37*
G36*
X10078147Y-76062740D02*
G01*
X10173226Y-76228770D01*
X10259495Y-76374908D01*
X10310019Y-76456539D01*
X10382361Y-76567294D01*
X9265801Y-76567294D01*
X8149241Y-76567294D01*
X8506553Y-76173496D01*
X8863865Y-75779698D01*
X9391241Y-75779698D01*
X9918617Y-75779698D01*
X10078147Y-76062740D01*
G37*
G36*
X8357060Y-97340163D02*
G01*
X8549454Y-97561674D01*
X8547568Y-98152372D01*
X8545683Y-98743070D01*
X8349216Y-98960394D01*
X8152749Y-99177718D01*
X7982049Y-99012268D01*
X7811348Y-98846819D01*
X7811348Y-98152372D01*
X7811348Y-97457925D01*
X7988007Y-97288288D01*
X8164667Y-97118651D01*
X8357060Y-97340163D01*
G37*
G36*
X10170494Y-84873980D02*
G01*
X10376410Y-85058574D01*
X10160041Y-85292391D01*
X9943672Y-85526209D01*
X9440730Y-85526209D01*
X8937788Y-85526209D01*
X8706836Y-85307552D01*
X8475883Y-85088895D01*
X8670466Y-84889141D01*
X8865049Y-84689387D01*
X9414814Y-84689387D01*
X9964578Y-84689387D01*
X10170494Y-84873980D01*
G37*
G36*
X9633997Y-82629531D02*
G01*
X9804628Y-82632714D01*
X10364742Y-82646558D01*
X10134072Y-83052245D01*
X9903403Y-83457931D01*
X9353888Y-83458349D01*
X8804374Y-83458767D01*
X8426960Y-83052663D01*
X8049545Y-82646558D01*
X8647030Y-82632714D01*
X8956437Y-82628134D01*
X9302752Y-82627073D01*
X9633997Y-82629531D01*
G37*
G36*
X11648551Y-95377867D02*
G01*
X11778782Y-95398798D01*
X11886836Y-95448977D01*
X11995415Y-95538874D01*
X12127221Y-95678963D01*
X12301416Y-95875725D01*
X12596293Y-96207992D01*
X11436873Y-96207992D01*
X10277453Y-96207992D01*
X10463550Y-95801887D01*
X10649647Y-95395783D01*
X11230743Y-95381857D01*
X11473438Y-95375710D01*
X11648551Y-95377867D01*
G37*
G36*
X11973424Y-92183864D02*
G01*
X12121271Y-92340854D01*
X12264380Y-92494871D01*
X12362445Y-92602275D01*
X12506124Y-92762256D01*
X11392065Y-92762256D01*
X10278006Y-92762256D01*
X10401539Y-92482926D01*
X10481051Y-92307010D01*
X10556445Y-92146524D01*
X10596993Y-92064515D01*
X10668915Y-91925434D01*
X11198499Y-91925434D01*
X11728083Y-91925434D01*
X11973424Y-92183864D01*
G37*
G36*
X8424654Y-77535758D02*
G01*
X8791836Y-77920977D01*
X8793840Y-78510126D01*
X8795844Y-79099276D01*
X8551238Y-79346959D01*
X8306632Y-79594642D01*
X8549107Y-79865367D01*
X8791582Y-80136093D01*
X8793041Y-80702178D01*
X8794500Y-81268263D01*
X8428266Y-81662062D01*
X8062032Y-82055860D01*
X8059752Y-79603200D01*
X8057472Y-77150540D01*
X8424654Y-77535758D01*
G37*
G36*
X9402334Y-81391637D02*
G01*
X9903403Y-81391948D01*
X9995198Y-81551617D01*
X10072119Y-81685971D01*
X10170685Y-81858852D01*
X10233715Y-81969717D01*
X10380436Y-82228147D01*
X9264606Y-82228147D01*
X8148777Y-82228147D01*
X8255159Y-82092779D01*
X8341536Y-81990581D01*
X8470352Y-81847005D01*
X8615376Y-81691219D01*
X8631404Y-81674368D01*
X8901265Y-81391325D01*
X9402334Y-81391637D01*
G37*
G36*
X10238868Y-100461590D02*
G01*
X10261829Y-100534453D01*
X10271512Y-100678024D01*
X10272589Y-100785899D01*
X10268246Y-100973112D01*
X10252633Y-101080259D01*
X10221868Y-101125449D01*
X10198751Y-101130473D01*
X10158634Y-101110209D01*
X10135674Y-101037345D01*
X10125991Y-100893775D01*
X10124914Y-100785899D01*
X10129257Y-100598686D01*
X10144870Y-100491539D01*
X10175635Y-100446349D01*
X10198751Y-100441325D01*
X10238868Y-100461590D01*
G37*
G36*
X6372114Y-99025008D02*
G01*
X6369204Y-99075963D01*
X6311748Y-99155617D01*
X6191027Y-99280867D01*
X6162521Y-99308955D01*
X6032930Y-99428001D01*
X5949298Y-99480862D01*
X5894610Y-99477028D01*
X5881033Y-99465971D01*
X5862272Y-99417377D01*
X5896950Y-99345199D01*
X5994631Y-99232965D01*
X6047706Y-99178938D01*
X6172861Y-99066330D01*
X6274770Y-98997418D01*
X6329194Y-98985850D01*
X6372114Y-99025008D01*
G37*
G36*
X14161117Y-98989412D02*
G01*
X14272629Y-99061245D01*
X14386510Y-99165062D01*
X14518159Y-99299119D01*
X14584884Y-99384827D01*
X14595373Y-99439210D01*
X14558314Y-99479291D01*
X14549699Y-99484809D01*
X14490015Y-99469280D01*
X14384503Y-99395200D01*
X14253446Y-99276969D01*
X14244763Y-99268336D01*
X14117515Y-99136398D01*
X14054578Y-99055057D01*
X14047140Y-99008992D01*
X14081574Y-98984660D01*
X14161117Y-98989412D01*
G37*
G36*
X11300532Y-96660726D02*
G01*
X11459029Y-96662379D01*
X12561542Y-96675628D01*
X12162572Y-97057120D01*
X11763603Y-97438612D01*
X11202689Y-97438559D01*
X10641775Y-97438505D01*
X10475120Y-97067842D01*
X10401286Y-96894918D01*
X10350467Y-96758710D01*
X10330791Y-96681711D01*
X10332491Y-96673155D01*
X10386546Y-96666785D01*
X10524708Y-96662221D01*
X10732645Y-96659598D01*
X10996030Y-96659054D01*
X11300532Y-96660726D01*
G37*
G36*
X16180437Y-94980440D02*
G01*
X16276976Y-94994108D01*
X16318652Y-95025068D01*
X16327240Y-95075822D01*
X16317268Y-95129101D01*
X16272848Y-95158805D01*
X16172228Y-95171629D01*
X16007279Y-95174271D01*
X15834121Y-95171203D01*
X15737581Y-95157535D01*
X15695905Y-95126575D01*
X15687317Y-95075822D01*
X15697290Y-95022542D01*
X15741709Y-94992838D01*
X15842329Y-94980014D01*
X16007279Y-94977372D01*
X16180437Y-94980440D01*
G37*
G36*
X11301275Y-93214952D02*
G01*
X11464911Y-93216642D01*
X12573306Y-93229891D01*
X12222851Y-93611684D01*
X11872395Y-93993476D01*
X11257085Y-93993122D01*
X10641775Y-93992768D01*
X10475120Y-93622106D01*
X10401286Y-93449181D01*
X10350467Y-93312974D01*
X10330791Y-93235975D01*
X10332491Y-93227418D01*
X10386534Y-93221064D01*
X10524723Y-93216504D01*
X10732769Y-93213874D01*
X10996383Y-93213312D01*
X11301275Y-93214952D01*
G37*
G36*
X6003219Y-90454735D02*
G01*
X6116926Y-90552501D01*
X6162521Y-90596564D01*
X6295302Y-90731608D01*
X6363282Y-90818075D01*
X6375177Y-90872864D01*
X6339706Y-90912875D01*
X6329194Y-90919669D01*
X6268722Y-90904945D01*
X6164412Y-90832401D01*
X6047706Y-90726582D01*
X5924715Y-90595676D01*
X5868208Y-90510822D01*
X5868621Y-90455548D01*
X5881033Y-90439548D01*
X5930259Y-90420247D01*
X6003219Y-90454735D01*
G37*
G36*
X10240168Y-89042531D02*
G01*
X10263187Y-89118858D01*
X10272048Y-89268516D01*
X10272589Y-89341132D01*
X10267659Y-89520603D01*
X10250045Y-89620353D01*
X10215509Y-89658750D01*
X10198751Y-89661093D01*
X10157335Y-89639732D01*
X10134316Y-89563406D01*
X10125455Y-89413747D01*
X10124914Y-89341132D01*
X10129844Y-89161661D01*
X10147457Y-89061910D01*
X10181994Y-89023513D01*
X10198751Y-89021170D01*
X10240168Y-89042531D01*
G37*
G36*
X12600777Y-84876056D02*
G01*
X12702928Y-84985162D01*
X12769071Y-85064434D01*
X12783054Y-85088707D01*
X12753640Y-85137402D01*
X12677880Y-85235347D01*
X12606931Y-85320450D01*
X12430809Y-85526209D01*
X11681909Y-85526209D01*
X10933009Y-85526209D01*
X10715742Y-85304830D01*
X10498474Y-85083450D01*
X10690870Y-84886419D01*
X10883266Y-84689387D01*
X11650883Y-84689387D01*
X12418500Y-84689387D01*
X12600777Y-84876056D01*
G37*
G36*
X11193991Y-77017859D02*
G01*
X11499113Y-77019840D01*
X11675120Y-77021681D01*
X12796824Y-77034930D01*
X12440503Y-77416422D01*
X12084182Y-77797915D01*
X11470933Y-77797915D01*
X10857685Y-77797915D01*
X10686484Y-77422239D01*
X10610576Y-77248934D01*
X10556803Y-77112990D01*
X10533616Y-77036329D01*
X10534349Y-77027498D01*
X10586897Y-77022598D01*
X10723765Y-77019310D01*
X10930836Y-77017707D01*
X11193991Y-77017859D01*
G37*
G36*
X9578620Y-77010837D02*
G01*
X9861025Y-77012292D01*
X10093560Y-77014530D01*
X10262435Y-77017397D01*
X10353856Y-77020740D01*
X10366204Y-77022624D01*
X10341035Y-77067712D01*
X10277737Y-77178033D01*
X10187721Y-77333743D01*
X10139744Y-77416422D01*
X9918117Y-77797915D01*
X9390991Y-77797915D01*
X8863865Y-77797915D01*
X8506553Y-77404116D01*
X8149241Y-77010318D01*
X9260139Y-77010318D01*
X9578620Y-77010837D01*
G37*
G36*
X12218475Y-99172404D02*
G01*
X12349375Y-99336882D01*
X12460006Y-99476358D01*
X12533758Y-99569869D01*
X12551125Y-99592198D01*
X12547790Y-99612283D01*
X12497041Y-99627736D01*
X12389582Y-99639071D01*
X12216116Y-99646801D01*
X11967346Y-99651440D01*
X11633975Y-99653503D01*
X11437831Y-99653729D01*
X10277453Y-99653729D01*
X10463565Y-99247624D01*
X10649678Y-98841519D01*
X11291293Y-98827831D01*
X11932909Y-98814142D01*
X12218475Y-99172404D01*
G37*
G36*
X9899094Y-99208412D02*
G01*
X9998166Y-99382918D01*
X10075124Y-99523697D01*
X10118913Y-99610264D01*
X10124914Y-99626823D01*
X10078444Y-99635930D01*
X9950045Y-99643718D01*
X9756237Y-99649621D01*
X9513536Y-99653070D01*
X9341454Y-99653729D01*
X8557993Y-99653729D01*
X8408511Y-99464992D01*
X8259028Y-99276255D01*
X8492209Y-99046581D01*
X8725389Y-98816907D01*
X9199332Y-98816907D01*
X9673275Y-98816907D01*
X9899094Y-99208412D01*
G37*
G36*
X9606956Y-96653205D02*
G01*
X9832637Y-96659254D01*
X10003073Y-96668385D01*
X10101874Y-96679820D01*
X10119952Y-96687934D01*
X10094654Y-96745021D01*
X10031665Y-96864640D01*
X9942955Y-97024315D01*
X9910747Y-97080797D01*
X9706503Y-97436742D01*
X9187586Y-97437677D01*
X8668668Y-97438612D01*
X8457474Y-97223421D01*
X8246280Y-97008230D01*
X8403100Y-96829623D01*
X8559919Y-96651015D01*
X9342417Y-96651015D01*
X9606956Y-96653205D01*
G37*
G36*
X14550436Y-90421166D02*
G01*
X14592076Y-90458784D01*
X14590361Y-90507911D01*
X14536436Y-90584876D01*
X14421448Y-90706011D01*
X14366338Y-90760682D01*
X14234061Y-90884505D01*
X14149624Y-90943617D01*
X14096236Y-90947569D01*
X14072448Y-90927831D01*
X14056780Y-90875857D01*
X14093347Y-90801710D01*
X14192091Y-90688989D01*
X14256546Y-90624180D01*
X14383789Y-90510509D01*
X14488925Y-90437560D01*
X14549668Y-90420728D01*
X14550436Y-90421166D01*
G37*
G36*
X12604272Y-89958185D02*
G01*
X12613859Y-90087102D01*
X12621891Y-90289881D01*
X12628009Y-90554229D01*
X12631855Y-90867854D01*
X12633071Y-91218463D01*
X12633011Y-91269103D01*
X12630644Y-92639194D01*
X12239569Y-92220783D01*
X11848495Y-91802372D01*
X11848139Y-91248106D01*
X11847782Y-90693841D01*
X12199691Y-90312835D01*
X12348854Y-90153941D01*
X12475178Y-90024202D01*
X12562839Y-89939586D01*
X12593490Y-89915421D01*
X12604272Y-89958185D01*
G37*
G36*
X8426658Y-74109237D02*
G01*
X8795844Y-74504009D01*
X8795844Y-75069964D01*
X8795844Y-75635920D01*
X8467793Y-75990851D01*
X8323071Y-76147651D01*
X8201792Y-76279458D01*
X8120735Y-76368015D01*
X8098607Y-76392546D01*
X8087936Y-76357891D01*
X8078294Y-76236747D01*
X8070055Y-76041075D01*
X8063594Y-75782833D01*
X8059284Y-75473980D01*
X8057500Y-75126477D01*
X8057472Y-75076888D01*
X8057472Y-73714466D01*
X8426658Y-74109237D01*
G37*
G36*
X4494814Y-94881431D02*
G01*
X4599471Y-94893009D01*
X4647776Y-94919739D01*
X4660753Y-94967701D01*
X4660961Y-94979621D01*
X4652888Y-95032788D01*
X4614300Y-95061352D01*
X4523644Y-95070910D01*
X4359366Y-95067058D01*
X4329202Y-95065764D01*
X4145905Y-95053048D01*
X4040172Y-95030979D01*
X3991172Y-94993532D01*
X3981019Y-94965066D01*
X3983829Y-94919874D01*
X4026682Y-94893805D01*
X4128943Y-94881830D01*
X4309971Y-94878923D01*
X4312778Y-94878922D01*
X4494814Y-94881431D01*
G37*
G36*
X9348010Y-93206862D02*
G01*
X9627503Y-93211296D01*
X9856889Y-93218109D01*
X10022263Y-93226830D01*
X10109723Y-93236986D01*
X10119952Y-93242198D01*
X10094654Y-93299285D01*
X10031665Y-93418904D01*
X9942955Y-93578578D01*
X9910747Y-93635061D01*
X9706503Y-93991006D01*
X9187586Y-93991941D01*
X8668668Y-93992876D01*
X8473286Y-93783670D01*
X8326295Y-93625604D01*
X8173773Y-93460572D01*
X8108807Y-93389872D01*
X7939710Y-93205279D01*
X9032312Y-93205279D01*
X9348010Y-93206862D01*
G37*
G36*
X12219897Y-76038128D02*
G01*
X12362345Y-76189543D01*
X12494686Y-76332881D01*
X12583676Y-76431926D01*
X12701765Y-76567294D01*
X11610239Y-76567294D01*
X11294337Y-76566354D01*
X11014308Y-76563721D01*
X10784146Y-76559675D01*
X10617847Y-76554496D01*
X10529404Y-76548466D01*
X10518713Y-76545409D01*
X10537742Y-76493607D01*
X10588403Y-76374823D01*
X10661055Y-76211456D01*
X10688199Y-76151611D01*
X10857685Y-75779698D01*
X11415946Y-75779698D01*
X11974208Y-75779698D01*
X12219897Y-76038128D01*
G37*
G36*
X10219105Y-79382806D02*
G01*
X10304268Y-79504296D01*
X10357667Y-79591480D01*
X10367295Y-79616624D01*
X10338694Y-79669517D01*
X10270724Y-79771758D01*
X10231926Y-79826601D01*
X10100302Y-80009357D01*
X9497960Y-80011194D01*
X8895619Y-80013031D01*
X8724002Y-79828438D01*
X8625787Y-79716429D01*
X8563044Y-79632662D01*
X8551052Y-79607068D01*
X8580769Y-79552843D01*
X8658555Y-79452858D01*
X8727735Y-79373250D01*
X8905750Y-79176209D01*
X9486461Y-79176209D01*
X10067173Y-79176209D01*
X10219105Y-79382806D01*
G37*
G36*
X9898724Y-95756989D02*
G01*
X9998547Y-95930626D01*
X10075856Y-96071510D01*
X10119358Y-96158749D01*
X10124914Y-96175400D01*
X10078029Y-96184856D01*
X9946729Y-96193235D01*
X9745045Y-96200114D01*
X9487009Y-96205073D01*
X9186654Y-96207690D01*
X9039177Y-96207992D01*
X8668060Y-96209010D01*
X8388359Y-96208316D01*
X8193116Y-96200290D01*
X8075376Y-96179312D01*
X8028181Y-96139761D01*
X8044576Y-96076017D01*
X8117603Y-95982460D01*
X8240307Y-95853469D01*
X8398818Y-95690628D01*
X8705577Y-95371170D01*
X9189056Y-95371170D01*
X9672534Y-95371170D01*
X9898724Y-95756989D01*
G37*
G36*
X9898724Y-92311253D02*
G01*
X9998547Y-92484890D01*
X10075856Y-92625773D01*
X10119358Y-92713012D01*
X10124914Y-92729663D01*
X10078029Y-92739120D01*
X9946729Y-92747498D01*
X9745045Y-92754378D01*
X9487009Y-92759337D01*
X9186654Y-92761954D01*
X9039177Y-92762256D01*
X8669418Y-92763343D01*
X8390875Y-92762872D01*
X8196396Y-92755243D01*
X8078831Y-92734853D01*
X8031029Y-92696104D01*
X8045838Y-92633394D01*
X8116108Y-92541123D01*
X8234688Y-92413690D01*
X8388055Y-92252308D01*
X8694025Y-91925434D01*
X9183280Y-91925434D01*
X9672534Y-91925434D01*
X9898724Y-92311253D01*
G37*
G36*
X11533641Y-82621798D02*
G01*
X11647566Y-82621946D01*
X11969911Y-82623471D01*
X12256508Y-82627750D01*
X12493670Y-82634337D01*
X12667715Y-82642786D01*
X12764957Y-82652651D01*
X12780774Y-82658864D01*
X12748265Y-82708041D01*
X12662162Y-82812094D01*
X12536593Y-82954443D01*
X12423894Y-83077575D01*
X12069294Y-83459368D01*
X11470930Y-83459068D01*
X10872566Y-83458767D01*
X10725110Y-83143660D01*
X10644221Y-82976771D01*
X10584165Y-82849465D01*
X10554306Y-82756446D01*
X10564008Y-82692418D01*
X10622633Y-82652086D01*
X10739545Y-82630153D01*
X10924109Y-82621325D01*
X11185686Y-82620305D01*
X11533641Y-82621798D01*
G37*
G36*
X12431466Y-81780703D02*
G01*
X12575422Y-81942691D01*
X12690865Y-82077469D01*
X12764082Y-82168715D01*
X12783054Y-82199113D01*
X12736120Y-82207371D01*
X12604479Y-82214716D01*
X12401874Y-82220794D01*
X12142044Y-82225255D01*
X11838731Y-82227745D01*
X11650883Y-82228147D01*
X11320920Y-82226313D01*
X11031003Y-82221148D01*
X10794088Y-82213157D01*
X10623132Y-82202845D01*
X10531093Y-82190716D01*
X10518713Y-82184031D01*
X10538612Y-82121909D01*
X10591600Y-81994989D01*
X10667612Y-81826961D01*
X10696465Y-81765621D01*
X10874217Y-81391325D01*
X11477048Y-81391325D01*
X12079879Y-81391325D01*
X12431466Y-81780703D01*
G37*
G36*
X10235711Y-90046755D02*
G01*
X10295347Y-90155914D01*
X10373805Y-90311982D01*
X10397573Y-90361158D01*
X10472749Y-90523189D01*
X10521584Y-90652634D01*
X10549531Y-90778937D01*
X10562039Y-90931545D01*
X10564561Y-91139903D01*
X10563892Y-91259510D01*
X10560116Y-91505226D01*
X10549200Y-91682928D01*
X10525284Y-91823044D01*
X10482507Y-91956000D01*
X10415008Y-92112225D01*
X10388724Y-92168902D01*
X10217602Y-92535432D01*
X9999527Y-92168902D01*
X9781452Y-91802372D01*
X9780896Y-91244893D01*
X9780341Y-90687413D01*
X9982850Y-90346540D01*
X10079274Y-90188286D01*
X10156482Y-90069095D01*
X10201268Y-90009111D01*
X10206284Y-90005667D01*
X10235711Y-90046755D01*
G37*
G36*
X12403071Y-79377436D02*
G01*
X12568209Y-79471728D01*
X12696892Y-79546680D01*
X12767895Y-79589876D01*
X12775019Y-79595014D01*
X12751085Y-79628997D01*
X12676569Y-79682207D01*
X12451218Y-79817854D01*
X12274920Y-79910271D01*
X12117823Y-79967726D01*
X11950076Y-79998491D01*
X11741827Y-80010835D01*
X11482386Y-80013031D01*
X10883266Y-80013031D01*
X10693142Y-79818325D01*
X10594520Y-79714135D01*
X10547514Y-79637522D01*
X10555386Y-79563486D01*
X10621400Y-79467025D01*
X10748818Y-79323140D01*
X10759278Y-79311577D01*
X10814817Y-79254146D01*
X10871355Y-79215801D01*
X10948974Y-79192688D01*
X11067756Y-79180955D01*
X11247784Y-79176747D01*
X11464703Y-79176209D01*
X12047701Y-79176209D01*
X12403071Y-79377436D01*
G37*
G36*
X10250745Y-93525196D02*
G01*
X10308613Y-93621438D01*
X10387823Y-93786528D01*
X10393675Y-93798761D01*
X10470523Y-93964091D01*
X10520506Y-94095299D01*
X10549220Y-94222041D01*
X10562261Y-94373973D01*
X10565225Y-94580751D01*
X10564729Y-94705247D01*
X10561351Y-94950811D01*
X10550758Y-95128373D01*
X10527122Y-95268373D01*
X10484614Y-95401250D01*
X10417408Y-95557441D01*
X10390356Y-95615979D01*
X10219192Y-95983850D01*
X10000322Y-95615979D01*
X9781452Y-95248108D01*
X9780896Y-94696496D01*
X9782071Y-94452812D01*
X9789406Y-94281853D01*
X9807746Y-94157903D01*
X9841937Y-94055246D01*
X9896824Y-93948166D01*
X9933922Y-93884286D01*
X10055806Y-93677347D01*
X10139279Y-93550372D01*
X10199279Y-93500581D01*
X10250745Y-93525196D01*
G37*
G36*
X10455056Y-73866360D02*
G01*
X10516097Y-73968011D01*
X10591265Y-74120376D01*
X10610397Y-74162915D01*
X10677597Y-74321583D01*
X10721692Y-74452908D01*
X10747341Y-74585319D01*
X10759207Y-74747248D01*
X10761948Y-74967126D01*
X10761495Y-75084603D01*
X10758269Y-75337259D01*
X10748710Y-75519688D01*
X10727783Y-75660107D01*
X10690455Y-75786731D01*
X10631690Y-75927775D01*
X10597961Y-76001209D01*
X10437770Y-76345783D01*
X10300528Y-76124271D01*
X10207190Y-75973887D01*
X10124676Y-75841381D01*
X10094875Y-75793736D01*
X10061991Y-75702788D01*
X10040401Y-75546141D01*
X10028999Y-75312101D01*
X10026465Y-75071198D01*
X10026465Y-74457684D01*
X10205118Y-74157777D01*
X10298394Y-74006256D01*
X10374841Y-73891231D01*
X10418674Y-73836388D01*
X10419864Y-73835564D01*
X10455056Y-73866360D01*
G37*
G36*
X8426658Y-83881971D02*
G01*
X8599489Y-84014387D01*
X8707783Y-84108372D01*
X8766579Y-84183462D01*
X8790918Y-84259193D01*
X8795838Y-84355101D01*
X8795844Y-84361536D01*
X8786858Y-84479418D01*
X8749267Y-84578643D01*
X8667121Y-84688411D01*
X8549284Y-84812892D01*
X8302723Y-85062554D01*
X8549284Y-85339189D01*
X8681181Y-85495350D01*
X8756374Y-85612145D01*
X8789593Y-85717954D01*
X8795844Y-85814263D01*
X8790137Y-85918924D01*
X8761936Y-85999532D01*
X8694623Y-86079378D01*
X8571578Y-86181757D01*
X8488189Y-86245478D01*
X8333464Y-86362583D01*
X8204686Y-86460119D01*
X8125976Y-86519815D01*
X8119003Y-86525119D01*
X8100981Y-86520452D01*
X8086637Y-86470432D01*
X8075613Y-86366687D01*
X8067552Y-86200848D01*
X8062095Y-85964542D01*
X8058882Y-85649400D01*
X8057557Y-85247050D01*
X8057472Y-85088042D01*
X8057472Y-83604099D01*
X8426658Y-83881971D01*
G37*
G36*
X10565545Y-87521077D02*
G01*
X10854219Y-87525871D01*
X11085083Y-87535699D01*
X11278448Y-87552066D01*
X11454624Y-87576475D01*
X11633919Y-87610432D01*
X11743451Y-87634221D01*
X12577106Y-87868824D01*
X13366101Y-88186809D01*
X14105393Y-88583274D01*
X14789941Y-89053316D01*
X15414703Y-89592035D01*
X15974638Y-90194527D01*
X16464705Y-90855892D01*
X16879862Y-91571227D01*
X17215068Y-92335630D01*
X17465280Y-93144199D01*
X17482334Y-93214246D01*
X17594031Y-93783062D01*
X17666128Y-94371756D01*
X17695944Y-94947164D01*
X17680798Y-95476125D01*
X17672673Y-95568070D01*
X17540128Y-96432791D01*
X17320479Y-97259743D01*
X17018000Y-98044000D01*
X16636963Y-98780636D01*
X16181643Y-99464725D01*
X15656312Y-100091341D01*
X15065244Y-100655560D01*
X14412712Y-101152454D01*
X13702989Y-101577099D01*
X12940350Y-101924568D01*
X12129067Y-102189936D01*
X11872395Y-102253828D01*
X11043307Y-102395650D01*
X10206644Y-102442168D01*
X10198751Y-102441724D01*
X9371250Y-102395147D01*
X8545973Y-102256352D01*
X7739657Y-102027549D01*
X6961149Y-101710505D01*
X6219294Y-101306984D01*
X5828047Y-101047368D01*
X5541853Y-100824381D01*
X5223264Y-100543258D01*
X4895426Y-100227146D01*
X4581488Y-99899193D01*
X4304599Y-99582547D01*
X4104143Y-99323464D01*
X3675804Y-98641549D01*
X3320508Y-97911057D01*
X3041960Y-97145703D01*
X2843867Y-96359204D01*
X2729934Y-95565278D01*
X2712248Y-95030824D01*
X3878812Y-95030824D01*
X3925708Y-95770645D01*
X4054515Y-96492359D01*
X4265752Y-97180679D01*
X4325641Y-97331676D01*
X4674665Y-98048205D01*
X5102183Y-98707546D01*
X5603759Y-99304923D01*
X6174956Y-99835562D01*
X6811335Y-100294686D01*
X7373938Y-100612077D01*
X8048642Y-100907563D01*
X8721272Y-101113582D01*
X9413852Y-101235326D01*
X10148404Y-101277988D01*
X10198751Y-101278147D01*
X10936839Y-101240508D01*
X11631504Y-101124129D01*
X12304770Y-100923816D01*
X12978660Y-100634377D01*
X13023565Y-100612077D01*
X13707091Y-100216336D01*
X14327279Y-99747374D01*
X14880230Y-99210451D01*
X15362044Y-98610827D01*
X15768822Y-97953762D01*
X16096665Y-97244518D01*
X16341672Y-96488354D01*
X16452428Y-95986480D01*
X16490458Y-95688869D01*
X16511831Y-95325947D01*
X16516615Y-94929422D01*
X16504880Y-94531001D01*
X16476695Y-94162391D01*
X16447959Y-93943651D01*
X16277153Y-93188708D01*
X16018516Y-92470535D01*
X15677710Y-91795058D01*
X15260398Y-91168205D01*
X14772242Y-90595903D01*
X14218905Y-90084078D01*
X13606049Y-89638657D01*
X12939336Y-89265567D01*
X12224430Y-88970736D01*
X11503209Y-88767962D01*
X11030746Y-88691231D01*
X10503040Y-88651837D01*
X9955663Y-88649775D01*
X9424187Y-88685042D01*
X8944183Y-88757631D01*
X8894294Y-88768283D01*
X8125663Y-88987138D01*
X7400476Y-89292337D01*
X6724386Y-89679468D01*
X6103047Y-90144122D01*
X5542112Y-90681888D01*
X5047234Y-91288358D01*
X4624067Y-91959120D01*
X4499955Y-92196170D01*
X4224398Y-92855567D01*
X4028676Y-93557999D01*
X3913307Y-94288180D01*
X3878812Y-95030824D01*
X2712248Y-95030824D01*
X2703869Y-94777640D01*
X2737052Y-94263612D01*
X2875823Y-93400447D01*
X3102676Y-92576257D01*
X3413392Y-91795768D01*
X3803753Y-91063707D01*
X4269541Y-90384801D01*
X4806537Y-89763775D01*
X5410523Y-89205355D01*
X6077281Y-88714269D01*
X6802592Y-88295241D01*
X7582237Y-87953000D01*
X8411999Y-87692269D01*
X8654052Y-87634221D01*
X8843989Y-87594251D01*
X9019414Y-87564671D01*
X9200635Y-87543978D01*
X9407964Y-87530668D01*
X9661709Y-87523235D01*
X9982180Y-87520177D01*
X10198751Y-87519814D01*
X10565545Y-87521077D01*
G37*
D14*
%TO.C,LS1*%
X16514000Y-43688000D02*
G75*
G02*
X4314000Y-43688000I-6100000J0D01*
G01*
X4314000Y-43688000D02*
G75*
G02*
X16514000Y-43688000I6100000J0D01*
G01*
%TD*%
M02*
