M48
; DRILL file {KiCad 9.0.7} date 2026-02-17T16:50:50+0000
; FORMAT={-:-/ absolute / metric / decimal}
; #@! TF.CreationDate,2026-02-17T16:50:50+00:00
; #@! TF.GenerationSoftware,Kicad,Pcbnew,9.0.7
; #@! TF.FileFunction,Plated,1,2,PTH
FMAT,2
METRIC
; #@! TA.AperFunction,Plated,PTH,ViaDrill
T1C0.300
; #@! TA.AperFunction,Plated,PTH,ComponentDrill
T2C0.700
; #@! TA.AperFunction,Plated,PTH,ComponentDrill
T3C0.750
; #@! TA.AperFunction,Plated,PTH,ComponentDrill
T4C0.900
; #@! TA.AperFunction,Plated,PTH,ComponentDrill
T5C1.000
; #@! TA.AperFunction,Plated,PTH,ComponentDrill
T6C1.100
; #@! TA.AperFunction,Plated,PTH,ComponentDrill
T7C1.200
%
G90
G05
T1
X30.0Y-33.0
X30.0Y-34.0
X43.0Y-28.0
X45.0Y-41.0
X46.0Y-27.0
X47.0Y-22.0
X48.0Y-19.0
X48.0Y-26.0
X49.0Y-28.0
X53.0Y-38.0
X54.0Y-66.0
X54.0Y-67.0
X55.0Y-25.0
X56.0Y-52.0
X58.0Y-35.0
X62.0Y-52.0
X63.0Y-56.0
X63.25Y-35.0
X63.25Y-38.0
X63.25Y-41.0
X66.0Y-59.0
X68.0Y-24.0
X68.0Y-26.0
X73.0Y-21.0
X74.0Y-158.0
X77.0Y-79.0
X78.0Y-129.0
X78.0Y-138.0
X78.0Y-158.0
X84.0Y-83.0
X84.0Y-104.0
X84.0Y-109.0
X84.0Y-111.0
X84.0Y-115.0
X84.0Y-118.0
X84.0Y-133.0
X84.0Y-135.0
X86.0Y-98.0
X86.0Y-121.0
X87.0Y-97.0
X87.0Y-114.0
X87.0Y-132.0
X88.0Y-113.0
X89.0Y-88.0
X89.0Y-136.0
X89.0Y-139.0
X91.0Y-97.0
X91.0Y-98.0
X94.0Y-82.0
X95.0Y-123.0
X99.5Y-97.0
X99.5Y-98.0
X101.0Y-89.0
X101.0Y-104.301
X101.0Y-115.0
X103.0Y-145.0
X105.0Y-97.0
X105.0Y-98.0
X107.0Y-99.0
X109.0Y-98.0
X112.0Y-142.0
X114.0Y-110.0
X115.0Y-88.0
X115.0Y-98.0
X115.0Y-125.0
X116.0Y-91.0
X116.0Y-119.0
X117.0Y-96.0
X118.0Y-121.0
X118.0Y-143.0
X119.0Y-99.0
X119.0Y-105.0
X119.0Y-111.0
X119.0Y-114.0
X119.0Y-119.0
X119.0Y-128.0
X121.0Y-94.0
X124.0Y-98.0
X125.0Y-89.0
X139.0Y-173.0
X142.0Y-170.0
X143.0Y-172.0
X145.0Y-170.0
X155.0Y-21.0
X156.0Y-20.0
T2
X28.0Y-167.0
X28.0Y-170.0
X28.0Y-173.0
X28.38Y-19.0
X28.38Y-22.0
X28.38Y-25.0
X35.62Y-167.0
X35.62Y-170.0
X35.62Y-173.0
X36.0Y-19.0
X36.0Y-22.0
X36.0Y-25.0
X66.38Y-78.0
X66.38Y-103.0
X66.38Y-128.0
X66.38Y-153.0
X74.0Y-78.0
X74.0Y-103.0
X74.0Y-128.0
X74.0Y-153.0
X126.38Y-74.0
X126.38Y-99.0
X126.38Y-124.0
X126.38Y-149.0
X134.0Y-74.0
X134.0Y-99.0
X134.0Y-124.0
X134.0Y-149.0
X164.0Y-167.0
X164.0Y-170.0
X164.0Y-173.0
X164.19Y-19.0
X164.19Y-22.0
X164.19Y-25.0
X171.62Y-167.0
X171.62Y-170.0
X171.62Y-173.0
X171.81Y-19.0
X171.81Y-22.0
X171.81Y-25.0
T3
X50.46Y-20.0
X51.73Y-20.0
X53.0Y-20.0
X56.46Y-20.0
X57.73Y-20.0
X59.0Y-20.0
X62.46Y-20.0
X63.73Y-20.0
X65.0Y-20.0
T4
X19.73Y-22.0
X20.19Y-170.0
X21.0Y-22.0
X21.46Y-170.0
X22.27Y-22.0
X22.73Y-170.0
X23.54Y-22.0
X24.0Y-170.0
X176.095Y-22.0
X176.19Y-170.0
X177.365Y-22.0
X177.46Y-170.0
X178.635Y-22.0
X178.73Y-170.0
X179.905Y-22.0
X180.0Y-170.0
T5
X59.0Y-73.0
X59.0Y-75.54
X59.0Y-78.08
X59.0Y-80.62
X59.0Y-83.16
X59.0Y-85.7
X59.0Y-98.0
X59.0Y-100.54
X59.0Y-103.08
X59.0Y-105.62
X59.0Y-108.16
X59.0Y-110.7
X59.0Y-123.0
X59.0Y-125.54
X59.0Y-128.08
X59.0Y-130.62
X59.0Y-133.16
X59.0Y-135.7
X59.0Y-148.0
X59.0Y-150.54
X59.0Y-153.08
X59.0Y-155.62
X59.0Y-158.16
X59.0Y-160.7
X135.2Y-25.0
X141.0Y-66.0
X141.0Y-68.54
X141.0Y-71.08
X141.0Y-73.62
X141.0Y-76.16
X141.0Y-78.7
X141.0Y-90.92
X141.0Y-93.46
X141.0Y-96.0
X141.0Y-98.54
X141.0Y-101.08
X141.0Y-103.62
X141.0Y-116.0
X141.0Y-118.54
X141.0Y-121.08
X141.0Y-123.62
X141.0Y-126.16
X141.0Y-128.7
X141.0Y-141.0
X141.0Y-143.54
X141.0Y-146.08
X141.0Y-148.62
X141.0Y-151.16
X141.0Y-153.7
X142.8Y-25.0
T6
X139.68Y-40.5
X139.68Y-45.0
X146.18Y-40.5
X146.18Y-45.0
X149.84Y-31.8
X149.84Y-36.3
X149.84Y-49.0
X149.84Y-53.5
X156.34Y-31.8
X156.34Y-36.3
X156.34Y-49.0
X156.34Y-53.5
X160.0Y-40.5
X160.0Y-45.0
X166.5Y-40.5
X166.5Y-45.0
T7
X24.68Y-30.6
X24.68Y-56.0
X27.22Y-30.6
X27.22Y-56.0
X29.76Y-30.6
X29.76Y-56.0
X32.3Y-30.6
X32.3Y-56.0
X34.84Y-30.6
X34.84Y-56.0
X37.38Y-30.6
X37.38Y-56.0
X39.92Y-30.6
X39.92Y-56.0
X42.46Y-30.6
X42.46Y-56.0
X45.0Y-30.6
X45.0Y-56.0
X47.54Y-30.6
X47.54Y-56.0
X50.08Y-30.6
X50.08Y-56.0
X52.62Y-30.6
X52.62Y-56.0
X55.16Y-30.6
X55.16Y-56.0
X57.7Y-30.6
X57.7Y-56.0
X60.24Y-30.6
X60.24Y-56.0
X73.92Y-169.0
X74.1Y-32.38
X74.1Y-34.92
X74.1Y-37.46
X74.1Y-40.0
X74.1Y-42.54
X74.1Y-45.08
X74.1Y-47.62
X74.1Y-50.16
X76.46Y-169.0
X79.0Y-169.0
X81.54Y-169.0
X92.22Y-105.0
X92.22Y-107.54
X92.22Y-110.08
X92.22Y-112.62
X92.22Y-115.16
X92.22Y-117.7
X92.22Y-120.24
X92.22Y-122.78
X92.22Y-125.32
X92.22Y-127.86
X92.22Y-130.4
X92.22Y-132.94
X92.22Y-135.48
X92.22Y-138.02
X92.22Y-140.56
X92.22Y-143.1
X92.22Y-145.64
X92.22Y-148.18
X92.22Y-150.72
X92.22Y-153.26
X110.0Y-105.0
X110.0Y-107.54
X110.0Y-110.08
X110.0Y-112.62
X110.0Y-115.16
X110.0Y-117.7
X110.0Y-120.24
X110.0Y-122.78
X110.0Y-125.32
X110.0Y-127.86
X110.0Y-130.4
X110.0Y-132.94
X110.0Y-135.48
X110.0Y-138.02
X110.0Y-140.56
X110.0Y-143.1
X110.0Y-145.64
X110.0Y-148.18
X110.0Y-150.72
X110.0Y-153.26
M30
