M48
; DRILL file {KiCad 9.0.7} date 2026-02-17T16:50:50+0000
; FORMAT={-:-/ absolute / metric / decimal}
; #@! TF.CreationDate,2026-02-17T16:50:50+00:00
; #@! TF.GenerationSoftware,Kicad,Pcbnew,9.0.7
; #@! TF.FileFunction,NonPlated,1,2,NPTH
FMAT,2
METRIC
; #@! TA.AperFunction,NonPlated,NPTH,ComponentDrill
T1C3.200
%
G90
G05
T1
X20.0Y-35.0
X23.0Y-67.7
X23.0Y-75.7
X23.0Y-92.7
X23.0Y-100.7
X23.0Y-117.7
X23.0Y-125.7
X23.0Y-142.7
X23.0Y-150.7
X65.0Y-165.0
X75.1Y-26.16
X75.1Y-56.16
X125.1Y-26.16
X125.1Y-56.16
X135.0Y-55.0
X135.0Y-165.0
X150.0Y-25.0
X165.0Y-55.0
X177.0Y-76.0
X177.0Y-84.0
X177.0Y-100.92
X177.0Y-108.92
X177.0Y-126.0
X177.0Y-134.0
X177.0Y-151.0
X177.0Y-159.0
M30
