%TF.GenerationSoftware,KiCad,Pcbnew,9.0.7*%
%TF.CreationDate,2026-02-17T16:50:33+00:00*%
%TF.ProjectId,NaeTime Receiver,4e616554-696d-4652-9052-656365697665,rev?*%
%TF.SameCoordinates,Original*%
%TF.FileFunction,Soldermask,Bot*%
%TF.FilePolarity,Negative*%
%FSLAX46Y46*%
G04 Gerber Fmt 4.6, Leading zero omitted, Abs format (unit mm)*
G04 Created by KiCad (PCBNEW 9.0.7) date 2026-02-17 16:50:33*
%MOMM*%
%LPD*%
G01*
G04 APERTURE LIST*
G04 Aperture macros list*
%AMRoundRect*
0 Rectangle with rounded corners*
0 $1 Rounding radius*
0 $2 $3 $4 $5 $6 $7 $8 $9 X,Y pos of 4 corners*
0 Add a 4 corners polygon primitive as box body*
4,1,4,$2,$3,$4,$5,$6,$7,$8,$9,$2,$3,0*
0 Add four circle primitives for the rounded corners*
1,1,$1+$1,$2,$3*
1,1,$1+$1,$4,$5*
1,1,$1+$1,$6,$7*
1,1,$1+$1,$8,$9*
0 Add four rect primitives between the rounded corners*
20,1,$1+$1,$2,$3,$4,$5,0*
20,1,$1+$1,$4,$5,$6,$7,0*
20,1,$1+$1,$6,$7,$8,$9,0*
20,1,$1+$1,$8,$9,$2,$3,0*%
G04 Aperture macros list end*
%ADD10R,1.050000X1.500000*%
%ADD11O,1.050000X1.500000*%
%ADD12C,1.400000*%
%ADD13C,3.200000*%
%ADD14C,2.200000*%
%ADD15R,1.700000X1.700000*%
%ADD16C,1.700000*%
%ADD17C,2.000000*%
%ADD18R,1.070000X1.800000*%
%ADD19O,1.070000X1.800000*%
%ADD20R,2.000000X2.000000*%
%ADD21RoundRect,0.375000X0.875000X-2.125000X0.875000X2.125000X-0.875000X2.125000X-0.875000X-2.125000X0*%
G04 APERTURE END LIST*
D10*
%TO.C,QG1*%
X56460000Y-20000000D03*
D11*
X57730000Y-20000000D03*
X59000000Y-20000000D03*
%TD*%
D12*
%TO.C,R17*%
X66380000Y-103000000D03*
X74000000Y-103000000D03*
%TD*%
%TO.C,R16*%
X134000000Y-74000000D03*
X126380000Y-74000000D03*
%TD*%
D13*
%TO.C,REF\u002A\u002A*%
X135000000Y-55000000D03*
%TD*%
D14*
%TO.C,U1*%
X60240000Y-30600000D03*
X57700000Y-30600000D03*
X55160000Y-30600000D03*
X52620000Y-30600000D03*
X50080000Y-30600000D03*
X47540000Y-30600000D03*
X45000000Y-30600000D03*
X42460000Y-30600000D03*
X39920000Y-30600000D03*
X37380000Y-30600000D03*
X34840000Y-30600000D03*
X32300000Y-30600000D03*
X29760000Y-30600000D03*
X27220000Y-30600000D03*
X24680000Y-30600000D03*
X60240000Y-56000000D03*
X57700000Y-56000000D03*
X55160000Y-56000000D03*
X52620000Y-56000000D03*
X50080000Y-56000000D03*
X47540000Y-56000000D03*
X45000000Y-56000000D03*
X42460000Y-56000000D03*
X39920000Y-56000000D03*
X37380000Y-56000000D03*
X34840000Y-56000000D03*
X32300000Y-56000000D03*
X29760000Y-56000000D03*
X27220000Y-56000000D03*
X24680000Y-56000000D03*
%TD*%
D13*
%TO.C,U16*%
X177000000Y-100920000D03*
X177000000Y-108920000D03*
D15*
X141000000Y-103620000D03*
D16*
X141000000Y-101080000D03*
X141000000Y-98540000D03*
X141000000Y-96000000D03*
X141000000Y-93460000D03*
X141000000Y-90920000D03*
%TD*%
D12*
%TO.C,R8*%
X164000000Y-170000000D03*
X171620000Y-170000000D03*
%TD*%
%TO.C,R5*%
X36000000Y-22000000D03*
X28380000Y-22000000D03*
%TD*%
D17*
%TO.C,SW3*%
X139680000Y-40500000D03*
X146180000Y-40500000D03*
X139680000Y-45000000D03*
X146180000Y-45000000D03*
%TD*%
D12*
%TO.C,R2*%
X164190000Y-22000000D03*
X171810000Y-22000000D03*
%TD*%
D14*
%TO.C,U2*%
X92220000Y-105000000D03*
X92220000Y-107540000D03*
X92220000Y-110080000D03*
X92220000Y-112620000D03*
X92220000Y-115160000D03*
X92220000Y-117700000D03*
X92220000Y-120240000D03*
X92220000Y-122780000D03*
X92220000Y-125320000D03*
X92220000Y-127860000D03*
X92220000Y-130400000D03*
X92220000Y-132940000D03*
X92220000Y-135480000D03*
X92220000Y-138020000D03*
X92220000Y-140560000D03*
X92220000Y-143100000D03*
X92220000Y-145640000D03*
X92220000Y-148180000D03*
X92220000Y-150720000D03*
X92220000Y-153260000D03*
X110000000Y-105000000D03*
X110000000Y-107540000D03*
X110000000Y-110080000D03*
X110000000Y-112620000D03*
X110000000Y-115160000D03*
X110000000Y-117700000D03*
X110000000Y-120240000D03*
X110000000Y-122780000D03*
X110000000Y-125320000D03*
X110000000Y-127860000D03*
X110000000Y-130400000D03*
X110000000Y-132940000D03*
X110000000Y-135480000D03*
X110000000Y-138020000D03*
X110000000Y-140560000D03*
X110000000Y-143100000D03*
X110000000Y-145640000D03*
X110000000Y-148180000D03*
X110000000Y-150720000D03*
X110000000Y-153260000D03*
%TD*%
D13*
%TO.C,U15*%
X177000000Y-76000000D03*
X177000000Y-84000000D03*
D15*
X141000000Y-78700000D03*
D16*
X141000000Y-76160000D03*
X141000000Y-73620000D03*
X141000000Y-71080000D03*
X141000000Y-68540000D03*
X141000000Y-66000000D03*
%TD*%
D13*
%TO.C,REF\u002A\u002A*%
X150000000Y-25000000D03*
%TD*%
D17*
%TO.C,SW1*%
X149840000Y-31800000D03*
X156340000Y-31800000D03*
X149840000Y-36300000D03*
X156340000Y-36300000D03*
%TD*%
D12*
%TO.C,R10*%
X35620000Y-167000000D03*
X28000000Y-167000000D03*
%TD*%
D13*
%TO.C,U19*%
X23000000Y-75700000D03*
X23000000Y-67700000D03*
D15*
X59000000Y-73000000D03*
D16*
X59000000Y-75540000D03*
X59000000Y-78080000D03*
X59000000Y-80620000D03*
X59000000Y-83160000D03*
X59000000Y-85700000D03*
%TD*%
D12*
%TO.C,R6*%
X36000000Y-25000000D03*
X28380000Y-25000000D03*
%TD*%
D18*
%TO.C,D2*%
X22270000Y-22000000D03*
D19*
X23540000Y-22000000D03*
X19730000Y-22000000D03*
X21000000Y-22000000D03*
%TD*%
D17*
%TO.C,SW2*%
X160000000Y-40500000D03*
X166500000Y-40500000D03*
X160000000Y-45000000D03*
X166500000Y-45000000D03*
%TD*%
D13*
%TO.C,U3*%
X75100000Y-26160000D03*
X75100000Y-56160000D03*
X125100000Y-26160000D03*
X125100000Y-56160000D03*
D14*
X74100000Y-50160000D03*
X74100000Y-47620000D03*
X74100000Y-45080000D03*
X74100000Y-42540000D03*
X74100000Y-40000000D03*
X74100000Y-37460000D03*
X74100000Y-34920000D03*
X74100000Y-32380000D03*
%TD*%
D13*
%TO.C,REF\u002A\u002A*%
X135000000Y-165000000D03*
%TD*%
D12*
%TO.C,R1*%
X164190000Y-19000000D03*
X171810000Y-19000000D03*
%TD*%
%TO.C,R4*%
X36000000Y-19000000D03*
X28380000Y-19000000D03*
%TD*%
D18*
%TO.C,D4*%
X22730000Y-170000000D03*
D19*
X24000000Y-170000000D03*
X20190000Y-170000000D03*
X21460000Y-170000000D03*
%TD*%
D10*
%TO.C,QR1*%
X62460000Y-20000000D03*
D11*
X63730000Y-20000000D03*
X65000000Y-20000000D03*
%TD*%
D13*
%TO.C,REF\u002A\u002A*%
X165000000Y-55000000D03*
%TD*%
D12*
%TO.C,R3*%
X164190000Y-25000000D03*
X171810000Y-25000000D03*
%TD*%
D13*
%TO.C,REF\u002A\u002A*%
X20000000Y-35000000D03*
%TD*%
D17*
%TO.C,SW4*%
X149840000Y-49000000D03*
X156340000Y-49000000D03*
X149840000Y-53500000D03*
X156340000Y-53500000D03*
%TD*%
D12*
%TO.C,R13*%
X134000000Y-149000000D03*
X126380000Y-149000000D03*
%TD*%
D18*
%TO.C,D3*%
X178730000Y-170000000D03*
D19*
X180000000Y-170000000D03*
X176190000Y-170000000D03*
X177460000Y-170000000D03*
%TD*%
D13*
%TO.C,U17*%
X177000000Y-126000000D03*
X177000000Y-134000000D03*
D15*
X141000000Y-128700000D03*
D16*
X141000000Y-126160000D03*
X141000000Y-123620000D03*
X141000000Y-121080000D03*
X141000000Y-118540000D03*
X141000000Y-116000000D03*
%TD*%
D12*
%TO.C,R19*%
X66380000Y-153000000D03*
X74000000Y-153000000D03*
%TD*%
D13*
%TO.C,REF\u002A\u002A*%
X65000000Y-165000000D03*
%TD*%
%TO.C,U22*%
X23000000Y-150700000D03*
X23000000Y-142700000D03*
D15*
X59000000Y-148000000D03*
D16*
X59000000Y-150540000D03*
X59000000Y-153080000D03*
X59000000Y-155620000D03*
X59000000Y-158160000D03*
X59000000Y-160700000D03*
%TD*%
D20*
%TO.C,LS1*%
X135200000Y-25000000D03*
D17*
X142800000Y-25000000D03*
%TD*%
D13*
%TO.C,U20*%
X23000000Y-100700000D03*
X23000000Y-92700000D03*
D15*
X59000000Y-98000000D03*
D16*
X59000000Y-100540000D03*
X59000000Y-103080000D03*
X59000000Y-105620000D03*
X59000000Y-108160000D03*
X59000000Y-110700000D03*
%TD*%
D12*
%TO.C,R12*%
X35620000Y-173000000D03*
X28000000Y-173000000D03*
%TD*%
%TO.C,R20*%
X66380000Y-78000000D03*
X74000000Y-78000000D03*
%TD*%
D10*
%TO.C,QB1*%
X50460000Y-20000000D03*
D11*
X51730000Y-20000000D03*
X53000000Y-20000000D03*
%TD*%
D13*
%TO.C,U21*%
X23000000Y-125700000D03*
X23000000Y-117700000D03*
D15*
X59000000Y-123000000D03*
D16*
X59000000Y-125540000D03*
X59000000Y-128080000D03*
X59000000Y-130620000D03*
X59000000Y-133160000D03*
X59000000Y-135700000D03*
%TD*%
D13*
%TO.C,U18*%
X177000000Y-151000000D03*
X177000000Y-159000000D03*
D15*
X141000000Y-153700000D03*
D16*
X141000000Y-151160000D03*
X141000000Y-148620000D03*
X141000000Y-146080000D03*
X141000000Y-143540000D03*
X141000000Y-141000000D03*
%TD*%
D12*
%TO.C,R18*%
X66380000Y-128000000D03*
X74000000Y-128000000D03*
%TD*%
D14*
%TO.C,U4*%
X73920000Y-169000000D03*
X76460000Y-169000000D03*
X79000000Y-169000000D03*
X81540000Y-169000000D03*
%TD*%
D12*
%TO.C,R11*%
X35620000Y-170000000D03*
X28000000Y-170000000D03*
%TD*%
D18*
%TO.C,D1*%
X178635000Y-22000000D03*
D19*
X179905000Y-22000000D03*
X176095000Y-22000000D03*
X177365000Y-22000000D03*
%TD*%
D12*
%TO.C,R7*%
X164000000Y-167000000D03*
X171620000Y-167000000D03*
%TD*%
%TO.C,R15*%
X134000000Y-99000000D03*
X126380000Y-99000000D03*
%TD*%
%TO.C,R14*%
X134000000Y-124000000D03*
X126380000Y-124000000D03*
%TD*%
%TO.C,R9*%
X164000000Y-173000000D03*
X171620000Y-173000000D03*
%TD*%
D21*
%TO.C,U8*%
X103000000Y-171000000D03*
X97920000Y-171000000D03*
%TD*%
%TO.C,U7*%
X103000000Y-20000000D03*
X97920000Y-20000000D03*
%TD*%
M02*
