%TF.GenerationSoftware,KiCad,Pcbnew,9.0.0*%
%TF.CreationDate,2026-01-17T10:34:55+00:00*%
%TF.ProjectId,NaeTime Receiver,4e616554-696d-4652-9052-656365697665,rev?*%
%TF.SameCoordinates,Original*%
%TF.FileFunction,Copper,L1,Top*%
%TF.FilePolarity,Positive*%
%FSLAX46Y46*%
G04 Gerber Fmt 4.6, Leading zero omitted, Abs format (unit mm)*
G04 Created by KiCad (PCBNEW 9.0.0) date 2026-01-17 10:34:55*
%MOMM*%
%LPD*%
G01*
G04 APERTURE LIST*
%TA.AperFunction,ComponentPad*%
%ADD10C,2.200000*%
%TD*%
%TA.AperFunction,ComponentPad*%
%ADD11R,1.700000X1.700000*%
%TD*%
%TA.AperFunction,ComponentPad*%
%ADD12C,1.700000*%
%TD*%
%TA.AperFunction,ComponentPad*%
%ADD13R,2.000000X2.000000*%
%TD*%
%TA.AperFunction,ComponentPad*%
%ADD14C,2.000000*%
%TD*%
%TA.AperFunction,ViaPad*%
%ADD15C,0.600000*%
%TD*%
%TA.AperFunction,Conductor*%
%ADD16C,0.400000*%
%TD*%
%TA.AperFunction,Conductor*%
%ADD17C,0.500000*%
%TD*%
G04 APERTURE END LIST*
D10*
%TO.P,U3,1,GND*%
%TO.N,GND*%
X122220000Y-20000000D03*
%TO.P,U3,2,VCC*%
%TO.N,+5V*%
X124760000Y-20000000D03*
%TO.P,U3,3,SCK*%
%TO.N,Net-(U1-18{slash}SCK)*%
X127300000Y-20000000D03*
%TO.P,U3,4,SDA*%
%TO.N,Net-(U1-19{slash}MISO)*%
X129840000Y-20000000D03*
%TO.P,U3,5,RES*%
%TO.N,Net-(U1-15)*%
X132380000Y-20000000D03*
%TO.P,U3,6,RS*%
%TO.N,Net-(U1-2)*%
X134920000Y-20000000D03*
%TO.P,U3,7,CS*%
%TO.N,Net-(U1-4)*%
X137460000Y-20000000D03*
%TO.P,U3,8,3V3*%
%TO.N,+3.3V*%
X140000000Y-20000000D03*
%TD*%
%TO.P,U2,1,54*%
%TO.N,unconnected-(U2-54-Pad1)*%
X152220000Y-86980000D03*
%TO.P,U2,2,19*%
%TO.N,Net-(U19-RSSI)*%
X152220000Y-89520000D03*
%TO.P,U2,3,GND*%
%TO.N,GND*%
X152220000Y-92060000D03*
%TO.P,U2,4,18*%
%TO.N,Net-(U2-18)*%
X152220000Y-94600000D03*
%TO.P,U2,5,17*%
%TO.N,Net-(U2-17)*%
X152220000Y-97140000D03*
%TO.P,U2,6,16*%
%TO.N,Net-(U2-16)*%
X152220000Y-99680000D03*
%TO.P,U2,7,15*%
%TO.N,RSCLK*%
X152220000Y-102220000D03*
%TO.P,U2,8,GND*%
%TO.N,GND*%
X152220000Y-104760000D03*
%TO.P,U2,9,14*%
%TO.N,Net-(U19-~{SS})*%
X152220000Y-107300000D03*
%TO.P,U2,10,6*%
%TO.N,Net-(U2-6)*%
X152220000Y-109840000D03*
%TO.P,U2,11,5*%
%TO.N,Net-(U2-5)*%
X152220000Y-112380000D03*
%TO.P,U2,12,4*%
%TO.N,Net-(U2-4)*%
X152220000Y-114920000D03*
%TO.P,U2,13,GND*%
%TO.N,GND*%
X152220000Y-117460000D03*
%TO.P,U2,14,3*%
%TO.N,RMOSI*%
X152220000Y-120000000D03*
%TO.P,U2,15,2*%
%TO.N,unconnected-(U2-2-Pad15)*%
X152220000Y-122540000D03*
%TO.P,U2,16,SCL/8*%
%TO.N,unconnected-(U2-SCL{slash}8-Pad16)*%
X152220000Y-125080000D03*
%TO.P,U2,17,SDA/7*%
%TO.N,unconnected-(U2-SDA{slash}7-Pad17)*%
X152220000Y-127620000D03*
%TO.P,U2,18,GND*%
%TO.N,unconnected-(U2-GND-Pad18)*%
X152220000Y-130160000D03*
%TO.P,U2,19,DM/24*%
%TO.N,Net-(U2-DM{slash}24)*%
X152220000Y-132700000D03*
%TO.P,U2,20,DP/25*%
%TO.N,Net-(U2-DP{slash}25)*%
X152220000Y-135240000D03*
%TO.P,U2,21,VBUS*%
%TO.N,unconnected-(U2-VBUS-Pad21)*%
X170000000Y-86980000D03*
%TO.P,U2,22,VSYS*%
%TO.N,+5V*%
X170000000Y-89520000D03*
%TO.P,U2,23,GND*%
%TO.N,GND*%
X170000000Y-92060000D03*
%TO.P,U2,24,EN*%
%TO.N,unconnected-(U2-EN-Pad24)*%
X170000000Y-94600000D03*
%TO.P,U2,25,3V3*%
%TO.N,unconnected-(U2-3V3-Pad25)*%
X170000000Y-97140000D03*
%TO.P,U2,26,20*%
%TO.N,Net-(U15-RSSI)*%
X170000000Y-99680000D03*
%TO.P,U2,27,21*%
%TO.N,Net-(U16-RSSI)*%
X170000000Y-102220000D03*
%TO.P,U2,28,GND*%
%TO.N,GND*%
X170000000Y-104760000D03*
%TO.P,U2,29,22*%
%TO.N,Net-(U17-RSSI)*%
X170000000Y-107300000D03*
%TO.P,U2,30,23*%
%TO.N,Net-(U18-RSSI)*%
X170000000Y-109840000D03*
%TO.P,U2,31,RUN*%
%TO.N,unconnected-(U2-RUN-Pad31)*%
X170000000Y-112380000D03*
%TO.P,U2,32,26*%
%TO.N,Net-(U15-~{SS})*%
X170000000Y-114920000D03*
%TO.P,U2,33,GND*%
%TO.N,unconnected-(U2-GND-Pad33)*%
X170000000Y-117460000D03*
%TO.P,U2,34,27*%
%TO.N,Net-(U16-~{SS})*%
X170000000Y-120000000D03*
%TO.P,U2,35,32*%
%TO.N,Net-(U17-~{SS})*%
X170000000Y-122540000D03*
%TO.P,U2,36,33*%
%TO.N,Net-(U18-~{SS})*%
X170000000Y-125080000D03*
%TO.P,U2,37,46*%
%TO.N,unconnected-(U2-46-Pad37)*%
X170000000Y-127620000D03*
%TO.P,U2,38,GND*%
%TO.N,GND*%
X170000000Y-130160000D03*
%TO.P,U2,39,47*%
%TO.N,Net-(U1-16)*%
X170000000Y-132700000D03*
%TO.P,U2,40,48*%
%TO.N,Net-(U1-17)*%
X170000000Y-135240000D03*
%TD*%
D11*
%TO.P,U22,1,GND*%
%TO.N,GND*%
X134000000Y-122300000D03*
D12*
%TO.P,U22,2,3V3/5V*%
%TO.N,+5V*%
X134000000Y-124840000D03*
%TO.P,U22,3,RSSI*%
%TO.N,Net-(U2-16)*%
X134000000Y-127380000D03*
%TO.P,U22,4,SCLK*%
%TO.N,RSCLK*%
X134000000Y-129920000D03*
%TO.P,U22,5,~{SS}*%
%TO.N,Net-(U2-4)*%
X134000000Y-132460000D03*
%TO.P,U22,6,MOSI*%
%TO.N,RMOSI*%
X134000000Y-135000000D03*
%TD*%
D11*
%TO.P,U19,1,GND*%
%TO.N,GND*%
X134000000Y-37300000D03*
D12*
%TO.P,U19,2,3V3/5V*%
%TO.N,+5V*%
X134000000Y-39840000D03*
%TO.P,U19,3,RSSI*%
%TO.N,Net-(U19-RSSI)*%
X134000000Y-42380000D03*
%TO.P,U19,4,SCLK*%
%TO.N,RSCLK*%
X134000000Y-44920000D03*
%TO.P,U19,5,~{SS}*%
%TO.N,Net-(U19-~{SS})*%
X134000000Y-47460000D03*
%TO.P,U19,6,MOSI*%
%TO.N,RMOSI*%
X134000000Y-50000000D03*
%TD*%
D13*
%TO.P,LS1,1,1*%
%TO.N,GND*%
X205000000Y-20000000D03*
D14*
%TO.P,LS1,2,2*%
%TO.N,Net-(LS1-Pad2)*%
X197400000Y-20000000D03*
%TD*%
D11*
%TO.P,U17,1,GND*%
%TO.N,GND*%
X181000000Y-97700000D03*
D12*
%TO.P,U17,2,3V3/5V*%
%TO.N,+5V*%
X181000000Y-95160000D03*
%TO.P,U17,3,RSSI*%
%TO.N,Net-(U17-RSSI)*%
X181000000Y-92620000D03*
%TO.P,U17,4,SCLK*%
%TO.N,RSCLK*%
X181000000Y-90080000D03*
%TO.P,U17,5,~{SS}*%
%TO.N,Net-(U17-~{SS})*%
X181000000Y-87540000D03*
%TO.P,U17,6,MOSI*%
%TO.N,RMOSI*%
X181000000Y-85000000D03*
%TD*%
D11*
%TO.P,U18,1,GND*%
%TO.N,GND*%
X181000000Y-127700000D03*
D12*
%TO.P,U18,2,3V3/5V*%
%TO.N,+5V*%
X181000000Y-125160000D03*
%TO.P,U18,3,RSSI*%
%TO.N,Net-(U18-RSSI)*%
X181000000Y-122620000D03*
%TO.P,U18,4,SCLK*%
%TO.N,RSCLK*%
X181000000Y-120080000D03*
%TO.P,U18,5,~{SS}*%
%TO.N,Net-(U18-~{SS})*%
X181000000Y-117540000D03*
%TO.P,U18,6,MOSI*%
%TO.N,RMOSI*%
X181000000Y-115000000D03*
%TD*%
D11*
%TO.P,U15,1,GND*%
%TO.N,GND*%
X181000000Y-42700000D03*
D12*
%TO.P,U15,2,3V3/5V*%
%TO.N,+5V*%
X181000000Y-40160000D03*
%TO.P,U15,3,RSSI*%
%TO.N,Net-(U15-RSSI)*%
X181000000Y-37620000D03*
%TO.P,U15,4,SCLK*%
%TO.N,RSCLK*%
X181000000Y-35080000D03*
%TO.P,U15,5,~{SS}*%
%TO.N,Net-(U15-~{SS})*%
X181000000Y-32540000D03*
%TO.P,U15,6,MOSI*%
%TO.N,RMOSI*%
X181000000Y-30000000D03*
%TD*%
D11*
%TO.P,U16,1,GND*%
%TO.N,GND*%
X181000000Y-69680000D03*
D12*
%TO.P,U16,2,3V3/5V*%
%TO.N,+5V*%
X181000000Y-67140000D03*
%TO.P,U16,3,RSSI*%
%TO.N,Net-(U16-RSSI)*%
X181000000Y-64600000D03*
%TO.P,U16,4,SCLK*%
%TO.N,RSCLK*%
X181000000Y-62060000D03*
%TO.P,U16,5,~{SS}*%
%TO.N,Net-(U16-~{SS})*%
X181000000Y-59520000D03*
%TO.P,U16,6,MOSI*%
%TO.N,RMOSI*%
X181000000Y-56980000D03*
%TD*%
D10*
%TO.P,U5,1,VCC*%
%TO.N,+5V*%
X107380000Y-20000000D03*
%TO.P,U5,2,R*%
%TO.N,Net-(U1-22{slash}SCL)*%
X109920000Y-20000000D03*
%TO.P,U5,3,G*%
%TO.N,Net-(U1-32)*%
X112460000Y-20000000D03*
%TO.P,U5,4,B*%
%TO.N,Net-(U1-33)*%
X115000000Y-20000000D03*
%TD*%
%TO.P,U4,1,VCC*%
%TO.N,+5V*%
X127380000Y-145000000D03*
%TO.P,U4,2,RX*%
%TO.N,Net-(U2-DM{slash}24)*%
X129920000Y-145000000D03*
%TO.P,U4,3,TX*%
%TO.N,Net-(U2-DP{slash}25)*%
X132460000Y-145000000D03*
%TO.P,U4,4,GND*%
%TO.N,GND*%
X135000000Y-145000000D03*
%TD*%
D11*
%TO.P,U21,1,GND*%
%TO.N,GND*%
X134000000Y-92300000D03*
D12*
%TO.P,U21,2,3V3/5V*%
%TO.N,+5V*%
X134000000Y-94840000D03*
%TO.P,U21,3,RSSI*%
%TO.N,Net-(U2-17)*%
X134000000Y-97380000D03*
%TO.P,U21,4,SCLK*%
%TO.N,RSCLK*%
X134000000Y-99920000D03*
%TO.P,U21,5,~{SS}*%
%TO.N,Net-(U2-5)*%
X134000000Y-102460000D03*
%TO.P,U21,6,MOSI*%
%TO.N,RMOSI*%
X134000000Y-105000000D03*
%TD*%
D10*
%TO.P,U6,1,GND*%
%TO.N,GND*%
X190000000Y-20000000D03*
%TO.P,U6,2,Up*%
%TO.N,Net-(U1-25)*%
X187460000Y-20000000D03*
%TO.P,U6,3,Down*%
%TO.N,Net-(U1-26)*%
X184920000Y-20000000D03*
%TO.P,U6,4,Left*%
%TO.N,Net-(U1-27)*%
X182380000Y-20000000D03*
%TO.P,U6,5,Right*%
%TO.N,Net-(U1-14)*%
X179840000Y-20000000D03*
%TD*%
%TO.P,U1,1,EN*%
%TO.N,unconnected-(U1-EN-Pad1)*%
X170000000Y-50800000D03*
%TO.P,U1,2,36*%
%TO.N,unconnected-(U1-36-Pad2)*%
X170000000Y-48260000D03*
%TO.P,U1,3,39*%
%TO.N,unconnected-(U1-39-Pad3)*%
X170000000Y-45720000D03*
%TO.P,U1,4,34*%
%TO.N,unconnected-(U1-34-Pad4)*%
X170000000Y-43180000D03*
%TO.P,U1,5,35*%
%TO.N,unconnected-(U1-35-Pad5)*%
X170000000Y-40640000D03*
%TO.P,U1,6,32*%
%TO.N,Net-(U1-32)*%
X170000000Y-38100000D03*
%TO.P,U1,7,33*%
%TO.N,Net-(U1-33)*%
X170000000Y-35560000D03*
%TO.P,U1,8,25*%
%TO.N,Net-(U1-25)*%
X170000000Y-33020000D03*
%TO.P,U1,9,26*%
%TO.N,Net-(U1-26)*%
X170000000Y-30480000D03*
%TO.P,U1,10,27*%
%TO.N,Net-(U1-27)*%
X170000000Y-27940000D03*
%TO.P,U1,11,14*%
%TO.N,Net-(U1-14)*%
X170000000Y-25400000D03*
%TO.P,U1,12,12*%
%TO.N,unconnected-(U1-Pad12)*%
X170000000Y-22860000D03*
%TO.P,U1,13,13*%
%TO.N,Net-(LS1-Pad2)*%
X170000000Y-20320000D03*
%TO.P,U1,14,GND*%
%TO.N,GND*%
X170000000Y-17780000D03*
%TO.P,U1,15,VIN*%
%TO.N,+5V*%
X170000000Y-15240000D03*
%TO.P,U1,16,23/MOSI*%
%TO.N,unconnected-(U1-23{slash}MOSI-Pad16)*%
X144600000Y-50800000D03*
%TO.P,U1,17,22/SCL*%
%TO.N,Net-(U1-22{slash}SCL)*%
X144600000Y-48260000D03*
%TO.P,U1,18,1*%
%TO.N,unconnected-(U1-1-Pad18)*%
X144600000Y-45720000D03*
%TO.P,U1,19,3*%
%TO.N,unconnected-(U1-3-Pad19)*%
X144600000Y-43180000D03*
%TO.P,U1,20,21/MISO*%
%TO.N,unconnected-(U1-21{slash}MISO-Pad20)*%
X144600000Y-40640000D03*
%TO.P,U1,21,19/SCK*%
%TO.N,Net-(U1-19{slash}MISO)*%
X144600000Y-38100000D03*
%TO.P,U1,22,18*%
%TO.N,Net-(U1-18{slash}SCK)*%
X144600000Y-35560000D03*
%TO.P,U1,23,5*%
%TO.N,unconnected-(U1-5-Pad23)*%
X144600000Y-33020000D03*
%TO.P,U1,24,17*%
%TO.N,Net-(U1-17)*%
X144600000Y-30480000D03*
%TO.P,U1,25,16*%
%TO.N,Net-(U1-16)*%
X144600000Y-27940000D03*
%TO.P,U1,26,4*%
%TO.N,Net-(U1-4)*%
X144600000Y-25400000D03*
%TO.P,U1,27,2*%
%TO.N,Net-(U1-2)*%
X144600000Y-22860000D03*
%TO.P,U1,28,15*%
%TO.N,Net-(U1-15)*%
X144600000Y-20320000D03*
%TO.P,U1,29,GND*%
%TO.N,GND*%
X144600000Y-17780000D03*
%TO.P,U1,30,VIN*%
%TO.N,+3.3V*%
X144600000Y-15240000D03*
%TD*%
D11*
%TO.P,U20,1,GND*%
%TO.N,GND*%
X134000000Y-64280000D03*
D12*
%TO.P,U20,2,3V3/5V*%
%TO.N,+5V*%
X134000000Y-66820000D03*
%TO.P,U20,3,RSSI*%
%TO.N,Net-(U2-18)*%
X134000000Y-69360000D03*
%TO.P,U20,4,SCLK*%
%TO.N,RSCLK*%
X134000000Y-71900000D03*
%TO.P,U20,5,~{SS}*%
%TO.N,Net-(U2-6)*%
X134000000Y-74440000D03*
%TO.P,U20,6,MOSI*%
%TO.N,RMOSI*%
X134000000Y-76980000D03*
%TD*%
D15*
%TO.N,RMOSI*%
X158580000Y-53180000D03*
X158580000Y-55720000D03*
%TO.N,RSCLK*%
X187790000Y-54450000D03*
X190330000Y-90010000D03*
X125560000Y-106520000D03*
X125560000Y-103980000D03*
X125560000Y-54450000D03*
X125560000Y-78580000D03*
X183980000Y-62070000D03*
X190330000Y-54450000D03*
X183980000Y-90010000D03*
X187790000Y-36670000D03*
X125560000Y-49370000D03*
X190330000Y-39210000D03*
X125560000Y-76040000D03*
X190330000Y-62070000D03*
%TO.N,Net-(U1-17)*%
X159850000Y-51910000D03*
X159850000Y-55720000D03*
%TO.N,Net-(U1-15)*%
X140800000Y-23970000D03*
X136990000Y-23970000D03*
%TO.N,Net-(U1-16)*%
X161120000Y-55720000D03*
X161120000Y-51910000D03*
%TO.N,Net-(U1-18{slash}SCK)*%
X138260000Y-34130000D03*
%TO.N,Net-(U2-18)*%
X140800000Y-69690000D03*
X144610000Y-73500000D03*
%TO.N,Net-(U2-17)*%
X138260000Y-97630000D03*
X144610000Y-97630000D03*
%TO.N,Net-(U15-~{SS})*%
X175090000Y-51910000D03*
X175090000Y-55720000D03*
%TO.N,Net-(U18-RSSI)*%
X176500000Y-118500000D03*
%TO.N,Net-(U19-RSSI)*%
X139530000Y-51910000D03*
X139530000Y-55720000D03*
%TO.N,Net-(U16-RSSI)*%
X176360000Y-87470000D03*
%TO.N,Net-(U17-RSSI)*%
X177630000Y-106520000D03*
%TO.N,Net-(U15-RSSI)*%
X172550000Y-59530000D03*
X176360000Y-51910000D03*
%TO.N,Net-(U19-~{SS})*%
X138260000Y-51910000D03*
X138260000Y-55720000D03*
%TO.N,Net-(U2-16)*%
X144610000Y-103980000D03*
X138260000Y-107790000D03*
%TD*%
D16*
%TO.N,Net-(U1-33)*%
X161280000Y-35560000D02*
X170000000Y-35560000D01*
X157310000Y-31590000D02*
X161280000Y-35560000D01*
X154770000Y-12540000D02*
X157310000Y-15080000D01*
X151809942Y-12540000D02*
X154770000Y-12540000D01*
X126199423Y-12320635D02*
X151590577Y-12320635D01*
X122460000Y-12540000D02*
X125980058Y-12540000D01*
X125980058Y-12540000D02*
X126199423Y-12320635D01*
X115000000Y-20000000D02*
X122460000Y-12540000D01*
X157310000Y-15080000D02*
X157310000Y-31590000D01*
X151590577Y-12320635D02*
X151809942Y-12540000D01*
%TO.N,Net-(U1-32)*%
X161280000Y-38100000D02*
X170000000Y-38100000D01*
X154770000Y-31590000D02*
X161280000Y-38100000D01*
X154770000Y-16350000D02*
X154770000Y-31590000D01*
X151561000Y-13141000D02*
X154770000Y-16350000D01*
X151341635Y-12921635D02*
X151561000Y-13141000D01*
X150843751Y-12921635D02*
X151341635Y-12921635D01*
X126448365Y-12921635D02*
X126946249Y-12921635D01*
X126946249Y-12921635D02*
X150843751Y-12921635D01*
X125594000Y-13141000D02*
X125731116Y-13141000D01*
X125731116Y-13141000D02*
X126229000Y-13141000D01*
X116035000Y-22700000D02*
X125594000Y-13141000D01*
X115160000Y-22700000D02*
X116035000Y-22700000D01*
X126229000Y-13141000D02*
X126448365Y-12921635D01*
X112460000Y-20000000D02*
X115160000Y-22700000D01*
D17*
%TO.N,+3.3V*%
X144600000Y-15240000D02*
X141910000Y-15240000D01*
X140000000Y-17150000D02*
X140000000Y-20000000D01*
X141910000Y-15240000D02*
X140000000Y-17150000D01*
D16*
%TO.N,RMOSI*%
X186200000Y-30000000D02*
X189060000Y-32860000D01*
X189050000Y-56980000D02*
X189060000Y-56990000D01*
X184390000Y-115000000D02*
X181000000Y-115000000D01*
X189060000Y-53180000D02*
X158580000Y-53180000D01*
X152220000Y-120000000D02*
X155260000Y-120000000D01*
X155260000Y-120000000D02*
X158580000Y-116680000D01*
X124290000Y-130650000D02*
X124290000Y-105250000D01*
X189060000Y-56990000D02*
X189060000Y-84930000D01*
X181000000Y-56980000D02*
X189050000Y-56980000D01*
X127470000Y-50000000D02*
X134000000Y-50000000D01*
X134000000Y-76980000D02*
X124620000Y-76980000D01*
X134000000Y-135000000D02*
X128640000Y-135000000D01*
X128640000Y-135000000D02*
X124290000Y-130650000D01*
X124620000Y-76980000D02*
X124290000Y-77310000D01*
X158580000Y-116680000D02*
X158580000Y-55720000D01*
X124290000Y-105250000D02*
X124290000Y-77310000D01*
X189060000Y-32860000D02*
X189060000Y-53180000D01*
X189060000Y-84930000D02*
X189060000Y-110330000D01*
X134000000Y-105000000D02*
X124540000Y-105000000D01*
X124290000Y-77310000D02*
X124290000Y-53180000D01*
X188990000Y-85000000D02*
X189060000Y-84930000D01*
X189060000Y-110330000D02*
X184390000Y-115000000D01*
X189060000Y-53180000D02*
X189060000Y-56990000D01*
X158580000Y-53180000D02*
X124290000Y-53180000D01*
X181000000Y-85000000D02*
X188990000Y-85000000D01*
X181000000Y-30000000D02*
X186200000Y-30000000D01*
X124290000Y-53180000D02*
X127470000Y-50000000D01*
X124540000Y-105000000D02*
X124290000Y-105250000D01*
%TO.N,RSCLK*%
X130010000Y-44920000D02*
X134000000Y-44920000D01*
X134000000Y-71900000D02*
X125890000Y-71900000D01*
X187790000Y-54450000D02*
X162390000Y-54450000D01*
X125560000Y-100170000D02*
X125560000Y-103980000D01*
X125560000Y-49370000D02*
X130010000Y-44920000D01*
X186930000Y-120080000D02*
X181000000Y-120080000D01*
X190330000Y-39210000D02*
X190330000Y-54450000D01*
X125560000Y-54450000D02*
X125560000Y-72230000D01*
X190330000Y-90010000D02*
X190330000Y-116680000D01*
X157310000Y-101440000D02*
X157310000Y-54450000D01*
X183910000Y-90080000D02*
X183980000Y-90010000D01*
X125560000Y-126840000D02*
X128640000Y-129920000D01*
X162390000Y-54450000D02*
X161120000Y-54450000D01*
X125560000Y-78580000D02*
X125560000Y-100170000D01*
X152220000Y-102220000D02*
X156530000Y-102220000D01*
X128640000Y-129920000D02*
X134000000Y-129920000D01*
X134000000Y-99920000D02*
X125810000Y-99920000D01*
X190330000Y-116680000D02*
X186930000Y-120080000D01*
X181000000Y-62060000D02*
X183970000Y-62060000D01*
X161120000Y-54450000D02*
X157310000Y-54450000D01*
X186200000Y-35080000D02*
X187790000Y-36670000D01*
X190330000Y-62070000D02*
X190330000Y-90010000D01*
X125810000Y-99920000D02*
X125560000Y-100170000D01*
X157310000Y-54450000D02*
X125560000Y-54450000D01*
X125890000Y-71900000D02*
X125560000Y-72230000D01*
X183970000Y-62060000D02*
X183980000Y-62070000D01*
X181000000Y-35080000D02*
X186200000Y-35080000D01*
X181000000Y-90080000D02*
X183910000Y-90080000D01*
X125560000Y-72230000D02*
X125560000Y-76040000D01*
X156530000Y-102220000D02*
X157310000Y-101440000D01*
X190330000Y-54450000D02*
X190330000Y-62070000D01*
X125560000Y-106520000D02*
X125560000Y-126840000D01*
%TO.N,Net-(LS1-Pad2)*%
X195215000Y-17815000D02*
X197400000Y-20000000D01*
X170000000Y-20320000D02*
X172505000Y-17815000D01*
X172505000Y-17815000D02*
X195215000Y-17815000D01*
%TO.N,Net-(U1-26)*%
X184920000Y-20000000D02*
X174440000Y-30480000D01*
X174440000Y-30480000D02*
X170000000Y-30480000D01*
%TO.N,Net-(U1-25)*%
X187460000Y-20000000D02*
X174440000Y-33020000D01*
X174440000Y-33020000D02*
X170000000Y-33020000D01*
%TO.N,Net-(U1-27)*%
X182380000Y-20490000D02*
X174930000Y-27940000D01*
X174930000Y-27940000D02*
X170000000Y-27940000D01*
X182380000Y-20000000D02*
X182380000Y-20490000D01*
%TO.N,Net-(U1-14)*%
X174440000Y-25400000D02*
X170000000Y-25400000D01*
X179840000Y-20000000D02*
X174440000Y-25400000D01*
%TO.N,Net-(U1-17)*%
X159850000Y-129380000D02*
X159850000Y-107790000D01*
X159850000Y-107790000D02*
X159850000Y-55720000D01*
X149690000Y-32860000D02*
X147310000Y-30480000D01*
X159850000Y-46830000D02*
X149690000Y-36670000D01*
X159850000Y-51910000D02*
X159850000Y-46830000D01*
X149690000Y-36670000D02*
X149690000Y-32860000D01*
X170000000Y-135240000D02*
X165710000Y-135240000D01*
X147310000Y-30480000D02*
X144600000Y-30480000D01*
X165710000Y-135240000D02*
X159850000Y-129380000D01*
%TO.N,Net-(U1-22{slash}SCL)*%
X116430000Y-26510000D02*
X131910000Y-26510000D01*
X142070000Y-45730000D02*
X144600000Y-48260000D01*
X131910000Y-26510000D02*
X133180000Y-27780000D01*
X136990000Y-30320000D02*
X136990000Y-34130000D01*
X134450000Y-27780000D02*
X136990000Y-30320000D01*
X133180000Y-27780000D02*
X134450000Y-27780000D01*
X142070000Y-39210000D02*
X142070000Y-45730000D01*
X136990000Y-34130000D02*
X142070000Y-39210000D01*
X109920000Y-20000000D02*
X116430000Y-26510000D01*
%TO.N,Net-(U1-4)*%
X137460000Y-23170000D02*
X139690000Y-25400000D01*
X139690000Y-25400000D02*
X144600000Y-25400000D01*
X137460000Y-20000000D02*
X137460000Y-23170000D01*
%TO.N,Net-(U1-15)*%
X140950000Y-23970000D02*
X144600000Y-20320000D01*
X132380000Y-20000000D02*
X136350000Y-23970000D01*
X136350000Y-23970000D02*
X136990000Y-23970000D01*
X140800000Y-23970000D02*
X140950000Y-23970000D01*
%TO.N,Net-(U1-19{slash}MISO)*%
X136990000Y-25240000D02*
X139530000Y-27780000D01*
X129840000Y-20000000D02*
X135080000Y-25240000D01*
X139530000Y-35400000D02*
X142230000Y-38100000D01*
X139530000Y-27780000D02*
X139530000Y-35400000D01*
X135080000Y-25240000D02*
X136990000Y-25240000D01*
X142230000Y-38100000D02*
X144600000Y-38100000D01*
%TO.N,Net-(U1-16)*%
X165710000Y-132700000D02*
X164930000Y-131920000D01*
X150960000Y-31590000D02*
X147310000Y-27940000D01*
X161120000Y-117950000D02*
X161120000Y-55720000D01*
X147310000Y-27940000D02*
X144600000Y-27940000D01*
X170000000Y-132700000D02*
X165710000Y-132700000D01*
X161120000Y-45560000D02*
X150960000Y-35400000D01*
X150960000Y-35400000D02*
X150960000Y-31590000D01*
X164930000Y-131920000D02*
X161120000Y-128110000D01*
X161120000Y-128110000D02*
X161120000Y-117950000D01*
X161120000Y-51910000D02*
X161120000Y-45560000D01*
%TO.N,Net-(U1-18{slash}SCK)*%
X133810000Y-26510000D02*
X135720000Y-26510000D01*
X127300000Y-20000000D02*
X133810000Y-26510000D01*
X135720000Y-26510000D02*
X138260000Y-29050000D01*
X138260000Y-29050000D02*
X138260000Y-34130000D01*
%TO.N,Net-(U2-5)*%
X142850000Y-112380000D02*
X152220000Y-112380000D01*
X134000000Y-102460000D02*
X140550000Y-102460000D01*
X140550000Y-102460000D02*
X140800000Y-102710000D01*
X140800000Y-110330000D02*
X142850000Y-112380000D01*
X140800000Y-102710000D02*
X140800000Y-110330000D01*
%TO.N,Net-(U2-DM{slash}24)*%
X146650000Y-138270000D02*
X136650000Y-138270000D01*
X152220000Y-132700000D02*
X146650000Y-138270000D01*
X136650000Y-138270000D02*
X129920000Y-145000000D01*
%TO.N,Net-(U2-18)*%
X144610000Y-90010000D02*
X149200000Y-94600000D01*
X140470000Y-69360000D02*
X140800000Y-69690000D01*
X144610000Y-73500000D02*
X144610000Y-90010000D01*
X134000000Y-69360000D02*
X140470000Y-69360000D01*
X149200000Y-94600000D02*
X152220000Y-94600000D01*
%TO.N,Net-(U2-DP{slash}25)*%
X137920000Y-139540000D02*
X132460000Y-145000000D01*
X147920000Y-139540000D02*
X137920000Y-139540000D01*
X152220000Y-135240000D02*
X147920000Y-139540000D01*
%TO.N,Net-(U2-17)*%
X146370000Y-97140000D02*
X152220000Y-97140000D01*
X144610000Y-97630000D02*
X145880000Y-97630000D01*
X145880000Y-97630000D02*
X146370000Y-97140000D01*
X134000000Y-97380000D02*
X138010000Y-97380000D01*
X138010000Y-97380000D02*
X138260000Y-97630000D01*
%TO.N,Net-(U2-6)*%
X144120000Y-109840000D02*
X152220000Y-109840000D01*
X142070000Y-76040000D02*
X142070000Y-107790000D01*
X140470000Y-74440000D02*
X142070000Y-76040000D01*
X142070000Y-107790000D02*
X144120000Y-109840000D01*
X134000000Y-74440000D02*
X140470000Y-74440000D01*
%TO.N,Net-(U17-~{SS})*%
X178900000Y-87470000D02*
X178970000Y-87540000D01*
X173820000Y-116680000D02*
X176360000Y-114140000D01*
X170000000Y-122540000D02*
X173040000Y-122540000D01*
X176360000Y-90010000D02*
X178900000Y-87470000D01*
X178970000Y-87540000D02*
X181000000Y-87540000D01*
X176360000Y-114140000D02*
X176360000Y-90010000D01*
X173820000Y-121760000D02*
X173820000Y-116680000D01*
X173040000Y-122540000D02*
X173820000Y-121760000D01*
%TO.N,Net-(U15-~{SS})*%
X173820000Y-64610000D02*
X175090000Y-63340000D01*
X173820000Y-110330000D02*
X173820000Y-109060000D01*
X172550000Y-112370000D02*
X172550000Y-111600000D01*
X175090000Y-63340000D02*
X175090000Y-55720000D01*
X170000000Y-114920000D02*
X172550000Y-112370000D01*
X173820000Y-109060000D02*
X173820000Y-64610000D01*
X177950000Y-32540000D02*
X181000000Y-32540000D01*
X175090000Y-51910000D02*
X175090000Y-35400000D01*
X175090000Y-35400000D02*
X177950000Y-32540000D01*
X172550000Y-111600000D02*
X173820000Y-110330000D01*
%TO.N,Net-(U18-RSSI)*%
X178120000Y-122620000D02*
X178000000Y-122500000D01*
X178000000Y-122500000D02*
X176500000Y-121000000D01*
X181000000Y-122620000D02*
X178120000Y-122620000D01*
X176500000Y-121000000D02*
X176500000Y-118500000D01*
%TO.N,Net-(U19-RSSI)*%
X147930000Y-89520000D02*
X152220000Y-89520000D01*
X137620000Y-42380000D02*
X138260000Y-43020000D01*
X134000000Y-42380000D02*
X137620000Y-42380000D01*
X138260000Y-43020000D02*
X139530000Y-44290000D01*
X144610000Y-63340000D02*
X144610000Y-70960000D01*
X145880000Y-87470000D02*
X147930000Y-89520000D01*
X139530000Y-44290000D02*
X139530000Y-51910000D01*
X139530000Y-58260000D02*
X144610000Y-63340000D01*
X139530000Y-55720000D02*
X139530000Y-58260000D01*
X144610000Y-70960000D02*
X145880000Y-72230000D01*
X145880000Y-72230000D02*
X145880000Y-87470000D01*
%TO.N,Net-(U16-RSSI)*%
X176360000Y-69240000D02*
X176360000Y-87470000D01*
X181000000Y-64600000D02*
X176360000Y-69240000D01*
%TO.N,Net-(U17-RSSI)*%
X181000000Y-92620000D02*
X177630000Y-95990000D01*
X177630000Y-95990000D02*
X177630000Y-106520000D01*
%TO.N,Net-(U15-RSSI)*%
X171770000Y-99680000D02*
X170000000Y-99680000D01*
X172550000Y-98900000D02*
X171770000Y-99680000D01*
X181000000Y-37620000D02*
X176360000Y-42260000D01*
X176360000Y-42260000D02*
X176360000Y-51910000D01*
X172550000Y-59530000D02*
X172550000Y-98900000D01*
%TO.N,Net-(U16-~{SS})*%
X172550000Y-114140000D02*
X172550000Y-117450000D01*
X181000000Y-59520000D02*
X175090000Y-65430000D01*
X172550000Y-117450000D02*
X170000000Y-120000000D01*
X175090000Y-65430000D02*
X175090000Y-111600000D01*
X175090000Y-111600000D02*
X172550000Y-114140000D01*
%TO.N,Net-(U19-~{SS})*%
X138260000Y-55720000D02*
X138260000Y-58260000D01*
X146660000Y-107300000D02*
X152220000Y-107300000D01*
X143340000Y-63340000D02*
X143340000Y-103980000D01*
X137620000Y-47460000D02*
X138260000Y-48100000D01*
X138260000Y-58260000D02*
X143340000Y-63340000D01*
X134000000Y-47460000D02*
X137620000Y-47460000D01*
X143340000Y-103980000D02*
X146660000Y-107300000D01*
X138260000Y-48100000D02*
X138260000Y-51910000D01*
%TO.N,Net-(U18-~{SS})*%
X181000000Y-117540000D02*
X175500000Y-117540000D01*
X175090000Y-123030000D02*
X173040000Y-125080000D01*
X175090000Y-117950000D02*
X175090000Y-123030000D01*
X173040000Y-125080000D02*
X170000000Y-125080000D01*
X175500000Y-117540000D02*
X175090000Y-117950000D01*
%TO.N,Net-(U2-4)*%
X140800000Y-117950000D02*
X140800000Y-130650000D01*
X152220000Y-114920000D02*
X143830000Y-114920000D01*
X143830000Y-114920000D02*
X140800000Y-117950000D01*
X138990000Y-132460000D02*
X134000000Y-132460000D01*
X140800000Y-130650000D02*
X138990000Y-132460000D01*
%TO.N,Net-(U2-16)*%
X138260000Y-126840000D02*
X138260000Y-107790000D01*
X137720000Y-127380000D02*
X138260000Y-126840000D01*
X144610000Y-103980000D02*
X148910000Y-99680000D01*
X148910000Y-99680000D02*
X152220000Y-99680000D01*
X134000000Y-127380000D02*
X137720000Y-127380000D01*
%TD*%
M02*
