M48
; DRILL file {KiCad 9.0.0} date 2026-01-17T10:34:57+0000
; FORMAT={-:-/ absolute / metric / decimal}
; #@! TF.CreationDate,2026-01-17T10:34:57+00:00
; #@! TF.GenerationSoftware,Kicad,Pcbnew,9.0.0
; #@! TF.FileFunction,Plated,1,2,PTH
FMAT,2
METRIC
; #@! TA.AperFunction,Plated,PTH,ViaDrill
T1C0.300
; #@! TA.AperFunction,Plated,PTH,ComponentDrill
T2C1.000
; #@! TA.AperFunction,Plated,PTH,ComponentDrill
T3C1.200
%
G90
G05
T1
X125.56Y-49.37
X125.56Y-54.45
X125.56Y-76.04
X125.56Y-78.58
X125.56Y-103.98
X125.56Y-106.52
X136.99Y-23.97
X138.26Y-34.13
X138.26Y-51.91
X138.26Y-55.72
X138.26Y-97.63
X138.26Y-107.79
X139.53Y-51.91
X139.53Y-55.72
X140.8Y-23.97
X140.8Y-69.69
X144.61Y-73.5
X144.61Y-97.63
X144.61Y-103.98
X158.58Y-53.18
X158.58Y-55.72
X159.85Y-51.91
X159.85Y-55.72
X161.12Y-51.91
X161.12Y-55.72
X172.55Y-59.53
X175.09Y-51.91
X175.09Y-55.72
X176.36Y-51.91
X176.36Y-87.47
X176.5Y-118.5
X177.63Y-106.52
X183.98Y-62.07
X183.98Y-90.01
X187.79Y-36.67
X187.79Y-54.45
X190.33Y-39.21
X190.33Y-54.45
X190.33Y-62.07
X190.33Y-90.01
T2
X134.0Y-37.3
X134.0Y-39.84
X134.0Y-42.38
X134.0Y-44.92
X134.0Y-47.46
X134.0Y-50.0
X134.0Y-64.28
X134.0Y-66.82
X134.0Y-69.36
X134.0Y-71.9
X134.0Y-74.44
X134.0Y-76.98
X134.0Y-92.3
X134.0Y-94.84
X134.0Y-97.38
X134.0Y-99.92
X134.0Y-102.46
X134.0Y-105.0
X134.0Y-122.3
X134.0Y-124.84
X134.0Y-127.38
X134.0Y-129.92
X134.0Y-132.46
X134.0Y-135.0
X181.0Y-30.0
X181.0Y-32.54
X181.0Y-35.08
X181.0Y-37.62
X181.0Y-40.16
X181.0Y-42.7
X181.0Y-56.98
X181.0Y-59.52
X181.0Y-62.06
X181.0Y-64.6
X181.0Y-67.14
X181.0Y-69.68
X181.0Y-85.0
X181.0Y-87.54
X181.0Y-90.08
X181.0Y-92.62
X181.0Y-95.16
X181.0Y-97.7
X181.0Y-115.0
X181.0Y-117.54
X181.0Y-120.08
X181.0Y-122.62
X181.0Y-125.16
X181.0Y-127.7
X197.4Y-20.0
X205.0Y-20.0
T3
X107.38Y-20.0
X109.92Y-20.0
X112.46Y-20.0
X115.0Y-20.0
X122.22Y-20.0
X124.76Y-20.0
X127.3Y-20.0
X127.38Y-145.0
X129.84Y-20.0
X129.92Y-145.0
X132.38Y-20.0
X132.46Y-145.0
X134.92Y-20.0
X135.0Y-145.0
X137.46Y-20.0
X140.0Y-20.0
X144.6Y-15.24
X144.6Y-17.78
X144.6Y-20.32
X144.6Y-22.86
X144.6Y-25.4
X144.6Y-27.94
X144.6Y-30.48
X144.6Y-33.02
X144.6Y-35.56
X144.6Y-38.1
X144.6Y-40.64
X144.6Y-43.18
X144.6Y-45.72
X144.6Y-48.26
X144.6Y-50.8
X152.22Y-86.98
X152.22Y-89.52
X152.22Y-92.06
X152.22Y-94.6
X152.22Y-97.14
X152.22Y-99.68
X152.22Y-102.22
X152.22Y-104.76
X152.22Y-107.3
X152.22Y-109.84
X152.22Y-112.38
X152.22Y-114.92
X152.22Y-117.46
X152.22Y-120.0
X152.22Y-122.54
X152.22Y-125.08
X152.22Y-127.62
X152.22Y-130.16
X152.22Y-132.7
X152.22Y-135.24
X170.0Y-15.24
X170.0Y-17.78
X170.0Y-20.32
X170.0Y-22.86
X170.0Y-25.4
X170.0Y-27.94
X170.0Y-30.48
X170.0Y-33.02
X170.0Y-35.56
X170.0Y-38.1
X170.0Y-40.64
X170.0Y-43.18
X170.0Y-45.72
X170.0Y-48.26
X170.0Y-50.8
X170.0Y-86.98
X170.0Y-89.52
X170.0Y-92.06
X170.0Y-94.6
X170.0Y-97.14
X170.0Y-99.68
X170.0Y-102.22
X170.0Y-104.76
X170.0Y-107.3
X170.0Y-109.84
X170.0Y-112.38
X170.0Y-114.92
X170.0Y-117.46
X170.0Y-120.0
X170.0Y-122.54
X170.0Y-125.08
X170.0Y-127.62
X170.0Y-130.16
X170.0Y-132.7
X170.0Y-135.24
X179.84Y-20.0
X182.38Y-20.0
X184.92Y-20.0
X187.46Y-20.0
X190.0Y-20.0
M30
