%TF.GenerationSoftware,KiCad,Pcbnew,9.0.7*%
%TF.CreationDate,2026-02-17T16:50:33+00:00*%
%TF.ProjectId,NaeTime Receiver,4e616554-696d-4652-9052-656365697665,rev?*%
%TF.SameCoordinates,Original*%
%TF.FileFunction,Copper,L1,Top*%
%TF.FilePolarity,Positive*%
%FSLAX46Y46*%
G04 Gerber Fmt 4.6, Leading zero omitted, Abs format (unit mm)*
G04 Created by KiCad (PCBNEW 9.0.7) date 2026-02-17 16:50:33*
%MOMM*%
%LPD*%
G01*
G04 APERTURE LIST*
%TA.AperFunction,ComponentPad*%
%ADD10R,1.050000X1.500000*%
%TD*%
%TA.AperFunction,ComponentPad*%
%ADD11O,1.050000X1.500000*%
%TD*%
%TA.AperFunction,ComponentPad*%
%ADD12C,1.400000*%
%TD*%
%TA.AperFunction,ComponentPad*%
%ADD13C,2.200000*%
%TD*%
%TA.AperFunction,ComponentPad*%
%ADD14R,1.700000X1.700000*%
%TD*%
%TA.AperFunction,ComponentPad*%
%ADD15C,1.700000*%
%TD*%
%TA.AperFunction,ComponentPad*%
%ADD16C,2.000000*%
%TD*%
%TA.AperFunction,ComponentPad*%
%ADD17R,1.070000X1.800000*%
%TD*%
%TA.AperFunction,ComponentPad*%
%ADD18O,1.070000X1.800000*%
%TD*%
%TA.AperFunction,ComponentPad*%
%ADD19R,2.000000X2.000000*%
%TD*%
%TA.AperFunction,ViaPad*%
%ADD20C,0.600000*%
%TD*%
%TA.AperFunction,Conductor*%
%ADD21C,1.600000*%
%TD*%
%TA.AperFunction,Conductor*%
%ADD22C,0.400000*%
%TD*%
%TA.AperFunction,Conductor*%
%ADD23C,0.600000*%
%TD*%
%TA.AperFunction,Conductor*%
%ADD24C,0.200000*%
%TD*%
G04 APERTURE END LIST*
D10*
%TO.P,QG1,1,D*%
%TO.N,+5V*%
X56460000Y-20000000D03*
D11*
%TO.P,QG1,2,G*%
%TO.N,GREEN SWITCH*%
X57730000Y-20000000D03*
%TO.P,QG1,3,S*%
%TO.N,GREEN*%
X59000000Y-20000000D03*
%TD*%
D12*
%TO.P,R17,1*%
%TO.N,Net-(U2-18)*%
X66380000Y-103000000D03*
%TO.P,R17,2*%
%TO.N,GND*%
X74000000Y-103000000D03*
%TD*%
%TO.P,R16,1*%
%TO.N,Net-(U15-RSSI)*%
X134000000Y-74000000D03*
%TO.P,R16,2*%
%TO.N,GND*%
X126380000Y-74000000D03*
%TD*%
D13*
%TO.P,U1,1,EN*%
%TO.N,unconnected-(U1-EN-Pad1)*%
X60240000Y-30600000D03*
%TO.P,U1,2,36*%
%TO.N,unconnected-(U1-36-Pad2)*%
X57700000Y-30600000D03*
%TO.P,U1,3,39*%
%TO.N,unconnected-(U1-39-Pad3)*%
X55160000Y-30600000D03*
%TO.P,U1,4,34*%
%TO.N,unconnected-(U1-34-Pad4)*%
X52620000Y-30600000D03*
%TO.P,U1,5,35*%
%TO.N,unconnected-(U1-35-Pad5)*%
X50080000Y-30600000D03*
%TO.P,U1,6,32*%
%TO.N,GREEN SWITCH*%
X47540000Y-30600000D03*
%TO.P,U1,7,33*%
%TO.N,BLUE SWITCH*%
X45000000Y-30600000D03*
%TO.P,U1,8,25*%
%TO.N,Net-(U1-25)*%
X42460000Y-30600000D03*
%TO.P,U1,9,26*%
%TO.N,Net-(U1-26)*%
X39920000Y-30600000D03*
%TO.P,U1,10,27*%
%TO.N,Net-(U1-27)*%
X37380000Y-30600000D03*
%TO.P,U1,11,14*%
%TO.N,Net-(U1-14)*%
X34840000Y-30600000D03*
%TO.P,U1,12,12*%
%TO.N,unconnected-(U1-Pad12)*%
X32300000Y-30600000D03*
%TO.P,U1,13,13*%
%TO.N,Net-(LS1-Pad1)*%
X29760000Y-30600000D03*
%TO.P,U1,14,GND*%
%TO.N,GND*%
X27220000Y-30600000D03*
%TO.P,U1,15,VIN*%
%TO.N,+5V*%
X24680000Y-30600000D03*
%TO.P,U1,16,23/MOSI*%
%TO.N,Net-(U1-23{slash}MOSI)*%
X60240000Y-56000000D03*
%TO.P,U1,17,22/SCL*%
%TO.N,RED SWITCH*%
X57700000Y-56000000D03*
%TO.P,U1,18,1*%
%TO.N,unconnected-(U1-1-Pad18)*%
X55160000Y-56000000D03*
%TO.P,U1,19,3*%
%TO.N,unconnected-(U1-3-Pad19)*%
X52620000Y-56000000D03*
%TO.P,U1,20,21/MISO*%
%TO.N,Net-(U1-21{slash}MISO)*%
X50080000Y-56000000D03*
%TO.P,U1,21,19/SCK*%
%TO.N,Net-(U1-19{slash}SCK)*%
X47540000Y-56000000D03*
%TO.P,U1,22,18*%
%TO.N,unconnected-(U1-18-Pad22)*%
X45000000Y-56000000D03*
%TO.P,U1,23,5*%
%TO.N,unconnected-(U1-5-Pad23)*%
X42460000Y-56000000D03*
%TO.P,U1,24,17*%
%TO.N,Net-(U1-17)*%
X39920000Y-56000000D03*
%TO.P,U1,25,16*%
%TO.N,Net-(U1-16)*%
X37380000Y-56000000D03*
%TO.P,U1,26,4*%
%TO.N,Net-(U1-4)*%
X34840000Y-56000000D03*
%TO.P,U1,27,2*%
%TO.N,Net-(U1-2)*%
X32300000Y-56000000D03*
%TO.P,U1,28,15*%
%TO.N,Net-(U1-15)*%
X29760000Y-56000000D03*
%TO.P,U1,29,GND*%
%TO.N,GND*%
X27220000Y-56000000D03*
%TO.P,U1,30,VIN*%
%TO.N,+3.3V*%
X24680000Y-56000000D03*
%TD*%
D14*
%TO.P,U16,1,GND*%
%TO.N,GND*%
X141000000Y-103620000D03*
D15*
%TO.P,U16,2,3V3/5V*%
%TO.N,+5V*%
X141000000Y-101080000D03*
%TO.P,U16,3,RSSI*%
%TO.N,Net-(U16-RSSI)*%
X141000000Y-98540000D03*
%TO.P,U16,4,SCLK*%
%TO.N,RSCLK*%
X141000000Y-96000000D03*
%TO.P,U16,5,~{SS}*%
%TO.N,Net-(U16-~{SS})*%
X141000000Y-93460000D03*
%TO.P,U16,6,MOSI*%
%TO.N,RMOSI*%
X141000000Y-90920000D03*
%TD*%
D12*
%TO.P,R8,1*%
%TO.N,GREEN*%
X164000000Y-170000000D03*
%TO.P,R8,2*%
%TO.N,Net-(D3-GK)*%
X171620000Y-170000000D03*
%TD*%
%TO.P,R5,1*%
%TO.N,GREEN*%
X36000000Y-22000000D03*
%TO.P,R5,2*%
%TO.N,Net-(D2-GK)*%
X28380000Y-22000000D03*
%TD*%
D16*
%TO.P,SW3,1,1*%
%TO.N,Net-(U1-14)*%
X139680000Y-40500000D03*
X146180000Y-40500000D03*
%TO.P,SW3,2,2*%
%TO.N,GND*%
X139680000Y-45000000D03*
X146180000Y-45000000D03*
%TD*%
D12*
%TO.P,R2,1*%
%TO.N,GREEN*%
X164190000Y-22000000D03*
%TO.P,R2,2*%
%TO.N,Net-(D1-GK)*%
X171810000Y-22000000D03*
%TD*%
D13*
%TO.P,U2,1,54*%
%TO.N,unconnected-(U2-54-Pad1)*%
X92220000Y-105000000D03*
%TO.P,U2,2,19*%
%TO.N,Net-(U19-RSSI)*%
X92220000Y-107540000D03*
%TO.P,U2,3,GND*%
%TO.N,GND*%
X92220000Y-110080000D03*
%TO.P,U2,4,18*%
%TO.N,Net-(U2-18)*%
X92220000Y-112620000D03*
%TO.P,U2,5,17*%
%TO.N,Net-(U2-17)*%
X92220000Y-115160000D03*
%TO.P,U2,6,16*%
%TO.N,Net-(U2-16)*%
X92220000Y-117700000D03*
%TO.P,U2,7,15*%
%TO.N,RSCLK*%
X92220000Y-120240000D03*
%TO.P,U2,8,GND*%
%TO.N,GND*%
X92220000Y-122780000D03*
%TO.P,U2,9,14*%
%TO.N,Net-(U19-~{SS})*%
X92220000Y-125320000D03*
%TO.P,U2,10,6*%
%TO.N,Net-(U2-6)*%
X92220000Y-127860000D03*
%TO.P,U2,11,5*%
%TO.N,Net-(U2-5)*%
X92220000Y-130400000D03*
%TO.P,U2,12,4*%
%TO.N,Net-(U2-4)*%
X92220000Y-132940000D03*
%TO.P,U2,13,GND*%
%TO.N,GND*%
X92220000Y-135480000D03*
%TO.P,U2,14,3*%
%TO.N,RMOSI*%
X92220000Y-138020000D03*
%TO.P,U2,15,2*%
%TO.N,unconnected-(U2-2-Pad15)*%
X92220000Y-140560000D03*
%TO.P,U2,16,SCL/8*%
%TO.N,unconnected-(U2-SCL{slash}8-Pad16)*%
X92220000Y-143100000D03*
%TO.P,U2,17,SDA/7*%
%TO.N,unconnected-(U2-SDA{slash}7-Pad17)*%
X92220000Y-145640000D03*
%TO.P,U2,18,GND*%
%TO.N,unconnected-(U2-GND-Pad18)*%
X92220000Y-148180000D03*
%TO.P,U2,19,DM/24*%
%TO.N,Net-(U2-DM{slash}24)*%
X92220000Y-150720000D03*
%TO.P,U2,20,DP/25*%
%TO.N,Net-(U2-DP{slash}25)*%
X92220000Y-153260000D03*
%TO.P,U2,21,VBUS*%
%TO.N,unconnected-(U2-VBUS-Pad21)*%
X110000000Y-105000000D03*
%TO.P,U2,22,VSYS*%
%TO.N,+5V*%
X110000000Y-107540000D03*
%TO.P,U2,23,GND*%
%TO.N,GND*%
X110000000Y-110080000D03*
%TO.P,U2,24,EN*%
%TO.N,unconnected-(U2-EN-Pad24)*%
X110000000Y-112620000D03*
%TO.P,U2,25,3V3*%
%TO.N,unconnected-(U2-3V3-Pad25)*%
X110000000Y-115160000D03*
%TO.P,U2,26,20*%
%TO.N,Net-(U15-RSSI)*%
X110000000Y-117700000D03*
%TO.P,U2,27,21*%
%TO.N,Net-(U16-RSSI)*%
X110000000Y-120240000D03*
%TO.P,U2,28,GND*%
%TO.N,GND*%
X110000000Y-122780000D03*
%TO.P,U2,29,22*%
%TO.N,Net-(U17-RSSI)*%
X110000000Y-125320000D03*
%TO.P,U2,30,23*%
%TO.N,Net-(U18-RSSI)*%
X110000000Y-127860000D03*
%TO.P,U2,31,RUN*%
%TO.N,unconnected-(U2-RUN-Pad31)*%
X110000000Y-130400000D03*
%TO.P,U2,32,26*%
%TO.N,Net-(U15-~{SS})*%
X110000000Y-132940000D03*
%TO.P,U2,33,GND*%
%TO.N,unconnected-(U2-GND-Pad33)*%
X110000000Y-135480000D03*
%TO.P,U2,34,27*%
%TO.N,Net-(U16-~{SS})*%
X110000000Y-138020000D03*
%TO.P,U2,35,32*%
%TO.N,Net-(U17-~{SS})*%
X110000000Y-140560000D03*
%TO.P,U2,36,33*%
%TO.N,Net-(U18-~{SS})*%
X110000000Y-143100000D03*
%TO.P,U2,37,46*%
%TO.N,unconnected-(U2-46-Pad37)*%
X110000000Y-145640000D03*
%TO.P,U2,38,GND*%
%TO.N,GND*%
X110000000Y-148180000D03*
%TO.P,U2,39,47*%
%TO.N,Net-(U1-16)*%
X110000000Y-150720000D03*
%TO.P,U2,40,48*%
%TO.N,Net-(U1-17)*%
X110000000Y-153260000D03*
%TD*%
D14*
%TO.P,U15,1,GND*%
%TO.N,GND*%
X141000000Y-78700000D03*
D15*
%TO.P,U15,2,3V3/5V*%
%TO.N,+5V*%
X141000000Y-76160000D03*
%TO.P,U15,3,RSSI*%
%TO.N,Net-(U15-RSSI)*%
X141000000Y-73620000D03*
%TO.P,U15,4,SCLK*%
%TO.N,RSCLK*%
X141000000Y-71080000D03*
%TO.P,U15,5,~{SS}*%
%TO.N,Net-(U15-~{SS})*%
X141000000Y-68540000D03*
%TO.P,U15,6,MOSI*%
%TO.N,RMOSI*%
X141000000Y-66000000D03*
%TD*%
D16*
%TO.P,SW1,1,1*%
%TO.N,Net-(U1-25)*%
X149840000Y-31800000D03*
X156340000Y-31800000D03*
%TO.P,SW1,2,2*%
%TO.N,GND*%
X149840000Y-36300000D03*
X156340000Y-36300000D03*
%TD*%
D12*
%TO.P,R10,1*%
%TO.N,RED*%
X35620000Y-167000000D03*
%TO.P,R10,2*%
%TO.N,Net-(D4-RK)*%
X28000000Y-167000000D03*
%TD*%
D14*
%TO.P,U19,1,GND*%
%TO.N,GND*%
X59000000Y-73000000D03*
D15*
%TO.P,U19,2,3V3/5V*%
%TO.N,+5V*%
X59000000Y-75540000D03*
%TO.P,U19,3,RSSI*%
%TO.N,Net-(U19-RSSI)*%
X59000000Y-78080000D03*
%TO.P,U19,4,SCLK*%
%TO.N,RSCLK*%
X59000000Y-80620000D03*
%TO.P,U19,5,~{SS}*%
%TO.N,Net-(U19-~{SS})*%
X59000000Y-83160000D03*
%TO.P,U19,6,MOSI*%
%TO.N,RMOSI*%
X59000000Y-85700000D03*
%TD*%
D12*
%TO.P,R6,1*%
%TO.N,BLUE*%
X36000000Y-25000000D03*
%TO.P,R6,2*%
%TO.N,Net-(D2-BK)*%
X28380000Y-25000000D03*
%TD*%
D17*
%TO.P,D2,1,A*%
%TO.N,GND*%
X22270000Y-22000000D03*
D18*
%TO.P,D2,2,RK*%
%TO.N,Net-(D2-RK)*%
X23540000Y-22000000D03*
%TO.P,D2,3,GK*%
%TO.N,Net-(D2-GK)*%
X19730000Y-22000000D03*
%TO.P,D2,4,BK*%
%TO.N,Net-(D2-BK)*%
X21000000Y-22000000D03*
%TD*%
D16*
%TO.P,SW2,1,1*%
%TO.N,Net-(U1-26)*%
X160000000Y-40500000D03*
X166500000Y-40500000D03*
%TO.P,SW2,2,2*%
%TO.N,GND*%
X160000000Y-45000000D03*
X166500000Y-45000000D03*
%TD*%
D13*
%TO.P,U3,1,GND*%
%TO.N,GND*%
X74100000Y-50160000D03*
%TO.P,U3,2,VCC*%
%TO.N,+5V*%
X74100000Y-47620000D03*
%TO.P,U3,3,SCK*%
%TO.N,Net-(U1-19{slash}SCK)*%
X74100000Y-45080000D03*
%TO.P,U3,4,SDA*%
%TO.N,Net-(U1-21{slash}MISO)*%
X74100000Y-42540000D03*
%TO.P,U3,5,RES*%
%TO.N,Net-(U1-15)*%
X74100000Y-40000000D03*
%TO.P,U3,6,RS*%
%TO.N,Net-(U1-2)*%
X74100000Y-37460000D03*
%TO.P,U3,7,CS*%
%TO.N,Net-(U1-4)*%
X74100000Y-34920000D03*
%TO.P,U3,8,3V3*%
%TO.N,Net-(U1-23{slash}MOSI)*%
X74100000Y-32380000D03*
%TD*%
D12*
%TO.P,R1,1*%
%TO.N,RED*%
X164190000Y-19000000D03*
%TO.P,R1,2*%
%TO.N,Net-(D1-RK)*%
X171810000Y-19000000D03*
%TD*%
%TO.P,R4,1*%
%TO.N,RED*%
X36000000Y-19000000D03*
%TO.P,R4,2*%
%TO.N,Net-(D2-RK)*%
X28380000Y-19000000D03*
%TD*%
D17*
%TO.P,D4,1,A*%
%TO.N,GND*%
X22730000Y-170000000D03*
D18*
%TO.P,D4,2,RK*%
%TO.N,Net-(D4-RK)*%
X24000000Y-170000000D03*
%TO.P,D4,3,GK*%
%TO.N,Net-(D4-GK)*%
X20190000Y-170000000D03*
%TO.P,D4,4,BK*%
%TO.N,Net-(D4-BK)*%
X21460000Y-170000000D03*
%TD*%
D10*
%TO.P,QR1,1,D*%
%TO.N,+5V*%
X62460000Y-20000000D03*
D11*
%TO.P,QR1,2,G*%
%TO.N,RED SWITCH*%
X63730000Y-20000000D03*
%TO.P,QR1,3,S*%
%TO.N,RED*%
X65000000Y-20000000D03*
%TD*%
D12*
%TO.P,R3,1*%
%TO.N,BLUE*%
X164190000Y-25000000D03*
%TO.P,R3,2*%
%TO.N,Net-(D1-BK)*%
X171810000Y-25000000D03*
%TD*%
D16*
%TO.P,SW4,1,1*%
%TO.N,Net-(U1-27)*%
X149840000Y-49000000D03*
X156340000Y-49000000D03*
%TO.P,SW4,2,2*%
%TO.N,GND*%
X149840000Y-53500000D03*
X156340000Y-53500000D03*
%TD*%
D12*
%TO.P,R13,1*%
%TO.N,Net-(U18-RSSI)*%
X134000000Y-149000000D03*
%TO.P,R13,2*%
%TO.N,GND*%
X126380000Y-149000000D03*
%TD*%
D17*
%TO.P,D3,1,A*%
%TO.N,GND*%
X178730000Y-170000000D03*
D18*
%TO.P,D3,2,RK*%
%TO.N,Net-(D3-RK)*%
X180000000Y-170000000D03*
%TO.P,D3,3,GK*%
%TO.N,Net-(D3-GK)*%
X176190000Y-170000000D03*
%TO.P,D3,4,BK*%
%TO.N,Net-(D3-BK)*%
X177460000Y-170000000D03*
%TD*%
D14*
%TO.P,U17,1,GND*%
%TO.N,GND*%
X141000000Y-128700000D03*
D15*
%TO.P,U17,2,3V3/5V*%
%TO.N,+5V*%
X141000000Y-126160000D03*
%TO.P,U17,3,RSSI*%
%TO.N,Net-(U17-RSSI)*%
X141000000Y-123620000D03*
%TO.P,U17,4,SCLK*%
%TO.N,RSCLK*%
X141000000Y-121080000D03*
%TO.P,U17,5,~{SS}*%
%TO.N,Net-(U17-~{SS})*%
X141000000Y-118540000D03*
%TO.P,U17,6,MOSI*%
%TO.N,RMOSI*%
X141000000Y-116000000D03*
%TD*%
D12*
%TO.P,R19,1*%
%TO.N,Net-(U2-16)*%
X66380000Y-153000000D03*
%TO.P,R19,2*%
%TO.N,GND*%
X74000000Y-153000000D03*
%TD*%
D14*
%TO.P,U22,1,GND*%
%TO.N,GND*%
X59000000Y-148000000D03*
D15*
%TO.P,U22,2,3V3/5V*%
%TO.N,+5V*%
X59000000Y-150540000D03*
%TO.P,U22,3,RSSI*%
%TO.N,Net-(U2-16)*%
X59000000Y-153080000D03*
%TO.P,U22,4,SCLK*%
%TO.N,RSCLK*%
X59000000Y-155620000D03*
%TO.P,U22,5,~{SS}*%
%TO.N,Net-(U2-4)*%
X59000000Y-158160000D03*
%TO.P,U22,6,MOSI*%
%TO.N,RMOSI*%
X59000000Y-160700000D03*
%TD*%
D19*
%TO.P,LS1,1,1*%
%TO.N,Net-(LS1-Pad1)*%
X135200000Y-25000000D03*
D16*
%TO.P,LS1,2,2*%
%TO.N,GND*%
X142800000Y-25000000D03*
%TD*%
D14*
%TO.P,U20,1,GND*%
%TO.N,GND*%
X59000000Y-98000000D03*
D15*
%TO.P,U20,2,3V3/5V*%
%TO.N,+5V*%
X59000000Y-100540000D03*
%TO.P,U20,3,RSSI*%
%TO.N,Net-(U2-18)*%
X59000000Y-103080000D03*
%TO.P,U20,4,SCLK*%
%TO.N,RSCLK*%
X59000000Y-105620000D03*
%TO.P,U20,5,~{SS}*%
%TO.N,Net-(U2-6)*%
X59000000Y-108160000D03*
%TO.P,U20,6,MOSI*%
%TO.N,RMOSI*%
X59000000Y-110700000D03*
%TD*%
D12*
%TO.P,R12,1*%
%TO.N,BLUE*%
X35620000Y-173000000D03*
%TO.P,R12,2*%
%TO.N,Net-(D4-BK)*%
X28000000Y-173000000D03*
%TD*%
%TO.P,R20,1*%
%TO.N,Net-(U19-RSSI)*%
X66380000Y-78000000D03*
%TO.P,R20,2*%
%TO.N,GND*%
X74000000Y-78000000D03*
%TD*%
D10*
%TO.P,QB1,1,D*%
%TO.N,+5V*%
X50460000Y-20000000D03*
D11*
%TO.P,QB1,2,G*%
%TO.N,BLUE SWITCH*%
X51730000Y-20000000D03*
%TO.P,QB1,3,S*%
%TO.N,BLUE*%
X53000000Y-20000000D03*
%TD*%
D14*
%TO.P,U21,1,GND*%
%TO.N,GND*%
X59000000Y-123000000D03*
D15*
%TO.P,U21,2,3V3/5V*%
%TO.N,+5V*%
X59000000Y-125540000D03*
%TO.P,U21,3,RSSI*%
%TO.N,Net-(U2-17)*%
X59000000Y-128080000D03*
%TO.P,U21,4,SCLK*%
%TO.N,RSCLK*%
X59000000Y-130620000D03*
%TO.P,U21,5,~{SS}*%
%TO.N,Net-(U2-5)*%
X59000000Y-133160000D03*
%TO.P,U21,6,MOSI*%
%TO.N,RMOSI*%
X59000000Y-135700000D03*
%TD*%
D14*
%TO.P,U18,1,GND*%
%TO.N,GND*%
X141000000Y-153700000D03*
D15*
%TO.P,U18,2,3V3/5V*%
%TO.N,+5V*%
X141000000Y-151160000D03*
%TO.P,U18,3,RSSI*%
%TO.N,Net-(U18-RSSI)*%
X141000000Y-148620000D03*
%TO.P,U18,4,SCLK*%
%TO.N,RSCLK*%
X141000000Y-146080000D03*
%TO.P,U18,5,~{SS}*%
%TO.N,Net-(U18-~{SS})*%
X141000000Y-143540000D03*
%TO.P,U18,6,MOSI*%
%TO.N,RMOSI*%
X141000000Y-141000000D03*
%TD*%
D12*
%TO.P,R18,1*%
%TO.N,Net-(U2-17)*%
X66380000Y-128000000D03*
%TO.P,R18,2*%
%TO.N,GND*%
X74000000Y-128000000D03*
%TD*%
D13*
%TO.P,U4,1,VCC*%
%TO.N,+5V*%
X73920000Y-169000000D03*
%TO.P,U4,2,RX*%
%TO.N,Net-(U2-DM{slash}24)*%
X76460000Y-169000000D03*
%TO.P,U4,3,TX*%
%TO.N,Net-(U2-DP{slash}25)*%
X79000000Y-169000000D03*
%TO.P,U4,4,GND*%
%TO.N,GND*%
X81540000Y-169000000D03*
%TD*%
D12*
%TO.P,R11,1*%
%TO.N,GREEN*%
X35620000Y-170000000D03*
%TO.P,R11,2*%
%TO.N,Net-(D4-GK)*%
X28000000Y-170000000D03*
%TD*%
D17*
%TO.P,D1,1,A*%
%TO.N,GND*%
X178635000Y-22000000D03*
D18*
%TO.P,D1,2,RK*%
%TO.N,Net-(D1-RK)*%
X179905000Y-22000000D03*
%TO.P,D1,3,GK*%
%TO.N,Net-(D1-GK)*%
X176095000Y-22000000D03*
%TO.P,D1,4,BK*%
%TO.N,Net-(D1-BK)*%
X177365000Y-22000000D03*
%TD*%
D12*
%TO.P,R7,1*%
%TO.N,RED*%
X164000000Y-167000000D03*
%TO.P,R7,2*%
%TO.N,Net-(D3-RK)*%
X171620000Y-167000000D03*
%TD*%
%TO.P,R15,1*%
%TO.N,Net-(U16-RSSI)*%
X134000000Y-99000000D03*
%TO.P,R15,2*%
%TO.N,GND*%
X126380000Y-99000000D03*
%TD*%
%TO.P,R14,1*%
%TO.N,Net-(U17-RSSI)*%
X134000000Y-124000000D03*
%TO.P,R14,2*%
%TO.N,GND*%
X126380000Y-124000000D03*
%TD*%
%TO.P,R9,1*%
%TO.N,BLUE*%
X164000000Y-173000000D03*
%TO.P,R9,2*%
%TO.N,Net-(D3-BK)*%
X171620000Y-173000000D03*
%TD*%
D20*
%TO.N,GND*%
X101000000Y-104301000D03*
X94000000Y-82000000D03*
X95000000Y-123000000D03*
X101000000Y-89000000D03*
X101000000Y-115000000D03*
%TO.N,RMOSI*%
X87000000Y-132000000D03*
X91000000Y-97000000D03*
X99500000Y-97000000D03*
X105000000Y-97000000D03*
X87000000Y-114000000D03*
X84000000Y-111000000D03*
X77000000Y-79000000D03*
X84000000Y-135000000D03*
X87000000Y-97000000D03*
%TO.N,RSCLK*%
X99500000Y-98000000D03*
X105000000Y-98000000D03*
X86000000Y-121000000D03*
X86000000Y-98000000D03*
X115000000Y-98000000D03*
X109000000Y-98000000D03*
X91000000Y-98000000D03*
X116000000Y-91000000D03*
X116000000Y-119000000D03*
X118000000Y-121000000D03*
X117000000Y-96000000D03*
%TO.N,Net-(U1-26)*%
X30000000Y-34000000D03*
%TO.N,Net-(U1-27)*%
X30000000Y-33000000D03*
%TO.N,Net-(U1-17)*%
X54000000Y-66000000D03*
%TO.N,Net-(U1-23{slash}MOSI)*%
X63000000Y-56000000D03*
X66000000Y-59000000D03*
%TO.N,Net-(U1-21{slash}MISO)*%
X56000000Y-52000000D03*
X62000000Y-52000000D03*
%TO.N,Net-(U1-2)*%
X63250000Y-38000000D03*
X53000000Y-38000000D03*
%TO.N,Net-(U1-4)*%
X58000000Y-35000000D03*
X63250000Y-35000000D03*
%TO.N,Net-(U1-15)*%
X63250000Y-41000000D03*
X45000000Y-41000000D03*
%TO.N,Net-(U1-16)*%
X54000000Y-67000000D03*
X103000000Y-145000000D03*
%TO.N,Net-(U2-5)*%
X84000000Y-133000000D03*
%TO.N,Net-(U2-18)*%
X84000000Y-104000000D03*
%TO.N,Net-(U2-17)*%
X84000000Y-115000000D03*
%TO.N,Net-(U2-6)*%
X84000000Y-109000000D03*
X88000000Y-113000000D03*
%TO.N,Net-(U17-~{SS})*%
X115000000Y-125000000D03*
X119000000Y-119000000D03*
%TO.N,Net-(U15-~{SS})*%
X107000000Y-99000000D03*
X115000000Y-88000000D03*
%TO.N,Net-(U18-RSSI)*%
X112000000Y-142000000D03*
%TO.N,Net-(U16-RSSI)*%
X119000000Y-114000000D03*
%TO.N,Net-(U17-RSSI)*%
X119000000Y-128000000D03*
%TO.N,Net-(U15-RSSI)*%
X125000000Y-89000000D03*
X119000000Y-111000000D03*
X124000000Y-98000000D03*
%TO.N,Net-(U16-~{SS})*%
X119000000Y-105000000D03*
X114000000Y-110000000D03*
X121000000Y-94000000D03*
X119000000Y-99000000D03*
%TO.N,Net-(U19-~{SS})*%
X84000000Y-83000000D03*
X89000000Y-88000000D03*
%TO.N,Net-(U18-~{SS})*%
X118000000Y-143000000D03*
%TO.N,Net-(U2-4)*%
X78000000Y-158000000D03*
X89000000Y-139000000D03*
X89000000Y-136000000D03*
X74000000Y-158000000D03*
%TO.N,Net-(U2-16)*%
X84000000Y-118000000D03*
X78000000Y-138000000D03*
X78000000Y-129000000D03*
%TO.N,RED SWITCH*%
X68000000Y-24000000D03*
%TO.N,GREEN*%
X156000000Y-20000000D03*
X145000000Y-170000000D03*
X143000000Y-172000000D03*
%TO.N,GREEN SWITCH*%
X48000000Y-26000000D03*
X48000000Y-19000000D03*
%TO.N,BLUE SWITCH*%
X47000000Y-22000000D03*
X46000000Y-27000000D03*
%TO.N,BLUE*%
X142000000Y-170000000D03*
X155000000Y-21000000D03*
X139000000Y-173000000D03*
X55000000Y-25000000D03*
%TO.N,Net-(LS1-Pad1)*%
X43000000Y-28000000D03*
X73000000Y-21000000D03*
X68000000Y-26000000D03*
X49000000Y-28000000D03*
%TD*%
D21*
%TO.N,GND*%
X101000000Y-89000000D02*
X94000000Y-82000000D01*
X101000000Y-115000000D02*
X101000000Y-117000000D01*
X101000000Y-117000000D02*
X95000000Y-123000000D01*
X101000000Y-104301000D02*
X101000000Y-115000000D01*
X101000000Y-104301000D02*
X101000000Y-89000000D01*
D22*
%TO.N,RMOSI*%
X115000000Y-97000000D02*
X105000000Y-97000000D01*
X87000000Y-132000000D02*
X87000000Y-111000000D01*
X120000000Y-141000000D02*
X117000000Y-138000000D01*
X87000000Y-111000000D02*
X87000000Y-97000000D01*
X117000000Y-115000000D02*
X117000000Y-99000000D01*
X119080000Y-90920000D02*
X115000000Y-95000000D01*
X83700000Y-110700000D02*
X84000000Y-111000000D01*
X59000000Y-110700000D02*
X83700000Y-110700000D01*
X87000000Y-97000000D02*
X87000000Y-89000000D01*
X59000000Y-110700000D02*
X59300000Y-111000000D01*
X87000000Y-147000000D02*
X87000000Y-138000000D01*
X73300000Y-160700000D02*
X87000000Y-147000000D01*
X99500000Y-97000000D02*
X91000000Y-97000000D01*
X117000000Y-99000000D02*
X115000000Y-97000000D01*
X115000000Y-95000000D02*
X115000000Y-97000000D01*
X141000000Y-66000000D02*
X121000000Y-66000000D01*
X83300000Y-135700000D02*
X84000000Y-135000000D01*
X59000000Y-160700000D02*
X73300000Y-160700000D01*
X114000000Y-94000000D02*
X115000000Y-95000000D01*
X121000000Y-66000000D02*
X114000000Y-73000000D01*
X141000000Y-90920000D02*
X119080000Y-90920000D01*
X117000000Y-117000000D02*
X118000000Y-116000000D01*
X118000000Y-116000000D02*
X117000000Y-115000000D01*
X87000000Y-138000000D02*
X87000000Y-137000000D01*
X141000000Y-116000000D02*
X118000000Y-116000000D01*
X117000000Y-138000000D02*
X117000000Y-117000000D01*
X59000000Y-135700000D02*
X83300000Y-135700000D01*
X141000000Y-141000000D02*
X120000000Y-141000000D01*
X92220000Y-138020000D02*
X87020000Y-138020000D01*
X87020000Y-138020000D02*
X87000000Y-138000000D01*
X114000000Y-73000000D02*
X114000000Y-94000000D01*
X87000000Y-89000000D02*
X87000000Y-83150058D01*
X82849942Y-79000000D02*
X77000000Y-79000000D01*
X87000000Y-137000000D02*
X87000000Y-132000000D01*
X87000000Y-83150058D02*
X82849942Y-79000000D01*
%TO.N,RSCLK*%
X59000000Y-130620000D02*
X84380000Y-130620000D01*
X141000000Y-96000000D02*
X117000000Y-96000000D01*
X86000000Y-83000000D02*
X83620000Y-80620000D01*
X116000000Y-75250000D02*
X116000000Y-91000000D01*
X141000000Y-71080000D02*
X120170000Y-71080000D01*
X85620000Y-105620000D02*
X86000000Y-106000000D01*
X86000000Y-106000000D02*
X86000000Y-98000000D01*
X86000000Y-129000000D02*
X86000000Y-106000000D01*
X116000000Y-143000000D02*
X116000000Y-119000000D01*
X83620000Y-80620000D02*
X59000000Y-80620000D01*
X59000000Y-155620000D02*
X76380000Y-155620000D01*
X59000000Y-105620000D02*
X85620000Y-105620000D01*
X86000000Y-98000000D02*
X86000000Y-83000000D01*
X140920000Y-121000000D02*
X118000000Y-121000000D01*
X76380000Y-155620000D02*
X86000000Y-146000000D01*
X116000000Y-99000000D02*
X115000000Y-98000000D01*
X120170000Y-71080000D02*
X116000000Y-75250000D01*
X109000000Y-98000000D02*
X105000000Y-98000000D01*
X119080000Y-146080000D02*
X116000000Y-143000000D01*
X115000000Y-98000000D02*
X109000000Y-98000000D01*
X84380000Y-130620000D02*
X86000000Y-129000000D01*
X86000000Y-146000000D02*
X86000000Y-129000000D01*
X141000000Y-121080000D02*
X140920000Y-121000000D01*
X99500000Y-98000000D02*
X91000000Y-98000000D01*
X116000000Y-119000000D02*
X116000000Y-99000000D01*
X141000000Y-146080000D02*
X119080000Y-146080000D01*
%TO.N,Net-(U1-26)*%
X130000000Y-62000000D02*
X129000000Y-63000000D01*
X18000000Y-46000000D02*
X30000000Y-34000000D01*
X24000000Y-63000000D02*
X18000000Y-57000000D01*
X129000000Y-63000000D02*
X24000000Y-63000000D01*
X166500000Y-40500000D02*
X160000000Y-40500000D01*
X157500000Y-43000000D02*
X132000000Y-43000000D01*
X132000000Y-43000000D02*
X130000000Y-45000000D01*
X130000000Y-45000000D02*
X130000000Y-62000000D01*
X18000000Y-57000000D02*
X18000000Y-46000000D01*
X160000000Y-40500000D02*
X157500000Y-43000000D01*
%TO.N,Net-(U1-25)*%
X128000000Y-60000000D02*
X127000000Y-61000000D01*
X156340000Y-31800000D02*
X149840000Y-31800000D01*
X20000000Y-47000000D02*
X28000000Y-39000000D01*
X128000000Y-42000000D02*
X128000000Y-60000000D01*
X28000000Y-39000000D02*
X37000000Y-39000000D01*
X24000000Y-61000000D02*
X20000000Y-57000000D01*
X146640000Y-35000000D02*
X135000000Y-35000000D01*
X149840000Y-31800000D02*
X146640000Y-35000000D01*
X20000000Y-57000000D02*
X20000000Y-47000000D01*
X135000000Y-35000000D02*
X128000000Y-42000000D01*
X127000000Y-61000000D02*
X24000000Y-61000000D01*
X42460000Y-33540000D02*
X42460000Y-30600000D01*
X37000000Y-39000000D02*
X42460000Y-33540000D01*
%TO.N,Net-(U1-27)*%
X17000000Y-57000000D02*
X17000000Y-46000000D01*
X156340000Y-49000000D02*
X149840000Y-49000000D01*
X130000000Y-64000000D02*
X24000000Y-64000000D01*
X131000000Y-52000000D02*
X131000000Y-63000000D01*
X17000000Y-46000000D02*
X30000000Y-33000000D01*
X131000000Y-63000000D02*
X130000000Y-64000000D01*
X149840000Y-49000000D02*
X134000000Y-49000000D01*
X134000000Y-49000000D02*
X131000000Y-52000000D01*
X24000000Y-64000000D02*
X17000000Y-57000000D01*
%TO.N,Net-(U1-14)*%
X129000000Y-61000000D02*
X128000000Y-62000000D01*
X146180000Y-40500000D02*
X139680000Y-40500000D01*
X24000000Y-62000000D02*
X19000000Y-57000000D01*
X19000000Y-46440000D02*
X34840000Y-30600000D01*
X131500000Y-40500000D02*
X129000000Y-43000000D01*
X139680000Y-40500000D02*
X131500000Y-40500000D01*
X128000000Y-62000000D02*
X24000000Y-62000000D01*
X129000000Y-43000000D02*
X129000000Y-61000000D01*
X19000000Y-57000000D02*
X19000000Y-46440000D01*
D23*
%TO.N,Net-(U1-17)*%
X104000000Y-147260000D02*
X110000000Y-153260000D01*
X54000000Y-66000000D02*
X89000000Y-66000000D01*
X89000000Y-66000000D02*
X104000000Y-81000000D01*
X104000000Y-81000000D02*
X104000000Y-147260000D01*
%TO.N,Net-(U1-23{slash}MOSI)*%
X60240000Y-56000000D02*
X63000000Y-56000000D01*
X76380000Y-32380000D02*
X74100000Y-32380000D01*
X76000000Y-59000000D02*
X79000000Y-56000000D01*
X66000000Y-59000000D02*
X76000000Y-59000000D01*
X79000000Y-56000000D02*
X79000000Y-35000000D01*
X79000000Y-35000000D02*
X76380000Y-32380000D01*
D22*
%TO.N,Net-(U1-21{slash}MISO)*%
X52000000Y-52000000D02*
X56000000Y-52000000D01*
X71460000Y-42540000D02*
X74100000Y-42540000D01*
X50080000Y-56000000D02*
X50080000Y-53920000D01*
X62000000Y-52000000D02*
X71460000Y-42540000D01*
X50080000Y-53920000D02*
X52000000Y-52000000D01*
%TO.N,Net-(U1-2)*%
X71000000Y-38000000D02*
X71540000Y-37460000D01*
X71540000Y-37460000D02*
X74100000Y-37460000D01*
X32300000Y-56000000D02*
X50300000Y-38000000D01*
X63250000Y-38000000D02*
X71000000Y-38000000D01*
X50300000Y-38000000D02*
X53000000Y-38000000D01*
%TO.N,Net-(U1-4)*%
X64000000Y-35000000D02*
X64080000Y-34920000D01*
X63250000Y-35000000D02*
X64000000Y-35000000D01*
X48090000Y-42750000D02*
X50250000Y-42750000D01*
X34840000Y-56000000D02*
X48090000Y-42750000D01*
X50250000Y-42750000D02*
X58000000Y-35000000D01*
X64080000Y-34920000D02*
X74100000Y-34920000D01*
%TO.N,Net-(U1-15)*%
X63250000Y-41000000D02*
X63750000Y-41000000D01*
X44760000Y-41000000D02*
X45000000Y-41000000D01*
X64750000Y-40000000D02*
X74100000Y-40000000D01*
X29760000Y-56000000D02*
X44760000Y-41000000D01*
X63750000Y-41000000D02*
X64750000Y-40000000D01*
%TO.N,Net-(U1-19{slash}SCK)*%
X65000000Y-57000000D02*
X63000000Y-59000000D01*
X65000000Y-52000000D02*
X65000000Y-57000000D01*
X50540000Y-59000000D02*
X47540000Y-56000000D01*
X71920000Y-45080000D02*
X65000000Y-52000000D01*
X63000000Y-59000000D02*
X50540000Y-59000000D01*
X74100000Y-45080000D02*
X71920000Y-45080000D01*
D23*
%TO.N,Net-(U1-16)*%
X88867214Y-67000000D02*
X54000000Y-67000000D01*
X103000000Y-145000000D02*
X103000000Y-81132786D01*
X103000000Y-81132786D02*
X88867214Y-67000000D01*
D22*
%TO.N,Net-(U2-5)*%
X59000000Y-133160000D02*
X83840000Y-133160000D01*
X83840000Y-133160000D02*
X84000000Y-133000000D01*
D24*
%TO.N,Net-(U2-DM{slash}24)*%
X89280000Y-150720000D02*
X92220000Y-150720000D01*
X76460000Y-163540000D02*
X89280000Y-150720000D01*
X76460000Y-169000000D02*
X76460000Y-163540000D01*
D23*
%TO.N,Net-(U2-18)*%
X59000000Y-103080000D02*
X66300000Y-103080000D01*
X74000000Y-99000000D02*
X79000000Y-99000000D01*
X79000000Y-99000000D02*
X84000000Y-104000000D01*
X66300000Y-103080000D02*
X66380000Y-103000000D01*
X66380000Y-103000000D02*
X70380000Y-99000000D01*
X70380000Y-99000000D02*
X74000000Y-99000000D01*
D24*
%TO.N,Net-(U2-DP{slash}25)*%
X79000000Y-163000000D02*
X79000000Y-169000000D01*
X92220000Y-153260000D02*
X88740000Y-153260000D01*
X88740000Y-153260000D02*
X79000000Y-163000000D01*
D23*
%TO.N,Net-(U2-17)*%
X74000000Y-115000000D02*
X77000000Y-115000000D01*
X66300000Y-128080000D02*
X66380000Y-128000000D01*
X66380000Y-128000000D02*
X66380000Y-122620000D01*
X77000000Y-115000000D02*
X84000000Y-115000000D01*
X59000000Y-128080000D02*
X66300000Y-128080000D01*
X67000000Y-122000000D02*
X74000000Y-115000000D01*
X66380000Y-122620000D02*
X67000000Y-122000000D01*
D22*
%TO.N,Net-(U2-6)*%
X83160000Y-108160000D02*
X84000000Y-109000000D01*
X89860000Y-127860000D02*
X92220000Y-127860000D01*
X88000000Y-126000000D02*
X89860000Y-127860000D01*
X59000000Y-108160000D02*
X83160000Y-108160000D01*
X88000000Y-113000000D02*
X88000000Y-126000000D01*
%TO.N,Net-(U17-~{SS})*%
X119460000Y-118540000D02*
X119000000Y-119000000D01*
X113440000Y-140560000D02*
X110000000Y-140560000D01*
X141000000Y-118540000D02*
X119460000Y-118540000D01*
X115000000Y-139000000D02*
X113440000Y-140560000D01*
X115000000Y-125000000D02*
X115000000Y-139000000D01*
%TO.N,Net-(U15-~{SS})*%
X113000000Y-132000000D02*
X112060000Y-132940000D01*
X141000000Y-68540000D02*
X120460000Y-68540000D01*
X113000000Y-104000000D02*
X113000000Y-132000000D01*
X115000000Y-74000000D02*
X115000000Y-88000000D01*
X107000000Y-99000000D02*
X110000000Y-102000000D01*
X120460000Y-68540000D02*
X115000000Y-74000000D01*
X111000000Y-102000000D02*
X113000000Y-104000000D01*
X110000000Y-102000000D02*
X111000000Y-102000000D01*
X112060000Y-132940000D02*
X110000000Y-132940000D01*
D23*
%TO.N,Net-(U18-RSSI)*%
X134380000Y-148620000D02*
X134000000Y-149000000D01*
X112000000Y-150000000D02*
X112000000Y-142000000D01*
X129000000Y-154000000D02*
X127000000Y-154000000D01*
X141000000Y-148620000D02*
X134380000Y-148620000D01*
X127000000Y-154000000D02*
X116000000Y-154000000D01*
X116000000Y-154000000D02*
X112000000Y-150000000D01*
X134000000Y-149000000D02*
X129000000Y-154000000D01*
%TO.N,Net-(U19-RSSI)*%
X70380000Y-74000000D02*
X80000000Y-74000000D01*
X90000000Y-105320000D02*
X92220000Y-107540000D01*
X66300000Y-78080000D02*
X66380000Y-78000000D01*
X66380000Y-78000000D02*
X70380000Y-74000000D01*
X59000000Y-78080000D02*
X66300000Y-78080000D01*
X80000000Y-74000000D02*
X90000000Y-84000000D01*
X90000000Y-84000000D02*
X90000000Y-105320000D01*
%TO.N,Net-(U16-RSSI)*%
X134000000Y-99000000D02*
X119000000Y-114000000D01*
X141000000Y-98540000D02*
X134460000Y-98540000D01*
X134460000Y-98540000D02*
X134000000Y-99000000D01*
%TO.N,Net-(U17-RSSI)*%
X134000000Y-124000000D02*
X130000000Y-128000000D01*
X141000000Y-123620000D02*
X134380000Y-123620000D01*
X134380000Y-123620000D02*
X134000000Y-124000000D01*
X130000000Y-128000000D02*
X129000000Y-128000000D01*
X129000000Y-128000000D02*
X119000000Y-128000000D01*
%TO.N,Net-(U15-RSSI)*%
X141000000Y-73620000D02*
X134380000Y-73620000D01*
X134380000Y-73620000D02*
X134000000Y-74000000D01*
X124000000Y-106000000D02*
X119000000Y-111000000D01*
X124000000Y-98000000D02*
X124000000Y-106000000D01*
X134000000Y-74000000D02*
X134000000Y-80000000D01*
X134000000Y-80000000D02*
X125000000Y-89000000D01*
D22*
%TO.N,Net-(U16-~{SS})*%
X121540000Y-93460000D02*
X121000000Y-94000000D01*
X119000000Y-99000000D02*
X119000000Y-105000000D01*
X112980000Y-138020000D02*
X110000000Y-138020000D01*
X141000000Y-93460000D02*
X121540000Y-93460000D01*
X114000000Y-137000000D02*
X112980000Y-138020000D01*
X114000000Y-110000000D02*
X114000000Y-137000000D01*
%TO.N,Net-(U19-~{SS})*%
X59000000Y-83160000D02*
X83840000Y-83160000D01*
X89000000Y-124000000D02*
X90320000Y-125320000D01*
X90320000Y-125320000D02*
X92220000Y-125320000D01*
X89000000Y-88000000D02*
X89000000Y-124000000D01*
X83840000Y-83160000D02*
X84000000Y-83000000D01*
%TO.N,Net-(U18-~{SS})*%
X141000000Y-143540000D02*
X118540000Y-143540000D01*
X118540000Y-143540000D02*
X118000000Y-143000000D01*
%TO.N,Net-(U2-4)*%
X89160000Y-136000000D02*
X92220000Y-132940000D01*
X59000000Y-158160000D02*
X73840000Y-158160000D01*
X73840000Y-158160000D02*
X74000000Y-158000000D01*
X89000000Y-147000000D02*
X89000000Y-139000000D01*
X89000000Y-136000000D02*
X89160000Y-136000000D01*
X78000000Y-158000000D02*
X89000000Y-147000000D01*
D23*
%TO.N,Net-(U2-16)*%
X68000000Y-148000000D02*
X78000000Y-138000000D01*
X59000000Y-153080000D02*
X66300000Y-153080000D01*
X78000000Y-124000000D02*
X84000000Y-118000000D01*
X66380000Y-153000000D02*
X66380000Y-149620000D01*
X66380000Y-149620000D02*
X68000000Y-148000000D01*
X66300000Y-153080000D02*
X66380000Y-153000000D01*
X78000000Y-129000000D02*
X78000000Y-124000000D01*
%TO.N,Net-(D1-GK)*%
X171810000Y-22000000D02*
X176095000Y-22000000D01*
%TO.N,Net-(D1-RK)*%
X171810000Y-19000000D02*
X178205000Y-19000000D01*
X179905000Y-20700000D02*
X179905000Y-22000000D01*
X178205000Y-19000000D02*
X179905000Y-20700000D01*
%TO.N,Net-(D1-BK)*%
X175000000Y-25000000D02*
X177365000Y-22635000D01*
X171810000Y-25000000D02*
X175000000Y-25000000D01*
D22*
X177365000Y-22635000D02*
X177365000Y-22000000D01*
D23*
%TO.N,Net-(D2-RK)*%
X26540000Y-19000000D02*
X23540000Y-22000000D01*
X28380000Y-19000000D02*
X26540000Y-19000000D01*
%TO.N,Net-(D2-GK)*%
X26000000Y-22000000D02*
X24000000Y-24000000D01*
X24000000Y-24000000D02*
X20430000Y-24000000D01*
X28380000Y-22000000D02*
X26000000Y-22000000D01*
X20430000Y-24000000D02*
X19730000Y-23300000D01*
X19730000Y-23300000D02*
X19730000Y-22000000D01*
%TO.N,Net-(D2-BK)*%
X19000000Y-20000000D02*
X20000000Y-20000000D01*
X28380000Y-25000000D02*
X20000000Y-25000000D01*
X18000000Y-21000000D02*
X19000000Y-20000000D01*
X21000000Y-21000000D02*
X21000000Y-22000000D01*
X18000000Y-23000000D02*
X18000000Y-21000000D01*
X20000000Y-20000000D02*
X21000000Y-21000000D01*
X20000000Y-25000000D02*
X18000000Y-23000000D01*
%TO.N,Net-(D3-RK)*%
X178500000Y-167000000D02*
X180000000Y-168500000D01*
X171620000Y-167000000D02*
X178500000Y-167000000D01*
X180000000Y-168500000D02*
X180000000Y-170000000D01*
%TO.N,Net-(D3-BK)*%
X177460000Y-171500000D02*
X177460000Y-170000000D01*
X171620000Y-173000000D02*
X175960000Y-173000000D01*
X175960000Y-173000000D02*
X177460000Y-171500000D01*
%TO.N,Net-(D3-GK)*%
X171620000Y-170000000D02*
X176190000Y-170000000D01*
%TO.N,Net-(D4-RK)*%
X24000000Y-169000000D02*
X24000000Y-170000000D01*
X26000000Y-167000000D02*
X24000000Y-169000000D01*
X28000000Y-167000000D02*
X26000000Y-167000000D01*
%TO.N,Net-(D4-BK)*%
X21460000Y-168460000D02*
X21460000Y-170000000D01*
X19000000Y-168000000D02*
X21000000Y-168000000D01*
X20000000Y-173000000D02*
X18000000Y-171000000D01*
X28000000Y-173000000D02*
X20000000Y-173000000D01*
X18000000Y-171000000D02*
X18000000Y-169000000D01*
X21000000Y-168000000D02*
X21460000Y-168460000D01*
X18000000Y-169000000D02*
X19000000Y-168000000D01*
%TO.N,Net-(D4-GK)*%
X28000000Y-170000000D02*
X26000000Y-172000000D01*
X20190000Y-171500000D02*
X20190000Y-170000000D01*
X20690000Y-172000000D02*
X20190000Y-171500000D01*
X26000000Y-172000000D02*
X20690000Y-172000000D01*
%TO.N,RED*%
X168000000Y-29000000D02*
X173000000Y-34000000D01*
X65000000Y-18000000D02*
X66000000Y-17000000D01*
X36000000Y-19000000D02*
X44000000Y-19000000D01*
X173000000Y-156000000D02*
X165000000Y-164000000D01*
X157000000Y-171000000D02*
X161000000Y-167000000D01*
X146000000Y-171000000D02*
X157000000Y-171000000D01*
X35620000Y-167000000D02*
X40250000Y-167000000D01*
X46000000Y-17000000D02*
X64000000Y-17000000D01*
X173000000Y-34000000D02*
X173000000Y-156000000D01*
X155000000Y-17000000D02*
X157000000Y-19000000D01*
X66000000Y-17000000D02*
X155000000Y-17000000D01*
X161000000Y-29000000D02*
X168000000Y-29000000D01*
X40250000Y-167000000D02*
X44250000Y-171000000D01*
X165000000Y-164000000D02*
X153750000Y-164000000D01*
X153750000Y-164000000D02*
X146750000Y-171000000D01*
X44250000Y-171000000D02*
X146000000Y-171000000D01*
X64000000Y-17000000D02*
X65000000Y-18000000D01*
X44000000Y-19000000D02*
X46000000Y-17000000D01*
X146750000Y-171000000D02*
X146000000Y-171000000D01*
X65000000Y-18000000D02*
X65000000Y-20000000D01*
X157000000Y-19000000D02*
X157000000Y-25000000D01*
X157000000Y-25000000D02*
X161000000Y-29000000D01*
X161000000Y-167000000D02*
X164000000Y-167000000D01*
X157000000Y-19000000D02*
X164190000Y-19000000D01*
D22*
%TO.N,RED SWITCH*%
X68000000Y-24000000D02*
X69000000Y-24000000D01*
X70000000Y-25000000D02*
X70000000Y-27000000D01*
X69000000Y-24000000D02*
X70000000Y-25000000D01*
X70000000Y-27000000D02*
X57700000Y-39300000D01*
X57700000Y-39300000D02*
X57700000Y-56000000D01*
D23*
%TO.N,GREEN*%
X172000000Y-35000000D02*
X172000000Y-155000000D01*
X143000000Y-172000000D02*
X158750000Y-172000000D01*
X152000000Y-163000000D02*
X145000000Y-170000000D01*
X43000000Y-172000000D02*
X143000000Y-172000000D01*
X156000000Y-20000000D02*
X156000000Y-26000000D01*
X158750000Y-172000000D02*
X160750000Y-170000000D01*
X154000000Y-18000000D02*
X156000000Y-20000000D01*
X60000000Y-23000000D02*
X65000000Y-23000000D01*
X58000000Y-23000000D02*
X59000000Y-22000000D01*
X59000000Y-22000000D02*
X59000000Y-20000000D01*
X70000000Y-18000000D02*
X154000000Y-18000000D01*
X41000000Y-170000000D02*
X43000000Y-172000000D01*
X156000000Y-26000000D02*
X160000000Y-30000000D01*
X172000000Y-155000000D02*
X164000000Y-163000000D01*
X65000000Y-23000000D02*
X70000000Y-18000000D01*
X160750000Y-170000000D02*
X164000000Y-170000000D01*
X164000000Y-163000000D02*
X152000000Y-163000000D01*
X35620000Y-170000000D02*
X41000000Y-170000000D01*
X59000000Y-22000000D02*
X60000000Y-23000000D01*
X45000000Y-22000000D02*
X46000000Y-23000000D01*
X167000000Y-30000000D02*
X172000000Y-35000000D01*
X160000000Y-30000000D02*
X167000000Y-30000000D01*
X46000000Y-23000000D02*
X58000000Y-23000000D01*
X36000000Y-22000000D02*
X45000000Y-22000000D01*
D22*
%TO.N,GREEN SWITCH*%
X57730000Y-18850000D02*
X57730000Y-20000000D01*
X48000000Y-19000000D02*
X48752000Y-18248000D01*
X47540000Y-26460000D02*
X48000000Y-26000000D01*
X48752000Y-18248000D02*
X57128000Y-18248000D01*
X47540000Y-30600000D02*
X47540000Y-26460000D01*
X57128000Y-18248000D02*
X57730000Y-18850000D01*
%TO.N,BLUE SWITCH*%
X47000000Y-21383000D02*
X49534000Y-18849000D01*
X47000000Y-22000000D02*
X47000000Y-21383000D01*
X45000000Y-30600000D02*
X45000000Y-28000000D01*
X51309000Y-18849000D02*
X51730000Y-19270000D01*
X45000000Y-28000000D02*
X46000000Y-27000000D01*
X49534000Y-18849000D02*
X51309000Y-18849000D01*
X51730000Y-19270000D02*
X51730000Y-20000000D01*
D23*
%TO.N,BLUE*%
X36000000Y-25000000D02*
X55000000Y-25000000D01*
X150000000Y-162000000D02*
X149000000Y-163000000D01*
X159000000Y-31000000D02*
X166000000Y-31000000D01*
X55000000Y-25000000D02*
X65000000Y-25000000D01*
X163000000Y-162000000D02*
X150000000Y-162000000D01*
X153000000Y-19000000D02*
X155000000Y-21000000D01*
X139000000Y-173000000D02*
X164000000Y-173000000D01*
X65000000Y-25000000D02*
X71000000Y-19000000D01*
X155000000Y-26000000D02*
X155000000Y-27000000D01*
X35620000Y-173000000D02*
X139000000Y-173000000D01*
X149000000Y-163000000D02*
X142000000Y-170000000D01*
X166000000Y-31000000D02*
X171000000Y-36000000D01*
X155000000Y-27000000D02*
X159000000Y-31000000D01*
X155000000Y-21000000D02*
X155000000Y-26000000D01*
X171000000Y-36000000D02*
X171000000Y-154000000D01*
X71000000Y-19000000D02*
X153000000Y-19000000D01*
X171000000Y-154000000D02*
X163000000Y-162000000D01*
D22*
%TO.N,Net-(LS1-Pad1)*%
X49000000Y-28000000D02*
X66000000Y-28000000D01*
X73000000Y-21000000D02*
X131200000Y-21000000D01*
X131200000Y-21000000D02*
X135200000Y-25000000D01*
X66000000Y-28000000D02*
X68000000Y-26000000D01*
X29760000Y-30600000D02*
X32360000Y-28000000D01*
X32360000Y-28000000D02*
X43000000Y-28000000D01*
%TD*%
M02*
