M48
; DRILL file {KiCad 9.0.0} date 2026-01-17T10:34:57+0000
; FORMAT={-:-/ absolute / metric / decimal}
; #@! TF.CreationDate,2026-01-17T10:34:57+00:00
; #@! TF.GenerationSoftware,Kicad,Pcbnew,9.0.0
; #@! TF.FileFunction,NonPlated,1,2,NPTH
FMAT,2
METRIC
; #@! TA.AperFunction,NonPlated,NPTH,ComponentDrill
T1C3.200
%
G90
G05
T1
X98.0Y-32.0
X98.0Y-40.0
X98.0Y-58.98
X98.0Y-66.98
X98.0Y-87.0
X98.0Y-95.0
X98.0Y-117.0
X98.0Y-125.0
X100.0Y-20.0
X100.0Y-145.0
X215.0Y-20.0
X215.0Y-145.0
X217.0Y-40.0
X217.0Y-48.0
X217.0Y-66.98
X217.0Y-74.98
X217.0Y-95.0
X217.0Y-103.0
X217.0Y-125.0
X217.0Y-133.0
M30
